<?xml version="1.0" encoding="UTF-8" standalone="no"?>
<svg
   xmlns:dc="http://purl.org/dc/elements/1.1/"
   xmlns:cc="http://creativecommons.org/ns#"
   xmlns:rdf="http://www.w3.org/1999/02/22-rdf-syntax-ns#"
   xmlns:svg="http://www.w3.org/2000/svg"
   xmlns="http://www.w3.org/2000/svg"
   id="svg4869"
   version="1.1"
   viewBox="0 0 23.812235 8.1735086"
   height="100%"
   width="100%">
  <defs
     id="defs4863" />
  <metadata
     id="metadata4866">
    <rdf:RDF>
      <cc:Work
         rdf:about="">
        <dc:format>image/svg+xml</dc:format>
        <dc:type
           rdf:resource="http://purl.org/dc/dcmitype/StillImage" />
        <dc:title></dc:title>
      </cc:Work>
    </rdf:RDF>
  </metadata>
  <g
     transform="translate(-86.36769,-98.633485)"
     id="layer1">
    <rect
       y="99.180061"
       x="87.25058"
       height="6.9253407"
       width="22.369555"
       id="rect5885"
       style="opacity:1;fill:#fffff5;fill-opacity:1;stroke:#000000;stroke-width:0;stroke-linejoin:round;stroke-miterlimit:4;stroke-dasharray:none;stroke-dashoffset:0.4183937;stroke-opacity:1" />
    <g
       id="g222"
       transform="matrix(0.26087121,0,0,0.25485012,85.263786,89.994437)">
      <path
         id="path2"
         d="m 39.676,56.633 h 2.771 c 0.126,0 0.228,-0.103 0.228,-0.228 v -2.771 c 0,-0.126 -0.103,-0.228 -0.228,-0.228 h -2.771 c -0.126,0 -0.228,0.103 -0.228,0.228 v 2.771 c -10e-4,0.125 0.102,0.228 0.228,0.228 z"
         style="fill:none" />
      <path
         id="path4"
         d="M 48.318,52.521 V 49.75 c 0,-0.126 -0.103,-0.228 -0.228,-0.228 h -2.771 c -0.126,0 -0.228,0.103 -0.228,0.228 v 2.771 c 0,0.126 0.103,0.228 0.228,0.228 h 2.771 c 0.125,0 0.228,-0.102 0.228,-0.228 z"
         style="fill:none" />
      <path
         id="path6"
         d="M 44.423,52.521 V 49.75 c 0,-0.126 -0.103,-0.228 -0.228,-0.228 h -2.771 c -0.126,0 -0.228,0.103 -0.228,0.228 v 2.771 c 0,0.126 0.103,0.228 0.228,0.228 h 2.771 c 0.125,0 0.228,-0.102 0.228,-0.228 z"
         style="fill:none" />
      <path
         id="path8"
         d="m 43.597,56.633 h 2.771 c 0.126,0 0.228,-0.103 0.228,-0.228 v -2.771 c 0,-0.126 -0.103,-0.228 -0.228,-0.228 h -2.771 c -0.126,0 -0.228,0.103 -0.228,0.228 v 2.771 c -10e-4,0.125 0.102,0.228 0.228,0.228 z"
         style="fill:none" />
      <path
         id="path10"
         d="m 49.214,52.749 h 2.771 c 0.126,0 0.228,-0.103 0.228,-0.228 V 49.75 c 0,-0.126 -0.103,-0.228 -0.228,-0.228 h -2.771 c -0.126,0 -0.228,0.103 -0.228,0.228 v 2.771 c 0,0.126 0.103,0.228 0.228,0.228 z"
         style="fill:none" />
      <path
         id="path12"
         d="m 52.075,44.964 c 0.126,0 0.228,-0.103 0.228,-0.228 v -2.771 c 0,-0.126 -0.103,-0.228 -0.228,-0.228 h -2.771 c -0.126,0 -0.228,0.103 -0.228,0.228 v 2.771 c 0,0.126 0.103,0.228 0.228,0.228 z"
         style="fill:none" />
      <path
         id="path14"
         d="m 50.952,48.638 v -2.771 c 0,-0.126 -0.103,-0.228 -0.228,-0.228 h -2.771 c -0.126,0 -0.228,0.103 -0.228,0.228 v 2.771 c 0,0.126 0.103,0.228 0.228,0.228 h 2.771 c 0.125,0 0.228,-0.103 0.228,-0.228 z"
         style="fill:none" />
      <path
         id="path16"
         d="m 43.866,45.867 v 2.771 c 0,0.126 0.103,0.228 0.228,0.228 h 2.771 c 0.126,0 0.228,-0.103 0.228,-0.228 v -2.771 c 0,-0.126 -0.103,-0.228 -0.228,-0.228 h -2.771 c -0.125,0 -0.228,0.102 -0.228,0.228 z"
         style="fill:none" />
      <path
         id="path18"
         d="m 40.008,45.867 v 2.771 c 0,0.126 0.103,0.228 0.228,0.228 h 2.771 c 0.126,0 0.228,-0.103 0.228,-0.228 v -2.771 c 0,-0.126 -0.103,-0.228 -0.228,-0.228 h -2.771 c -0.126,0 -0.228,0.102 -0.228,0.228 z"
         style="fill:none" />
      <path
         id="path20"
         d="m 35.754,56.633 h 2.771 c 0.126,0 0.228,-0.103 0.228,-0.228 v -2.771 c 0,-0.126 -0.103,-0.228 -0.228,-0.228 h -2.771 c -0.126,0 -0.228,0.103 -0.228,0.228 v 2.771 c 0,0.125 0.103,0.228 0.228,0.228 z"
         style="fill:none" />
      <path
         id="path22"
         d="m 54.81,48.638 v -2.771 c 0,-0.126 -0.103,-0.228 -0.228,-0.228 h -2.771 c -0.126,0 -0.228,0.103 -0.228,0.228 v 2.771 c 0,0.126 0.103,0.228 0.228,0.228 h 2.771 c 0.125,0 0.228,-0.103 0.228,-0.228 z"
         style="fill:none" />
      <path
         id="path24"
         d="M 40.527,52.521 V 49.75 c 0,-0.126 -0.103,-0.228 -0.228,-0.228 h -2.771 c -0.126,0 -0.228,0.103 -0.228,0.228 v 2.771 c 0,0.126 0.103,0.228 0.228,0.228 h 2.771 c 0.125,0 0.228,-0.102 0.228,-0.228 z"
         style="fill:none" />
      <path
         id="path26"
         d="m 39.148,48.866 c 0.126,0 0.228,-0.103 0.228,-0.228 v -2.771 c 0,-0.126 -0.103,-0.228 -0.228,-0.228 h -2.771 c -0.126,0 -0.228,0.103 -0.228,0.228 v 2.771 c 0,0.126 0.103,0.228 0.228,0.228 z"
         style="fill:none" />
      <path
         id="path28"
         d="m 48.306,44.964 c 0.126,0 0.228,-0.103 0.228,-0.228 v -2.771 c 0,-0.126 -0.103,-0.228 -0.228,-0.228 h -2.771 c -0.126,0 -0.228,0.103 -0.228,0.228 v 2.771 c 0,0.126 0.103,0.228 0.228,0.228 z"
         style="fill:none" />
      <path
         id="path30"
         d="m 44.536,41.736 h -2.771 c -0.126,0 -0.228,0.103 -0.228,0.228 v 2.771 c 0,0.126 0.103,0.228 0.228,0.228 h 2.771 c 0.126,0 0.228,-0.103 0.228,-0.228 v -2.771 c 10e-4,-0.125 -0.102,-0.228 -0.228,-0.228 z"
         style="fill:none" />
      <path
         id="path32"
         d="m 30.713,40.091 h 2.771 c 0.126,0 0.228,-0.103 0.228,-0.228 v -2.771 c 0,-0.126 -0.103,-0.228 -0.228,-0.228 h -2.771 c -0.126,0 -0.228,0.103 -0.228,0.228 v 2.771 c 0,0.125 0.102,0.228 0.228,0.228 z"
         style="fill:none" />
      <path
         id="path34"
         d="m 34.906,40.091 h 2.771 c 0.126,0 0.228,-0.103 0.228,-0.228 v -2.771 c 0,-0.126 -0.103,-0.228 -0.228,-0.228 h -2.771 c -0.126,0 -0.228,0.103 -0.228,0.228 v 2.771 c 0,0.125 0.102,0.228 0.228,0.228 z"
         style="fill:none" />
      <path
         id="path36"
         d="m 34.228,44.964 h 2.771 c 0.126,0 0.228,-0.103 0.228,-0.228 v -2.771 c 0,-0.126 -0.103,-0.228 -0.228,-0.228 H 34.228 C 34.102,41.737 34,41.84 34,41.965 v 2.771 c -10e-4,0.125 0.102,0.228 0.228,0.228 z"
         style="fill:none" />
      <path
         id="path38"
         d="m 30.459,44.964 h 2.771 c 0.126,0 0.228,-0.103 0.228,-0.228 v -2.771 c 0,-0.126 -0.103,-0.228 -0.228,-0.228 h -2.771 c -0.126,0 -0.228,0.103 -0.228,0.228 v 2.771 c -0.001,0.125 0.102,0.228 0.228,0.228 z"
         style="fill:none" />
      <path
         id="path40"
         d="m 26.437,40.091 h 2.771 c 0.126,0 0.228,-0.103 0.228,-0.228 v -2.771 c 0,-0.126 -0.103,-0.228 -0.228,-0.228 h -2.771 c -0.126,0 -0.228,0.103 -0.228,0.228 v 2.771 c 0,0.125 0.103,0.228 0.228,0.228 z"
         style="fill:none" />
      <path
         id="path42"
         d="m 26.461,41.965 v 2.771 c 0,0.126 0.103,0.228 0.228,0.228 h 2.771 c 0.126,0 0.228,-0.103 0.228,-0.228 v -2.771 c 0,-0.126 -0.103,-0.228 -0.228,-0.228 h -2.77 c -0.126,-0.001 -0.229,0.102 -0.229,0.228 z"
         style="fill:none" />
      <path
         id="path44"
         d="m 39.099,40.091 h 2.771 c 0.126,0 0.228,-0.103 0.228,-0.228 v -2.771 c 0,-0.126 -0.103,-0.228 -0.228,-0.228 h -2.771 c -0.126,0 -0.228,0.103 -0.228,0.228 v 2.771 c 0,0.125 0.102,0.228 0.228,0.228 z"
         style="fill:none" />
      <path
         id="path46"
         d="m 37.768,41.965 v 2.771 c 0,0.126 0.103,0.228 0.228,0.228 h 2.771 c 0.126,0 0.228,-0.103 0.228,-0.228 v -2.771 c 0,-0.126 -0.103,-0.228 -0.228,-0.228 h -2.771 c -0.125,-0.001 -0.228,0.102 -0.228,0.228 z"
         style="fill:none" />
      <path
         id="path48"
         d="m 47.568,40.091 h 2.771 c 0.126,0 0.228,-0.103 0.228,-0.228 v -2.771 c 0,-0.126 -0.103,-0.228 -0.228,-0.228 h -2.771 c -0.126,0 -0.228,0.103 -0.228,0.228 v 2.771 c -0.001,0.125 0.102,0.228 0.228,0.228 z"
         style="fill:none" />
      <path
         id="path50"
         d="m 55.844,41.736 h -2.771 c -0.126,0 -0.228,0.103 -0.228,0.228 v 2.771 c 0,0.126 0.103,0.228 0.228,0.228 h 2.771 c 0.126,0 0.228,-0.103 0.228,-0.228 v -2.771 c 0,-0.125 -0.103,-0.228 -0.228,-0.228 z"
         style="fill:none" />
      <path
         id="path52"
         d="m 51.761,40.091 h 2.771 c 0.126,0 0.228,-0.103 0.228,-0.228 v -2.771 c 0,-0.126 -0.103,-0.228 -0.228,-0.228 h -2.771 c -0.126,0 -0.228,0.103 -0.228,0.228 v 2.771 c -0.001,0.125 0.102,0.228 0.228,0.228 z"
         style="fill:none" />
      <path
         id="path54"
         d="m 53.11,52.749 h 2.771 c 0.126,0 0.228,-0.103 0.228,-0.228 V 49.75 c 0,-0.126 -0.103,-0.228 -0.228,-0.228 H 53.11 c -0.126,0 -0.228,0.103 -0.228,0.228 v 2.771 c -10e-4,0.126 0.102,0.228 0.228,0.228 z"
         style="fill:none" />
      <path
         id="path56"
         d="m 43.292,40.091 h 2.771 c 0.126,0 0.228,-0.103 0.228,-0.228 v -2.771 c 0,-0.126 -0.103,-0.228 -0.228,-0.228 h -2.771 c -0.126,0 -0.228,0.103 -0.228,0.228 v 2.771 c 0,0.125 0.102,0.228 0.228,0.228 z"
         style="fill:none" />
      <path
         id="path58"
         d="m 16.148,56.633 h 2.771 c 0.126,0 0.228,-0.103 0.228,-0.228 v -2.771 c 0,-0.126 -0.103,-0.228 -0.228,-0.228 h -2.771 c -0.126,0 -0.228,0.103 -0.228,0.228 v 2.771 c -10e-4,0.125 0.102,0.228 0.228,0.228 z"
         style="fill:none" />
      <path
         id="path60"
         d="m 56.777,49.75 v 2.771 c 0,0.126 0.103,0.228 0.228,0.228 h 2.066 c 0.126,0 0.331,0 0.457,0 h 0.248 c 0.126,0 0.228,-0.103 0.228,-0.228 V 49.75 c 0,-0.126 -0.103,-0.228 -0.228,-0.228 h -0.248 c -0.126,0 -0.331,0 -0.457,0 h -2.066 c -0.126,0 -0.228,0.103 -0.228,0.228 z"
         style="fill:none" />
      <path
         id="path62"
         d="m 18.153,41.736 h -2.771 c -0.126,0 -0.228,0.103 -0.228,0.228 v 2.771 c 0,0.126 0.103,0.228 0.228,0.228 h 2.771 c 0.126,0 0.228,-0.103 0.228,-0.228 v -2.771 c 0.001,-0.125 -0.102,-0.228 -0.228,-0.228 z"
         style="fill:none" />
      <path
         id="path64"
         d="m 58.44,45.639 h -2.771 c -0.126,0 -0.228,0.103 -0.228,0.228 v 2.771 c 0,0.126 0.103,0.228 0.228,0.228 h 2.771 c 0.126,0 0.228,-0.103 0.228,-0.228 v -2.771 c 10e-4,-0.126 -0.102,-0.228 -0.228,-0.228 z"
         style="fill:none" />
      <path
         id="path66"
         d="m 12.999,45.867 v 2.771 c 0,0.126 0.103,0.228 0.228,0.228 h 2.771 c 0.126,0 0.228,-0.103 0.228,-0.228 v -2.771 c 0,-0.126 -0.103,-0.228 -0.228,-0.228 h -2.771 c -0.125,0 -0.228,0.102 -0.228,0.228 z"
         style="fill:none" />
      <path
         id="path68"
         d="m 16.857,45.867 v 2.771 c 0,0.126 0.103,0.228 0.228,0.228 h 2.771 c 0.126,0 0.228,-0.103 0.228,-0.228 v -2.771 c 0,-0.126 -0.103,-0.228 -0.228,-0.228 h -2.771 c -0.125,0 -0.228,0.102 -0.228,0.228 z"
         style="fill:none" />
      <path
         id="path70"
         d="m 55.954,40.091 h 2.771 c 0.126,0 0.228,-0.103 0.228,-0.228 v -2.771 c 0,-0.126 -0.103,-0.228 -0.228,-0.228 h -2.771 c -0.126,0 -0.228,0.103 -0.228,0.228 v 2.771 c -10e-4,0.125 0.102,0.228 0.228,0.228 z"
         style="fill:none" />
      <path
         id="path72"
         d="m 77.821,44.964 h 2.771 c 0.126,0 0.228,-0.103 0.228,-0.228 v -2.771 c 0,-0.126 -0.103,-0.228 -0.228,-0.228 h -2.771 c -0.126,0 -0.228,0.103 -0.228,0.228 v 2.771 c -0.001,0.125 0.102,0.228 0.228,0.228 z"
         style="fill:none" />
      <path
         id="path74"
         d="m 77.821,56.671 h 2.771 c 0.126,0 0.228,-0.103 0.228,-0.228 v -2.771 c 0,-0.126 -0.103,-0.228 -0.228,-0.228 h -2.771 c -0.126,0 -0.228,0.103 -0.228,0.228 v 2.771 c -0.001,0.125 0.102,0.228 0.228,0.228 z"
         style="fill:none" />
      <path
         id="path76"
         d="m 14.156,52.749 h 2.771 c 0.126,0 0.228,-0.103 0.228,-0.228 V 49.75 c 0,-0.126 -0.103,-0.228 -0.228,-0.228 h -2.771 c -0.126,0 -0.228,0.103 -0.228,0.228 v 2.771 c -0.001,0.126 0.102,0.228 0.228,0.228 z"
         style="fill:none" />
      <circle
         id="circle78"
         r="0.99900001"
         cy="37.98"
         cx="80.989998"
         style="fill:none" />
      <path
         id="path80"
         d="m 77.821,52.768 h 2.771 c 0.126,0 0.228,-0.103 0.228,-0.228 v -2.771 c 0,-0.126 -0.103,-0.228 -0.228,-0.228 h -2.771 c -0.126,0 -0.228,0.103 -0.228,0.228 v 2.771 c -0.001,0.126 0.102,0.228 0.228,0.228 z"
         style="fill:none" />
      <path
         id="path82"
         d="m 77.821,48.866 h 2.771 c 0.126,0 0.228,-0.103 0.228,-0.228 v -2.771 c 0,-0.126 -0.103,-0.228 -0.228,-0.228 h -2.771 c -0.126,0 -0.228,0.103 -0.228,0.228 v 2.771 c -0.001,0.125 0.102,0.228 0.228,0.228 z"
         style="fill:none" />
      <path
         id="path84"
         d="m 23.99,56.633 h 2.771 c 0.126,0 0.228,-0.103 0.228,-0.228 v -2.771 c 0,-0.126 -0.103,-0.228 -0.228,-0.228 H 23.99 c -0.126,0 -0.228,0.103 -0.228,0.228 v 2.771 c 0,0.125 0.103,0.228 0.228,0.228 z"
         style="fill:none" />
      <path
         id="path86"
         d="m 27.912,56.633 h 2.771 c 0.126,0 0.228,-0.103 0.228,-0.228 v -2.771 c 0,-0.126 -0.103,-0.228 -0.228,-0.228 h -2.771 c -0.126,0 -0.228,0.103 -0.228,0.228 v 2.771 c -0.001,0.125 0.102,0.228 0.228,0.228 z"
         style="fill:none" />
      <path
         id="path88"
         d="M 28.841,52.521 V 49.75 c 0,-0.126 -0.103,-0.228 -0.228,-0.228 h -2.771 c -0.126,0 -0.228,0.103 -0.228,0.228 v 2.771 c 0,0.126 0.103,0.228 0.228,0.228 h 2.771 c 0.125,0 0.228,-0.102 0.228,-0.228 z"
         style="fill:none" />
      <path
         id="path90"
         d="M 32.736,52.521 V 49.75 c 0,-0.126 -0.103,-0.228 -0.228,-0.228 h -2.771 c -0.126,0 -0.228,0.103 -0.228,0.228 v 2.771 c 0,0.126 0.103,0.228 0.228,0.228 h 2.771 c 0.126,0 0.228,-0.102 0.228,-0.228 z"
         style="fill:none" />
      <path
         id="path92"
         d="m 31.431,48.866 c 0.126,0 0.228,-0.103 0.228,-0.228 v -2.771 c 0,-0.126 -0.103,-0.228 -0.228,-0.228 H 28.66 c -0.126,0 -0.228,0.103 -0.228,0.228 v 2.771 c 0,0.126 0.103,0.228 0.228,0.228 z"
         style="fill:none" />
      <path
         id="path94"
         d="m 22.692,41.965 v 2.771 c 0,0.126 0.103,0.228 0.228,0.228 h 2.771 c 0.126,0 0.228,-0.103 0.228,-0.228 v -2.771 c 0,-0.126 -0.103,-0.228 -0.228,-0.228 H 22.92 c -0.125,-0.001 -0.228,0.102 -0.228,0.228 z"
         style="fill:none" />
      <path
         id="path96"
         d="m 31.833,56.633 h 2.771 c 0.126,0 0.228,-0.103 0.228,-0.228 v -2.771 c 0,-0.126 -0.103,-0.228 -0.228,-0.228 h -2.771 c -0.126,0 -0.228,0.103 -0.228,0.228 v 2.771 c 0,0.125 0.102,0.228 0.228,0.228 z"
         style="fill:none" />
      <path
         id="path98"
         d="m 35.29,48.866 c 0.126,0 0.228,-0.103 0.228,-0.228 v -2.771 c 0,-0.126 -0.103,-0.228 -0.228,-0.228 h -2.771 c -0.126,0 -0.228,0.103 -0.228,0.228 v 2.771 c 0,0.126 0.103,0.228 0.228,0.228 z"
         style="fill:none" />
      <path
         id="path100"
         d="m 23.715,48.866 c 0.126,0 0.228,-0.103 0.228,-0.228 v -2.771 c 0,-0.126 -0.103,-0.228 -0.228,-0.228 h -2.771 c -0.126,0 -0.228,0.103 -0.228,0.228 v 2.771 c 0,0.126 0.103,0.228 0.228,0.228 z"
         style="fill:none" />
      <path
         id="path102"
         d="m 20.069,56.633 h 2.771 c 0.126,0 0.228,-0.103 0.228,-0.228 v -2.771 c 0,-0.126 -0.103,-0.228 -0.228,-0.228 h -2.771 c -0.126,0 -0.228,0.103 -0.228,0.228 v 2.771 c 0,0.125 0.102,0.228 0.228,0.228 z"
         style="fill:none" />
      <path
         id="path104"
         d="M 36.632,52.521 V 49.75 c 0,-0.126 -0.103,-0.228 -0.228,-0.228 h -2.771 c -0.126,0 -0.228,0.103 -0.228,0.228 v 2.771 c 0,0.126 0.103,0.228 0.228,0.228 h 2.771 c 0.125,0 0.228,-0.102 0.228,-0.228 z"
         style="fill:none" />
      <path
         id="path106"
         d="M 21.05,52.521 V 49.75 c 0,-0.126 -0.103,-0.228 -0.228,-0.228 h -2.771 c -0.126,0 -0.228,0.103 -0.228,0.228 v 2.771 c 0,0.126 0.103,0.228 0.228,0.228 h 2.771 c 0.126,0 0.228,-0.102 0.228,-0.228 z"
         style="fill:none" />
      <path
         id="path108"
         d="m 27.573,48.866 c 0.126,0 0.228,-0.103 0.228,-0.228 v -2.771 c 0,-0.126 -0.103,-0.228 -0.228,-0.228 h -2.771 c -0.126,0 -0.228,0.103 -0.228,0.228 v 2.771 c 0,0.126 0.103,0.228 0.228,0.228 z"
         style="fill:none" />
      <path
         id="path110"
         d="M 24.946,52.521 V 49.75 c 0,-0.126 -0.103,-0.228 -0.228,-0.228 h -2.771 c -0.126,0 -0.228,0.103 -0.228,0.228 v 2.771 c 0,0.126 0.103,0.228 0.228,0.228 h 2.771 c 0.125,0 0.228,-0.102 0.228,-0.228 z"
         style="fill:none" />
      <path
         id="path112"
         d="M 19.999,57.231 H 17.228 C 17.102,57.231 17,57.334 17,57.459 v 2.771 c 0,0.126 0.103,0.228 0.228,0.228 h 2.771 c 0.126,0 0.228,-0.103 0.228,-0.228 v -2.77 c 0,-0.126 -0.102,-0.229 -0.228,-0.229 z"
         style="fill:none" />
      <path
         id="path114"
         d="m 68.057,36.863 h -2.771 c -0.126,0 -0.228,0.103 -0.228,0.228 v 2.771 c 0,0.126 0.103,0.228 0.228,0.228 h 2.771 c 0.126,0 0.228,-0.103 0.228,-0.228 v -2.771 c 0,-0.125 -0.102,-0.228 -0.228,-0.228 z"
         style="fill:none" />
      <path
         id="path116"
         d="m 76.166,36.863 h -2.771 c -0.126,0 -0.228,0.103 -0.228,0.228 v 2.771 c 0,0.126 0.103,0.228 0.228,0.228 h 2.771 c 0.126,0 0.228,-0.103 0.228,-0.228 v -2.771 c 10e-4,-0.125 -0.102,-0.228 -0.228,-0.228 z"
         style="fill:none" />
      <path
         id="path118"
         d="m 76.166,41.736 h -2.771 c -0.126,0 -0.228,0.103 -0.228,0.228 v 2.771 c 0,0.126 0.103,0.228 0.228,0.228 h 2.771 c 0.126,0 0.228,-0.103 0.228,-0.228 v -2.771 c 10e-4,-0.125 -0.102,-0.228 -0.228,-0.228 z"
         style="fill:none" />
      <path
         id="path120"
         d="m 84.446,49.541 h -2.771 c -0.126,0 -0.228,0.103 -0.228,0.228 v 2.771 c 0,0.126 0.103,0.228 0.228,0.228 h 2.771 c 0.126,0 0.228,-0.103 0.228,-0.228 v -2.771 c 10e-4,-0.125 -0.102,-0.228 -0.228,-0.228 z"
         style="fill:none" />
      <path
         id="path122"
         d="m 76.166,45.639 h -2.771 c -0.126,0 -0.228,0.103 -0.228,0.228 v 2.771 c 0,0.126 0.103,0.228 0.228,0.228 h 2.771 c 0.126,0 0.228,-0.103 0.228,-0.228 v -2.771 c 10e-4,-0.126 -0.102,-0.228 -0.228,-0.228 z"
         style="fill:none" />
      <path
         id="path124"
         d="m 84.446,53.443 h -2.771 c -0.126,0 -0.228,0.103 -0.228,0.228 v 2.771 c 0,0.126 0.103,0.228 0.228,0.228 h 2.771 c 0.126,0 0.228,-0.103 0.228,-0.228 v -2.771 c 10e-4,-0.125 -0.102,-0.228 -0.228,-0.228 z"
         style="fill:none" />
      <path
         id="path126"
         d="m 84.446,45.639 h -2.771 c -0.126,0 -0.228,0.103 -0.228,0.228 v 2.771 c 0,0.126 0.103,0.228 0.228,0.228 h 2.771 c 0.126,0 0.228,-0.103 0.228,-0.228 v -2.771 c 10e-4,-0.126 -0.102,-0.228 -0.228,-0.228 z"
         style="fill:none" />
      <path
         id="path128"
         d="m 76.166,57.231 h -2.771 c -0.126,0 -0.228,0.103 -0.228,0.228 v 2.771 c 0,0.126 0.103,0.228 0.228,0.228 h 2.771 c 0.126,0 0.228,-0.103 0.228,-0.228 v -2.77 c 10e-4,-0.126 -0.102,-0.229 -0.228,-0.229 z"
         style="fill:none" />
      <path
         id="path130"
         d="m 22.244,40.091 h 2.771 c 0.126,0 0.228,-0.103 0.228,-0.228 v -2.771 c 0,-0.126 -0.103,-0.228 -0.228,-0.228 h -2.771 c -0.126,0 -0.228,0.103 -0.228,0.228 v 2.771 c 0,0.125 0.103,0.228 0.228,0.228 z"
         style="fill:none" />
      <path
         id="path132"
         d="m 72.112,45.639 h -2.771 c -0.126,0 -0.228,0.103 -0.228,0.228 v 2.771 c 0,0.126 0.103,0.228 0.228,0.228 h 2.771 c 0.126,0 0.228,-0.103 0.228,-0.228 v -2.771 c 0,-0.126 -0.103,-0.228 -0.228,-0.228 z"
         style="fill:none" />
      <path
         id="path134"
         d="m 72.112,53.329 h -2.771 c -0.126,0 -0.228,0.103 -0.228,0.228 v 2.771 c 0,0.126 0.103,0.228 0.228,0.228 h 2.771 c 0.126,0 0.228,-0.103 0.228,-0.228 v -2.771 c 0,-0.125 -0.103,-0.228 -0.228,-0.228 z"
         style="fill:none" />
      <path
         id="path136"
         d="m 72.112,36.863 h -2.771 c -0.126,0 -0.228,0.103 -0.228,0.228 v 2.771 c 0,0.126 0.103,0.228 0.228,0.228 h 2.771 c 0.126,0 0.228,-0.103 0.228,-0.228 v -2.771 c 0,-0.125 -0.103,-0.228 -0.228,-0.228 z"
         style="fill:none" />
      <path
         id="path138"
         d="m 72.112,41.736 h -2.771 c -0.126,0 -0.228,0.103 -0.228,0.228 v 2.771 c 0,0.126 0.103,0.228 0.228,0.228 h 2.771 c 0.126,0 0.228,-0.103 0.228,-0.228 v -2.771 c 0,-0.125 -0.103,-0.228 -0.228,-0.228 z"
         style="fill:none" />
      <path
         id="path140"
         d="m 84.446,57.345 h -6.625 c -0.126,0 -0.228,0.103 -0.228,0.228 v 2.771 c 0,0.126 0.103,0.228 0.228,0.228 h 6.625 c 0.126,0 0.228,-0.103 0.228,-0.228 v -2.771 c 10e-4,-0.125 -0.102,-0.228 -0.228,-0.228 z"
         style="fill:none" />
      <path
         id="path142"
         d="m 92.156,45.639 h -2.771 c -0.126,0 -0.228,0.103 -0.228,0.228 v 2.771 c 0,0.126 0.103,0.228 0.228,0.228 h 2.771 c 0.126,0 0.228,-0.103 0.228,-0.228 v -2.771 c 0,-0.126 -0.103,-0.228 -0.228,-0.228 z"
         style="fill:none" />
      <circle
         id="circle144"
         r="0.99900001"
         cy="37.98"
         cx="88.359001"
         style="fill:none" />
      <path
         id="path146"
         d="m 92.156,53.443 h -2.771 c -0.126,0 -0.228,0.103 -0.228,0.228 v 6.559 c 0,0.126 0.103,0.228 0.228,0.228 h 2.771 c 0.126,0 0.228,-0.103 0.228,-0.228 v -6.559 c 0,-0.125 -0.103,-0.228 -0.228,-0.228 z"
         style="fill:none" />
      <path
         id="path148"
         d="m 92.156,49.541 h -2.771 c -0.126,0 -0.228,0.103 -0.228,0.228 v 2.771 c 0,0.126 0.103,0.228 0.228,0.228 h 2.771 c 0.126,0 0.228,-0.103 0.228,-0.228 v -2.771 c 0,-0.125 -0.103,-0.228 -0.228,-0.228 z"
         style="fill:none" />
      <path
         id="path150"
         d="m 92.156,41.736 h -2.771 c -0.126,0 -0.228,0.103 -0.228,0.228 v 2.771 c 0,0.126 0.103,0.228 0.228,0.228 h 2.771 c 0.126,0 0.228,-0.103 0.228,-0.228 v -2.771 c 0,-0.125 -0.103,-0.228 -0.228,-0.228 z"
         style="fill:none" />
      <circle
         id="circle152"
         r="0.99900001"
         cy="37.98"
         cx="84.675003"
         style="fill:none" />
      <path
         id="path154"
         d="M 88.301,57.345 H 85.53 c -0.126,0 -0.228,0.103 -0.228,0.228 v 2.771 c 0,0.126 0.103,0.228 0.228,0.228 h 2.771 c 0.126,0 0.228,-0.103 0.228,-0.228 v -2.771 c 0,-0.125 -0.103,-0.228 -0.228,-0.228 z"
         style="fill:none" />
      <path
         id="path156"
         d="M 88.301,41.736 H 85.53 c -0.126,0 -0.228,0.103 -0.228,0.228 v 2.771 c 0,0.126 0.103,0.228 0.228,0.228 h 2.771 c 0.126,0 0.228,-0.103 0.228,-0.228 v -2.771 c 0,-0.125 -0.103,-0.228 -0.228,-0.228 z"
         style="fill:none" />
      <path
         id="path158"
         d="m 84.446,41.736 h -2.771 c -0.126,0 -0.228,0.103 -0.228,0.228 v 2.771 c 0,0.126 0.103,0.228 0.228,0.228 h 2.771 c 0.126,0 0.228,-0.103 0.228,-0.228 v -2.771 c 10e-4,-0.125 -0.102,-0.228 -0.228,-0.228 z"
         style="fill:none" />
      <path
         id="path160"
         d="M 88.301,53.443 H 85.53 c -0.126,0 -0.228,0.103 -0.228,0.228 v 2.771 c 0,0.126 0.103,0.228 0.228,0.228 h 2.771 c 0.126,0 0.228,-0.103 0.228,-0.228 v -2.771 c 0,-0.125 -0.103,-0.228 -0.228,-0.228 z"
         style="fill:none" />
      <path
         id="path162"
         d="M 88.301,49.541 H 85.53 c -0.126,0 -0.228,0.103 -0.228,0.228 v 2.771 c 0,0.126 0.103,0.228 0.228,0.228 h 2.771 c 0.126,0 0.228,-0.103 0.228,-0.228 v -2.771 c 0,-0.125 -0.103,-0.228 -0.228,-0.228 z"
         style="fill:none" />
      <path
         id="path164"
         d="M 88.301,45.639 H 85.53 c -0.126,0 -0.228,0.103 -0.228,0.228 v 2.771 c 0,0.126 0.103,0.228 0.228,0.228 h 2.771 c 0.126,0 0.228,-0.103 0.228,-0.228 v -2.771 c 0,-0.126 -0.103,-0.228 -0.228,-0.228 z"
         style="fill:none" />
      <path
         id="path166"
         d="m 72.112,57.231 h -2.771 c -0.126,0 -0.228,0.103 -0.228,0.228 v 2.771 c 0,0.126 0.103,0.228 0.228,0.228 h 2.771 c 0.126,0 0.228,-0.103 0.228,-0.228 v -2.77 c 0,-0.126 -0.103,-0.229 -0.228,-0.229 z"
         style="fill:none" />
      <path
         id="path168"
         d="m 7.845,56.633 h 7.171 c 0.126,0 0.228,-0.103 0.228,-0.228 v -2.771 c 0,-0.126 -0.103,-0.228 -0.228,-0.228 H 7.845 c -0.126,0 -0.228,0.103 -0.228,0.228 v 2.771 c -0.001,0.125 0.102,0.228 0.228,0.228 z"
         style="fill:none" />
      <path
         id="path170"
         d="m 7.845,52.749 h 5.246 c 0.126,0 0.228,-0.103 0.228,-0.228 V 49.75 c 0,-0.126 -0.103,-0.228 -0.228,-0.228 H 7.845 c -0.126,0 -0.228,0.103 -0.228,0.228 v 2.771 c -0.001,0.126 0.102,0.228 0.228,0.228 z"
         style="fill:none" />
      <path
         id="path172"
         d="M 12.262,57.231 H 7.845 c -0.126,0 -0.228,0.103 -0.228,0.228 v 2.771 c 0,0.126 0.103,0.228 0.228,0.228 h 4.418 c 0.126,0 0.228,-0.103 0.228,-0.228 v -2.77 c 0,-0.126 -0.103,-0.229 -0.229,-0.229 z"
         style="fill:none" />
      <path
         id="path174"
         d="m 16.104,57.231 h -2.771 c -0.126,0 -0.228,0.103 -0.228,0.228 v 2.771 c 0,0.126 0.103,0.228 0.228,0.228 h 2.771 c 0.126,0 0.228,-0.103 0.228,-0.228 v -2.77 c 0,-0.126 -0.103,-0.229 -0.228,-0.229 z"
         style="fill:none" />
      <path
         id="path176"
         d="m 7.845,48.866 h 4.275 c 0.126,0 0.228,-0.103 0.228,-0.228 v -2.771 c 0,-0.126 -0.103,-0.228 -0.228,-0.228 H 7.845 c -0.126,0 -0.228,0.103 -0.228,0.228 v 2.771 c -0.001,0.125 0.102,0.228 0.228,0.228 z"
         style="fill:none" />
      <path
         id="path178"
         d="m 23.858,57.231 h -2.771 c -0.126,0 -0.228,0.103 -0.228,0.228 v 2.771 c 0,0.126 0.103,0.228 0.228,0.228 h 2.771 c 0.126,0 0.228,-0.103 0.228,-0.228 v -2.77 c 0,-0.126 -0.102,-0.229 -0.228,-0.229 z"
         style="fill:none" />
      <path
         id="path180"
         d="m 13.858,40.091 h 2.771 c 0.126,0 0.228,-0.103 0.228,-0.228 v -2.771 c 0,-0.126 -0.103,-0.228 -0.228,-0.228 h -2.771 c -0.126,0 -0.228,0.103 -0.228,0.228 v 2.771 c 0,0.125 0.103,0.228 0.228,0.228 z"
         style="fill:none" />
      <path
         id="path182"
         d="m 18.051,40.091 h 2.771 c 0.126,0 0.228,-0.103 0.228,-0.228 v -2.771 c 0,-0.126 -0.103,-0.228 -0.228,-0.228 h -2.771 c -0.126,0 -0.228,0.103 -0.228,0.228 v 2.771 c 0,0.125 0.103,0.228 0.228,0.228 z"
         style="fill:none" />
      <path
         id="path184"
         d="M 47.061,57.231 H 24.916 c -0.126,0 -0.228,0.103 -0.228,0.228 v 2.771 c 0,0.126 0.103,0.228 0.228,0.228 h 22.146 c 0.126,0 0.228,-0.103 0.228,-0.228 v -2.77 c 0,-0.126 -0.103,-0.229 -0.229,-0.229 z"
         style="fill:none" />
      <path
         id="path186"
         d="m 18.923,41.965 v 2.771 c 0,0.126 0.103,0.228 0.228,0.228 h 2.771 c 0.126,0 0.228,-0.103 0.228,-0.228 v -2.771 c 0,-0.126 -0.103,-0.228 -0.228,-0.228 h -2.771 c -0.125,-0.001 -0.228,0.102 -0.228,0.228 z"
         style="fill:none" />
      <path
         id="path188"
         d="m 11.614,44.964 h 2.771 c 0.126,0 0.228,-0.103 0.228,-0.228 v -2.771 c 0,-0.126 -0.103,-0.228 -0.228,-0.228 h -2.771 c -0.126,0 -0.228,0.103 -0.228,0.228 v 2.771 c -10e-4,0.125 0.102,0.228 0.228,0.228 z"
         style="fill:none" />
      <path
         id="path190"
         d="m 7.845,44.964 h 2.771 c 0.126,0 0.228,-0.103 0.228,-0.228 v -2.771 c 0,-0.126 -0.103,-0.228 -0.228,-0.228 H 7.845 c -0.126,0 -0.228,0.103 -0.228,0.228 v 2.771 c -0.001,0.125 0.102,0.228 0.228,0.228 z"
         style="fill:none" />
      <path
         id="path192"
         d="m 7.845,40.091 h 2.771 c 0.126,0 0.228,-0.103 0.228,-0.228 v -2.771 c 0,-0.126 -0.103,-0.228 -0.228,-0.228 H 7.845 c -0.126,0 -0.228,0.103 -0.228,0.228 v 2.771 c -0.001,0.125 0.102,0.228 0.228,0.228 z"
         style="fill:none" />
      <path
         id="path194"
         d="m 68.057,41.736 h -2.771 c -0.126,0 -0.228,0.103 -0.228,0.228 v 2.771 c 0,0.126 0.103,0.228 0.228,0.228 h 2.771 c 0.126,0 0.228,-0.103 0.228,-0.228 v -2.771 c 0,-0.125 -0.102,-0.228 -0.228,-0.228 z"
         style="fill:none" />
      <path
         id="path196"
         d="m 62.917,36.863 h -2.771 c -0.126,0 -0.228,0.103 -0.228,0.228 v 2.771 c 0,0.126 0.103,0.228 0.228,0.228 h 2.771 c 0.126,0 0.228,-0.103 0.228,-0.228 v -2.771 c 10e-4,-0.125 -0.102,-0.228 -0.228,-0.228 z"
         style="fill:none" />
      <path
         id="path198"
         d="M 62.917,53.405 H 55.36 c -0.126,0 -0.228,0.103 -0.228,0.228 v 2.771 c 0,0.126 0.103,0.228 0.228,0.228 h 7.557 c 0.126,0 0.228,-0.103 0.228,-0.228 v -2.771 c 10e-4,-0.125 -0.102,-0.228 -0.228,-0.228 z"
         style="fill:none" />
      <path
         id="path200"
         d="m 62.917,41.736 h -6.075 c -0.126,0 -0.228,0.103 -0.228,0.228 v 2.771 c 0,0.126 0.103,0.228 0.228,0.228 h 6.075 c 0.126,0 0.228,-0.103 0.228,-0.228 v -2.771 c 10e-4,-0.125 -0.102,-0.228 -0.228,-0.228 z"
         style="fill:none" />
      <path
         id="path202"
         d="m 68.057,57.231 h -2.771 c -0.126,0 -0.228,0.103 -0.228,0.228 v 2.771 c 0,0.126 0.103,0.228 0.228,0.228 h 2.771 c 0.126,0 0.228,-0.103 0.228,-0.228 v -2.77 c 0,-0.126 -0.102,-0.229 -0.228,-0.229 z"
         style="fill:none" />
      <path
         id="path204"
         d="m 50.517,56.404 v -2.771 c 0,-0.126 -0.103,-0.228 -0.228,-0.228 h -2.771 c -0.126,0 -0.228,0.103 -0.228,0.228 v 2.771 c 0,0.126 0.103,0.228 0.228,0.228 h 2.771 c 0.125,0.001 0.228,-0.102 0.228,-0.228 z"
         style="fill:none" />
      <path
         id="path206"
         d="m 68.057,45.639 h -2.771 c -0.126,0 -0.228,0.103 -0.228,0.228 v 2.771 c 0,0.126 0.103,0.228 0.228,0.228 h 2.771 c 0.126,0 0.228,-0.103 0.228,-0.228 v -2.771 c 0,-0.126 -0.102,-0.228 -0.228,-0.228 z"
         style="fill:none" />
      <path
         id="path208"
         d="m 62.917,45.639 h -3.39 c -0.126,0 -0.228,0.103 -0.228,0.228 v 2.771 c 0,0.126 0.103,0.228 0.228,0.228 h 0.891 c 0.126,0 0.228,0.103 0.228,0.228 v 3.426 c 0,0.126 0.103,0.228 0.228,0.228 h 2.042 c 0.126,0 0.228,-0.103 0.228,-0.228 v -6.654 c 0.002,-0.125 -0.101,-0.227 -0.227,-0.227 z"
         style="fill:none" />
      <path
         id="path210"
         d="m 54.439,56.404 v -2.771 c 0,-0.126 -0.103,-0.228 -0.228,-0.228 H 51.44 c -0.126,0 -0.228,0.103 -0.228,0.228 v 2.771 c 0,0.126 0.103,0.228 0.228,0.228 h 2.771 c 0.125,0.001 0.228,-0.102 0.228,-0.228 z"
         style="fill:none" />
      <path
         id="path212"
         d="m 55.064,57.231 h -2.771 c -0.126,0 -0.228,0.103 -0.228,0.228 v 2.771 c 0,0.126 0.103,0.228 0.228,0.228 h 2.771 c 0.126,0 0.228,-0.103 0.228,-0.228 v -2.77 c 0,-0.126 -0.103,-0.229 -0.228,-0.229 z"
         style="fill:none" />
      <path
         id="path214"
         d="M 58.991,57.231 H 56.22 c -0.126,0 -0.228,0.103 -0.228,0.228 v 2.771 c 0,0.126 0.103,0.228 0.228,0.228 h 2.771 c 0.126,0 0.228,-0.103 0.228,-0.228 v -2.77 c 0,-0.126 -0.103,-0.229 -0.228,-0.229 z"
         style="fill:none" />
      <path
         id="path216"
         d="m 51.137,57.231 h -2.771 c -0.126,0 -0.228,0.103 -0.228,0.228 v 2.771 c 0,0.126 0.103,0.228 0.228,0.228 h 2.771 c 0.126,0 0.228,-0.103 0.228,-0.228 v -2.77 c 0,-0.126 -0.103,-0.229 -0.228,-0.229 z"
         style="fill:none" />
      <path
         id="path218"
         d="m 62.917,57.231 h -2.771 c -0.126,0 -0.228,0.103 -0.228,0.228 v 2.771 c 0,0.126 0.103,0.228 0.228,0.228 h 2.771 c 0.126,0 0.228,-0.103 0.228,-0.228 v -2.77 c 10e-4,-0.126 -0.102,-0.229 -0.228,-0.229 z"
         style="fill:none" />
      <path
         id="path220"
         d="M 92.704,34.554 H 7.296 C 6.028,34.554 5,35.582 5,36.85 v 26.3 c 0,1.268 1.028,2.296 2.296,2.296 h 85.407 c 1.268,0 2.296,-1.028 2.296,-2.296 V 36.85 C 95,35.582 93.972,34.554 92.704,34.554 Z M 80.99,36.981 c 0.552,0 0.999,0.447 0.999,0.999 0,0.552 -0.447,0.999 -0.999,0.999 -0.552,0 -0.999,-0.447 -0.999,-0.999 0,-0.552 0.447,-0.999 0.999,-0.999 z m -3.398,4.984 c 0,-0.126 0.103,-0.228 0.228,-0.228 h 2.771 c 0.126,0 0.228,0.103 0.228,0.228 v 2.771 c 0,0.126 -0.103,0.228 -0.228,0.228 H 77.82 c -0.126,0 -0.228,-0.103 -0.228,-0.228 z m 0,3.902 c 0,-0.126 0.103,-0.228 0.228,-0.228 h 2.771 c 0.126,0 0.228,0.103 0.228,0.228 v 2.771 c 0,0.126 -0.103,0.228 -0.228,0.228 H 77.82 c -0.126,0 -0.228,-0.103 -0.228,-0.228 z m 0,3.902 c 0,-0.126 0.103,-0.228 0.228,-0.228 h 2.771 c 0.126,0 0.228,0.103 0.228,0.228 v 2.771 c 0,0.126 -0.103,0.228 -0.228,0.228 H 77.82 c -0.126,0 -0.228,-0.103 -0.228,-0.228 z m 0,3.903 c 0,-0.126 0.103,-0.228 0.228,-0.228 h 2.771 c 0.126,0 0.228,0.103 0.228,0.228 v 2.771 c 0,0.126 -0.103,0.228 -0.228,0.228 H 77.82 c -0.126,0 -0.228,-0.103 -0.228,-0.228 z M 55.725,37.092 c 0,-0.126 0.103,-0.228 0.228,-0.228 h 2.771 c 0.126,0 0.228,0.103 0.228,0.228 v 2.771 c 0,0.126 -0.103,0.228 -0.228,0.228 h -2.771 c -0.126,0 -0.228,-0.103 -0.228,-0.228 z m 2.944,11.546 c 0,0.126 -0.103,0.228 -0.228,0.228 H 55.67 c -0.126,0 -0.228,-0.103 -0.228,-0.228 v -2.771 c 0,-0.126 0.103,-0.228 0.228,-0.228 h 2.771 c 0.126,0 0.228,0.103 0.228,0.228 z m 0.402,0.884 c 0.126,0 0.331,0 0.457,0 h 0.248 c 0.126,0 0.228,0.103 0.228,0.228 v 2.771 c 0,0.126 -0.103,0.228 -0.228,0.228 h -0.248 c -0.126,0 -0.331,0 -0.457,0 h -2.066 c -0.126,0 -0.228,-0.103 -0.228,-0.228 V 49.75 c 0,-0.126 0.103,-0.228 0.228,-0.228 z M 18.382,44.735 c 0,0.126 -0.103,0.228 -0.228,0.228 h -2.771 c -0.126,0 -0.228,-0.103 -0.228,-0.228 v -2.771 c 0,-0.126 0.103,-0.228 0.228,-0.228 h 2.771 c 0.126,0 0.228,0.103 0.228,0.228 z m 1.474,0.904 c 0.126,0 0.228,0.103 0.228,0.228 v 2.771 c 0,0.126 -0.103,0.228 -0.228,0.228 h -2.771 c -0.126,0 -0.228,-0.103 -0.228,-0.228 v -2.771 c 0,-0.126 0.103,-0.228 0.228,-0.228 z m -3.858,0 c 0.126,0 0.228,0.103 0.228,0.228 v 2.771 c 0,0.126 -0.103,0.228 -0.228,0.228 h -2.771 c -0.126,0 -0.228,-0.103 -0.228,-0.228 v -2.771 c 0,-0.126 0.103,-0.228 0.228,-0.228 z m -2.071,4.111 c 0,-0.126 0.103,-0.228 0.228,-0.228 h 2.771 c 0.126,0 0.228,0.103 0.228,0.228 v 2.771 c 0,0.126 -0.103,0.228 -0.228,0.228 h -2.771 c -0.126,0 -0.228,-0.103 -0.228,-0.228 z m 1.992,3.884 c 0,-0.126 0.103,-0.228 0.228,-0.228 h 2.771 c 0.126,0 0.228,0.103 0.228,0.228 v 2.771 c 0,0.126 -0.103,0.228 -0.228,0.228 h -2.771 c -0.126,0 -0.228,-0.103 -0.228,-0.228 z m 2.132,-0.885 c -0.126,0 -0.228,-0.103 -0.228,-0.228 V 49.75 c 0,-0.126 0.103,-0.228 0.228,-0.228 h 2.771 c 0.126,0 0.228,0.103 0.228,0.228 v 2.771 c 0,0.126 -0.103,0.228 -0.228,0.228 z m 2.665,-4.111 v -2.771 c 0,-0.126 0.103,-0.228 0.228,-0.228 h 2.771 c 0.126,0 0.228,0.103 0.228,0.228 v 2.771 c 0,0.126 -0.103,0.228 -0.228,0.228 h -2.771 c -0.126,0 -0.228,-0.103 -0.228,-0.228 z m -0.875,4.996 c 0,-0.126 0.103,-0.228 0.228,-0.228 h 2.771 c 0.126,0 0.228,0.103 0.228,0.228 v 2.771 c 0,0.126 -0.103,0.228 -0.228,0.228 h -2.771 c -0.126,0 -0.228,-0.103 -0.228,-0.228 z m 2.106,-0.885 c -0.126,0 -0.228,-0.103 -0.228,-0.228 V 49.75 c 0,-0.126 0.103,-0.228 0.228,-0.228 h 2.771 c 0.126,0 0.228,0.103 0.228,0.228 v 2.771 c 0,0.126 -0.103,0.228 -0.228,0.228 z m 2.627,-4.111 v -2.771 c 0,-0.126 0.103,-0.228 0.228,-0.228 h 2.771 c 0.126,0 0.228,0.103 0.228,0.228 v 2.771 c 0,0.126 -0.103,0.228 -0.228,0.228 h -2.771 c -0.125,0 -0.228,-0.103 -0.228,-0.228 z m -0.812,4.996 c 0,-0.126 0.103,-0.228 0.228,-0.228 h 2.771 c 0.126,0 0.228,0.103 0.228,0.228 v 2.771 c 0,0.126 -0.103,0.228 -0.228,0.228 H 23.99 c -0.126,0 -0.228,-0.103 -0.228,-0.228 z m 2.08,-0.885 c -0.126,0 -0.228,-0.103 -0.228,-0.228 V 49.75 c 0,-0.126 0.103,-0.228 0.228,-0.228 h 2.771 c 0.126,0 0.228,0.103 0.228,0.228 v 2.771 c 0,0.126 -0.103,0.228 -0.228,0.228 z m 2.59,-4.111 v -2.771 c 0,-0.126 0.103,-0.228 0.228,-0.228 h 2.771 c 0.126,0 0.228,0.103 0.228,0.228 v 2.771 c 0,0.126 -0.103,0.228 -0.228,0.228 H 28.66 c -0.125,0 -0.228,-0.103 -0.228,-0.228 z m -0.749,4.996 c 0,-0.126 0.103,-0.228 0.228,-0.228 h 2.771 c 0.126,0 0.228,0.103 0.228,0.228 v 2.771 c 0,0.126 -0.103,0.228 -0.228,0.228 h -2.771 c -0.126,0 -0.228,-0.103 -0.228,-0.228 z m 2.054,-0.885 c -0.126,0 -0.228,-0.103 -0.228,-0.228 V 49.75 c 0,-0.126 0.103,-0.228 0.228,-0.228 h 2.771 c 0.126,0 0.228,0.103 0.228,0.228 v 2.771 c 0,0.126 -0.103,0.228 -0.228,0.228 z m 2.554,-4.111 v -2.771 c 0,-0.126 0.103,-0.228 0.228,-0.228 h 2.771 c 0.126,0 0.228,0.103 0.228,0.228 v 2.771 c 0,0.126 -0.103,0.228 -0.228,0.228 h -2.771 c -0.125,0 -0.228,-0.103 -0.228,-0.228 z m -0.686,4.996 c 0,-0.126 0.103,-0.228 0.228,-0.228 h 2.771 c 0.126,0 0.228,0.103 0.228,0.228 v 2.771 c 0,0.126 -0.103,0.228 -0.228,0.228 h -2.771 c -0.126,0 -0.228,-0.103 -0.228,-0.228 z m 2.028,-0.885 c -0.126,0 -0.228,-0.103 -0.228,-0.228 V 49.75 c 0,-0.126 0.103,-0.228 0.228,-0.228 h 2.771 c 0.126,0 0.228,0.103 0.228,0.228 v 2.771 c 0,0.126 -0.103,0.228 -0.228,0.228 z m 2.516,-4.111 v -2.771 c 0,-0.126 0.103,-0.228 0.228,-0.228 h 2.771 c 0.126,0 0.228,0.103 0.228,0.228 v 2.771 c 0,0.126 -0.103,0.228 -0.228,0.228 h -2.771 c -0.125,0 -0.228,-0.103 -0.228,-0.228 z m -0.623,4.996 c 0,-0.126 0.103,-0.228 0.228,-0.228 h 2.771 c 0.126,0 0.228,0.103 0.228,0.228 v 2.771 c 0,0.126 -0.103,0.228 -0.228,0.228 h -2.771 c -0.126,0 -0.228,-0.103 -0.228,-0.228 z m 2.002,-0.885 c -0.126,0 -0.228,-0.103 -0.228,-0.228 V 49.75 c 0,-0.126 0.103,-0.228 0.228,-0.228 h 2.771 c 0.126,0 0.228,0.103 0.228,0.228 v 2.771 c 0,0.126 -0.103,0.228 -0.228,0.228 z m 9.337,-7.11 c 0.126,0 0.228,0.103 0.228,0.228 v 2.771 c 0,0.126 -0.103,0.228 -0.228,0.228 h -2.771 c -0.126,0 -0.228,-0.103 -0.228,-0.228 v -2.771 c 0,-0.126 0.103,-0.228 0.228,-0.228 z m -1.559,-0.904 v -2.771 c 0,-0.126 0.103,-0.228 0.228,-0.228 h 2.771 c 0.126,0 0.228,0.103 0.228,0.228 v 2.771 c 0,0.126 -0.103,0.228 -0.228,0.228 h -2.771 c -0.125,10e-4 -0.228,-0.102 -0.228,-0.228 z m -0.541,0 c 0,0.126 -0.103,0.228 -0.228,0.228 h -2.771 c -0.126,0 -0.228,-0.103 -0.228,-0.228 v -2.771 c 0,-0.126 0.103,-0.228 0.228,-0.228 h 2.771 c 0.126,0 0.228,0.103 0.228,0.228 z m -1.758,0.904 c 0.126,0 0.228,0.103 0.228,0.228 v 2.771 c 0,0.126 -0.103,0.228 -0.228,0.228 h -2.771 c -0.126,0 -0.228,-0.103 -0.228,-0.228 v -2.771 c 0,-0.126 0.103,-0.228 0.228,-0.228 z m -3.56,7.995 c 0,-0.126 0.103,-0.228 0.228,-0.228 h 2.771 c 0.126,0 0.228,0.103 0.228,0.228 v 2.771 c 0,0.126 -0.103,0.228 -0.228,0.228 h -2.771 c -0.126,0 -0.228,-0.103 -0.228,-0.228 z m 1.977,-0.885 c -0.126,0 -0.228,-0.103 -0.228,-0.228 V 49.75 c 0,-0.126 0.103,-0.228 0.228,-0.228 h 2.771 c 0.126,0 0.228,0.103 0.228,0.228 v 2.771 c 0,0.126 -0.103,0.228 -0.228,0.228 z m 1.944,0.885 c 0,-0.126 0.103,-0.228 0.228,-0.228 h 2.771 c 0.126,0 0.228,0.103 0.228,0.228 v 2.771 c 0,0.126 -0.103,0.228 -0.228,0.228 h -2.771 c -0.126,0 -0.228,-0.103 -0.228,-0.228 z m 1.951,-0.885 c -0.126,0 -0.228,-0.103 -0.228,-0.228 V 49.75 c 0,-0.126 0.103,-0.228 0.228,-0.228 h 2.771 c 0.126,0 0.228,0.103 0.228,0.228 v 2.771 c 0,0.126 -0.103,0.228 -0.228,0.228 z m 2.634,-3.883 c -0.126,0 -0.228,-0.103 -0.228,-0.228 v -2.771 c 0,-0.126 0.103,-0.228 0.228,-0.228 h 2.771 c 0.126,0 0.228,0.103 0.228,0.228 v 2.771 c 0,0.126 -0.103,0.228 -0.228,0.228 z m 1.123,-4.131 v -2.771 c 0,-0.126 0.103,-0.228 0.228,-0.228 h 2.771 c 0.126,0 0.228,0.103 0.228,0.228 v 2.771 c 0,0.126 -0.103,0.228 -0.228,0.228 h -2.771 c -0.126,10e-4 -0.228,-0.102 -0.228,-0.228 z m -0.09,5.015 c 0,-0.126 0.103,-0.228 0.228,-0.228 h 2.771 c 0.126,0 0.228,0.103 0.228,0.228 v 2.771 c 0,0.126 -0.103,0.228 -0.228,0.228 h -2.771 c -0.126,0 -0.228,-0.103 -0.228,-0.228 z m 2.825,-0.884 c -0.126,0 -0.228,-0.103 -0.228,-0.228 v -2.771 c 0,-0.126 0.103,-0.228 0.228,-0.228 h 2.771 c 0.126,0 0.228,0.103 0.228,0.228 v 2.771 c 0,0.126 -0.103,0.228 -0.228,0.228 z m 1.07,0.884 c 0,-0.126 0.103,-0.228 0.228,-0.228 h 2.771 c 0.126,0 0.228,0.103 0.228,0.228 v 2.771 c 0,0.126 -0.103,0.228 -0.228,0.228 h -2.77 c -0.126,0 -0.228,-0.103 -0.228,-0.228 V 49.75 Z m 3.191,-5.015 c 0,0.126 -0.103,0.228 -0.228,0.228 h -2.771 c -0.126,0 -0.228,-0.103 -0.228,-0.228 v -2.771 c 0,-0.126 0.103,-0.228 0.228,-0.228 h 2.771 c 0.126,0 0.228,0.103 0.228,0.228 z m -4.54,-7.643 c 0,-0.126 0.103,-0.228 0.228,-0.228 h 2.771 c 0.126,0 0.228,0.103 0.228,0.228 v 2.771 c 0,0.126 -0.103,0.228 -0.228,0.228 H 51.76 c -0.126,0 -0.228,-0.103 -0.228,-0.228 z m -4.193,0 c 0,-0.126 0.103,-0.228 0.228,-0.228 h 2.771 c 0.126,0 0.228,0.103 0.228,0.228 v 2.771 c 0,0.126 -0.103,0.228 -0.228,0.228 h -2.771 c -0.126,0 -0.228,-0.103 -0.228,-0.228 z m -4.275,0 c 0,-0.126 0.103,-0.228 0.228,-0.228 h 2.771 c 0.126,0 0.228,0.103 0.228,0.228 v 2.771 c 0,0.126 -0.103,0.228 -0.228,0.228 h -2.771 c -0.126,0 -0.228,-0.103 -0.228,-0.228 z m -4.193,0 c 0,-0.126 0.103,-0.228 0.228,-0.228 h 2.771 c 0.126,0 0.228,0.103 0.228,0.228 v 2.771 c 0,0.126 -0.103,0.228 -0.228,0.228 h -2.771 c -0.126,0 -0.228,-0.103 -0.228,-0.228 z m 1.897,4.644 c 0.126,0 0.228,0.103 0.228,0.228 v 2.771 c 0,0.126 -0.103,0.228 -0.228,0.228 h -2.771 c -0.126,0 -0.228,-0.103 -0.228,-0.228 v -2.771 c 0,-0.126 0.103,-0.228 0.228,-0.228 z m -6.09,-4.644 c 0,-0.126 0.103,-0.228 0.228,-0.228 h 2.771 c 0.126,0 0.228,0.103 0.228,0.228 v 2.771 c 0,0.126 -0.103,0.228 -0.228,0.228 h -2.771 c -0.126,0 -0.228,-0.103 -0.228,-0.228 z m -0.679,4.873 c 0,-0.126 0.103,-0.228 0.228,-0.228 h 2.771 c 0.126,0 0.228,0.103 0.228,0.228 v 2.771 c 0,0.126 -0.103,0.228 -0.228,0.228 h -2.771 c -0.126,0 -0.228,-0.103 -0.228,-0.228 z m -3.514,-4.873 c 0,-0.126 0.103,-0.228 0.228,-0.228 h 2.771 c 0.126,0 0.228,0.103 0.228,0.228 v 2.771 c 0,0.126 -0.103,0.228 -0.228,0.228 h -2.771 c -0.126,0 -0.228,-0.103 -0.228,-0.228 z m -0.255,4.873 c 0,-0.126 0.103,-0.228 0.228,-0.228 h 2.771 c 0.126,0 0.228,0.103 0.228,0.228 v 2.771 c 0,0.126 -0.103,0.228 -0.228,0.228 h -2.771 c -0.126,0 -0.228,-0.103 -0.228,-0.228 z m -0.541,0 v 2.771 c 0,0.126 -0.103,0.228 -0.228,0.228 H 26.69 c -0.126,0 -0.228,-0.103 -0.228,-0.228 v -2.771 c 0,-0.126 0.103,-0.228 0.228,-0.228 h 2.771 c 0.125,-0.001 0.228,0.102 0.228,0.228 z m -3.48,-4.873 c 0,-0.126 0.103,-0.228 0.228,-0.228 h 2.771 c 0.126,0 0.228,0.103 0.228,0.228 v 2.771 c 0,0.126 -0.103,0.228 -0.228,0.228 h -2.771 c -0.126,0 -0.228,-0.103 -0.228,-0.228 z m -0.289,4.873 v 2.771 c 0,0.126 -0.103,0.228 -0.228,0.228 h -2.771 c -0.126,0 -0.228,-0.103 -0.228,-0.228 v -2.771 c 0,-0.126 0.103,-0.228 0.228,-0.228 h 2.771 c 0.125,-0.001 0.228,0.102 0.228,0.228 z m -3.904,-4.873 c 0,-0.126 0.103,-0.228 0.228,-0.228 h 2.771 c 0.126,0 0.228,0.103 0.228,0.228 v 2.771 c 0,0.126 -0.103,0.228 -0.228,0.228 h -2.771 c -0.126,0 -0.228,-0.103 -0.228,-0.228 z m 0.135,4.873 v 2.771 c 0,0.126 -0.103,0.228 -0.228,0.228 h -2.771 c -0.126,0 -0.228,-0.103 -0.228,-0.228 v -2.771 c 0,-0.126 0.103,-0.228 0.228,-0.228 h 2.771 c 0.125,-0.001 0.228,0.102 0.228,0.228 z m -4.328,-4.873 c 0,-0.126 0.103,-0.228 0.228,-0.228 h 2.771 c 0.126,0 0.228,0.103 0.228,0.228 v 2.771 c 0,0.126 -0.103,0.228 -0.228,0.228 h -2.771 c -0.126,0 -0.228,-0.103 -0.228,-0.228 z m -4.193,0 c 0,-0.126 0.103,-0.228 0.228,-0.228 h 2.771 c 0.126,0 0.228,0.103 0.228,0.228 v 2.771 c 0,0.126 -0.103,0.228 -0.228,0.228 h -2.771 c -0.126,0 -0.228,-0.103 -0.228,-0.228 z m -2.245,4.873 c 0,-0.126 0.103,-0.228 0.228,-0.228 h 2.771 c 0.126,0 0.228,0.103 0.228,0.228 v 2.771 c 0,0.126 -0.103,0.228 -0.228,0.228 h -2.771 c -0.126,0 -0.228,-0.103 -0.228,-0.228 z M 7.616,37.092 c 0,-0.126 0.103,-0.228 0.228,-0.228 h 2.771 c 0.126,0 0.228,0.103 0.228,0.228 v 2.771 c 0,0.126 -0.103,0.228 -0.228,0.228 h -2.77 c -0.126,0 -0.228,-0.103 -0.228,-0.228 v -2.771 z m 0,4.873 c 0,-0.126 0.103,-0.228 0.228,-0.228 h 2.771 c 0.126,0 0.228,0.103 0.228,0.228 v 2.771 c 0,0.126 -0.103,0.228 -0.228,0.228 h -2.77 c -0.126,0 -0.228,-0.103 -0.228,-0.228 v -2.771 z m 0,3.902 c 0,-0.126 0.103,-0.228 0.228,-0.228 h 4.275 c 0.126,0 0.228,0.103 0.228,0.228 v 2.771 c 0,0.126 -0.103,0.228 -0.228,0.228 H 7.845 c -0.126,0 -0.228,-0.103 -0.228,-0.228 v -2.771 z m 0,3.883 c 0,-0.126 0.103,-0.228 0.228,-0.228 h 5.246 c 0.126,0 0.228,0.103 0.228,0.228 v 2.771 c 0,0.126 -0.103,0.228 -0.228,0.228 H 7.845 c -0.126,0 -0.228,-0.103 -0.228,-0.228 V 49.75 Z m 0,3.884 c 0,-0.126 0.103,-0.228 0.228,-0.228 h 7.171 c 0.126,0 0.228,0.103 0.228,0.228 v 2.771 c 0,0.126 -0.103,0.228 -0.228,0.228 h -7.17 c -0.126,0 -0.228,-0.103 -0.228,-0.228 v -2.771 z m 4.875,6.596 c 0,0.126 -0.103,0.228 -0.228,0.228 H 7.845 c -0.126,0 -0.228,-0.103 -0.228,-0.228 v -2.77 c 0,-0.126 0.103,-0.228 0.228,-0.228 h 4.418 c 0.126,0 0.228,0.103 0.228,0.228 z m 3.841,0 c 0,0.126 -0.103,0.228 -0.228,0.228 h -2.771 c -0.126,0 -0.228,-0.103 -0.228,-0.228 v -2.77 c 0,-0.126 0.103,-0.228 0.228,-0.228 h 2.771 c 0.126,0 0.228,0.103 0.228,0.228 z m 3.895,0 c 0,0.126 -0.103,0.228 -0.228,0.228 H 17.228 C 17.102,60.458 17,60.355 17,60.23 v -2.77 c 0,-0.126 0.103,-0.228 0.228,-0.228 h 2.771 c 0.126,0 0.228,0.103 0.228,0.228 z m 3.859,0 c 0,0.126 -0.103,0.228 -0.228,0.228 h -2.771 c -0.126,0 -0.228,-0.103 -0.228,-0.228 v -2.77 c 0,-0.126 0.103,-0.228 0.228,-0.228 h 2.771 c 0.126,0 0.228,0.103 0.228,0.228 z m 23.204,0 c 0,0.126 -0.103,0.228 -0.228,0.228 H 24.916 c -0.126,0 -0.228,-0.103 -0.228,-0.228 v -2.77 c 0,-0.126 0.103,-0.228 0.228,-0.228 h 22.146 c 0.126,0 0.228,0.103 0.228,0.228 z m 0,-3.826 v -2.771 c 0,-0.126 0.103,-0.228 0.228,-0.228 h 2.771 c 0.126,0 0.228,0.103 0.228,0.228 v 2.771 c 0,0.126 -0.103,0.228 -0.228,0.228 H 47.518 C 47.393,56.633 47.29,56.53 47.29,56.404 Z m 4.075,3.826 c 0,0.126 -0.103,0.228 -0.228,0.228 h -2.771 c -0.126,0 -0.228,-0.103 -0.228,-0.228 v -2.77 c 0,-0.126 0.103,-0.228 0.228,-0.228 h 2.771 c 0.126,0 0.228,0.103 0.228,0.228 z m -0.154,-3.826 v -2.771 c 0,-0.126 0.103,-0.228 0.228,-0.228 h 2.771 c 0.126,0 0.228,0.103 0.228,0.228 v 2.771 c 0,0.126 -0.103,0.228 -0.228,0.228 h -2.77 c -0.126,0.001 -0.229,-0.102 -0.229,-0.228 z m 4.081,3.826 c 0,0.126 -0.103,0.228 -0.228,0.228 h -2.771 c -0.126,0 -0.228,-0.103 -0.228,-0.228 v -2.77 c 0,-0.126 0.103,-0.228 0.228,-0.228 h 2.771 c 0.126,0 0.228,0.103 0.228,0.228 z m 3.927,0 c 0,0.126 -0.103,0.228 -0.228,0.228 H 56.22 c -0.126,0 -0.228,-0.103 -0.228,-0.228 v -2.77 c 0,-0.126 0.103,-0.228 0.228,-0.228 h 2.771 c 0.126,0 0.228,0.103 0.228,0.228 z m 3.927,0 c 0,0.126 -0.103,0.228 -0.228,0.228 h -2.771 c -0.126,0 -0.228,-0.103 -0.228,-0.228 v -2.77 c 0,-0.126 0.103,-0.228 0.228,-0.228 h 2.771 c 0.126,0 0.228,0.103 0.228,0.228 z m 0,-3.826 c 0,0.126 -0.103,0.228 -0.228,0.228 h -7.557 c -0.126,0 -0.228,-0.103 -0.228,-0.228 v -2.771 c 0,-0.126 0.103,-0.228 0.228,-0.228 h 7.557 c 0.126,0 0.228,0.103 0.228,0.228 z m 0,-3.883 c 0,0.126 -0.103,0.228 -0.228,0.228 h -2.042 c -0.126,0 -0.228,-0.103 -0.228,-0.228 v -3.426 c 0,-0.126 -0.103,-0.228 -0.228,-0.228 h -0.891 c -0.126,0 -0.228,-0.103 -0.228,-0.228 v -2.771 c 0,-0.126 0.103,-0.228 0.228,-0.228 h 3.39 c 0.126,0 0.228,0.103 0.228,0.228 v 6.653 z m 0,-7.786 c 0,0.126 -0.103,0.228 -0.228,0.228 h -6.075 c -0.126,0 -0.228,-0.103 -0.228,-0.228 v -2.771 c 0,-0.126 0.103,-0.228 0.228,-0.228 h 6.075 c 0.126,0 0.228,0.103 0.228,0.228 z m 0,-4.873 c 0,0.126 -0.103,0.228 -0.228,0.228 h -2.771 c -0.126,0 -0.228,-0.103 -0.228,-0.228 v -2.771 c 0,-0.126 0.103,-0.228 0.228,-0.228 h 2.771 c 0.126,0 0.228,0.103 0.228,0.228 z m 5.139,20.368 c 0,0.126 -0.103,0.228 -0.228,0.228 h -2.771 c -0.126,0 -0.228,-0.103 -0.228,-0.228 v -2.77 c 0,-0.126 0.103,-0.228 0.228,-0.228 h 2.771 c 0.126,0 0.228,0.103 0.228,0.228 z m 0,-11.592 c 0,0.126 -0.103,0.228 -0.228,0.228 h -2.771 c -0.126,0 -0.228,-0.103 -0.228,-0.228 v -2.771 c 0,-0.126 0.103,-0.228 0.228,-0.228 h 2.771 c 0.126,0 0.228,0.103 0.228,0.228 z m 0,-3.903 c 0,0.126 -0.103,0.228 -0.228,0.228 h -2.771 c -0.126,0 -0.228,-0.103 -0.228,-0.228 v -2.771 c 0,-0.126 0.103,-0.228 0.228,-0.228 h 2.771 c 0.126,0 0.228,0.103 0.228,0.228 z m 0,-4.873 c 0,0.126 -0.103,0.228 -0.228,0.228 h -2.771 c -0.126,0 -0.228,-0.103 -0.228,-0.228 v -2.771 c 0,-0.126 0.103,-0.228 0.228,-0.228 h 2.771 c 0.126,0 0.228,0.103 0.228,0.228 z M 72.34,60.23 c 0,0.126 -0.103,0.228 -0.228,0.228 h -2.771 c -0.126,0 -0.228,-0.103 -0.228,-0.228 v -2.77 c 0,-0.126 0.103,-0.228 0.228,-0.228 h 2.771 c 0.126,0 0.228,0.103 0.228,0.228 z m 0,-3.902 c 0,0.126 -0.103,0.228 -0.228,0.228 h -2.771 c -0.126,0 -0.228,-0.103 -0.228,-0.228 v -2.771 c 0,-0.126 0.103,-0.228 0.228,-0.228 h 2.771 c 0.126,0 0.228,0.103 0.228,0.228 z m 0,-7.69 c 0,0.126 -0.103,0.228 -0.228,0.228 h -2.771 c -0.126,0 -0.228,-0.103 -0.228,-0.228 v -2.771 c 0,-0.126 0.103,-0.228 0.228,-0.228 h 2.771 c 0.126,0 0.228,0.103 0.228,0.228 z m 0,-3.903 c 0,0.126 -0.103,0.228 -0.228,0.228 h -2.771 c -0.126,0 -0.228,-0.103 -0.228,-0.228 v -2.771 c 0,-0.126 0.103,-0.228 0.228,-0.228 h 2.771 c 0.126,0 0.228,0.103 0.228,0.228 z m 0,-4.873 c 0,0.126 -0.103,0.228 -0.228,0.228 h -2.771 c -0.126,0 -0.228,-0.103 -0.228,-0.228 v -2.771 c 0,-0.126 0.103,-0.228 0.228,-0.228 h 2.771 c 0.126,0 0.228,0.103 0.228,0.228 z m 4.055,20.368 c 0,0.126 -0.103,0.228 -0.228,0.228 h -2.771 c -0.126,0 -0.228,-0.103 -0.228,-0.228 v -2.77 c 0,-0.126 0.103,-0.228 0.228,-0.228 h 2.771 c 0.126,0 0.228,0.103 0.228,0.228 z m 0,-11.592 c 0,0.126 -0.103,0.228 -0.228,0.228 h -2.771 c -0.126,0 -0.228,-0.103 -0.228,-0.228 v -2.771 c 0,-0.126 0.103,-0.228 0.228,-0.228 h 2.771 c 0.126,0 0.228,0.103 0.228,0.228 z m 0,-3.903 c 0,0.126 -0.103,0.228 -0.228,0.228 h -2.771 c -0.126,0 -0.228,-0.103 -0.228,-0.228 v -2.771 c 0,-0.126 0.103,-0.228 0.228,-0.228 h 2.771 c 0.126,0 0.228,0.103 0.228,0.228 z m 0,-4.873 c 0,0.126 -0.103,0.228 -0.228,0.228 h -2.771 c -0.126,0 -0.228,-0.103 -0.228,-0.228 v -2.771 c 0,-0.126 0.103,-0.228 0.228,-0.228 h 2.771 c 0.126,0 0.228,0.103 0.228,0.228 z m 8.28,20.483 c 0,0.126 -0.103,0.228 -0.228,0.228 h -6.625 c -0.126,0 -0.228,-0.103 -0.228,-0.228 v -2.771 c 0,-0.126 0.103,-0.228 0.228,-0.228 h 6.625 c 0.126,0 0.228,0.103 0.228,0.228 z m 0,-3.903 c 0,0.126 -0.103,0.228 -0.228,0.228 h -2.771 c -0.126,0 -0.228,-0.103 -0.228,-0.228 v -2.771 c 0,-0.126 0.103,-0.228 0.228,-0.228 h 2.771 c 0.126,0 0.228,0.103 0.228,0.228 z m 0,-3.902 c 0,0.126 -0.103,0.228 -0.228,0.228 h -2.771 c -0.126,0 -0.228,-0.103 -0.228,-0.228 v -2.771 c 0,-0.126 0.103,-0.228 0.228,-0.228 h 2.771 c 0.126,0 0.228,0.103 0.228,0.228 z m 0,-3.902 c 0,0.126 -0.103,0.228 -0.228,0.228 h -2.771 c -0.126,0 -0.228,-0.103 -0.228,-0.228 v -2.771 c 0,-0.126 0.103,-0.228 0.228,-0.228 h 2.771 c 0.126,0 0.228,0.103 0.228,0.228 z m 0,-3.903 c 0,0.126 -0.103,0.228 -0.228,0.228 h -2.771 c -0.126,0 -0.228,-0.103 -0.228,-0.228 v -2.771 c 0,-0.126 0.103,-0.228 0.228,-0.228 h 2.771 c 0.126,0 0.228,0.103 0.228,0.228 z m -1,-6.755 c 0,-0.552 0.447,-0.999 0.999,-0.999 0.552,0 0.999,0.447 0.999,0.999 0,0.552 -0.447,0.999 -0.999,0.999 -0.551,10e-4 -0.999,-0.447 -0.999,-0.999 z m 4.854,22.365 c 0,0.126 -0.103,0.228 -0.228,0.228 H 85.53 c -0.126,0 -0.228,-0.103 -0.228,-0.228 v -2.771 c 0,-0.126 0.103,-0.228 0.228,-0.228 h 2.771 c 0.126,0 0.228,0.103 0.228,0.228 z m 0,-3.903 c 0,0.126 -0.103,0.228 -0.228,0.228 H 85.53 c -0.126,0 -0.228,-0.103 -0.228,-0.228 v -2.771 c 0,-0.126 0.103,-0.228 0.228,-0.228 h 2.771 c 0.126,0 0.228,0.103 0.228,0.228 z m 0,-3.902 c 0,0.126 -0.103,0.228 -0.228,0.228 H 85.53 c -0.126,0 -0.228,-0.103 -0.228,-0.228 v -2.771 c 0,-0.126 0.103,-0.228 0.228,-0.228 h 2.771 c 0.126,0 0.228,0.103 0.228,0.228 z m 0,-3.902 c 0,0.126 -0.103,0.228 -0.228,0.228 H 85.53 c -0.126,0 -0.228,-0.103 -0.228,-0.228 v -2.771 c 0,-0.126 0.103,-0.228 0.228,-0.228 h 2.771 c 0.126,0 0.228,0.103 0.228,0.228 z m 0,-3.903 c 0,0.126 -0.103,0.228 -0.228,0.228 H 85.53 c -0.126,0 -0.228,-0.103 -0.228,-0.228 v -2.771 c 0,-0.126 0.103,-0.228 0.228,-0.228 h 2.771 c 0.126,0 0.228,0.103 0.228,0.228 z m -0.17,-5.755 c -0.552,0 -0.999,-0.447 -0.999,-0.999 0,-0.552 0.447,-0.999 0.999,-0.999 0.552,0 0.999,0.447 0.999,0.999 0,0.551 -0.447,0.999 -0.999,0.999 z m 4.025,21.25 c 0,0.126 -0.103,0.228 -0.228,0.228 h -2.771 c -0.126,0 -0.228,-0.103 -0.228,-0.228 v -6.559 c 0,-0.126 0.103,-0.228 0.228,-0.228 h 2.771 c 0.126,0 0.228,0.103 0.228,0.228 z m 0,-7.69 c 0,0.126 -0.103,0.228 -0.228,0.228 h -2.771 c -0.126,0 -0.228,-0.103 -0.228,-0.228 v -2.771 c 0,-0.126 0.103,-0.228 0.228,-0.228 h 2.771 c 0.126,0 0.228,0.103 0.228,0.228 z m 0,-3.902 c 0,0.126 -0.103,0.228 -0.228,0.228 h -2.771 c -0.126,0 -0.228,-0.103 -0.228,-0.228 v -2.771 c 0,-0.126 0.103,-0.228 0.228,-0.228 h 2.771 c 0.126,0 0.228,0.103 0.228,0.228 z m 0,-3.903 c 0,0.126 -0.103,0.228 -0.228,0.228 h -2.771 c -0.126,0 -0.228,-0.103 -0.228,-0.228 v -2.771 c 0,-0.126 0.103,-0.228 0.228,-0.228 h 2.771 c 0.126,0 0.228,0.103 0.228,0.228 z"
         style="fill:#000000" />
    </g>
  </g>
</svg>
