<?xml version="1.0" encoding="UTF-8" standalone="no"?>
<svg
   xmlns:dc="http://purl.org/dc/elements/1.1/"
   xmlns:cc="http://creativecommons.org/ns#"
   xmlns:rdf="http://www.w3.org/1999/02/22-rdf-syntax-ns#"
   xmlns:svg="http://www.w3.org/2000/svg"
   xmlns="http://www.w3.org/2000/svg"
   height="100%"
   width="100%"
   id="svg22"
   xml:space="preserve"
   enable-background="new 0 0 100 100"
   viewBox="0 0 91.300003 91.300003"
   y="0px"
   x="0px"
   version="1.1"><metadata
     id="metadata28"><rdf:RDF><cc:Work
         rdf:about=""><dc:format>image/svg+xml</dc:format><dc:type
           rdf:resource="http://purl.org/dc/dcmitype/StillImage" /><dc:title></dc:title></cc:Work></rdf:RDF></metadata><defs
     id="defs26" /><ellipse
     ry="42.902542"
     rx="43.432205"
     cy="45.438137"
     cx="45.690796"
     id="path835"
     style="opacity:1;fill:#ffdd55;fill-opacity:1;stroke:#000000;stroke-width:0;stroke-linejoin:round;stroke-miterlimit:4;stroke-dasharray:none;stroke-dashoffset:0.4183937;stroke-opacity:1" /><g
     transform="translate(-4.627,-4.35)"
     id="g14"><path
       id="path2"
       d="m 50.048,61.368 c 4.418,0 8.421,1.798 11.323,4.699 l 4.691,-4.691 C 62.689,58.004 58.261,55.69 53.325,54.972 l -6.799,6.8 c 1.135,-0.256 2.311,-0.404 3.522,-0.404 z" /><path
       id="path4"
       d="m 43.477,70.818 6.571,6.572 6.571,-6.572 c -1.681,-1.683 -4.006,-2.723 -6.571,-2.722 -2.566,10e-4 -4.89,1.04 -6.571,2.722 z" /><path
       id="path6"
       d="m 50.048,41.544 c -9.882,-10e-4 -18.845,4.02 -25.336,10.51 l 4.693,4.691 c 3.758,-3.757 8.535,-6.491 13.872,-7.764 l 7.421,-7.422 c -0.217,-0.002 -0.432,-0.015 -0.65,-0.015 z" /><path
       id="path8"
       d="m 70.692,56.746 4.69,-4.691 C 72.127,48.8 68.249,46.167 63.947,44.35 l -5.167,5.166 c 4.549,1.428 8.621,3.938 11.912,7.23 z" /><path
       id="path10"
       d="m 50.048,28.319 c -13.528,0 -25.797,5.503 -34.682,14.39 l 4.692,4.692 c 7.684,-7.684 18.292,-12.442 29.991,-12.443 2.286,0 4.527,0.187 6.717,0.537 l 5.605,-5.606 c -3.939,-1.024 -8.068,-1.57 -12.323,-1.57 z" /><path
       id="path12"
       d="m 68.905,39.392 c 4.137,2.062 7.897,4.771 11.134,8.006 l 4.69,-4.691 C 81.506,39.483 77.832,36.712 73.818,34.479 Z" /></g><path
     style="fill:#ff0000"
     id="path16"
     d="M 45.65,0 C 20.479,0 0,20.479 0,45.65 0,70.822 20.479,91.3 45.65,91.3 70.822,91.3 91.3,70.821 91.3,45.65 91.301,20.479 70.822,0 45.65,0 Z m 0,6.586 c 9.419,0 18.069,3.351 24.823,8.923 L 15.509,70.473 C 9.937,63.719 6.586,55.069 6.586,45.65 6.586,24.11 24.111,6.586 45.65,6.586 Z m 0,78.127 c -9.418,0 -18.068,-3.35 -24.821,-8.921 L 75.793,20.829 c 5.571,6.753 8.921,15.403 8.921,24.821 0,21.54 -17.524,39.063 -39.064,39.063 z" /></svg>