<?xml version="1.0" encoding="UTF-8" standalone="no"?>
<svg
        xmlns:dc="http://purl.org/dc/elements/1.1/"
        xmlns:cc="http://creativecommons.org/ns#"
        xmlns:rdf="http://www.w3.org/1999/02/22-rdf-syntax-ns#"
        xmlns:svg="http://www.w3.org/2000/svg"
        xmlns="http://www.w3.org/2000/svg"
        height="100%"
        width="100%"
        id="svg8"
        xml:space="preserve"
        enable-background="new 0 0 100 100"
        viewBox="0 0 94.833 94.834999"
        y="0px"
        x="0px"
        version="1.1"><metadata
     id="metadata14"><rdf:RDF><cc:Work
         rdf:about=""><dc:format>image/svg+xml</dc:format><dc:type
        rdf:resource="http://purl.org/dc/dcmitype/StillImage"/><dc:title></dc:title></cc:Work></rdf:RDF></metadata>
    <defs
            id="defs12"/>
    <ellipse
            ry="35.752117"
            rx="38.665253"
            cy="45.311695"
            cx="47.669491"
            id="path830"
            style="opacity:1;fill:#ffffff;fill-opacity:1;stroke:#000000;stroke-width:0;stroke-linejoin:round;stroke-miterlimit:4;stroke-dasharray:none;stroke-dashoffset:0.4183937;stroke-opacity:1"/>
    <path
            style="fill:#00d400"
            id="path2"
            d="M 47.417,0 C 21.271,0 0,21.271 0,47.417 0,73.563 21.271,94.835 47.417,94.835 73.563,94.835 94.833,73.564 94.833,47.417 94.833,21.271 73.563,0 47.417,0 Z m 0,74.773 -6.562,-6.565 c 1.678,-1.682 4,-2.718 6.562,-2.718 2.563,-10e-4 4.882,1.036 6.563,2.718 z M 58.726,63.464 c -2.9,-2.897 -6.897,-4.695 -11.31,-4.695 -4.41,0 -8.41,1.798 -11.307,4.695 l -4.684,-4.686 c 4.096,-4.099 9.753,-6.636 15.992,-6.636 6.236,10e-4 11.896,2.537 15.994,6.634 z m 9.31,-9.309 C 62.754,48.873 55.46,45.601 47.418,45.601 c -8.042,0 -15.335,3.271 -20.616,8.554 l -4.686,-4.687 c 6.482,-6.481 15.433,-10.496 25.301,-10.495 9.87,0 18.822,4.014 25.303,10.495 z m 9.332,-9.336 C 69.697,37.146 59.101,32.394 47.418,32.394 35.734,32.395 25.142,37.148 17.469,44.821 l -4.688,-4.686 c 8.874,-8.875 21.126,-14.369 34.637,-14.369 13.512,0 25.764,5.496 34.636,14.367 z"/></svg>