<?xml version="1.0" encoding="UTF-8" standalone="no"?>
<svg
   xmlns:dc="http://purl.org/dc/elements/1.1/"
   xmlns:cc="http://creativecommons.org/ns#"
   xmlns:rdf="http://www.w3.org/1999/02/22-rdf-syntax-ns#"
   xmlns:svg="http://www.w3.org/2000/svg"
   xmlns="http://www.w3.org/2000/svg"
   xmlns:xlink="http://www.w3.org/1999/xlink"
   viewBox="0 0 46.501808 34.276085"
   version="1.1"
   id="svg51"
   width="100%"
   height="100%">
  <metadata
     id="metadata55">
    <rdf:RDF>
      <cc:Work
         rdf:about="">
        <dc:format>image/svg+xml</dc:format>
        <dc:type
           rdf:resource="http://purl.org/dc/dcmitype/StillImage" />
        <dc:title></dc:title>
      </cc:Work>
    </rdf:RDF>
  </metadata>
  <defs
     id="0">
    <linearGradient
       id="F">
      <stop
         id="b"
         stop-color="#555753" />
      <stop
         id="c"
         offset="1"
         stop-color="#eeeeec" />
    </linearGradient>
    <linearGradient
       id="G">
      <stop
         id="d"
         stop-color="#fff"
         stop-opacity="0.8" />
      <stop
         id="e"
         offset="1"
         stop-color="#fff"
         stop-opacity="0" />
    </linearGradient>
    <linearGradient
       id="H">
      <stop
         id="f"
         stop-color="#2e3436" />
      <stop
         id="g"
         offset="1"
         stop-color="#555753" />
    </linearGradient>
    <linearGradient
       id="I">
      <stop
         id="h"
         stop-color="#eeeeec" />
      <stop
         id="i"
         offset="1"
         stop-color="#d3d7cf" />
    </linearGradient>
    <linearGradient
       id="J">
      <stop
         id="j"
         stop-color="#d3d7cf" />
      <stop
         id="k"
         offset="1"
         stop-color="#babdb6" />
    </linearGradient>
    <linearGradient
       id="K">
      <stop
         id="l"
         stop-color="#2e3436" />
      <stop
         id="m"
         offset="1"
         stop-color="#2e3436"
         stop-opacity="0" />
    </linearGradient>
    <radialGradient
       cx="24.708"
       cy="42.110001"
       r="22.16"
       id="L"
       xlink:href="#K"
       gradientUnits="userSpaceOnUse"
       gradientTransform="matrix(1.0493151,0,0,-0.13922278,-2.6754465,37.054442)" />
    <linearGradient
       y1="9.0299997"
       x2="0"
       y2="38.969002"
       id="M"
       xlink:href="#J"
       gradientUnits="userSpaceOnUse"
       gradientTransform="translate(-0.74909688,-7.9375)" />
    <linearGradient
       y1="8.9790001"
       x2="0"
       y2="39.02"
       id="N"
       xlink:href="#G"
       gradientUnits="userSpaceOnUse"
       gradientTransform="translate(-0.74909688,-7.9375)" />
    <linearGradient
       y1="36.220001"
       x2="0"
       y2="11.781"
       id="O"
       xlink:href="#J"
       gradientUnits="userSpaceOnUse"
       gradientTransform="translate(-0.74909688,-7.9375)" />
    <linearGradient
       x1="12.28"
       x2="16.719"
       id="P"
       xlink:href="#H"
       gradientUnits="userSpaceOnUse" />
    <linearGradient
       x1="21.780001"
       x2="26.219999"
       id="Q"
       xlink:href="#H"
       gradientUnits="userSpaceOnUse" />
    <linearGradient
       x1="31.18"
       x2="35.618999"
       id="R"
       xlink:href="#H"
       gradientUnits="userSpaceOnUse" />
    <linearGradient
       y1="35.189999"
       x2="0"
       y2="12.813"
       id="S"
       xlink:href="#G"
       gradientUnits="userSpaceOnUse"
       gradientTransform="translate(-0.74909688,-7.9375)" />
    <linearGradient
       y1="20.16"
       x2="0"
       y2="23.594"
       id="T"
       xlink:href="#I"
       gradientUnits="userSpaceOnUse"
       gradientTransform="translate(18.150908,-7.9375)" />
    <linearGradient
       y1="14.515"
       x2="0"
       y2="33.485001"
       id="U"
       xlink:href="#F"
       gradientUnits="userSpaceOnUse" />
    <linearGradient
       xlink:href="#F"
       id="linearGradient880"
       gradientUnits="userSpaceOnUse"
       y1="14.515"
       x2="0"
       y2="33.485001" />
    <linearGradient
       xlink:href="#F"
       id="linearGradient882"
       gradientUnits="userSpaceOnUse"
       y1="14.515"
       x2="0"
       y2="33.485001" />
    <linearGradient
       xlink:href="#F"
       id="linearGradient884"
       gradientUnits="userSpaceOnUse"
       y1="14.515"
       x2="0"
       y2="33.485001" />
    <linearGradient
       xlink:href="#I"
       id="linearGradient886"
       gradientUnits="userSpaceOnUse"
       y1="20.16"
       x2="0"
       y2="23.594"
       gradientTransform="translate(-0.74909688,-7.9375)" />
    <linearGradient
       xlink:href="#I"
       id="linearGradient888"
       gradientUnits="userSpaceOnUse"
       y1="20.16"
       x2="0"
       y2="23.594"
       gradientTransform="translate(8.751198,-1.8768763)" />
  </defs>
  <path
     d="m 46.501806,31.191578 a 23.250903,3.0849221 0 1 0 -46.501806,0 23.250903,3.0849221 0 1 0 46.501806,0 z"
     id="1"
     opacity="0.8"
     fill="url(#L)"
     style="fill:url(#L);stroke-width:1.2343" />
  <path
     d="m 4.4696531,0 c -1.108,0 -2,0.892 -2,2 v 28.125 c 0,1.108 0.892,2 2,2 H 42.032153 c 1.108,0 2,-0.892 2,-2 V 2 c 0,-1.108 -0.892,-2 -2,-2 z"
     id="2"
     fill="#555753" />
  <path
     d="M 4.4696531,1.09375 C 3.94552,1.09375 3.5634031,1.4758669 3.5634031,2 v 28.125 c 0,0.524133 0.3821169,0.90625 0.90625,0.90625 H 42.032153 c 0.524133,0 0.90625,-0.382117 0.90625,-0.90625 V 2 c 0,-0.5241331 -0.382117,-0.90625 -0.90625,-0.90625 z"
     id="3"
     fill="url(#M)"
     style="fill:url(#M)" />
  <path
     d="m 4.4696531,1.5625 c -0.2768191,0 -0.4375,0.1606809 -0.4375,0.4375 v 28.125 c 0,0.276819 0.1606809,0.4375 0.4375,0.4375 H 42.032153 c 0.276819,0 0.4375,-0.160681 0.4375,-0.4375 V 2 c 0,-0.2768191 -0.160681,-0.4375 -0.4375,-0.4375 z"
     id="4"
     opacity="0.8"
     fill="none"
     stroke="url(#N)"
     stroke-linejoin="round"
     stroke-linecap="round"
     stroke-width="1.042"
     style="stroke:url(#N)" />
  <path
     d="m 6.8134031,4.34375 v 23.4375 H 39.688403 V 4.34375 Z"
     id="5"
     fill="url(#O)"
     stroke="#888a85"
     style="fill:url(#O)" />
  <g
     id="6"
     stroke="url(#U)"
     style="stroke:url(#U)"
     transform="translate(-0.74909688,-7.9375)">
    <rect
       width="4.4390001"
       height="18"
       x="21.780001"
       y="15"
       id="V"
       fill="url(#Q)"
       stroke-linejoin="round"
       stroke-linecap="square"
       stroke-width="0.97"
       rx="2.0999999"
       style="fill:url(#Q);stroke:url(#linearGradient880)" />
    <rect
       width="4.4390001"
       height="18"
       x="12.28"
       y="15"
       id="W"
       fill="url(#P)"
       stroke-linejoin="round"
       stroke-linecap="square"
       stroke-width="0.97"
       rx="2.0999999"
       style="fill:url(#P);stroke:url(#linearGradient882)" />
    <rect
       width="4.4390001"
       height="18"
       x="31.18"
       y="15"
       id="X"
       fill="url(#R)"
       stroke-linejoin="round"
       stroke-linecap="square"
       stroke-width="0.97"
       rx="2.0999999"
       style="fill:url(#R);stroke:url(#linearGradient884)" />
  </g>
  <g
     id="7"
     transform="translate(-0.74909688,-7.9375)">
    <rect
       width="8.698"
       height="5.125"
       x="10.151"
       y="19.802"
       id="Y"
       fill="#2e3436"
       rx="1" />
    <rect
       width="8.698"
       height="5.125"
       x="19.650999"
       y="25.862"
       id="Z"
       fill="#2e3436"
       rx="1" />
    <rect
       width="8.698"
       height="5.125"
       x="29.049999"
       y="19.802"
       id="a"
       fill="#2e3436"
       rx="1" />
  </g>
  <rect
     width="8.698"
     height="5.125"
     x="9.4019032"
     y="11.3645"
     id="8"
     fill="#888a85"
     rx="1" />
  <path
     d="m 10.407153,12.21875 c -0.103418,0 -0.15625,0.05283 -0.15625,0.15625 V 15.5 c 0,0.103418 0.05283,0.15625 0.15625,0.15625 h 6.6875 c 0.103418,0 0.15625,-0.05283 0.15625,-0.15625 v -3.125 c 0,-0.103417 -0.05283,-0.15625 -0.15625,-0.15625 z"
     id="9"
     fill="url(#T)"
     style="fill:url(#linearGradient886)" />
  <rect
     width="8.698"
     height="5.125"
     x="18.901901"
     y="17.425501"
     id="A"
     fill="#888a85"
     rx="1" />
  <path
     d="m 19.907448,18.279374 c -0.103418,0 -0.15625,0.05283 -0.15625,0.15625 v 3.125 c 0,0.103418 0.05283,0.15625 0.15625,0.15625 h 6.6875 c 0.103418,0 0.15625,-0.05283 0.15625,-0.15625 v -3.125 c 0,-0.103417 -0.05283,-0.15625 -0.15625,-0.15625 z"
     id="B"
     fill="url(#T)"
     style="fill:url(#linearGradient888)" />
  <rect
     width="8.698"
     height="5.125"
     x="28.300901"
     y="11.3645"
     id="C"
     fill="#888a85"
     rx="1" />
  <path
     d="m 29.307158,12.21875 c -0.103418,0 -0.15625,0.05283 -0.15625,0.15625 V 15.5 c 0,0.103418 0.05283,0.15625 0.15625,0.15625 h 6.6875 c 0.103418,0 0.15625,-0.05283 0.15625,-0.15625 v -3.125 c 0,-0.103417 -0.05283,-0.15625 -0.15625,-0.15625 z"
     id="D"
     fill="url(#T)"
     style="fill:url(#T)" />
  <path
     d="M 7.8446531,5.375 V 26.75 H 38.657153 V 5.375 Z"
     id="E"
     opacity="0.8"
     fill="none"
     stroke="url(#S)"
     style="stroke:url(#S)" />
</svg>
