<?xml version="1.0" encoding="UTF-8" standalone="no"?>
<svg
   xmlns:dc="http://purl.org/dc/elements/1.1/"
   xmlns:cc="http://creativecommons.org/ns#"
   xmlns:rdf="http://www.w3.org/1999/02/22-rdf-syntax-ns#"
   xmlns:svg="http://www.w3.org/2000/svg"
   xmlns="http://www.w3.org/2000/svg"
   id="svg4555"
   version="1.1"
   viewBox="0 0 6.3499999 6.3499999"
   height="100%"
   width="100%">
  <defs
     id="defs4549" />
  <metadata
     id="metadata4552">
    <rdf:RDF>
      <cc:Work
         rdf:about="">
        <dc:format>image/svg+xml</dc:format>
        <dc:type
           rdf:resource="http://purl.org/dc/dcmitype/StillImage" />
        <dc:title></dc:title>
      </cc:Work>
    </rdf:RDF>
  </metadata>
  <g transform="translate(-92.075,-115.42024)" id="layer1">
    <g
       transform="matrix(0.26458333,0,0,0.26458333,92.075,115.42024)"
       style="fill:none;fill-rule:evenodd;stroke:none;stroke-width:1"
       id="g12">
      <g id="g10">
        <rect id="rect6" height="24" width="24" y="0" x="0" />
        <path
           style="fill:#000000;fill-rule:nonzero"
           id="path8"
           d="m 10.667792,2.0000004 h 2.664469 c 0.221631,0.00495 0.431104,0.165526 0.49342,0.3782624 l 0.592104,2.039454 c 0.426315,0.1368945 0.826788,0.323631 1.217103,0.5263148 L 17.509884,3.891402 c 0.199789,-0.1061577 0.467525,-0.063842 0.624999,0.098684 l 1.874996,1.8585753 c 0.164684,0.163526 0.200368,0.4416308 0.08221,0.6414199 l -1.036156,1.8585754 c 0.198947,0.3836834 0.357841,0.7985774 0.49342,1.2171029 l 2.072364,0.5921045 c 0.218,0.06389 0.378263,0.282736 0.378263,0.509841 v 2.6481 c 0.0021,0.227158 -0.160263,0.445947 -0.378263,0.509841 l -2.055943,0.592104 c -0.136263,0.42421 -0.308473,0.828525 -0.509841,1.217103 l 1.036156,1.874997 c 0.11021,0.196473 0.07505,0.463736 -0.08221,0.624998 l -1.874996,1.858576 c -0.157421,0.162526 -0.42521,0.204789 -0.624999,0.09868 l -1.874996,-1.05263 c -0.390315,0.202632 -0.790841,0.389368 -1.217103,0.526315 l -0.592104,2.03947 c -0.05642,0.218789 -0.267631,0.387894 -0.49342,0.394736 h -2.664469 c -0.225842,-0.007 -0.437052,-0.175947 -0.49342,-0.394736 L 9.5822678,19.565793 C 9.1559528,19.428846 8.7554273,19.24211 8.3651649,19.039478 L 6.490168,20.092108 C 6.2903263,20.198213 6.0225373,20.15595 5.8651692,19.993424 L 3.9901728,18.134848 C 3.8328573,17.973586 3.7976995,17.706323 3.9079098,17.50985 L 4.9441183,15.634853 C 4.7426977,15.246275 4.5704875,14.84196 4.4342246,14.41775 L 2.3783343,13.825646 C 2.1602821,13.761752 2.0000192,13.542963 2.0000192,13.315805 v -2.6481 C 1.9979666,10.4406 2.1602821,10.221758 2.3783343,10.157864 L 4.4506982,9.5657596 C 4.5862243,9.1472341 4.7451187,8.7323401 4.9441183,8.3486567 L 3.9079098,6.4900813 C 3.7897521,6.2902922 3.8254363,6.0121874 3.9901728,5.8486614 L 5.8651692,3.9900861 C 6.0225899,3.82756 6.2903263,3.7852443 6.490168,3.891402 L 8.3651649,4.9440316 C 8.7554273,4.7413478 9.1559002,4.5546113 9.5822678,4.4177168 l 0.5921042,-2.039454 c 0.065,-0.1852628 0.21721,-0.3785782 0.49342,-0.3782624 z m 0.742849,1.5 -0.610274,2.1020386 -0.759548,0.2438691 C 9.7488485,5.9396517 9.4431713,6.0743986 9.0565156,6.2752093 L 8.3374225,6.6486723 7.6308629,6.2520074 6.4072795,5.564775 5.5713663,6.3933671 6.6471836,8.3229859 6.2756755,9.0392763 C 6.1340434,9.3123516 6.0044506,9.6365743 5.8777444,10.027863 L 5.6314616,10.788422 4.86278,11.008046 3.5000192,11.397382 v 1.190343 l 2.117776,0.609928 0.2445607,0.761359 c 0.1066313,0.331961 0.2441652,0.658891 0.4134843,0.985539 l 0.3695718,0.712973 -0.3884392,0.702872 -0.6817935,1.23365 0.8316961,0.824607 1.9304574,-1.083765 0.7190414,0.373339 c 0.3867437,0.200804 0.6925838,0.335619 0.9846568,0.429442 l 0.759378,0.243939 0.222378,0.76597 0.392227,1.352617 1.169467,3.08e-4 0.615153,-2.118862 0.759337,-0.243955 c 0.292043,-0.09383 0.597889,-0.228643 0.984781,-0.429497 l 0.719015,-0.373275 0.706423,0.396589 1.223635,0.687264 0.832045,-0.824622 -1.070171,-1.936549 0.369439,-0.712903 c 0.169344,-0.32678 0.306884,-0.653751 0.413506,-0.985681 l 0.244562,-0.761366 0.768447,-0.221309 1.349328,-0.388591 V 11.397391 L 18.368696,10.788452 18.12236,10.028025 C 17.995546,9.6365546 17.865926,9.3122652 17.724302,9.0391324 L 17.352929,8.3229131 17.745781,7.6182463 18.428939,6.3934992 17.59317,5.5648604 15.662677,6.6486462 14.94361,6.2752475 C 14.556807,6.0743869 14.251124,5.9396374 13.959182,5.8458917 L 13.199676,5.6020058 12.977266,4.8359351 12.589414,3.5000004 Z m 3.922692,8.5000236 c 0,1.835273 -1.498,3.333309 -3.333333,3.333309 -1.835333,0 -3.3333333,-1.498036 -3.3333333,-3.333309 0,-1.83532 1.4980003,-3.3333573 3.3333333,-3.3333573 1.835333,0 3.333333,1.4980373 3.333333,3.3333573 z M 12,10.166667 c -1.006893,0 -1.833333,0.826451 -1.833333,1.833357 0,1.006863 0.826444,1.833309 1.833333,1.833309 1.006889,0 1.833333,-0.826446 1.833333,-1.833309 0,-1.006906 -0.82644,-1.833357 -1.833333,-1.833357 z" />
      </g>
    </g>
  </g>
</svg>
