<?xml version="1.0" encoding="UTF-8" standalone="no"?>
<svg
        xmlns:dc="http://purl.org/dc/elements/1.1/"
        xmlns:cc="http://creativecommons.org/ns#"
        xmlns:rdf="http://www.w3.org/1999/02/22-rdf-syntax-ns#"
        xmlns:svg="http://www.w3.org/2000/svg"
        xmlns="http://www.w3.org/2000/svg"
        width="100%"
        height="100%"
        viewBox="0 0 90.779709 107.70998"
        id="svg2"
        version="1.1">
    <title
            id="title4142">tree - coloured
    </title>
    <defs
            id="defs4"/>
    <metadata
            id="metadata7">
        <rdf:RDF>
            <cc:Work
                    rdf:about="">
                <dc:format>image/svg+xml</dc:format>
                <dc:type
                        rdf:resource="http://purl.org/dc/dcmitype/StillImage"/>
                <dc:title>tree - coloured</dc:title>
                <cc:license
                        rdf:resource="http://creativecommons.org/publicdomain/zero/1.0/"/>
                <dc:date>2015-02-07</dc:date>
                <dc:creator>
                    <cc:Agent>
                        <dc:title>Frank Tremmel</dc:title>
                    </cc:Agent>
                </dc:creator>
                <dc:subject>
                    <rdf:Bag>
                        <rdf:li>tree</rdf:li>
                        <rdf:li>plant</rdf:li>
                        <rdf:li>vegetation</rdf:li>
                        <rdf:li>baum</rdf:li>
                        <rdf:li>pflanze</rdf:li>
                        <rdf:li>outline</rdf:li>
                        <rdf:li>line art</rdf:li>
                        <rdf:li/>
                    </rdf:Bag>
                </dc:subject>
                <dc:description>coloured simple line art tree</dc:description>
            </cc:Work>
            <cc:License
                    rdf:about="http://creativecommons.org/publicdomain/zero/1.0/">
                <cc:permits
                        rdf:resource="http://creativecommons.org/ns#Reproduction"/>
                <cc:permits
                        rdf:resource="http://creativecommons.org/ns#Distribution"/>
                <cc:permits
                        rdf:resource="http://creativecommons.org/ns#DerivativeWorks"/>
            </cc:License>
        </rdf:RDF>
    </metadata>
    <g
            id="layer1"
            transform="translate(-10.601159,-944.76037)">
        <path
                id="path4224"
                style="fill:#1d9d00;fill-opacity:1;fill-rule:evenodd;stroke:none;stroke-width:0.354331;stroke-linecap:butt;stroke-linejoin:miter;stroke-miterlimit:4;stroke-dasharray:none;stroke-opacity:1"
                d="m 51.696429,1007.9872 c -3.571529,6.1044 -10.541078,1.2652 -15.038154,0.2735 -5.859415,0.8759 -11.931336,-1.4231 -16.17872,-5.4555 -0.189694,-4.5372 -0.960596,-9.86443 -6.192244,-10.49755 -3.695352,-4.84746 2.842323,-9.94699 1.31052,-15.13354 1.214617,-6.3052 6.811781,-10.94648 9.229746,-16.59355 4.072448,-3.148 10.539196,-2.94867 13.180286,-7.94523 5.749256,-2.44051 12.092574,-3.51314 17.760738,-5.95208 5.066504,0.84076 9.129652,7.02828 14.636289,3.80587 5.790858,0.80401 9.142528,8.38045 15.783435,6.01458 6.470818,0.0196 7.780752,6.73275 7.925717,11.61117 3.489657,3.83139 6.801528,8.32417 4.272608,13.63727 0.440356,4.87779 1.72567,10.04286 -1.291759,14.42254 -1.905112,4.89232 -4.582743,10.36842 -10.107934,11.82842 -5.814569,2.5363 -12.272874,-1.5904 -18.092386,1.2777 -5.559417,0.7732 -10.937677,-1.7487 -16.515124,-1.2659 -0.227672,-0.01 -0.455345,-0.019 -0.683018,-0.028 z"/>
        <path
                id="path4163"
                style="color:#000000;font-style:normal;font-variant:normal;font-weight:normal;font-stretch:normal;font-size:medium;line-height:normal;font-family:sans-serif;text-indent:0;text-align:start;text-decoration:none;text-decoration-line:none;text-decoration-style:solid;text-decoration-color:#000000;letter-spacing:normal;word-spacing:normal;text-transform:none;writing-mode:lr-tb;direction:ltr;baseline-shift:baseline;text-anchor:start;white-space:normal;clip-rule:nonzero;display:inline;overflow:visible;visibility:visible;opacity:1;isolation:auto;mix-blend-mode:normal;color-interpolation:sRGB;color-interpolation-filters:linearRGB;solid-color:#000000;solid-opacity:1;fill:#174000;fill-opacity:1;fill-rule:evenodd;stroke:none;stroke-width:1.77165;stroke-linecap:butt;stroke-linejoin:miter;stroke-miterlimit:4;stroke-dasharray:none;stroke-dashoffset:0;stroke-opacity:1;color-rendering:auto;image-rendering:auto;shape-rendering:auto;text-rendering:auto;enable-background:accumulate"
                d="m 56.386161,945.76898 c -5.864672,0.0562 -10.538893,6.21669 -16.610087,4.18653 -4.756237,3.00595 -8.197343,9.79331 -14.670225,8.37146 -5.430098,2.7977 -4.045591,10.53984 -8.925777,13.88015 -2.35933,4.72443 -0.247544,10.64023 -4.458708,14.64717 -1.311972,6.44867 8.56433,7.05895 7.827278,13.16561 0.05733,5.4053 5.45108,8.2419 10.173665,8.8482 5.175241,-0.2822 10.225991,-0.8345 14.486696,2.9185 5.65893,0.9095 9.823527,-7.4847 16.202969,-3.8494 3.979064,4.4185 9.245545,2.8766 14.143372,1.1853 4.097913,1.0385 8.567084,1.4845 12.620196,-0.4332 4.251774,-1.6614 7.876243,-4.8599 9.740247,-9.05082 4.553493,-4.63066 3.335823,-10.74657 3.05281,-16.50258 1.961023,-6.85782 -3.614186,-11.24938 -5.393897,-17.16924 0.39853,-4.58699 -1.117466,-9.87562 -6.717808,-9.81301 -4.075994,-0.36319 -8.930928,-0.37393 -11.41405,-4.2631 -3.987784,-4.73731 -10.498853,0.72183 -14.39627,-2.85514 -1.601527,-1.46795 -3.26102,-3.4208 -5.660411,-3.26643 z m 1.194754,2.56919 c 4.008343,-0.33033 6.521095,6.51253 10.616876,2.64463 6.240275,10e-4 9.840962,8.2046 16.419686,6.31772 6.768102,-0.98932 10.756643,7.60549 7.744158,13.04988 -2.213995,5.78863 -10.827794,5.65798 -14.283899,1.16219 -0.907257,2.82916 6.047439,6.09201 9.267926,5.33412 3.76496,-0.31993 8.056259,-10.18392 10.074221,-3.23003 1.226067,4.78787 -1.593887,10.21166 1.422695,14.60594 0.40895,6.11055 -5.006512,13.29078 -11.634304,11.6938 -2.69222,-0.62334 -4.760948,-3.56583 -7.020815,-4.24539 1.734931,5.24887 10.088873,6.44697 12.835647,5.97097 -2.588399,6.2969 -11.431647,8.8101 -16.958942,4.8482 -5.436997,-1.3608 -11.281218,4.2973 -16.280428,0.2845 -3.647268,-2.1859 -7.671,0.9695 -11.052737,2.3771 -5.298476,3.019 -10.081003,-1.9703 -13.261738,-5.6749 -1.30031,-1.9008 -4.780443,-5.70767 -3.215204,-1.0521 1.265774,1.8568 4.528113,6.4629 -0.276206,4.9449 -4.46811,-1.4779 -10.109575,-3.2444 -11.533242,-8.30824 -0.706272,-4.77675 3.033039,-8.69593 7.203741,-10.35861 2.522878,-0.81522 8.086552,-4.31856 2.113729,-2.75201 -5.718877,0.17735 -9.359222,11.95517 -14.53639,5.92859 -2.12791,-4.97669 1.364324,-10.09971 0.950212,-15.20169 2.102941,-5.17943 6.983267,-8.83914 7.316169,-14.74658 3.22012,-4.49634 10.75593,-2.07473 13.444004,-7.36262 3.864669,-4.65507 11.249972,-2.42631 15.271799,-6.85907 1.721724,-0.87712 3.853059,-0.47233 5.373042,0.6287 z"/>
        <path
                id="path4172"
                style="fill:#174000;fill-opacity:1;fill-rule:evenodd;stroke:none;stroke-width:0.999213;stroke-linecap:butt;stroke-linejoin:miter;stroke-miterlimit:4;stroke-dasharray:none;stroke-opacity:1"
                d="m 34.910715,965.93363 c 6.03244,-0.95412 10.652607,6.46969 16.715268,3.68558 2.227322,-0.82066 4.878516,-5.39664 6.575051,-4.22975 -3.119427,4.43495 -9.55392,9.91923 -14.376967,4.49325 -2.785331,-1.71007 -5.982926,-2.54307 -8.913352,-3.94908 z"/>
        <path
                id="path4203"
                style="color:#000000;font-style:normal;font-variant:normal;font-weight:normal;font-stretch:normal;font-size:medium;line-height:normal;font-family:sans-serif;text-indent:0;text-align:start;text-decoration:none;text-decoration-line:none;text-decoration-style:solid;text-decoration-color:#000000;letter-spacing:normal;word-spacing:normal;text-transform:none;writing-mode:lr-tb;direction:ltr;baseline-shift:baseline;text-anchor:start;white-space:normal;clip-rule:nonzero;display:inline;overflow:visible;visibility:visible;opacity:1;isolation:auto;mix-blend-mode:normal;color-interpolation:sRGB;color-interpolation-filters:linearRGB;solid-color:#000000;solid-opacity:1;fill:#174000;fill-opacity:1;fill-rule:evenodd;stroke:none;stroke-width:1px;stroke-linecap:butt;stroke-linejoin:miter;stroke-miterlimit:4;stroke-dasharray:none;stroke-dashoffset:0;stroke-opacity:1;color-rendering:auto;image-rendering:auto;shape-rendering:auto;text-rendering:auto;enable-background:accumulate"
                d="m 69.953125,971.88867 c -0.610764,6.05667 -8.085105,5.1566 -12.077312,7.4399 -2.60896,3.47964 -6.956856,6.02629 -11.424581,4.72842 -2.124765,0.46674 -7.102984,-5.16532 -6.25917,-2.68369 4.592938,5.3508 14.409749,5.55559 18.233375,-0.79044 5.274215,-1.17091 12.260109,-2.24129 12.549085,-8.97693 0.33031,-0.94641 0.664685,-2.60892 -1.021397,0.28274 z"/>
        <path
                id="path4222-3"
                style="fill:#921d00;fill-opacity:1;fill-rule:evenodd;stroke:none;stroke-width:0.389764;stroke-linecap:butt;stroke-linejoin:miter;stroke-miterlimit:4;stroke-dasharray:none;stroke-opacity:1"
                d="m 52.097393,1047.9173 c -2.301402,-0.8695 -10.228015,3.6515 -7.146826,-1.576 5.517734,-2.6754 10.001997,-8.1743 8.726559,-14.5712 0.407476,-7.3528 0.727619,-14.7693 -0.301644,-22.0877 -3.187109,-5.8869 -10.92365,-6.0298 -15.631694,-10.04237 -2.344946,-1.70279 -2.001483,-5.90889 0.805932,-2.13838 1.902353,2.59555 9.222051,5.15695 8.283824,-0.40371 3.940741,-0.15684 4.843855,9.38786 9.456642,4.50116 0.429281,-1.4057 0.801967,-8.05374 1.491619,-3.68554 0.40699,7.32694 9.692062,4.72034 13.868487,2.47024 1.461016,-1.34738 8.125917,-6.56404 5.530159,-1.374 -3.430078,5.7359 -11.633304,3.7828 -15.661506,8.4766 -3.048959,5.1074 -0.690987,11.1863 -0.864476,16.7289 0.370799,5.8979 0.994413,11.8182 2.565076,17.5317 2.064534,2.6847 11.13586,4.7687 7.876376,8.2985 -2.676846,-1.7968 -6.660563,-2.8543 -7.451488,0.8703 -2.812402,-1.3407 -6.249202,-5.7168 -7.786639,-0.2257 -1.791782,1.1484 -3.363614,-1.3158 -3.760401,-2.7728 z"/>
        <path
                id="path4136"
                style="color:#000000;font-style:normal;font-variant:normal;font-weight:normal;font-stretch:normal;font-size:medium;line-height:normal;font-family:sans-serif;text-indent:0;text-align:start;text-decoration:none;text-decoration-line:none;text-decoration-style:solid;text-decoration-color:#000000;letter-spacing:normal;word-spacing:normal;text-transform:none;writing-mode:lr-tb;direction:ltr;baseline-shift:baseline;text-anchor:start;white-space:normal;clip-rule:nonzero;display:inline;overflow:visible;visibility:visible;opacity:1;isolation:auto;mix-blend-mode:normal;color-interpolation:sRGB;color-interpolation-filters:linearRGB;solid-color:#000000;solid-opacity:1;fill:#3a0000;fill-opacity:1;fill-rule:evenodd;stroke:none;stroke-width:1.77165;stroke-linecap:butt;stroke-linejoin:miter;stroke-miterlimit:4;stroke-dasharray:none;stroke-dashoffset:0;stroke-opacity:1;color-rendering:auto;image-rendering:auto;shape-rendering:auto;text-rendering:auto;enable-background:accumulate"
                d="m 56.245189,996.82499 c 3.203052,5.47991 -7.705352,7.00841 -6.325968,0.71409 -0.991411,-2.92282 -5.857035,-1.26504 -3.570477,1.47907 -3.550393,5.35345 -9.164478,-6.63525 -10.913681,-1.87201 2.361913,5.95666 9.723636,6.26266 14.481697,9.37186 5.069772,4.5688 2.914411,11.8996 3.253992,17.8914 -0.169079,5.2207 0.03263,10.6492 -1.514121,15.6634 -1.889309,3.6381 -10.159819,4.8847 -7.611861,9.9695 3.860953,-2.4326 8.551044,-0.1807 11.37195,0.9923 2.094354,-2.3289 5.529882,-3.8541 6.505617,0.2138 2.973186,1.4824 5.771465,-5.111 8.27504,-0.6926 5.911907,-0.041 -1.401569,-6.3276 -3.690785,-7.3849 -4.553298,-3.226 -4.149043,-8.9138 -4.792523,-13.7882 -0.842654,-6.8035 -1.336986,-13.7003 -0.633129,-20.5402 4.26742,-4.4601 11.485891,-3.9319 15.614401,-8.5864 4.195705,-0.70299 0.06626,-8.4579 -1.280527,-3.04646 -4.154721,2.96686 -12.897471,8.26066 -16.439318,3.09576 -0.373906,-1.09494 -0.890131,-6.74501 -2.730307,-3.48041 z m 0.508159,0.8929 c 1.283375,3.54351 3.103934,9.10811 7.766796,5.61321 4.915227,-0.9048 9.09888,-3.8717 13.125859,-6.65784 -1.740482,5.87054 -8.65234,6.38754 -13.617542,7.82664 -5.334848,1.4404 -5.42875,7.9071 -4.63973,12.394 0.711658,8.13 0.65635,16.3682 2.364834,24.3859 1.471591,3.8864 11.534447,4.4408 8.832239,8.5996 -1.872229,-1.5073 -7.472448,-5.0408 -7.246846,-4.5958 3.988126,0.9485 -1.116414,8.7181 -1.410361,2.8369 -2.510203,-4.2936 -10.004258,6.419 -8.426698,-1.4098 1.056359,-2.0353 4.101752,-4.3359 0.695929,-1.4907 -2.464215,1.1949 -7.208954,5.4642 -9.198642,2.0782 4.377453,-3.2938 11.270441,-6.7335 9.356909,-13.3649 0.266973,-8.3331 0.677645,-16.7564 -0.825232,-25.0049 -2.811703,-6.0928 -10.681745,-5.9889 -15.524343,-9.4728 -1.738681,-1.48977 -1.449025,-4.29525 0.295834,-1.19416 2.342165,2.27996 8.789175,3.59926 9.751373,4.13806 -2.505792,-1.4061 -0.366744,-8.29726 1.05088,-3.21526 -0.06686,6.53126 10.888683,4.99876 7.677192,-1.3509 l -0.02845,-0.11545 z"/>
        <path
                id="path4178"
                style="color:#000000;font-style:normal;font-variant:normal;font-weight:normal;font-stretch:normal;font-size:medium;line-height:normal;font-family:sans-serif;text-indent:0;text-align:start;text-decoration:none;text-decoration-line:none;text-decoration-style:solid;text-decoration-color:#000000;letter-spacing:normal;word-spacing:normal;text-transform:none;writing-mode:lr-tb;direction:ltr;baseline-shift:baseline;text-anchor:start;white-space:normal;clip-rule:nonzero;display:inline;overflow:visible;visibility:visible;opacity:1;isolation:auto;mix-blend-mode:normal;color-interpolation:sRGB;color-interpolation-filters:linearRGB;solid-color:#000000;solid-opacity:1;fill:#3b0000;fill-opacity:1;fill-rule:evenodd;stroke:none;stroke-width:1px;stroke-linecap:butt;stroke-linejoin:miter;stroke-miterlimit:4;stroke-dasharray:none;stroke-dashoffset:0;stroke-opacity:1;color-rendering:auto;image-rendering:auto;shape-rendering:auto;text-rendering:auto;enable-background:accumulate"
                d="m 57.121067,1007.231 c -3.983229,5.1413 -0.08366,11.6107 -1.263092,17.3409 1.407565,-3.9434 -0.307177,-8.567 -0.113049,-12.7652 -0.964636,-2.438 6.243636,-7.6538 1.376141,-4.5757 z"/>
        <path
                id="path4178-4"
                style="color:#000000;font-style:normal;font-variant:normal;font-weight:normal;font-stretch:normal;font-size:medium;line-height:normal;font-family:sans-serif;text-indent:0;text-align:start;text-decoration:none;text-decoration-line:none;text-decoration-style:solid;text-decoration-color:#000000;letter-spacing:normal;word-spacing:normal;text-transform:none;writing-mode:lr-tb;direction:ltr;baseline-shift:baseline;text-anchor:start;white-space:normal;clip-rule:nonzero;display:inline;overflow:visible;visibility:visible;opacity:1;isolation:auto;mix-blend-mode:normal;color-interpolation:sRGB;color-interpolation-filters:linearRGB;solid-color:#000000;solid-opacity:1;fill:#3b0000;fill-opacity:1;fill-rule:evenodd;stroke:none;stroke-width:1px;stroke-linecap:butt;stroke-linejoin:miter;stroke-miterlimit:4;stroke-dasharray:none;stroke-dashoffset:0;stroke-opacity:1;color-rendering:auto;image-rendering:auto;shape-rendering:auto;text-rendering:auto;enable-background:accumulate"
                d="m 59.017283,1031.9069 c 2.094135,-4.022 -1.530537,-13.0839 -1.915848,-13.7039 1.329129,4.1399 2.60699,13.3167 1.170362,14.3348 z"/>
        <path
                id="path4178-48"
                style="color:#000000;font-style:normal;font-variant:normal;font-weight:normal;font-stretch:normal;font-size:medium;line-height:normal;font-family:sans-serif;text-indent:0;text-align:start;text-decoration:none;text-decoration-line:none;text-decoration-style:solid;text-decoration-color:#000000;letter-spacing:normal;word-spacing:normal;text-transform:none;writing-mode:lr-tb;direction:ltr;baseline-shift:baseline;text-anchor:start;white-space:normal;clip-rule:nonzero;display:inline;overflow:visible;visibility:visible;opacity:1;isolation:auto;mix-blend-mode:normal;color-interpolation:sRGB;color-interpolation-filters:linearRGB;solid-color:#000000;solid-opacity:1;fill:#3b0000;fill-opacity:1;fill-rule:evenodd;stroke:none;stroke-width:1px;stroke-linecap:butt;stroke-linejoin:miter;stroke-miterlimit:4;stroke-dasharray:none;stroke-dashoffset:0;stroke-opacity:1;color-rendering:auto;image-rendering:auto;shape-rendering:auto;text-rendering:auto;enable-background:accumulate"
                d="m 51.514924,1043.9967 c 5.459139,0.5029 5.118353,-10.3835 4.543467,-10.4182 -0.101579,5.1692 -1.810517,10.6945 -7.491057,11.7295 -1.978975,2.2015 2.508447,-1.2961 2.94759,-1.3113 z"/>
        <path
                id="path4178-8"
                style="color:#000000;font-style:normal;font-variant:normal;font-weight:normal;font-stretch:normal;font-size:medium;line-height:normal;font-family:sans-serif;text-indent:0;text-align:start;text-decoration:none;text-decoration-line:none;text-decoration-style:solid;text-decoration-color:#000000;letter-spacing:normal;word-spacing:normal;text-transform:none;writing-mode:lr-tb;direction:ltr;baseline-shift:baseline;text-anchor:start;white-space:normal;clip-rule:nonzero;display:inline;overflow:visible;visibility:visible;opacity:1;isolation:auto;mix-blend-mode:normal;color-interpolation:sRGB;color-interpolation-filters:linearRGB;solid-color:#000000;solid-opacity:1;fill:#3b0000;fill-opacity:1;fill-rule:evenodd;stroke:none;stroke-width:1px;stroke-linecap:butt;stroke-linejoin:miter;stroke-miterlimit:4;stroke-dasharray:none;stroke-dashoffset:0;stroke-opacity:1;color-rendering:auto;image-rendering:auto;shape-rendering:auto;text-rendering:auto;enable-background:accumulate"
                d="m 56.83199,1038.8002 c -1.098968,4.1647 6.310455,8.6141 6.726658,9.2699 -1.78651,-3.4707 -8.259801,-5.9315 -5.580647,-10.4732 l -0.440188,0.4182 -0.705823,0.7846 z"/>
        <path
                id="path4174"
                style="color:#000000;font-style:normal;font-variant:normal;font-weight:normal;font-stretch:normal;font-size:medium;line-height:normal;font-family:sans-serif;text-indent:0;text-align:start;text-decoration:none;text-decoration-line:none;text-decoration-style:solid;text-decoration-color:#000000;letter-spacing:normal;word-spacing:normal;text-transform:none;writing-mode:lr-tb;direction:ltr;baseline-shift:baseline;text-anchor:start;white-space:normal;clip-rule:nonzero;display:inline;overflow:visible;visibility:visible;opacity:1;isolation:auto;mix-blend-mode:normal;color-interpolation:sRGB;color-interpolation-filters:linearRGB;solid-color:#000000;solid-opacity:1;fill:#174000;fill-opacity:1;fill-rule:evenodd;stroke:none;stroke-width:1px;stroke-linecap:butt;stroke-linejoin:miter;stroke-miterlimit:4;stroke-dasharray:none;stroke-dashoffset:0;stroke-opacity:1;color-rendering:auto;image-rendering:auto;shape-rendering:auto;text-rendering:auto;enable-background:accumulate"
                d="m 41.196397,988.82119 c -2.601423,3.8929 3.352228,11.44751 7.973517,7.34223 4.262686,-3.05468 8.66446,-1.01674 11.192896,2.88606 4.882542,2.76882 10.701942,-2.26306 13.372282,-5.8368 -4.042113,2.26497 -9.506394,6.89442 -14.280729,3.21258 -3.47091,-6.56712 -11.466916,1.07516 -15.675989,-3.76075 -1.013698,-1.17187 -1.768277,-2.53288 -2.581977,-3.84332 z"/>
    </g>
</svg>
