<?xml version="1.0" encoding="UTF-8" standalone="no"?>
<svg
        xmlns:dc="http://purl.org/dc/elements/1.1/"
        xmlns:cc="http://creativecommons.org/ns#"
        xmlns:rdf="http://www.w3.org/1999/02/22-rdf-syntax-ns#"
        xmlns:svg="http://www.w3.org/2000/svg"
        xmlns="http://www.w3.org/2000/svg"
        xmlns:xlink="http://www.w3.org/1999/xlink"
        id="svg2"
        viewBox="0 0 547.46429 97.732498"
        height="100%"
        width="100%"
        version="1.1">
    <defs
            id="defs4">
        <linearGradient
                id="linearGradient607">
            <stop
                    id="stop608"
                    stop-color="#cfcfcf"
                    offset="0"/>
            <stop
                    id="stop609"
                    stop-color="#efefef"
                    offset="1"/>
        </linearGradient>
        <linearGradient
                id="linearGradient565">
            <stop
                    id="stop566"
                    stop-color="#9d9d9f"
                    offset="0"/>
            <stop
                    id="stop567"
                    stop-color="#e5e5e5"
                    offset="1"/>
        </linearGradient>
        <linearGradient
                id="linearGradient47949"
                x1="2.4161999"
                xlink:href="#linearGradient607"
                gradientUnits="userSpaceOnUse"
                y1="8.0492001"
                gradientTransform="matrix(22.322,0,0,8.8661,434.78,140.57)"
                x2="7.1659002"
                y2="2.2272999"/>
        <linearGradient
                id="linearGradient47952"
                x1="1.0724"
                xlink:href="#linearGradient565"
                gradientUnits="userSpaceOnUse"
                y1="8.1128998"
                gradientTransform="matrix(20.862,0,0,9.4863,433.56,140.57)"
                x2="8.5918999"
                y2="0.87184"/>
        <linearGradient
                id="linearGradient50930"
                x1="2.4161999"
                xlink:href="#linearGradient607"
                gradientUnits="userSpaceOnUse"
                y1="8.0492001"
                gradientTransform="matrix(22.322,0,0,8.8661,264.96,140.57)"
                x2="7.1659002"
                y2="2.2272999"/>
        <linearGradient
                id="linearGradient50932"
                x1="1.0724"
                xlink:href="#linearGradient565"
                gradientUnits="userSpaceOnUse"
                y1="8.1128998"
                gradientTransform="matrix(20.862,0,0,9.4863,263.74,140.57)"
                x2="8.5918999"
                y2="0.87184"/>
        <linearGradient
                id="linearGradient50946"
                x1="1.0724"
                xlink:href="#linearGradient565"
                gradientUnits="userSpaceOnUse"
                y1="8.1128998"
                gradientTransform="matrix(20.862,0,0,9.4863,93.927,140.57)"
                x2="8.5918999"
                y2="0.87184"/>
        <linearGradient
                id="linearGradient50948"
                x1="2.4161999"
                xlink:href="#linearGradient607"
                gradientUnits="userSpaceOnUse"
                y1="8.0492001"
                gradientTransform="matrix(22.322,0,0,8.8661,95.149,140.57)"
                x2="7.1659002"
                y2="2.2272999"/>
    </defs>
    <g
            id="layer1"
            transform="translate(-94.4557,-141.61)">
        <rect
                id="rect53488"
                ry="9.8778"
                height="94.402"
                width="205.08"
                y="144.67999"
                x="436.84"
                style="fill:#cccccc;fill-rule:evenodd"/>
        <path
                id="path52517"
                d="m 275.67,143.14 135.62,0.43523 c 5.4707,0 9.8749,4.4585 9.8749,9.9968 v 75.545 c 0,5.5382 -4.4042,9.9968 -9.8749,9.9968 l -135.62,-0.43522 c -5.4708,0 -9.875,-4.4586 -9.875,-9.9967 v -75.545 c 0,-5.5382 4.4042,-9.9968 9.875,-9.9968 z"
                style="fill:#cccccc;fill-rule:evenodd"/>
        <path
                id="path52515"
                d="m 106.68,144.31 134.8,0.4309 c 5.4376,0 9.8151,4.4149 9.8151,9.8988 v 74.804 c 0,5.4839 -4.3776,9.8988 -9.8151,9.8988 l -134.8,-0.4309 c -5.4376,0 -9.8151,-4.4149 -9.8151,-9.8988 v -74.804 c 0,-5.4839 4.3776,-9.8987 9.8151,-9.8987 z"
                style="fill:#cccccc;fill-rule:evenodd"/>
        <rect
                id="rect49928"
                ry="9.6842003"
                height="92.552002"
                width="203.53999"
                y="143.14"
                x="435.60999"
                style="fill-rule:evenodd"/>
        <rect
                id="rect46613"
                ry="9.6842003"
                height="92.552002"
                width="203.53999"
                y="141.61"
                x="434.07999"
                style="fill:url(#linearGradient47952);fill-rule:evenodd"/>
        <rect
                id="rect46615"
                ry="5.3895001"
                height="71.042999"
                width="178.86"
                y="151.44"
                x="446.63"
                style="fill:url(#linearGradient47949);fill-rule:evenodd"/>
        <text
                id="text46617"
                font-size="33.048px"
                line-height="100%"
                y="198.10115"
                x="520.32104"
                font-style="oblique"
                style="font-style:oblique;font-size:33.04800034px;line-height:100%;font-family:'Bitstream Vera Sans';fill:#000000">
            <tspan
                    id="tspan46619"
                    y="198.10115"
                    x="520.32104">Shift
            </tspan>
        </text>
        <path
                id="path47954"
                d="m 480.5,168.17 -11.09,10.336 -11.09,10.336 h 13.649 v 15.527 h 17.062 v -15.527 h 13.649 l -11.09,-10.336 z"
                style="fill:none;stroke:#ffffff;stroke-width:4.29220009"/>
        <path
                id="rect49920"
                d="m 624.47,153.47 v 63.517 c 10e-6,2.7028 -2.1823,4.841 -4.8851,4.841 h -168.86 c -0.94699,-0.004 -1.6462,-0.24403 -1.9963,-0.41672 0.73208,0.52102 1.2727,1.1547 2.7819,1.473 h 168.07 c 3.2688,0 5.9413,-2.6286 5.9413,-5.8973 v -60.293 c -0.0784,-1.0746 -0.49126,-2.1493 -1.0562,-3.2239 z"
                style="fill:#ffffff;fill-rule:evenodd"/>
        <path
                id="rect49934"
                d="m 275.48,143.14 133,0.4216 c 5.365,0 9.6842,4.3192 9.6842,9.6843 v 73.183 c 0,5.3651 -4.3192,9.6843 -9.6842,9.6843 l -133,-0.42159 c -5.3651,0 -9.6843,-4.3192 -9.6843,-9.6843 v -73.183 c 0,-5.3651 4.3192,-9.6843 9.6843,-9.6843 z"
                style="fill-rule:evenodd"/>
        <path
                id="rect49936"
                d="m 273.95,141.61 h 132.66 c 5.3651,0 9.6843,4.3192 9.6843,9.6842 v 73.184 c 0,5.365 -4.3192,9.6842 -9.6843,9.6842 H 273.95 c -5.3651,0 -9.6842,-4.3192 -9.6842,-9.6842 v -73.184 c 0,-5.365 4.3192,-9.6842 9.6842,-9.6842 z"
                style="fill:url(#linearGradient50932);fill-rule:evenodd"/>
        <path
                id="rect49938"
                d="m 282.2,151.44 h 114.09 c 2.9858,0 5.3894,2.4037 5.3894,5.3895 v 60.264 c 0,2.9858 -2.4037,5.3894 -5.3894,5.3894 H 282.2 c -2.9858,0 -5.3894,-2.4037 -5.3894,-5.3894 v -60.264 c 0,-2.9858 2.4037,-5.3895 5.3894,-5.3895 z"
                style="fill:url(#linearGradient50930);fill-rule:evenodd"/>
        <text
                id="text49940"
                font-size="33.048px"
                line-height="100%"
                y="198.10115"
                x="307.10056"
                font-style="oblique"
                style="font-style:oblique;font-size:33.04800034px;line-height:100%;font-family:'Bitstream Vera Sans';fill:#000000">
            <tspan
                    id="tspan49942"
                    y="198.10115"
                    x="307.10056">Ctrl
            </tspan>
        </text>
        <path
                id="path49946"
                d="m 401.53,156.66 v 60.317 c 0,2.5221 -1.9067,5.2211 -4.4288,5.2211 h -115.36 v 1.1058 h 115.36 c 3.4494,0 5.8255,-2.8775 5.8255,-6.3269 V 156.66 h -1.3966 z"
                style="fill:#ffffff;fill-rule:evenodd"/>
        <path
                id="path50934"
                d="m 105.67,143.14 133,0.4216 c 5.365,0 9.6842,4.3192 9.6842,9.6843 v 73.183 c 0,5.3651 -4.3192,9.6843 -9.6842,9.6843 l -133,-0.42159 c -5.3651,0 -9.6843,-4.3192 -9.6843,-9.6843 v -73.183 c 0,-5.3651 4.3192,-9.6843 9.6843,-9.6843 z"
                style="fill-rule:evenodd"/>
        <path
                id="path50936"
                d="M 104.14,141.61 H 236.8 c 5.3651,0 9.6843,4.3192 9.6843,9.6842 v 73.184 c 0,5.365 -4.3192,9.6842 -9.6843,9.6842 H 104.14 c -5.3651,0 -9.6843,-4.3192 -9.6843,-9.6842 v -73.184 c 0,-5.365 4.3192,-9.6842 9.6843,-9.6842 z"
                style="fill:url(#linearGradient50946);fill-rule:evenodd"/>
        <path
                id="path50938"
                d="m 112.39,151.44 h 114.09 c 2.9858,0 5.3894,2.4037 5.3894,5.3895 v 60.264 c 0,2.9858 -2.4037,5.3894 -5.3894,5.3894 H 112.39 c -2.9858,0 -5.3894,-2.4037 -5.3894,-5.3894 v -60.264 c 0,-2.9858 2.4037,-5.3895 5.3894,-5.3895 z"
                style="fill:url(#linearGradient50948);fill-rule:evenodd"/>
        <text
                id="text50940"
                font-size="33.048px"
                line-height="100%"
                y="198.10115"
                x="137.28841"
                font-style="oblique"
                style="font-style:oblique;font-size:33.04800034px;line-height:100%;font-family:'Bitstream Vera Sans';fill:#000000">
            <tspan
                    id="tspan50942"
                    y="198.10115"
                    x="137.28841">Alt
            </tspan>
        </text>
        <path
                id="path50944"
                d="m 231.72,156.66 v 60.317 c 0,2.5221 -1.9067,5.2211 -4.4288,5.2211 h -115.36 c -1.3023,0.34918 -2.7796,-0.7595 -3.5571,-1.2267 1.1048,1.0691 1.5099,2.1965 5.4138,2.3326 h 113.5 c 3.4494,0 5.8255,-2.8775 5.8255,-6.3269 v -59.456 c -0.40715,-1.7208 -1.3455,-2.8043 -1.8589,-3.4097 0.15406,0.8498 0.30815,1.6995 0.46222,2.5493 z"
                style="fill:#ffffff;fill-rule:evenodd"/>
        <path
                id="path52513"
                d="m 106.61,217.2 v -60.317 c 0,-2.5221 1.9067,-5.2211 4.4288,-5.2211 h 115.36 v -1.1058 h -115.36 c -3.4494,0 -5.8255,2.8775 -5.8255,6.3269 V 217.2 h 1.3966 z"
                style="fill:#b3b3b3;fill-rule:evenodd"/>
    </g>
    <metadata
            id="metadata39">
        <rdf:RDF>
            <cc:Work>
                <dc:format>image/svg+xml</dc:format>
                <dc:type
                        rdf:resource="http://purl.org/dc/dcmitype/StillImage"/>
                <cc:license
                        rdf:resource="http://creativecommons.org/licenses/publicdomain/"/>
                <dc:publisher>
                    <cc:Agent
                            rdf:about="http://openclipart.org/">
                        <dc:title>Openclipart</dc:title>
                    </cc:Agent>
                </dc:publisher>
                <dc:title>Buttons</dc:title>
                <dc:date>2010-04-30T15:42:34</dc:date>
                <dc:description>Control key, shift key and Alt key</dc:description>
                <dc:source>http://openclipart.org/detail/58225/keys-by-voyeg3r</dc:source>
                <dc:creator>
                    <cc:Agent>
                        <dc:title>voyeg3r</dc:title>
                    </cc:Agent>
                </dc:creator>
                <dc:subject>
                    <rdf:Bag>
                        <rdf:li>clip art</rdf:li>
                        <rdf:li>clipart</rdf:li>
                        <rdf:li>computer</rdf:li>
                        <rdf:li>informatic</rdf:li>
                        <rdf:li>keyboard</rdf:li>
                        <rdf:li>keys</rdf:li>
                        <rdf:li>technology</rdf:li>
                    </rdf:Bag>
                </dc:subject>
            </cc:Work>
            <cc:License
                    rdf:about="http://creativecommons.org/licenses/publicdomain/">
                <cc:permits
                        rdf:resource="http://creativecommons.org/ns#Reproduction"/>
                <cc:permits
                        rdf:resource="http://creativecommons.org/ns#Distribution"/>
                <cc:permits
                        rdf:resource="http://creativecommons.org/ns#DerivativeWorks"/>
            </cc:License>
        </rdf:RDF>
    </metadata>
</svg>
