<?xml version="1.0" encoding="UTF-8" standalone="no"?>
<svg
   xmlns:dc="http://purl.org/dc/elements/1.1/"
   xmlns:cc="http://creativecommons.org/ns#"
   xmlns:rdf="http://www.w3.org/1999/02/22-rdf-syntax-ns#"
   xmlns:svg="http://www.w3.org/2000/svg"
   xmlns="http://www.w3.org/2000/svg"
   version="1.1"
   id="housefly"
   x="0px"
   y="0px"
   width="100%"
   height="100%"
   viewBox="0 0 245.73715 302.41663"
   enable-background="new 0 0 252 313"
   xml:space="preserve"><title
     id="title181">ladybug</title><metadata
     id="metadata179"><rdf:RDF><cc:Work
         rdf:about=""><dc:format>image/svg+xml</dc:format><dc:type
           rdf:resource="http://purl.org/dc/dcmitype/StillImage" /><dc:title>ladybug</dc:title><dc:date>8/3/2017</dc:date><dc:creator><cc:Agent><dc:title>cactus cowboy</dc:title></cc:Agent></dc:creator></cc:Work></rdf:RDF></metadata><defs
     id="defs177" /><filter
     id="AI_GaussianBlur_4"><feGaussianBlur
       stdDeviation="4"
       id="feGaussianBlur10" /></filter><g
     style="display:inline"
     id="ladybug_parts"
     transform="translate(-5.609194,-5.2921615)"><path
       style="display:inline"
       d="m 131.96,56.576 c 6.548,0 5.563,0 11.76,0 3.662,0 8.45,-1.057 12.321,1.831 3.029,2.253 3.521,8.097 3.521,8.097 2.043,-4.153 3.733,-6.196 8.028,-0.21 7.464,10.282 15.705,20.563 18.168,28.027 2.396,7.112 0.212,12.323 -6.197,14.013 -8.237,2.042 -37.953,4.083 -49.079,4.083 -11.128,0 -40.775,-2.041 -49.013,-4.083 -6.479,-1.69 -8.663,-6.901 -6.197,-14.013 2.464,-7.463 10.704,-17.745 18.097,-28.027 4.297,-5.985 8.803,-3.873 10.563,0.634 0,0 0.776,-4.576 4.438,-7.394 3.448,-2.677 5.21,-2.958 8.941,-2.958 6.198,0 8.029,0 14.649,0 z"
       id="path13" /><path
       style="display:inline"
       d="M 116.045,57.209 C 117.102,45.659 109.002,43.477 100.201,40.52 85.976,35.731 89.92,28.76 88.863,24.816 c -1.268,-4.859 -5.775,-3.873 -4.154,2.675 1.69,6.619 5.562,9.93 12.816,13.662 6.969,3.592 16.901,3.029 16.901,15.422 0,1.691 1.619,0.634 1.619,0.634 z"
       id="path15" /><path
       style="display:inline"
       d="m 111.749,58.054 c -2.465,-3.732 -8.662,-5.985 -10.141,-4.999 -1.831,1.336 1.69,3.45 1.69,4.788 0,3.45 2.463,6.125 2.463,6.125 z"
       id="path17" /><path
       style="display:inline"
       d="m 76.891,90.587 5.353,-8.661 -1.619,-1.62 c -1.268,4.084 -9.508,6.972 -7.465,-1.689 2.112,-8.662 10.351,-25.139 7.887,-36.688 -2.466,-11.55 -5,-15.563 -5.352,-18.521 -0.423,-3.309 -4.578,-8.238 -5.001,-6.197 0,-2.041 -1.196,-11.548 -4.507,-10.703 -4.366,0.986 1.198,9.084 1.621,11.125 -0.776,4.507 -1.621,3.733 1.69,7.395 3.309,3.732 10.491,14.083 6.97,21.9 -8.237,18.098 -7.393,31.689 -6.97,35.421 0.422,3.732 7.393,8.238 7.393,8.238 z"
       id="path19" /><path
       style="display:inline"
       d="m 144.916,57.209 c -0.986,-11.55 7.041,-13.732 15.914,-16.689 14.225,-4.789 10.281,-11.76 11.338,-15.704 1.197,-4.859 5.775,-3.873 4.085,2.675 -1.621,6.619 -5.563,9.93 -12.747,13.662 -7.112,3.592 -16.899,3.029 -16.899,15.422 -0.001,1.691 -1.691,0.634 -1.691,0.634 z"
       id="path21" /><path
       style="display:inline"
       d="m 150.269,56.364 c 2.465,-3.731 8.661,-5.985 10.14,-4.929 1.762,1.267 -1.691,3.45 -1.691,4.718 0,3.521 -2.463,6.197 -2.463,6.197 z"
       id="path23" /><path
       style="display:inline"
       d="m 184.068,90.587 -5.352,-8.661 1.689,-1.62 c 1.197,4.084 9.436,6.972 7.396,-1.689 -2.043,-8.662 -10.281,-25.139 -7.817,-36.688 2.467,-11.55 4.93,-15.563 5.352,-18.521 0.423,-3.309 4.506,-8.238 4.929,-6.197 0,-2.041 1.268,-11.548 4.578,-10.703 4.226,0.986 -1.267,9.084 -1.689,11.125 0.845,4.507 1.689,3.733 -1.621,7.395 -3.309,3.732 -10.561,14.083 -7.041,21.9 8.239,18.098 7.465,31.689 7.041,35.421 -0.423,3.732 -7.465,8.238 -7.465,8.238 z"
       id="path25" /><path
       style="display:inline"
       d="m 119.143,56.576 c 0,-2.465 2.815,-7.395 10.703,-7.395 7.887,0 11.197,3.663 11.972,7.395 z"
       id="path27" /><path
       d="m 107.807,59.884 c 2.463,-2.041 4.998,-3.097 5.561,-3.097 2.113,0 5.354,1.267 6.833,1.83 1.407,0.634 2.464,0.844 0.422,3.099 -2.112,2.253 -16.69,18.379 -17.958,19.576 -1.268,1.269 -5.139,0 -9.505,2.113 -4.296,2.042 -5.987,7.395 -8.664,7.818 h 0.845 c -3.52,0.985 -7.604,0 -7.392,-2.254 3.662,-6.619 8.028,-12.183 15.42,-22.465 1.903,-2.675 7.042,-7.464 10.563,0.423 0.352,-2.746 3.875,-7.043 3.875,-7.043 z"
       id="path29"
       style="display:inline;fill:#a6a6a6;stroke:#000000;stroke-width:0" /><path
       style="display:inline"
       d="m 114.144,56.998 c 0.772,1.69 2.958,8.028 2.322,9.083 l -3.871,3.874 c -3.239,-0.14 -8.873,-1.972 -8.663,-3.028 0.562,-4.576 5.987,-10.351 10.212,-9.929 z"
       id="path31" /><radialGradient
       id="shell_1_"
       cx="127.9785"
       cy="208.5488"
       r="111.5194"
       fx="18.431"
       fy="229.4276"
       gradientTransform="matrix(-0.4797,0.8774,-0.8776,-0.4798,372.399,196.3179)"
       gradientUnits="userSpaceOnUse"><stop
         offset="0.154"
         style="stop-color:#FFAD00"
         id="stop33" /><stop
         offset="0.5052"
         style="stop-color:#A67803"
         id="stop35" /><stop
         offset="0.8453"
         style="stop-color:#554806"
         id="stop37" /><stop
         offset="1"
         style="stop-color:#353507"
         id="stop39" /></radialGradient><path
       style="display:inline"
       d="m 203.927,223.327 c 2.043,3.31 18.943,32.18 12.325,54.432 -1.341,4.367 -1.62,5.776 2.04,6.198 3.732,0.423 16.973,5.353 15.282,8.664 6.195,2.886 15.702,10.702 4.507,14.787 2.887,-2.889 -1.198,-9.437 -4.507,-11.126 -2.043,4.998 -5.774,1.689 -8.24,-2.468 -4.508,-7.533 -10.281,-10.702 -14.858,-10.279 -4.506,0.422 -4.437,0.845 -2.889,-5.776 6.197,-25.982 -4.928,-46.193 -4.928,-46.193 z"
       id="path45" /><path
       style="display:inline"
       d="m 48.864,223.327 c -2.041,3.31 -18.942,32.18 -12.394,54.432 1.339,4.367 1.69,5.776 -2.041,6.198 -3.732,0.423 -16.9,5.353 -15.282,8.664 -6.125,2.886 -15.632,10.702 -4.506,14.787 -2.886,-2.889 1.268,-9.437 4.506,-11.126 2.113,4.998 5.775,1.689 8.241,-2.468 4.507,-7.533 10.351,-10.702 14.857,-10.279 4.578,0.422 4.437,0.845 2.888,-5.776 -6.197,-25.982 4.999,-46.193 4.999,-46.193 z"
       id="path43" /><path
       id="shell"
       d="m 130.058,306.632 c 52.814,-6.619 105.558,-87.039 66.827,-171.118 -6.266,-13.52 -11.549,-25.562 -26.406,-22.252 -14.86,3.311 -30.492,2.465 -45.349,2.465 h 3.308 c -14.857,0 -30.49,0.845 -45.35,-2.465 -14.857,-3.31 -19.999,8.873 -26.406,22.252 -40.42,84.079 20.631,172.316 66.403,171.118 4.93,-2.887 3.734,-10.35 3.734,-10.35 0,0 -2.888,7.887 3.239,10.35 z"
       style="display:inline;fill:url(#shell_1_)" /><path
       style="display:inline"
       d="m 175.831,113.262 c 13.661,-0.423 25.562,15.704 29.294,26.408 0,0 13.588,6.971 20.209,10.281 5.211,2.605 10.281,3.731 12.747,1.267 2.536,-2.465 6.619,4.085 5.773,9.859 11.196,-8.663 -2.887,-14.437 -12.323,-17.323 -10.773,-3.31 -19.998,-5.493 -28.027,-20.563 -6.619,-12.394 -22.674,-14.014 -28.872,-14.859 l -0.421,0.422 c -17.325,5.774 -82.883,3.24 -95.277,-0.845 -6.127,0.845 -22.252,2.465 -28.802,14.859 -8.097,15.07 -17.322,17.323 -28.096,20.563 -9.436,2.886 -23.451,8.661 -12.324,17.322 -0.846,-5.773 3.311,-12.323 5.774,-9.859 2.466,2.464 7.536,1.338 12.748,-1.267 6.618,-3.311 20.208,-10.281 20.208,-10.281 3.733,-10.704 15.705,-26.831 29.294,-26.409 6.551,1.69 38.309,3.311 48.238,2.466 21.83,0.425 46.194,-2.041 49.857,-2.041 z"
       id="path47" /><path
       d="m 156.678,58.617 c -0.496,-0.352 -3.03,-1.83 -6.62,-1.83 -2.114,0 -5.352,1.267 -6.761,1.83 -1.479,0.634 -2.467,0.844 -0.423,3.099 2.042,2.253 16.688,18.379 17.956,19.576 1.198,1.269 5.143,0 9.437,2.113 4.365,2.042 5.986,7.395 8.662,7.818 h -0.775 c 3.45,0.985 7.605,0 7.396,-2.254 -3.733,-6.619 -8.028,-12.183 -15.492,-22.465 -1.832,-2.675 -6.973,-7.464 -10.494,0.423 -0.634,-3.872 -2.886,-8.31 -2.886,-8.31 z"
       id="path49"
       style="display:inline;fill:#a6a6a6" /><path
       style="display:inline"
       d="m 149.353,56.998 c -0.846,1.69 -2.958,8.028 -2.394,9.083 l 3.944,3.874 c 3.167,-0.14 8.73,-1.902 8.659,-3.028 -0.703,-9.014 -5.139,-10.422 -10.209,-9.929 z"
       id="path51" /><path
       style="display:inline"
       d="m 151.254,67.842 c 1.407,0 2.534,-1.056 2.534,-2.324 0,-1.337 -1.127,-2.323 -2.534,-2.323 -1.549,0 -2.677,0.985 -2.677,2.323 0,1.268 1.128,2.324 2.677,2.324 z"
       id="path53" /><path
       d="m 151.254,67.49 c 1.127,0 2.185,-0.846 2.185,-1.972 0,-1.126 -1.058,-1.972 -2.185,-1.972 -1.27,0 -2.323,0.846 -2.323,1.972 0,1.126 1.053,1.972 2.323,1.972 z"
       id="path55" /><path
       d="m 151.254,67.208 c 0.985,0 1.83,-0.705 1.83,-1.69 0,-0.915 -0.845,-1.689 -1.83,-1.689 -1.128,0 -1.973,0.775 -1.973,1.689 0,0.985 0.845,1.69 1.973,1.69 z"
       id="path57" /><path
       d="m 151.254,66.927 c 0.845,0 1.549,-0.634 1.549,-1.409 0,-0.774 -0.704,-1.409 -1.549,-1.409 -0.985,0 -1.69,0.635 -1.69,1.409 -0.001,0.775 0.705,1.409 1.69,1.409 z"
       id="path59" /><path
       d="m 151.254,66.716 c 0.703,0 1.339,-0.494 1.339,-1.198 0,-0.705 -0.636,-1.196 -1.339,-1.196 -0.774,0 -1.408,0.492 -1.408,1.196 0,0.704 0.633,1.198 1.408,1.198 z"
       id="path61" /><path
       d="m 189.842,7.352 c 2.889,-1.759 7.256,-1.267 9.719,2.676"
       id="path63"
       style="fill:none;stroke:#000000;stroke-width:0.071" /><path
       d="M 71.752,6.296 C 68.794,4.536 64.498,5.029 62.033,8.972"
       id="path65"
       style="fill:none;stroke:#000000;stroke-width:0.071" /><path
       d="m 7.599,158.612 c 2.113,2.042 5.774,4.929 8.663,2.042"
       id="path67" /><path
       d="m 247.587,156.993 c -1.619,2.041 -2.887,6.125 -7.817,4.507"
       id="path69" /><path
       d="m 234.419,307.408 c 2.886,0.844 8.237,-0.423 8.66,-2.467"
       id="path71" /><path
       d="m 9.29,303.745 c 2.465,2.464 5.351,4.93 10.28,2.887"
       id="path73" /><path
       d="m 107.17,68.97 c -1.898,-0.846 -5.42,-3.311 -8.027,-0.776 -2.181,2.184 -17.604,22.042 -18.518,23.028 -0.845,0.773 3.099,0.422 3.52,0.069 1.338,-1.337 14.294,-19.013 16.689,-20.703 2.888,-2.041 6.549,-1.478 6.336,-1.618 z"
       id="path75"
       style="fill:#b2b2b2" /><path
       d="m 105.552,68.335 c -1.761,-1.268 -5.069,-3.662 -7.604,-1.056 -2.254,2.183 -18.45,22.041 -18.872,23.308 -0.213,0.635 2.958,1.198 3.098,1.057 1.196,-1.62 14.999,-20.352 17.393,-22.042 2.887,-2.041 6.125,-1.196 5.985,-1.267 z"
       id="path77"
       style="fill:#bfbfbf" /><path
       d="m 104.003,67.49 c -1.057,-2.042 -4.929,-4.084 -7.535,-1.55 -2.183,2.184 -17.606,22.042 -18.52,23.028 -0.845,0.774 1.618,2.464 2.041,2.041 1.339,-1.408 15.773,-21.054 18.168,-22.674 2.889,-2.042 5.987,-0.633 5.846,-0.845 z"
       id="path79"
       style="fill:#cccccc" /><path
       d="m 77.948,88.968 c 3.662,-6.619 8.028,-12.183 15.42,-22.465 1.903,-2.675 7.042,-7.464 10.563,0.423 -1.899,-1.479 -4.366,-1.901 -7.674,0.563 -4.015,3.03 -16.268,23.52 -18.309,21.479 z"
       id="path81"
       style="fill:#d9d9d9" /><path
       d="m 156.254,68.97 c 1.972,-0.846 5.493,-3.311 8.027,-0.776 2.323,2.325 17.747,22.183 18.591,23.028 0.773,0.773 -3.099,0.422 -3.52,0.069 -1.409,-1.337 -14.366,-19.013 -16.692,-20.703 -2.885,-2.041 -6.619,-1.478 -6.406,-1.618 z"
       id="path83"
       style="fill:#b2b2b2" /><path
       d="m 157.944,68.476 c 1.759,-1.196 5.07,-3.59 7.676,-0.985 2.182,2.112 18.448,22.042 18.871,23.238 0.211,0.634 -2.958,1.268 -3.099,1.057 -1.268,-1.549 -15.069,-20.281 -17.465,-21.97 -2.884,-2.045 -6.196,-1.2 -5.983,-1.34 z"
       id="path85"
       style="fill:#bfbfbf" /><path
       d="m 159.493,67.49 c 0.986,-2.042 4.929,-4.084 7.464,-1.55 2.182,2.184 17.674,22.042 18.592,23.028 0.772,0.774 -1.62,2.464 -2.043,2.041 -1.409,-1.408 -15.844,-21.054 -18.17,-22.674 -2.886,-2.042 -5.983,-0.633 -5.843,-0.845 z"
       id="path87"
       style="fill:#cccccc" /><path
       d="m 185.549,88.968 c -3.733,-6.619 -8.028,-12.183 -15.492,-22.465 -1.832,-2.675 -5.987,-7.464 -10.494,0.423 1.831,-1.479 4.365,-1.901 7.605,0.563 4.015,3.03 16.338,23.52 18.381,21.479 z"
       id="path89"
       style="fill:#d9d9d9" /><path
       d="m 143.297,112.135 c 7.183,0 13.097,-5.634 13.097,-12.535 0,-6.971 -5.914,-12.534 -13.097,-12.534 -7.254,0 -13.17,5.563 -13.17,12.534 0,6.901 5.916,12.535 13.17,12.535 z"
       id="path91"
       style="fill:#111111" /><path
       d="m 143.297,110.868 c 6.479,0 11.76,-4.999 11.76,-11.267 0,-6.196 -5.281,-11.268 -11.76,-11.268 -6.55,0 -11.9,5.072 -11.9,11.268 -0.001,6.268 5.35,11.267 11.9,11.267 z"
       id="path93"
       style="fill:#1a1a1a" /><path
       d="m 143.297,109.741 c 5.774,0 10.632,-4.506 10.632,-10.141 0,-5.633 -4.857,-10.14 -10.632,-10.14 -5.914,0 -10.705,4.507 -10.705,10.14 0,5.635 4.791,10.141 10.705,10.141 z"
       id="path95"
       style="fill:#333333" /><path
       d="m 143.297,108.755 c 5.21,0 9.506,-4.083 9.506,-9.155 0,-5.069 -4.296,-9.153 -9.506,-9.153 -5.353,0 -9.577,4.084 -9.577,9.153 0,5.072 4.224,9.155 9.577,9.155 z"
       id="path97"
       style="fill:#4d4d4d" /><path
       d="m 143.297,107.77 c 4.718,0 8.592,-3.591 8.592,-8.169 0,-4.507 -3.874,-8.238 -8.592,-8.238 -4.789,0 -8.591,3.731 -8.591,8.238 0,4.578 3.802,8.169 8.591,8.169 z"
       id="path99"
       style="fill:#666666" /><path
       d="m 143.297,106.996 c 4.294,0 7.745,-3.31 7.745,-7.395 0,-4.084 -3.451,-7.393 -7.745,-7.393 -4.296,0 -7.817,3.309 -7.817,7.393 -10e-4,4.085 3.521,7.395 7.817,7.395 z"
       id="path101"
       style="fill:#7f7f7f" /><path
       d="m 143.297,106.291 c 3.802,0 6.972,-3.028 6.972,-6.69 0,-3.731 -3.17,-6.689 -6.972,-6.689 -3.875,0 -7.042,2.958 -7.042,6.689 0,3.662 3.167,6.69 7.042,6.69 z"
       id="path103"
       style="fill:#999999" /><path
       d="m 143.297,105.587 c 3.449,0 6.197,-2.676 6.197,-5.987 0,-3.309 -2.748,-5.984 -6.197,-5.984 -3.521,0 -6.338,2.676 -6.338,5.984 0,3.311 2.817,5.987 6.338,5.987 z"
       id="path105"
       style="fill:#b2b2b2" /><path
       d="m 143.297,104.953 c 3.098,0 5.634,-2.323 5.634,-5.352 0,-2.958 -2.536,-5.421 -5.634,-5.421 -3.17,0 -5.705,2.464 -5.705,5.421 0,3.029 2.535,5.352 5.705,5.352 z"
       id="path107"
       style="fill:#cccccc" /><path
       d="m 143.297,104.46 c 2.745,0 5.071,-2.184 5.071,-4.86 0,-2.676 -2.326,-4.858 -5.071,-4.858 -2.816,0 -5.143,2.183 -5.143,4.858 0,2.677 2.326,4.86 5.143,4.86 z"
       id="path109"
       style="fill:#e5e5e5" /><path
       d="m 143.297,103.967 c 2.535,0 4.507,-1.9 4.507,-4.366 0,-2.395 -1.972,-4.366 -4.507,-4.366 -2.534,0 -4.578,1.971 -4.578,4.366 0,2.465 2.044,4.366 4.578,4.366 z"
       id="path111"
       style="fill:#f2f2f2" /><path
       d="m 96.258,225.087 c 10.28,0 18.658,-8.38 18.658,-18.659 0,-10.282 -8.378,-18.732 -18.658,-18.732 -10.282,0 -18.663,8.45 -18.663,18.732 0,10.279 8.381,18.659 18.663,18.659 z"
       id="path113" /><path
       d="m 60.836,202.063 c 6.409,0 11.62,-9.155 11.62,-20.354 0,-11.266 -5.211,-20.422 -11.62,-20.422 -6.479,0 -11.69,9.156 -11.69,20.422 0,11.198 5.21,20.354 11.69,20.354 z"
       id="path115" /><path
       d="m 93.44,277.973 c 6.479,-4.225 7.394,-14.156 2.181,-22.253 -5.279,-8.168 -14.788,-11.337 -21.266,-7.112 -6.479,4.225 -7.465,14.225 -2.182,22.322 5.212,8.096 14.788,11.267 21.267,7.043 z"
       id="path117" /><path
       d="m 157.31,225.087 c -10.351,0 -18.661,-8.38 -18.661,-18.659 0,-10.282 8.311,-18.732 18.661,-18.732 10.281,0 18.662,8.45 18.662,18.732 0,10.279 -8.381,18.659 -18.662,18.659 z"
       id="path119" /><path
       d="m 192.73,202.063 c -6.409,0 -11.688,-9.155 -11.688,-20.354 0,-11.266 5.279,-20.422 11.688,-20.422 6.479,0 11.69,9.156 11.69,20.422 0.001,11.198 -5.211,20.354 -11.69,20.354 z"
       id="path121" /><path
       style="display:inline"
       d="m 160.125,277.973 c -6.478,-4.225 -7.464,-14.156 -2.181,-22.253 5.21,-8.168 14.789,-11.337 21.267,-7.112 6.407,4.225 7.393,14.225 2.182,22.322 -5.281,8.096 -14.789,11.267 -21.268,7.043 z"
       id="path123" /><path
       style="display:inline"
       d="m 128.861,162.768 c 5.35,-0.423 9.857,-2.958 13.873,-7.396 7.955,-8.801 7.745,-22.111 -0.636,-29.717 -8.379,-7.533 -21.617,-6.548 -29.646,2.326 -7.959,8.802 -7.745,22.111 0.633,29.716 4.156,3.731 8.663,5.493 14.015,5.071 0.282,-0.213 0.704,-1.268 0.845,-1.69 -0.14,0.844 0.283,1.69 0.916,1.69 z"
       id="path125" /><path
       d="m 128.015,128.121 c 0,0 -0.845,156.259 -1.617,166.116"
       id="path127"
       style="display:inline;fill:none;stroke:#000000;stroke-width:1.3385" /><path
       style="display:inline"
       d="m 130.482,125.233 c 1.616,-2.958 2.884,-4.929 3.942,-7.253 1.055,-2.253 1.478,-2.465 -1.833,-2.465 l -4.154,0.212 -4.152,-0.212 c -3.382,0 -2.89,0.212 -1.832,2.465 1.056,2.324 2.253,4.295 3.944,7.253 1.548,2.676 3.167,2.043 4.085,0 z"
       id="path129" /><path
       d="m 102.382,115.586 c 0,0 19.999,0.563 21.903,-0.071 1.406,-0.422 -6.903,9.576 -8.1,11.408 -1.551,2.394 -3.381,4.156 -6.48,-0.493 -3.167,-4.647 -8.801,-10.844 -7.323,-10.844 z"
       id="path131"
       style="display:inline;fill:#252525" /><path
       d="m 104.003,116.432 c 0,0 17.042,0.422 18.661,-0.071 1.267,-0.422 -5.845,8.169 -6.903,9.718 -1.335,2.042 -2.884,3.451 -5.491,-0.424 -2.676,-4.012 -7.464,-9.223 -6.267,-9.223 z"
       id="path133"
       style="display:inline;fill:#404040" /><path
       d="m 106.606,117.699 c 0,0 12.326,0.351 13.452,-0.071 0.986,-0.21 -4.225,5.916 -5.001,7.042 -0.914,1.48 -2.041,2.535 -3.943,-0.351 -1.9,-2.817 -5.352,-6.62 -4.508,-6.62 z"
       id="path137"
       style="fill:#737373" /><path
       d="m 108.511,118.614 c 0,0 8.871,0.282 9.786,0 0.636,-0.21 -3.098,4.225 -3.591,5.07 -0.775,1.057 -1.548,1.831 -2.888,-0.21 -1.408,-2.114 -3.944,-4.86 -3.307,-4.86 z"
       id="path141"
       style="display:inline;fill:#a6a6a6" /><path
       d="m 131.326,115.516 c 0,0 19.999,0.494 21.97,-0.141 1.408,-0.492 -6.901,9.577 -8.168,11.479 -1.549,2.324 -3.382,4.084 -6.479,-0.563 -3.097,-4.648 -8.803,-10.775 -7.323,-10.775 z"
       id="path143"
       style="display:inline;fill:#252525" /><path
       d="m 134.425,116.995 c 0,0 14.506,0.422 15.844,-0.07 1.057,-0.282 -5,6.9 -5.845,8.239 -1.127,1.69 -2.465,3.028 -4.719,-0.353 -2.254,-3.38 -6.339,-7.816 -5.28,-7.816 z"
       id="path147"
       style="display:inline;fill:#595959" /><path
       d="m 136.677,118.122 c 0,0 10.422,0.21 11.479,-0.072 0.775,-0.281 -3.662,4.93 -4.226,5.916 -0.845,1.268 -1.831,2.184 -3.449,-0.211 -1.621,-2.465 -4.579,-5.633 -3.804,-5.633 z"
       id="path151"
       style="fill:#8c8c8c" /><path
       d="m 137.592,118.544 c 0,0 8.803,0.21 9.719,-0.07 0.633,-0.211 -3.099,4.225 -3.591,5.07 -0.775,1.058 -1.549,1.831 -2.89,-0.211 -1.408,-2.112 -3.942,-4.789 -3.238,-4.789 z"
       id="path153"
       style="display:inline;fill:#a6a6a6" /></g></svg>
