<?xml version="1.0" encoding="UTF-8" standalone="no"?>
<svg
   xmlns:dc="http://purl.org/dc/elements/1.1/"
   xmlns:cc="http://creativecommons.org/ns#"
   xmlns:rdf="http://www.w3.org/1999/02/22-rdf-syntax-ns#"
   xmlns:svg="http://www.w3.org/2000/svg"
   xmlns="http://www.w3.org/2000/svg"
   height="100%"
   width="100%"
   id="svg44"
   xml:space="preserve"
   enable-background="new 0 0 65 65"
   viewBox="0 0 64 63.319"
   y="0px"
   x="0px"
   version="1.1">
    <metadata id="metadata50">
        <rdf:RDF>
        <cc:Work rdf:about="">
            <dc:format>image/svg+xml</dc:format>
            <dc:type rdf:resource="http://purl.org/dc/dcmitype/StillImage" />
            <dc:title></dc:title>
        </cc:Work>
        </rdf:RDF>
    </metadata>
    <defs id="defs48" />
    <g transform="translate(-0.5,-0.84)" id="g38">
        <g id="g4">
            <path id="path2" d="M 62.38,0.84 H 2.62 C 1.461,0.84 0.5,1.79 0.5,2.972 v 58.302 c 0,1.593 1.292,2.885 2.885,2.885 h 58.23 c 1.593,0 2.885,-1.292 2.885,-2.885 V 2.972 C 64.5,1.791 63.538,0.84 62.38,0.84 Z m -7.902,4.461 c 0,-0.405 0.336,-0.73 0.73,-0.73 h 3.175 c 0.405,0 0.742,0.324 0.742,0.73 v 3.174 c 0,0.406 -0.336,0.73 -0.742,0.73 h -3.175 c -0.394,0 -0.73,-0.324 -0.73,-0.73 z m -6.245,0 c 0,-0.405 0.324,-0.73 0.73,-0.73 h 3.163 c 0.417,0 0.742,0.324 0.742,0.73 v 3.174 c 0,0.406 -0.324,0.73 -0.742,0.73 h -3.163 c -0.406,0 -0.73,-0.324 -0.73,-0.73 z m -43.481,0 c 0,-0.405 0.325,-0.73 0.73,-0.73 h 40.4 c 0.405,0 0.741,0.324 0.741,0.73 v 3.174 c 0,0.406 -0.336,0.73 -0.741,0.73 h -40.4 c -0.405,0 -0.73,-0.324 -0.73,-0.73 z M 60.26,59.919 H 4.752 V 13.075 h 2.827 l 1.819,3.151 c 0.348,0.602 1.008,0.973 1.703,0.973 h 15.444 c 0.695,0 1.332,-0.371 1.691,-0.973 l 1.819,-3.151 H 60.26 Z" />
        </g>
        <g id="g8">
            <path id="path6" d="m 32.501,28.001 c -5.672,0 -10.262,6.361 -10.262,14.195 0,7.834 4.59,14.185 10.262,14.185 5.672,0 10.262,-6.35 10.262,-14.185 0,-7.835 -4.59,-14.195 -10.262,-14.195 z m -3.933,22.634 c -1.124,0 -2.046,-0.912 -2.046,-2.046 0,-1.124 0.922,-2.035 2.046,-2.035 1.124,0 2.035,0.912 2.035,2.035 10e-4,1.134 -0.911,2.046 -2.035,2.046 z m 0,-6.849 c -1.124,0 -2.046,-0.912 -2.046,-2.035 0,-1.124 0.922,-2.036 2.046,-2.036 1.124,0 2.035,0.912 2.035,2.036 10e-4,1.124 -0.911,2.035 -2.035,2.035 z m 0,-6.837 c -1.124,0 -2.046,-0.912 -2.046,-2.035 0,-1.134 0.922,-2.046 2.046,-2.046 1.124,0 2.035,0.912 2.035,2.046 10e-4,1.123 -0.911,2.035 -2.035,2.035 z m 7.866,-4.082 c 1.124,0 2.036,0.912 2.036,2.046 0,1.124 -0.912,2.035 -2.036,2.035 -1.124,0 -2.046,-0.912 -2.046,-2.035 0,-1.134 0.923,-2.046 2.046,-2.046 z m 0,17.768 c -1.124,0 -2.046,-0.912 -2.046,-2.046 0,-1.124 0.922,-2.035 2.046,-2.035 1.124,0 2.036,0.912 2.036,2.035 0,1.134 -0.912,2.046 -2.036,2.046 z m 0,-6.849 c -1.124,0 -2.046,-0.912 -2.046,-2.035 0,-1.124 0.922,-2.036 2.046,-2.036 1.124,0 2.036,0.912 2.036,2.036 0,1.124 -0.912,2.035 -2.036,2.035 z" />
        </g>
        <g id="g12">
            <path id="path10" d="m 19.271,35.71 2.458,0.837 c 0.307,-1.053 0.693,-2.046 1.157,-2.975 l -1.504,-0.516 v -2.269 c 0,-0.876 -0.713,-1.595 -1.595,-1.595 -0.883,0 -1.595,0.719 -1.595,1.595 V 34.2 c 0,0.679 0.438,1.287 1.079,1.51 z" />
        </g>
        <g id="g16">
           <path id="path14" d="m 45.729,35.71 c 0.641,-0.222 1.079,-0.83 1.079,-1.51 v -3.413 c 0,-0.876 -0.713,-1.595 -1.595,-1.595 -0.882,0 -1.595,0.719 -1.595,1.595 v 2.269 l -1.51,0.516 c 0.464,0.928 0.856,1.922 1.164,2.975 z" />
        </g>
        <g id="g20">
            <path id="path18" d="m 45.729,48.68 -2.458,-0.837 c -0.307,1.053 -0.7,2.046 -1.164,2.968 l 1.51,0.516 v 2.275 c 0,0.876 0.713,1.589 1.595,1.589 0.883,0 1.595,-0.713 1.595,-1.589 V 50.189 C 46.808,49.511 46.37,48.903 45.729,48.68 Z" />
        </g>
        <g id="g24">
            <path id="path22" d="m 19.271,48.68 c -0.641,0.222 -1.079,0.83 -1.079,1.51 v 3.413 c 0,0.876 0.713,1.589 1.595,1.589 0.882,0 1.595,-0.713 1.595,-1.589 v -2.275 l 1.504,-0.51 c -0.458,-0.922 -0.85,-1.922 -1.157,-2.975 z" />
        </g>
        <g id="g28">
            <path id="path26" d="m 19.787,43.79 h 1.203 c -0.039,-0.523 -0.059,-1.059 -0.059,-1.595 0,-0.536 0.02,-1.072 0.059,-1.595 h -1.203 c -0.883,0 -1.595,0.712 -1.595,1.595 0,0.883 0.713,1.595 1.595,1.595 z" />
        </g>
        <g id="g32">
            <path id="path30" d="M 45.213,40.6 H 44.01 c 0.039,0.523 0.059,1.059 0.059,1.595 0,0.536 -0.019,1.072 -0.059,1.595 h 1.203 c 0.883,0 1.595,-0.713 1.595,-1.595 0,-0.883 -0.713,-1.595 -1.595,-1.595 z" />
        </g>
        <g id="g36">
            <path id="path34" d="m 27.652,20.66 c -0.392,-0.183 -0.87,-0.007 -1.053,0.392 -0.183,0.405 -0.007,0.876 0.399,1.059 0.026,0.013 2.086,0.994 3.269,3.308 -0.51,0.49 -0.863,1.144 -0.961,1.883 1.013,-0.399 2.086,-0.608 3.197,-0.608 1.111,0 2.184,0.209 3.197,0.608 -0.098,-0.739 -0.458,-1.393 -0.974,-1.889 1.164,-2.282 3.171,-3.256 3.282,-3.302 0.399,-0.183 0.575,-0.66 0.392,-1.059 -0.183,-0.399 -0.654,-0.575 -1.053,-0.392 -0.137,0.059 -2.596,1.209 -4.027,3.981 -0.261,-0.072 -0.536,-0.124 -0.817,-0.124 -0.288,0 -0.562,0.052 -0.824,0.124 -1.431,-2.772 -3.89,-3.922 -4.027,-3.981 z" />
        </g>
    </g>
</svg>