<?xml version="1.0" encoding="UTF-8" standalone="no"?>
<svg
   xmlns:dc="http://purl.org/dc/elements/1.1/"
   xmlns:cc="http://creativecommons.org/ns#"
   xmlns:rdf="http://www.w3.org/1999/02/22-rdf-syntax-ns#"
   xmlns:svg="http://www.w3.org/2000/svg"
   xmlns="http://www.w3.org/2000/svg"
   id="svg857"
   version="1.1"
   viewBox="0 0 113.56547 113.56547"
   height="100%"
   width="100%">
  <defs
     id="defs851" />
  <metadata
     id="metadata854">
    <rdf:RDF>
      <cc:Work
         rdf:about="">
        <dc:format>image/svg+xml</dc:format>
        <dc:type
           rdf:resource="http://purl.org/dc/dcmitype/StillImage" />
        <dc:title></dc:title>
      </cc:Work>
    </rdf:RDF>
  </metadata>
  <g
     transform="translate(-49.050599,-92.050599)"
     id="layer1">
    <g
       id="layer1-3"
       transform="translate(-4.5357081,2.2678579)">
      <circle
         id="path10"
         cx="110.36904"
         cy="146.56548"
         r="51.782734"
         style="opacity:1;fill:#000000;fill-opacity:1;stroke:#a50000;stroke-width:10;stroke-miterlimit:4;stroke-dasharray:none;stroke-opacity:1" />
    </g>
    <g
       transform="matrix(0.83637734,0,0,0.74924277,26.613859,96.137085)"
       id="g4572">
      <path
         style="fill:#a50000;fill-opacity:1;stroke-width:0.26458332"
         d="m 53.281318,38.046112 2.002223,0.889876 2.22469,-0.889876 1.446049,1.00111 2.669627,-1.00111 1.334814,0.889876 1.668517,-0.889876 1.446048,0.778641 2.335925,-0.778641 1.890986,0.778641 2.669628,-0.778641 1.557283,0.667407 2.113455,-0.667407 1.557283,0.778641 2.224689,-0.778641 1.557284,0.778641 2.224688,-0.778641 c 0.872463,-0.305362 1.668517,0.744159 1.668517,1.668517 v 10.011105 c 0,0.924358 -0.744159,1.668517 -1.668517,1.668517 l -1.446047,-0.667407 -1.779752,0.667407 -2.002221,-0.667407 -1.446048,0.667407 -2.113455,-0.667407 -2.113456,0.667407 -2.22469,-0.556172 -2.00222,0.556172 -2.335925,-0.667407 -1.779752,0.667407 -2.00222,-0.556172 -2.113456,0.556172 -1.557283,-0.778641 -1.890986,0.778641 -1.668517,-0.667407 -1.446048,0.667407 h -1.001113 c -0.924359,0 -1.668517,-0.744159 -1.668517,-1.668517 V 39.714629 c 0,-0.924358 0.744158,-1.668517 1.668517,-1.668517 z"
         id="rect12" />
      <rect
         id="rect12-3"
         width="34.260223"
         height="5.7841935"
         x="85.343857"
         y="41.905888"
         style="fill:#a50000;fill-opacity:1;stroke-width:0.17417006" />
      <path
         style="fill:#a50000;fill-opacity:1;stroke-width:0.26833647"
         d="m 120.29991,30.553539 3.44827,-0.111234 c 1.35503,-0.04371 10.38473,5.77603 10.34481,9.009993 l -0.22247,18.019988 c -0.0167,1.355623 -1.09143,2.447159 -2.44716,2.447159 h -11.12345 c -1.35572,0 -2.44716,-1.091433 -2.44716,-2.447159 V 33.000698 c 0,-1.355726 1.09214,-2.403449 2.44716,-2.447159 z"
         id="rect12-6" />
    </g>
    <g
       transform="matrix(0.8412698,0,0,0.99999959,23.213082,-67.943272)"
       id="g4586">
      <path
         style="fill:none;stroke:#000000;stroke-width:0.26458332px;stroke-linecap:butt;stroke-linejoin:miter;stroke-opacity:1"
         d="m 74.083334,218.94792 h 66.145836 v 3.96875 l -66.145836,9.26041 -2.645834,2.64584 H 60.854167 l -3.96875,-3.96875 v -10.58334 l 3.96875,-3.96875 H 71.4375 Z"
         id="path4557" />
      <path
         style="fill:none;stroke:#000000;stroke-width:0.26458332px;stroke-linecap:butt;stroke-linejoin:miter;stroke-opacity:1"
         d="m 63.499999,218.94792 v 13.22916 h 3.96875 l 2.645833,-2.64583 v -7.9375 l -2.645833,-2.64583 z"
         id="path4561" />
      <path
         style="fill:none;stroke:#000000;stroke-width:0.26458332px;stroke-linecap:butt;stroke-linejoin:miter;stroke-opacity:1"
         d="m 74.083332,218.94792 v 13.22916 0"
         id="path4563" />
      <path
         style="fill:#a50000;fill-opacity:1;stroke-width:0.21020691"
         d="m 222.88612,879.53889 -7.30356,-7.3058 v -19.75947 -19.75946 l 7.3058,-7.30356 7.3058,-7.30357 h 19.76002 19.76001 l 4.88564,4.88896 4.88563,4.88895 v 24.59424 24.59424 l -4.88896,4.88564 -4.88895,4.88563 h -19.75893 -19.75893 z m 37.62659,-6.6188 5.09909,-5.09591 v -15.24006 -15.24006 l -5.20104,-5.20417 -5.20105,-5.20417 h -7.93688 -7.93689 v 25.54014 25.54014 h 8.03884 8.03883 z"
         id="path4565"
         transform="scale(0.26458333)" />
      <path
         style="fill:#ffffff;fill-opacity:1;stroke-width:0.21020691"
         d="m 280.53649,852.47586 v -24.2789 h 124.44249 124.44249 v 6.93683 c 0,5.10176 -0.0642,6.93683 -0.2426,6.93683 -0.13342,0 -55.9838,7.80393 -124.11196,17.34207 -68.12817,9.53814 -124.01812,17.34207 -124.1999,17.34207 -0.29864,0 -0.33052,-2.34141 -0.33052,-24.2789 z"
         id="path4567"
         transform="scale(0.26458333)" />
    </g>
  </g>
</svg>
