<?xml version="1.0" encoding="UTF-8" standalone="no"?>
<!-- Created with Inkscape (http://www.inkscape.org/) -->

<svg
   id="svg5194"
   width="100%"
   height="100%"
   viewBox="0 0 673.13507 515.47479"
   version="1.0"
   inkscape:version="1.1 (ce6663b3b7, 2021-05-25)"
   sodipodi:docname="dice-green-and-purple-b.svg"
   xmlns:inkscape="http://www.inkscape.org/namespaces/inkscape"
   xmlns:sodipodi="http://sodipodi.sourceforge.net/DTD/sodipodi-0.dtd"
   xmlns:xlink="http://www.w3.org/1999/xlink"
   xmlns="http://www.w3.org/2000/svg"
   xmlns:svg="http://www.w3.org/2000/svg"
   xmlns:rdf="http://www.w3.org/1999/02/22-rdf-syntax-ns#"
   xmlns:cc="http://creativecommons.org/ns#"
   xmlns:dc="http://purl.org/dc/elements/1.1/">
  <sodipodi:namedview
     id="namedview151"
     pagecolor="#ffffff"
     bordercolor="#666666"
     borderopacity="1.0"
     inkscape:pageshadow="2"
     inkscape:pageopacity="0.0"
     inkscape:pagecheckerboard="0"
     showgrid="false"
     inkscape:zoom="1.001227"
     inkscape:cx="323.60294"
     inkscape:cy="315.11336"
     inkscape:window-width="1848"
     inkscape:window-height="1009"
     inkscape:window-x="72"
     inkscape:window-y="34"
     inkscape:window-maximized="1"
     inkscape:current-layer="layer1" />
  <defs
     id="defs5196">
    <linearGradient
       id="BWgrad">
      <stop
         id="stop4456"
         style="stop-color:#000000"
         offset="0" />
      <stop
         id="stop4458"
         style="stop-color:#ffffff"
         offset="1" />
    </linearGradient>
    <linearGradient
       id="linearGradient5419"
       y2="4802.2998"
       gradientUnits="userSpaceOnUse"
       x2="3223.8999"
       gradientTransform="matrix(0.087775,0,0,-0.058738,279.88,642.62)"
       y1="4557.5"
       x1="2987.8">
      <stop
         id="stop4464"
         style="stop-color:#08470f"
         offset="0" />
      <stop
         id="stop4466"
         style="stop-color:#0d7018"
         offset="0.65" />
      <stop
         id="stop4468"
         style="stop-color:#108c1f"
         offset="1" />
    </linearGradient>
    <linearGradient
       id="linearGradient5421"
       y2="3973"
       gradientUnits="userSpaceOnUse"
       x2="4840.2998"
       gradientTransform="matrix(0.047151,0,0,-0.10934,279.88,642.62)"
       y1="4260.7998"
       x1="4460">
      <stop
         id="stop4478"
         style="stop-color:#18ce2e"
         offset="0" />
      <stop
         id="stop4480"
         style="stop-color:#19ca2d"
         offset=".5" />
      <stop
         id="stop4482"
         style="stop-color:#108c1f"
         offset="1" />
    </linearGradient>
    <linearGradient
       id="linearGradient5423"
       y2="8586.2998"
       gradientUnits="userSpaceOnUse"
       x2="681.10999"
       gradientTransform="matrix(0.13322,0,0,-0.038702,279.88,642.62)"
       y1="8029.7998"
       x1="947.23999">
      <stop
         id="stop4471"
         style="stop-color:#08470f"
         offset="0" />
      <stop
         id="stop4473"
         style="stop-color:#14a925"
         offset=".5" />
      <stop
         id="stop4475"
         style="stop-color:#17ce2e"
         offset="1" />
    </linearGradient>
    <linearGradient
       id="linearGradient5425"
       y2="5888.7998"
       gradientUnits="userSpaceOnUse"
       x2="2015.5"
       gradientTransform="matrix(0.089619,0,0,-0.057529,279.88,642.62)"
       y1="5743.8999"
       x1="2138.3999">
      <stop
         id="stop4515"
         style="stop-color:#0d7018"
         offset="0" />
      <stop
         id="stop4517"
         style="stop-color:#19ca2d"
         offset="1" />
    </linearGradient>
    <linearGradient
       id="linearGradient5427"
       y2="4777.8999"
       gradientUnits="userSpaceOnUse"
       x2="2467.3"
       gradientTransform="matrix(0.071803,0,0,-0.071803,279.88,642.62)"
       y1="4604"
       x1="2441.1001">
      <stop
         id="stop4485"
         style="stop-color:#14a925"
         offset="0" />
      <stop
         id="stop4487"
         style="stop-color:#18ce2e"
         offset="1" />
    </linearGradient>
    <linearGradient
       id="linearGradient5429"
       y2="5385.3999"
       gradientUnits="userSpaceOnUse"
       x2="2254.8999"
       gradientTransform="matrix(0.081542,0,0,-0.063228,279.88,642.62)"
       y1="5227.2998"
       x1="2348.8">
      <stop
         id="stop4490"
         style="stop-color:#0d7018"
         offset="0" />
      <stop
         id="stop4492"
         style="stop-color:#19ca2d"
         offset="1" />
    </linearGradient>
    <linearGradient
       id="linearGradient5431"
       y2="5045.1001"
       gradientUnits="userSpaceOnUse"
       x2="2150"
       gradientTransform="matrix(0.079323,0,0,-0.064996,279.88,642.62)"
       y1="4880.7002"
       x1="2261">
      <stop
         id="stop4495"
         style="stop-color:#08470f"
         offset="0" />
      <stop
         id="stop4497"
         style="stop-color:#14a925"
         offset="1" />
    </linearGradient>
    <linearGradient
       id="linearGradient5433"
       y2="4554.7002"
       gradientUnits="userSpaceOnUse"
       x2="2608.7"
       gradientTransform="matrix(0.068485,0,0,-0.075282,279.82,642.62)"
       y1="4391.2998"
       x1="2559.3">
      <stop
         id="stop4500"
         style="stop-color:#14a925"
         offset="0" />
      <stop
         id="stop4502"
         style="stop-color:#19ca2d"
         offset="1" />
    </linearGradient>
    <linearGradient
       id="linearGradient5435"
       y2="4319.2998"
       gradientUnits="userSpaceOnUse"
       x2="2777.6001"
       gradientTransform="matrix(0.065863,0,0,-0.078279,279.88,642.62)"
       y1="4222.2002"
       x1="2908.6001">
      <stop
         id="stop4505"
         style="stop-color:#0d7018"
         offset="0" />
      <stop
         id="stop4507"
         style="stop-color:#19ca2d"
         offset="1" />
    </linearGradient>
    <linearGradient
       id="linearGradient5437"
       y2="11774"
       gradientUnits="userSpaceOnUse"
       x2="973.65002"
       gradientTransform="matrix(0.18286,0,0,-0.028194,279.88,642.62)"
       y1="11722"
       x1="1047.6">
      <stop
         id="stop4510"
         style="stop-color:#0d7018"
         offset="0" />
      <stop
         id="stop4512"
         style="stop-color:#15b528"
         offset="1" />
    </linearGradient>
    <linearGradient
       id="linearGradient5439"
       y2="4328.5"
       xlink:href="#BWgrad"
       gradientUnits="userSpaceOnUse"
       x2="5626.1001"
       gradientTransform="matrix(0.061436,0,0,-0.083919,279.88,642.62)"
       y1="5053.8999"
       x1="4492.5" />
    <linearGradient
       id="linearGradient5441"
       y2="6381.7002"
       xlink:href="#BWgrad"
       gradientUnits="userSpaceOnUse"
       x2="2656.5"
       gradientTransform="scale(0.89715,1.1146)"
       y1="6381.7002"
       x1="4611.5" />
    <linearGradient
       id="linearGradient5443"
       y2="6121.7998"
       xlink:href="#BWgrad"
       gradientUnits="userSpaceOnUse"
       x2="1200"
       gradientTransform="scale(0.89402,1.1185)"
       y1="6121.7998"
       x1="3074.1001" />
    <linearGradient
       id="linearGradient5445"
       y2="4685.2002"
       xlink:href="#BWgrad"
       gradientUnits="userSpaceOnUse"
       x2="1981.5"
       gradientTransform="scale(0.89154,1.1217)"
       y1="4685.2002"
       x1="3971" />
    <linearGradient
       id="linearGradient5447"
       y2="4431.7998"
       xlink:href="#BWgrad"
       gradientUnits="userSpaceOnUse"
       x2="526.01001"
       gradientTransform="scale(0.87842,1.1384)"
       y1="4431.7998"
       x1="2433.2" />
    <linearGradient
       id="linearGradient5449"
       y2="5771.6001"
       xlink:href="#BWgrad"
       gradientUnits="userSpaceOnUse"
       x2="-27.167999"
       gradientTransform="scale(0.9493,1.0534)"
       y1="5771.6001"
       x1="8418.4004" />
    <linearGradient
       id="linearGradient5451"
       y2="4454.2998"
       xlink:href="#BWgrad"
       gradientUnits="userSpaceOnUse"
       x2="1236.3"
       gradientTransform="scale(1.4583,0.68571)"
       y1="6726.6001"
       x1="1993.8" />
    <linearGradient
       id="linearGradient5453"
       y2="3078.2"
       xlink:href="#BWgrad"
       gradientUnits="userSpaceOnUse"
       x2="1323.4"
       gradientTransform="scale(1.4803,0.67556)"
       y1="5188.1001"
       x1="2026.7" />
    <linearGradient
       id="linearGradient5455"
       y2="-474.67999"
       xlink:href="#BWgrad"
       gradientUnits="userSpaceOnUse"
       x2="2279.2"
       gradientTransform="scale(0.77082,1.2973)"
       y1="4363.7002"
       x1="3892" />
    <linearGradient
       id="linearGradient5457"
       y2="4825.2998"
       gradientUnits="userSpaceOnUse"
       x2="7800.3999"
       gradientTransform="matrix(0.079255,0,0,-0.065051,-457.26,891.2)"
       y1="4531.8999"
       x1="7514.2002">
      <stop
         id="stop4523"
         style="stop-color:#52119a"
         offset="0" />
      <stop
         id="stop4525"
         style="stop-color:#7419db"
         offset="0.7" />
      <stop
         id="stop4527"
         style="stop-color:#6e19ce"
         offset="1" />
    </linearGradient>
    <linearGradient
       id="linearGradient5459"
       y2="1213"
       gradientUnits="userSpaceOnUse"
       x2="15151"
       gradientTransform="matrix(0.043089,0,0,-0.11965,-457.26,891.2)"
       y1="887.28003"
       x1="15673">
      <stop
         id="stop4537"
         style="stop-color:#2e0a57"
         offset="0" />
      <stop
         id="stop4539"
         style="stop-color:#52119a"
         offset="1" />
    </linearGradient>
    <linearGradient
       id="linearGradient5461"
       y2="5838.1001"
       gradientUnits="userSpaceOnUse"
       x2="7317.3999"
       gradientTransform="matrix(0.10633,0,0,-0.048486,-457.26,891.2)"
       y1="5419.6001"
       x1="7624.2998">
      <stop
         id="stop4530"
         style="stop-color:#2e0a57"
         offset="0" />
      <stop
         id="stop4532"
         style="stop-color:#6316ba"
         offset=".5" />
      <stop
         id="stop4534"
         style="stop-color:#6e19ce"
         offset="1" />
    </linearGradient>
    <linearGradient
       id="linearGradient5463"
       y2="5235.2998"
       gradientUnits="userSpaceOnUse"
       x2="6168.8999"
       gradientTransform="matrix(0.11332,0,0,-0.045498,-457.26,891.2)"
       y1="4974.2998"
       x1="6199">
      <stop
         id="stop4542"
         style="stop-color:#2e0a57"
         offset="0" />
      <stop
         id="stop4544"
         style="stop-color:#6516bd"
         offset="1" />
    </linearGradient>
    <linearGradient
       id="linearGradient5465"
       y2="3604.3999"
       gradientUnits="userSpaceOnUse"
       x2="9163.0996"
       gradientTransform="matrix(0.074371,0,0,-0.069323,-457.26,891.2)"
       y1="3359"
       x1="9062.7998">
      <stop
         id="stop4547"
         style="stop-color:#52119a"
         offset="0" />
      <stop
         id="stop4549"
         style="stop-color:#7419db"
         offset="1" />
    </linearGradient>
    <linearGradient
       id="linearGradient5467"
       y2="3582"
       gradientUnits="userSpaceOnUse"
       x2="9379.9004"
       gradientTransform="matrix(0.073855,0,0,-0.069808,-457.26,891.2)"
       y1="3440.1001"
       x1="9448">
      <stop
         id="stop4552"
         style="stop-color:#6316ba"
         offset="0" />
      <stop
         id="stop4554"
         style="stop-color:#7419db"
         offset="1" />
    </linearGradient>
    <linearGradient
       id="linearGradient5469"
       y2="3201.7"
       gradientUnits="userSpaceOnUse"
       x2="10179"
       gradientTransform="matrix(0.068568,0,0,-0.075191,-457.26,891.2)"
       y1="3010"
       x1="10245">
      <stop
         id="stop4557"
         style="stop-color:#2e0a57"
         offset="0" />
      <stop
         id="stop4559"
         style="stop-color:#6516bd"
         offset="1" />
    </linearGradient>
    <linearGradient
       id="linearGradient5471"
       y2="2962.8999"
       gradientUnits="userSpaceOnUse"
       x2="10965"
       gradientTransform="matrix(0.062614,0,0,-0.082341,-457.26,891.2)"
       y1="2916"
       x1="11144">
      <stop
         id="stop4562"
         style="stop-color:#6316ba"
         offset="0" />
      <stop
         id="stop4564"
         style="stop-color:#7419db"
         offset="1" />
    </linearGradient>
    <radialGradient
       id="radialGradient5473"
       gradientUnits="userSpaceOnUse"
       cy="3310"
       cx="9607"
       r="201">
      <stop
         id="stop4567"
         style="stop-color:#6516bd"
         offset="0" />
      <stop
         id="stop4569"
         style="stop-color:#6516bd;stop-opacity:0"
         offset="1" />
    </radialGradient>
    <linearGradient
       id="linearGradient5475"
       y2="7986.2002"
       xlink:href="#BWgrad"
       gradientUnits="userSpaceOnUse"
       x2="7494"
       gradientTransform="scale(1.3731,0.72828)"
       y1="6368.5"
       x1="5876.2998" />
    <linearGradient
       id="linearGradient5477"
       y2="7268.7002"
       xlink:href="#BWgrad"
       gradientUnits="userSpaceOnUse"
       x2="6381.3999"
       gradientTransform="scale(1.3613,0.73461)"
       y1="5604.2998"
       x1="4717" />
    <linearGradient
       id="linearGradient5479"
       y2="7148.3999"
       xlink:href="#BWgrad"
       gradientUnits="userSpaceOnUse"
       x2="8154.7998"
       gradientTransform="scale(1.3489,0.74135)"
       y1="5491.2998"
       x1="6497.7002" />
    <linearGradient
       id="linearGradient5481"
       y2="6436.5"
       xlink:href="#BWgrad"
       gradientUnits="userSpaceOnUse"
       x2="7012.7998"
       gradientTransform="scale(1.339,0.74684)"
       y1="4727.7002"
       x1="5304.1001" />
    <linearGradient
       id="linearGradient5483"
       y2="6392.7998"
       xlink:href="#BWgrad"
       gradientUnits="userSpaceOnUse"
       x2="8743.2998"
       gradientTransform="scale(1.3416,0.74538)"
       y1="4706.7998"
       x1="7057.2998" />
    <linearGradient
       id="linearGradient5485"
       y2="5700.2998"
       xlink:href="#BWgrad"
       gradientUnits="userSpaceOnUse"
       x2="7542.8999"
       gradientTransform="scale(1.3415,0.74541)"
       y1="3972.8"
       x1="5815.3999" />
    <linearGradient
       id="linearGradient5487"
       y2="8020.5"
       xlink:href="#BWgrad"
       gradientUnits="userSpaceOnUse"
       x2="8506.2002"
       gradientTransform="scale(1.379,0.72517)"
       y1="-22.414"
       x1="463.32999" />
    <linearGradient
       id="linearGradient5489"
       y2="2181"
       xlink:href="#BWgrad"
       gradientUnits="userSpaceOnUse"
       x2="13548"
       gradientTransform="scale(0.93343,1.0713)"
       y1="3577.5"
       x1="11897" />
    <linearGradient
       id="linearGradient5491"
       y2="1117.2"
       xlink:href="#BWgrad"
       gradientUnits="userSpaceOnUse"
       x2="12309"
       gradientTransform="scale(0.94545,1.0577)"
       y1="2509.5"
       x1="10664" />
    <linearGradient
       id="linearGradient5493"
       y2="20.018999"
       xlink:href="#BWgrad"
       gradientUnits="userSpaceOnUse"
       x2="11136"
       gradientTransform="scale(0.95505,1.0471)"
       y1="1415.1"
       x1="9487.7002" />
    <linearGradient
       id="linearGradient5495"
       y2="-2173.8"
       xlink:href="#BWgrad"
       gradientUnits="userSpaceOnUse"
       x2="15715"
       gradientTransform="scale(0.93426,1.0704)"
       y1="4016.3999"
       x1="8399.5" />
    <linearGradient
       id="linearGradient5497"
       y2="1972.1"
       xlink:href="#BWgrad"
       gradientUnits="userSpaceOnUse"
       x2="9523.2002"
       gradientTransform="scale(0.81594,1.2256)"
       y1="2783.7"
       x1="9897.7002" />
    <linearGradient
       id="linearGradient5499"
       y2="1711.5"
       xlink:href="#BWgrad"
       gradientUnits="userSpaceOnUse"
       x2="8562"
       gradientTransform="scale(0.80928,1.2357)"
       y1="2498.3"
       x1="8925.0996" />
    <linearGradient
       id="linearGradient5501"
       y2="794.14001"
       xlink:href="#BWgrad"
       gradientUnits="userSpaceOnUse"
       x2="9961.0996"
       gradientTransform="scale(0.83061,1.2039)"
       y1="1613.5"
       x1="10339" />
    <linearGradient
       id="linearGradient5503"
       y2="2276.2"
       xlink:href="#BWgrad"
       gradientUnits="userSpaceOnUse"
       x2="10412"
       gradientTransform="scale(0.83133,1.2029)"
       y1="3119.1001"
       x1="10801" />
    <linearGradient
       id="linearGradient5505"
       y2="3159.8999"
       xlink:href="#BWgrad"
       gradientUnits="userSpaceOnUse"
       x2="8902.5"
       gradientTransform="scale(0.81614,1.2253)"
       y1="3971.3"
       x1="9277" />
    <linearGradient
       id="linearGradient5507"
       y2="978.34998"
       xlink:href="#BWgrad"
       gradientUnits="userSpaceOnUse"
       x2="9066"
       gradientTransform="scale(0.78382,1.2758)"
       y1="4727.8999"
       x1="10797" />
  </defs>
  <g
     id="layer1"
     transform="translate(-44.186351,-22.833074)">
    <g
       id="g5395"
       transform="translate(8.5714,-57.143)">
      <path
         id="path4573"
         style="fill:#118c1f"
         d="m 534.57,80.909 c -0.22,0.359 -3.02,9.119 -6.25,19.601 -8.83,28.72 -12.13,39.21 -14.36,46.31 -1.08,3.52 -3.16,10.34 -4.67,15.08 -1.43,4.74 -5.02,16.23 -7.9,25.49 -2.87,9.27 -10.19,32.67 -16.15,52.06 -6.03,19.32 -13.14,42.29 -15.87,51.05 -2.73,8.76 -4.95,16.23 -4.95,16.59 0,0.72 11.41,8.47 116.46,78.77 l 60.89,40.64 2.01,-2.8 c 1.15,-1.58 2.44,-3.81 2.87,-4.89 0.43,-1.07 14.58,-47.74 31.45,-103.61 34.04,-112.66 32.53,-106.62 28.72,-114.45 -1.15,-2.37 -3.16,-4.96 -4.95,-6.39 C 695.05,188.9 543.9,83.14 541.1,81.84 c -3.23,-1.433 -6.03,-1.864 -6.53,-0.931 z" />
      <path
         id="path4575"
         style="fill:#18ce2e"
         d="M 530.47,80.191 C 525.66,81.125 381.84,111.43 379.62,112 c -3.45,0.93 -8.12,4.45 -10.27,7.68 -2.66,4.02 -70.87,203.49 -71.3,208.59 -0.36,3.88 -0.29,4.17 1.08,4.17 0.78,0 11.27,-1.44 23.26,-3.24 11.99,-1.79 48.54,-7.1 81.28,-11.77 32.67,-4.74 59.6,-8.76 59.81,-8.98 0.43,-0.36 5.75,-17.37 21.76,-69 5.96,-19.39 13.28,-42.79 16.15,-52.06 2.88,-9.26 6.47,-20.75 7.9,-25.49 1.51,-4.74 3.59,-11.56 4.67,-15.08 8.62,-27.57 20.25,-65.336 20.39,-65.982 0.07,-0.862 -1.43,-1.077 -3.88,-0.647 z" />
      <path
         id="path4577"
         style="fill:#08470f"
         d="m 463.55,308.38 c -0.21,0.29 -23.83,3.81 -52.34,7.97 -76.47,10.99 -112.23,16.23 -112.59,16.52 -0.14,0.14 0.07,1.58 0.58,3.16 1.94,6.46 2.58,6.89 89.25,59.52 51.7,31.38 82.93,49.98 85.01,50.48 3.02,0.86 11.78,0.07 80.92,-6.9 43.73,-4.38 78.84,-8.25 80.5,-8.83 3.8,-1.29 6.75,-3.52 5.81,-4.38 -0.36,-0.36 -30.59,-20.6 -67.13,-45.02 -36.55,-24.41 -75.76,-50.69 -87.1,-58.3 -21.47,-14.43 -22.19,-14.94 -22.91,-14.22 z" />
      <path
         id="path4579"
         style="fill:url(#linearGradient5419)"
         d="m 457.52,324.25 171.32,106.91 c 10.7,-1.22 14.22,-2.94 18.82,-15.58 L 476.62,303.93 Z" />
      <path
         id="path4581"
         style="fill:url(#linearGradient5421)"
         d="m 450.92,299.41 27.07,5.45 69.86,-218.49 c -11.42,-7.399 -12.28,-7.327 -24.91,-4.599 l -72.02,217.64 z" />
      <path
         id="path4583"
         style="fill:url(#linearGradient5423)"
         d="m 300.35,320.37 c -4.89,15.87 -1.51,18.82 7.32,25.06 L 459.25,325.4 451.2,298.62 Z" />
      <path
         id="path4585"
         style="fill:url(#linearGradient5425)"
         d="m 471.52,312.19 -16.44,-0.07 9.48,-10.49 z" />
      <path
         id="path4587"
         style="fill:url(#linearGradient5427)"
         d="m 451.13,298.62 4.02,13.42 9.41,-10.34 z" />
      <path
         id="path4589"
         style="fill:url(#linearGradient5429)"
         d="m 477.99,304.86 -6.54,7.26 -6.89,-10.42 z" />
      <path
         id="path4591"
         style="fill:url(#linearGradient5431)"
         d="m 459.17,325.4 12.28,-13.28 -16.3,-0.08 z" />
      <path
         id="path4593"
         style="fill:url(#linearGradient5433)"
         d="m 455.09,312.04 9.41,-10.34 -1.8,7.97 z" />
      <path
         id="path4595"
         style="fill:url(#linearGradient5435)"
         d="m 471.45,312.12 -6.89,-10.42 -1.87,7.97 z" />
      <path
         id="path4597"
         style="fill:url(#linearGradient5437)"
         d="m 471.45,312.12 -16.3,-0.08 7.61,-2.44 z" />
      <path
         id="path4599"
         style="fill:url(#linearGradient5439)"
         d="m 588.35,228.46 c -4.17,1.15 -9.91,7.04 -11.99,12.43 -2.37,6.17 -2.37,17.44 0.07,23.69 4.09,10.63 10.55,16.66 18.74,17.45 10.27,1.01 18.52,-8.54 19.17,-22.12 0.14,-3.44 -0.07,-7.97 -0.57,-10.26 -2.01,-9.7 -9.12,-18.74 -16.52,-20.9 -4.31,-1.29 -4.95,-1.29 -8.9,-0.29 z" />
      <g
         id="g4601"
         style="fill:url(#linearGradient5449)"
         transform="matrix(0.071803,0,0,-0.071803,279.88,642.62)">
        <path
           id="path4603"
           style="fill:url(#linearGradient5441)"
           d="m 2864,7432 c -212,-74 -403,-412 -330,-587 30,-71 112,-87 212,-41 68,31 182,143 232,227 103,175 107,363 8,404 -45,19 -59,18 -122,-3 z" />
        <path
           id="path4605"
           style="fill:url(#linearGradient5443)"
           d="m 1500,7144 c -142,-81 -265,-256 -292,-416 -14,-80 -5,-130 32,-171 25,-29 34,-32 82,-32 93,1 206,85 293,216 106,159 133,326 65,399 -24,26 -35,30 -82,30 -38,0 -65,-7 -98,-26 z" />
        <path
           id="path4607"
           style="fill:url(#linearGradient5445)"
           d="m 2260,5591 c -122,-37 -276,-209 -329,-366 -42,-127 -37,-216 17,-276 99,-110 337,37 447,276 60,129 70,245 29,315 -30,50 -97,71 -164,51 z" />
        <path
           id="path4609"
           style="fill:url(#linearGradient5447)"
           d="m 925,5368 c -161,-58 -321,-289 -333,-479 -3,-59 0,-84 13,-113 88,-186 420,57 491,360 40,173 -39,279 -171,232 z" />
      </g>
      <g
         id="g4611"
         style="fill:url(#linearGradient5455)"
         transform="matrix(0.071803,0,0,-0.071803,279.88,642.62)">
        <path
           id="path4613"
           style="fill:url(#linearGradient5451)"
           d="m 2246,4259 c -89,-21 -98,-66 -30,-139 99,-106 353,-200 541,-200 182,0 202,89 44,194 -156,104 -431,176 -555,145 z" />
        <path
           id="path4615"
           style="fill:url(#linearGradient5453)"
           d="m 2370,3180 c -41,-10 -70,-42 -63,-70 9,-33 96,-104 176,-143 114,-56 236,-88 353,-94 123,-7 164,8 164,59 0,85 -250,216 -474,247 -87,12 -106,12 -156,1 z" />
      </g>
    </g>
    <g
       id="g5364"
       transform="matrix(-1,0,0,1,477.7491,-335.01473)">
      <path
         id="path4617"
         style="fill:#2e0a57"
         d="m 368.47,606.14 c -34.53,11.41 -79.63,26.21 -100.23,32.96 l -37.34,12.27 -1.22,5.17 c -0.65,2.88 -8.33,36.77 -17.02,75.25 -8.69,38.49 -19.39,85.81 -23.77,105.12 -6.53,28.65 -7.82,35.19 -7.03,35.69 0.57,0.36 3.16,0.65 5.81,0.65 4.67,0 8.62,-1.44 94.35,-33.46 57.16,-21.4 90.69,-34.33 92.77,-35.76 1.87,-1.22 4.24,-3.66 5.32,-5.46 1.5,-2.51 7.68,-25.13 27.86,-102.68 14.21,-54.71 25.41,-96.14 25.49,-102.32 0,-3.23 -0.87,-8.25 -1.66,-8.18 -0.28,0 -28.79,9.4 -63.33,20.75 z" />
      <path
         id="path4619"
         style="fill:#52119a"
         d="m 57.998,517.6 c -1.005,1.51 -2.154,3.67 -2.513,4.89 -0.431,1.15 -9.191,47.03 -19.459,101.89 -14.217,75.53 -18.669,100.45 -18.31,102.67 0.288,1.66 1.293,4.6 2.226,6.68 1.652,3.38 8.545,9.48 78.553,69.79 42.145,36.34 77.975,66.71 79.485,67.57 1.51,0.79 2.8,1.22 2.87,0.93 0.22,-0.79 13.86,-60.74 31.81,-140.23 8.33,-36.9 15.8,-69.79 16.59,-73.09 0.72,-3.31 1.36,-6.32 1.36,-6.61 0,-0.36 -37.91,-30.95 -84.15,-67.92 -46.31,-37.05 -84.8,-67.79 -85.446,-68.36 -1.078,-0.86 -1.365,-0.72 -3.016,1.79 z" />
      <path
         id="path4621"
         style="fill:#6f19ce"
         d="m 158.16,483 c -73.164,21.39 -92.048,27.21 -94.418,28.86 -1.58,1.15 -2.944,2.44 -2.944,2.94 0,0.44 38.199,31.38 84.872,68.72 l 84.94,67.93 77.69,-25.49 c 42.8,-14.01 87.89,-28.8 100.31,-32.89 12.42,-4.09 22.69,-7.75 22.84,-8.19 0.86,-2.65 -6.32,-8.25 -84.59,-65.7 -44.37,-32.52 -82.43,-60.02 -84.58,-61.17 -7.25,-3.66 -3.02,-4.67 -104.12,24.99 z" />
      <path
         id="path4623"
         style="fill:url(#linearGradient5457)"
         d="m 72.071,508.77 c -1.795,0.51 -4.811,1.37 -6.462,2.09 -6.032,2.72 -9.263,7.32 -10.555,13.57 l -0.646,3.44 81.852,66.21 c 45.17,36.47 83.58,66.99 85.38,67.92 l 4.02,2.08 6.46,1.15 3.66,-0.57 c 7.11,-1.22 11.35,-10.41 8.19,-17.88 -1.01,-2.44 -6.03,-7.83 -11.28,-12.06 L 72.07,508.77 Z" />
      <path
         id="path4625"
         style="fill:url(#linearGradient5459)"
         d="m 216.75,658.34 -23.4,100.74 -24.13,104.83 5.31,4.45 c 4.67,4.17 6.9,4.89 12.07,4.96 3.52,0.07 8.18,-1.3 12.49,-2.95 l 47.68,-212.39 z" />
      <path
         id="path4627"
         style="fill:url(#linearGradient5461)"
         d="m 327.04,606.35 c -51.77,17.45 -90.97,30.74 -91.26,30.95 l 2.66,14.72 6.53,12.92 93.63,-31.37 93.28,-31.52 0.93,-3.74 c 1.36,-6.25 0.79,-9.4 -1.01,-13.78 -1.65,-3.24 -5.67,-6.18 -10.12,-9.77 z" />
      <path
         id="path4629"
         style="fill:url(#linearGradient5463)"
         d="m 216.75,658.34 28.44,6.53 -12.64,-11.41 z" />
      <path
         id="path4631"
         style="fill:url(#linearGradient5465)"
         d="m 216.75,658.34 13.29,-14.79 2.58,9.98 z" />
      <path
         id="path4633"
         style="fill:url(#linearGradient5467)"
         d="m 240.52,651.09 -10.48,-7.47 2.51,9.91 z" />
      <path
         id="path4635"
         style="fill:url(#linearGradient5469)"
         d="m 240.52,651.01 4.67,13.86 -12.64,-11.34 z" />
      <path
         id="path4637"
         style="fill:url(#linearGradient5471)"
         d="m 235.78,637.3 -5.74,6.32 10.48,7.47 z" />
      <circle
         id="circle4639"
         style="fill:url(#radialGradient5473)"
         transform="matrix(0.071803,0,0,-0.071803,-457.26,891.2)"
         cy="3310"
         cx="9607"
         r="201" />
      <g
         id="g4641"
         style="fill:url(#linearGradient5487)"
         transform="matrix(0.071803,0,0,-0.071803,-457.26,891.2)">
        <path
           id="path4643"
           style="fill:url(#linearGradient5475)"
           d="m 9671,5805 c -106,-30 -158,-86 -145,-154 17,-81 158,-183 310,-221 97,-25 248,-27 324,-4 67,20 130,78 130,119 0,96 -134,202 -315,250 -88,24 -238,28 -304,10 z" />
        <path
           id="path4645"
           style="fill:url(#linearGradient5477)"
           d="m 8075,5333 c -85,-19 -147,-64 -165,-119 -32,-97 110,-224 309,-275 98,-26 245,-28 324,-5 61,18 123,64 138,104 37,97 -109,232 -307,282 -73,19 -241,26 -299,13 z" />
        <path
           id="path4647"
           style="fill:url(#linearGradient5479)"
           d="m 10405,5293 c -143,-32 -202,-102 -165,-197 24,-63 160,-155 280,-190 245,-71 480,-11 480,122 0,71 -109,174 -234,221 -110,41 -281,62 -361,44 z" />
        <path
           id="path4649"
           style="fill:url(#linearGradient5481)"
           d="m 8797,4800 c -27,-5 -74,-21 -104,-35 -156,-77 -108,-229 102,-330 95,-46 191,-67 305,-68 120,-1 197,22 252,73 33,32 38,43 38,81 0,94 -91,182 -249,239 -118,43 -239,57 -344,40 z" />
        <path
           id="path4651"
           style="fill:url(#linearGradient5483)"
           d="m 11130,4760 c -117,-21 -180,-71 -180,-141 0,-50 17,-84 67,-130 110,-105 299,-167 472,-156 109,7 156,23 203,68 31,29 38,43 38,73 0,107 -125,211 -319,265 -84,23 -217,33 -281,21 z" />
        <path
           id="path4653"
           style="fill:url(#linearGradient5485)"
           d="m 9463,4236 c -96,-30 -143,-80 -143,-151 0,-50 20,-84 81,-139 107,-96 244,-141 429,-141 109,0 132,3 176,23 138,62 151,170 32,277 -103,92 -262,145 -432,144 -56,0 -120,-6 -143,-13 z" />
      </g>
      <g
         id="g4655"
         style="fill:url(#linearGradient5495)"
         transform="matrix(0.071803,0,0,-0.071803,-457.26,891.2)">
        <path
           id="path4657"
           style="fill:url(#linearGradient5489)"
           d="m 11842,3682 c -253,-90 -468,-476 -346,-622 102,-121 369,24 499,272 123,234 42,419 -153,350 z" />
        <path
           id="path4659"
           style="fill:url(#linearGradient5491)"
           d="m 10785,2491 c -150,-71 -287,-238 -330,-402 -20,-72 -18,-116 4,-166 25,-55 67,-77 135,-71 147,12 317,159 407,353 59,126 49,264 -22,300 -47,25 -126,19 -194,-14 z" />
        <path
           id="path4661"
           style="fill:url(#linearGradient5493)"
           d="m 9760,1314 c -199,-99 -368,-367 -330,-525 22,-92 97,-125 206,-91 233,73 453,404 380,575 -22,53 -50,71 -119,75 -56,3 -70,0 -137,-34 z" />
      </g>
      <g
         id="g4663"
         style="fill:url(#linearGradient5507)"
         transform="matrix(0.071803,0,0,-0.071803,-457.26,891.2)">
        <path
           id="path4665"
           style="fill:url(#linearGradient5497)"
           d="m 7830,3088 c -34,-18 -52,-36 -75,-78 -59,-109 -43,-312 36,-460 90,-169 243,-253 340,-187 76,51 103,126 97,272 -7,155 -61,286 -161,385 -81,82 -164,106 -237,68 z" />
        <path
           id="path4667"
           style="fill:url(#linearGradient5499)"
           d="m 7006,2780 c -77,-23 -126,-121 -126,-248 0,-98 19,-175 70,-277 85,-175 231,-259 331,-192 112,73 119,327 16,522 -47,87 -133,170 -198,189 -59,18 -53,17 -93,6 z" />
        <path
           id="path4669"
           style="fill:url(#linearGradient5501)"
           d="m 8335,1630 c -30,-12 -72,-60 -90,-104 -78,-187 48,-531 227,-620 135,-67 240,-1 268,169 33,201 -103,483 -265,551 -37,15 -108,18 -140,4 z" />
        <path
           id="path4671"
           style="fill:url(#linearGradient5503)"
           d="m 8725,3428 c -76,-41 -115,-116 -122,-234 -11,-155 48,-320 153,-434 67,-72 121,-100 195,-100 73,0 118,31 155,106 118,241 -84,675 -313,674 -26,0 -57,-6 -68,-12 z" />
        <path
           id="path4673"
           style="fill:url(#linearGradient5505)"
           d="m 7305,4528 c -47,-41 -72,-91 -85,-171 -25,-159 42,-361 159,-478 115,-115 239,-111 304,9 84,155 35,421 -107,579 -58,64 -115,93 -184,93 -43,0 -57,-5 -87,-32 z" />
      </g>
    </g>
  </g>
  <metadata
     id="metadata148">
    <rdf:RDF>
      <cc:Work>
        <dc:format>image/svg+xml</dc:format>
        <dc:type
           rdf:resource="http://purl.org/dc/dcmitype/StillImage" />
        <cc:license
           rdf:resource="http://creativecommons.org/licenses/publicdomain/" />
        <dc:publisher>
          <cc:Agent
             rdf:about="http://openclipart.org/">
            <dc:title>Openclipart</dc:title>
          </cc:Agent>
        </dc:publisher>
        <dc:title>Green and Purple Dice</dc:title>
        <dc:date>2010-05-26T16:53:45</dc:date>
        <dc:description>Sometimes you just want a different color.</dc:description>
        <dc:source>https://openclipart.org/detail/63043/green-and-purple-dice-by-eady</dc:source>
        <dc:creator>
          <cc:Agent>
            <dc:title>eady</dc:title>
          </cc:Agent>
        </dc:creator>
        <dc:subject>
          <rdf:Bag>
            <rdf:li>dice</rdf:li>
            <rdf:li>game</rdf:li>
            <rdf:li>games</rdf:li>
          </rdf:Bag>
        </dc:subject>
      </cc:Work>
      <cc:License
         rdf:about="http://creativecommons.org/licenses/publicdomain/">
        <cc:permits
           rdf:resource="http://creativecommons.org/ns#Reproduction" />
        <cc:permits
           rdf:resource="http://creativecommons.org/ns#Distribution" />
        <cc:permits
           rdf:resource="http://creativecommons.org/ns#DerivativeWorks" />
      </cc:License>
    </rdf:RDF>
  </metadata>
</svg>
