<?xml version="1.0" encoding="UTF-8" standalone="no"?>
<svg
   version="1.1"
   x="0"
   y="0"
   width="100%"
   height="100%"
   viewBox="0, 0, 466.7, 230.1"
   id="svg18"
   sodipodi:docname="eye-closed.svg"
   inkscape:version="1.1 (ce6663b3b7, 2021-05-25)"
   xmlns:inkscape="http://www.inkscape.org/namespaces/inkscape"
   xmlns:sodipodi="http://sodipodi.sourceforge.net/DTD/sodipodi-0.dtd"
   xmlns="http://www.w3.org/2000/svg"
   xmlns:svg="http://www.w3.org/2000/svg">
  <sodipodi:namedview
     id="namedview20"
     pagecolor="#ffffff"
     bordercolor="#666666"
     borderopacity="1.0"
     inkscape:pageshadow="2"
     inkscape:pageopacity="0.0"
     inkscape:pagecheckerboard="0"
     showgrid="false"
     inkscape:zoom="1.7516606"
     inkscape:cx="113.60649"
     inkscape:cy="168.69707"
     inkscape:window-width="1848"
     inkscape:window-height="1009"
     inkscape:window-x="72"
     inkscape:window-y="34"
     inkscape:window-maximized="1"
     inkscape:current-layer="Layer_1" />
  <defs
     id="defs7">
    <radialGradient
       id="Gradient_1"
       gradientUnits="userSpaceOnUse"
       cx="278.17"
       cy="166.03"
       r="73.454">
      <stop
         offset="0"
         stop-color="#95C11F"
         id="stop2" />
      <stop
         offset="1"
         stop-color="#683C11"
         id="stop4" />
    </radialGradient>
  </defs>
  <g
     id="Layer_1"
     style="display:inline">
    <path
       d="m 466.7,193.9 c -7.8,-1.6 -32.4,-12.4 -46.4,-9.8 C 259.7,214 173.1,214.7 108,128.2 c -0.5,-0.6 1,3.5 3.6,8.9 3.8,8.2 7.9,14.6 11.1,19 0,0 -38.1,9.1 -40.7,39.7 0,0 9.8,-28.9 47.5,-32.9 0,0 11.7,12.7 16.3,14.6 0,0 -33.8,9.8 -38.4,37.1 0,0 10.2,-24.9 46,-32.1 0,0 14.5,10.6 23,12.5 0,0 -32.5,5.2 -44.9,35.1 0,0 26.9,-24.2 59.2,-29.3 0,0 54.6,25.7 231.6,-9.1 -0.1,0.3 14.7,-3.6 44.4,2.2 z"
       fill="#000000"
       id="path34859"
       style="display:inline" />
    <path
       id="circle34866"
       style="display:inline;fill:url(#Gradient_1)"
       d="m 199.14062,160.90234 c 11.58186,25.30674 37.10867,42.89844 66.75977,42.89844 29.65093,0 55.17586,-17.59193 66.75781,-42.89844 z" />
    <path
       id="circle34870"
       style="display:inline"
       d="m 281.19336,161.07364 -28.4707,0.0547 c 4.28714,2.09315 9.08567,3.30078 14.17773,3.30078 5.13744,0 9.97718,-1.22716 14.29297,-3.35547 z" />
    <path
       id="path34878"
       style="display:inline"
       d="m 336.11719,160.57617 -7.05078,0.0332 C 324.764,170.27933 318.3424,179.03558 310,186 c -23,19.2 -56,20.40078 -81,4.30078 -11.31388,-7.29928 -19.91309,-17.49347 -25.43359,-29.10742 l -8.4043,0.0391 c 5.04147,11.54678 12.95589,21.88408 23.53711,29.66797 25.6,19 61.20117,19.7 88.20117,3 13.00781,-8.06388 23.0452,-19.83408 29.2168,-33.32422 z" />
    <path
       d="m 115.6792,105.23488 c -54.801676,6.1 -100.773666,40.8 -100.773666,40.8 47.411614,-31.2 99.909896,-15.6 99.909896,-15.6 -50.770733,2.6 -74.47654,49 -74.47654,49 15.355988,-29.1 89.9285,-33.8 89.9285,-33.8 -42.900786,7.8 -60.752123,52.5 -60.752123,52.5 27.9287,-47.7 90.312403,-38.2 90.312403,-38.2 -39.15777,5.2 -51.63451,51.6 -51.63451,51.6 19.96278,-56.4 88.20096,-37.7 88.20096,-37.7 -31.67173,2.2 -43.2847,46.8 -43.2847,46.8 8.34982,-38.2 67.47038,-36.4 67.47038,-36.4 141.94692,17.7 242.24071,-137.999996 242.24071,-137.999996 C 247.7407,253.13488 115.6792,105.23488 115.6792,105.23488"
       fill="#000000"
       id="path34876"
       style="display:inline;stroke-width:0.979668" />
    <path
       d="m 458,132.6 c 0,0 -4.1,-4.2 -11.3,-11.5 -1.8,-1.8 -3.9,-3.7 -6.1,-5.9 -1.1,-1.1 -2.3,-2.2 -3.4,-3.3 -1.2,-1.1 -2.5,-2.3 -3.8,-3.5 -1.3,-1.2 -2.7,-2.4 -4.1,-3.7 -1.4,-1.3 -2.8,-2.6 -4.4,-3.8 -3.1,-2.5 -6.2,-5.3 -9.6,-8 -3.5,-2.7 -7,-5.5 -10.8,-8.3 -1.9,-1.4 -3.8,-2.8 -5.8,-4.2 -2,-1.4 -3.9,-2.9 -6,-4.2 -4.2,-2.7 -8.4,-5.7 -12.9,-8.3 -2.2,-1.4 -4.5,-2.7 -6.8,-4.1 -2.3,-1.3 -4.7,-2.6 -7,-3.9 -1.2,-0.7 -2.4,-1.3 -3.6,-2 -1.2,-0.6 -2.4,-1.2 -3.7,-1.9 -2.5,-1.2 -4.9,-2.5 -7.4,-3.7 -5.1,-2.3 -10.2,-4.7 -15.5,-6.8 -5.2,-2.3 -10.7,-4.1 -16.1,-6.1 -5.5,-1.7 -11,-3.6 -16.6,-5 -5.5,-1.6 -11.2,-2.9 -16.8,-4.2 -2.8,-0.6 -5.6,-1.1 -8.5,-1.7 -1.4,-0.3 -2.8,-0.5 -4.2,-0.7 -1.4,-0.2 -2.8,-0.4 -4.2,-0.7 -1.4,-0.2 -2.8,-0.4 -4.2,-0.7 -1.4,-0.2 -2.8,-0.3 -4.2,-0.5 -1.4,-0.2 -2.8,-0.3 -4.2,-0.5 -1.4,-0.2 -2.8,-0.4 -4.2,-0.5 -2.8,-0.2 -5.5,-0.5 -8.3,-0.7 -2.7,-0.2 -5.5,-0.3 -8.2,-0.4 -10.8,-0.4 -21.4,-0.5 -31.3,0.1 -1.2,0.1 -2.5,0.1 -3.7,0.2 -1.2,0.1 -2.4,0.2 -3.7,0.3 -2.4,0.2 -4.8,0.4 -7.1,0.6 -2.3,0.2 -4.6,0.5 -6.9,0.7 -1.1,0.1 -2.2,0.2 -3.4,0.4 -1.1,0.2 -2.2,0.3 -3.3,0.5 -2.2,0.3 -4.3,0.6 -6.3,0.9 -2.1,0.3 -4.1,0.7 -6,1 -2,0.3 -3.9,0.6 -5.7,1 -1.9,0.4 -3.7,0.7 -5.4,1 -1.7,0.4 -3.4,0.6 -5.1,1 -1.6,0.4 -3.2,0.7 -4.7,1 -1.5,0.3 -3,0.6 -4.3,0.9 -1.4,0.3 -2.7,0.7 -3.9,1 -2.5,0.6 -4.7,1.2 -6.6,1.6 -1.9,0.5 -3.6,1 -4.9,1.3 -2.7,0.7 -4.1,1.1 -4.1,1.1 0,0 1.4,-0.5 3.9,-1.5 1.3,-0.5 2.9,-1.1 4.7,-1.8 1.9,-0.7 4,-1.4 6.5,-2.2 1.2,-0.4 2.5,-0.8 3.8,-1.3 1.4,-0.4 2.8,-0.9 4.3,-1.3 3,-0.9 6.2,-1.9 9.6,-2.8 1.7,-0.5 3.5,-0.9 5.4,-1.4 1.8,-0.5 3.8,-0.9 5.7,-1.4 2,-0.5 4,-0.9 6,-1.4 2.1,-0.4 4.2,-0.8 6.4,-1.2 l 3.3,-0.6 c 1.1,-0.2 2.2,-0.4 3.4,-0.5 2.3,-0.4 4.6,-0.7 6.9,-1.1 l 7.2,-0.9 c 1.2,-0.1 2.5,-0.3 3.7,-0.4 1.2,-0.1 2.5,-0.2 3.8,-0.3 10.1,-1 20.8,-1.4 32,-1.2 2.8,0.1 5.6,0.1 8.4,0.3 2.8,0.2 5.7,0.4 8.5,0.5 1.4,0.1 2.9,0.2 4.3,0.4 1.4,0.1 2.9,0.3 4.3,0.4 1.4,0.2 2.9,0.3 4.3,0.5 1.4,0.2 2.9,0.4 4.3,0.6 1.4,0.2 2.9,0.4 4.3,0.6 1.5,0.2 2.9,0.4 4.3,0.7 2.9,0.5 5.8,1.1 8.7,1.6 5.8,1.3 11.6,2.5 17.3,4.2 5.7,1.5 11.4,3.5 17,5.3 5.5,2.1 11.1,4 16.4,6.4 2.7,1.2 5.4,2.2 8,3.5 2.6,1.3 5.2,2.5 7.8,3.7 2.6,1.3 5,2.7 7.5,4 1.2,0.7 2.5,1.3 3.7,2 l 3.6,2.1 c 2.4,1.4 4.8,2.8 7.1,4.2 2.3,1.4 4.6,2.9 6.8,4.4 4.5,2.9 8.7,6 12.8,9 2.1,1.4 4,3 6,4.5 l 5.7,4.5 c 3.7,3 7.1,6.1 10.5,9 1.7,1.4 3.2,3 4.8,4.4 1.5,1.5 3,2.9 4.5,4.3 1.5,1.4 2.8,2.8 4.2,4.2 1.3,1.4 2.6,2.7 3.9,4 1.2,1.3 2.4,2.5 3.6,3.7 1.1,1.3 2.2,2.5 3.2,3.6 2,2.3 3.9,4.5 5.6,6.4 1.7,1.9 3.1,3.7 4.3,5.3 1.2,1.6 2.3,2.9 3.2,4 1.9,2.1 2.8,3.2 2.8,3.2 z"
       fill="#000000"
       id="path34874"
       style="display:inline" />
  </g>
</svg>
