<?xml version="1.0" encoding="UTF-8"?>
<!DOCTYPE svg PUBLIC "-//W3C//DTD SVG 1.1//EN" "http://www.w3.org/Graphics/SVG/1.1/DTD/svg11.dtd">
<svg version="1.1" xmlns="http://www.w3.org/2000/svg" xmlns:xlink="http://www.w3.org/1999/xlink" x="0" y="0" width="100%" height="100%" viewBox="0, 0, 466.7, 230.1">
  <defs>
    <radialGradient id="Gradient_1" gradientUnits="userSpaceOnUse" cx="278.17" cy="166.03" r="73.454">
      <stop offset="0" stop-color="#95C11F"/>
      <stop offset="1" stop-color="#683C11"/>
    </radialGradient>
  </defs>
  <g id="Layer_1">
    <path d="M466.7,193.9 C458.9,192.3 434.3,181.5 420.3,184.1 C259.7,214 173.1,214.7 108,128.2 C107.5,127.6 109,131.7 111.6,137.1 C115.4,145.3 119.5,151.7 122.7,156.1 C122.7,156.1 84.6,165.2 82,195.8 C82,195.8 91.8,166.9 129.5,162.9 C129.5,162.9 141.2,175.6 145.8,177.5 C145.8,177.5 112,187.3 107.4,214.6 C107.4,214.6 117.6,189.7 153.4,182.5 C153.4,182.5 167.9,193.1 176.4,195 C176.4,195 143.9,200.2 131.5,230.1 C131.5,230.1 158.4,205.9 190.7,200.8 C190.7,200.8 245.3,226.5 422.3,191.7 C422.2,192 437,188.1 466.7,193.9 z" fill="#000000" id="path34859"/>
    <path d="M339.3,130.4 C339.3,170.938 306.438,203.8 265.9,203.8 C225.362,203.8 192.5,170.938 192.5,130.4 C192.5,89.862 225.362,57 265.9,57 C306.438,57 339.3,89.862 339.3,130.4 z" fill="url(#Gradient_1)" id="circle34866"/>
    <path d="M192.8,106.6 C182.4,137.1 192.6,171.7 218.7,190.9 C244.3,209.9 279.9,210.6 306.9,193.9 C334,177.1 348.4,144.3 341.2,113.1 C334,81.8 306.8,58.5 275,55.3 C239.5,51.7 205,73 192.8,106.6 C191.9,109 199.4,108.1 200.3,105.6 C210.3,77.9 236.6,58.2 266.5,59.1 C296.1,60 322.4,80.3 331.7,108.1 C341,135.7 332.4,167.3 310,186 C287,205.2 254,206.4 229,190.3 C201.1,172.3 189.7,136.7 200.3,105.6 C201.2,103.1 193.7,104.1 192.8,106.6 z" fill="#000000" id="path34868"/>
    <path d="M299.3,132.6 C299.3,150.494 284.794,165 266.9,165 C249.006,165 234.5,150.494 234.5,132.6 C234.5,114.706 249.006,100.2 266.9,100.2 C284.794,100.2 299.3,114.706 299.3,132.6 z" fill="#000000" id="circle34870"/>
    <path d="M246.156,113.238 C249.965,108.719 255.279,106.932 258.023,109.246 C260.768,111.56 259.905,117.099 256.096,121.618 C252.287,126.136 246.974,127.923 244.229,125.609 C241.484,123.295 242.347,117.756 246.156,113.238 z" fill="#FFFFFF" id="ellipse34872"/>
    <path d="M458,132.6 C458,132.6 453.9,128.4 446.7,121.1 C444.9,119.3 442.8,117.4 440.6,115.2 C439.5,114.1 438.3,113 437.2,111.9 C436,110.8 434.7,109.6 433.4,108.4 C432.1,107.2 430.7,106 429.3,104.7 C427.9,103.4 426.5,102.1 424.9,100.9 C421.8,98.4 418.7,95.6 415.3,92.9 C411.8,90.2 408.3,87.4 404.5,84.6 C402.6,83.2 400.7,81.8 398.7,80.4 C396.7,79 394.8,77.5 392.7,76.2 C388.5,73.5 384.3,70.5 379.8,67.9 C377.6,66.5 375.3,65.2 373,63.8 C370.7,62.5 368.3,61.2 366,59.9 C364.8,59.2 363.6,58.6 362.4,57.9 C361.2,57.3 360,56.7 358.7,56 C356.2,54.8 353.8,53.5 351.3,52.3 C346.2,50 341.1,47.6 335.8,45.5 C330.6,43.2 325.1,41.4 319.7,39.4 C314.2,37.7 308.7,35.8 303.1,34.4 C297.6,32.8 291.9,31.5 286.3,30.2 C283.5,29.6 280.7,29.1 277.8,28.5 C276.4,28.2 275,28 273.6,27.8 C272.2,27.6 270.8,27.4 269.4,27.1 C268,26.9 266.6,26.7 265.2,26.4 C263.8,26.2 262.4,26.1 261,25.9 C259.6,25.7 258.2,25.6 256.8,25.4 C255.4,25.2 254,25 252.6,24.9 C249.8,24.7 247.1,24.4 244.3,24.2 C241.6,24 238.8,23.9 236.1,23.8 C225.3,23.4 214.7,23.3 204.8,23.9 C203.6,24 202.3,24 201.1,24.1 C199.9,24.2 198.7,24.3 197.4,24.4 C195,24.6 192.6,24.8 190.3,25 C188,25.2 185.7,25.5 183.4,25.7 C182.3,25.8 181.2,25.9 180,26.1 C178.9,26.3 177.8,26.4 176.7,26.6 C174.5,26.9 172.4,27.2 170.4,27.5 C168.3,27.8 166.3,28.2 164.4,28.5 C162.4,28.8 160.5,29.1 158.7,29.5 C156.8,29.9 155,30.2 153.3,30.5 C151.6,30.9 149.9,31.1 148.2,31.5 C146.6,31.9 145,32.2 143.5,32.5 C142,32.8 140.5,33.1 139.2,33.4 C137.8,33.7 136.5,34.1 135.3,34.4 C132.8,35 130.6,35.6 128.7,36 C126.8,36.5 125.1,37 123.8,37.3 C121.1,38 119.7,38.4 119.7,38.4 C119.7,38.4 121.1,37.9 123.6,36.9 C124.9,36.4 126.5,35.8 128.3,35.1 C130.2,34.4 132.3,33.7 134.8,32.9 C136,32.5 137.3,32.1 138.6,31.6 C140,31.2 141.4,30.7 142.9,30.3 C145.9,29.4 149.1,28.4 152.5,27.5 C154.2,27 156,26.6 157.9,26.1 C159.7,25.6 161.7,25.2 163.6,24.7 C165.6,24.2 167.6,23.8 169.6,23.3 C171.7,22.9 173.8,22.5 176,22.1 L179.3,21.5 C180.4,21.3 181.5,21.1 182.7,21 C185,20.6 187.3,20.3 189.6,19.9 L196.8,19 C198,18.9 199.3,18.7 200.5,18.6 C201.7,18.5 203,18.4 204.3,18.3 C214.4,17.3 225.1,16.9 236.3,17.1 C239.1,17.2 241.9,17.2 244.7,17.4 C247.5,17.6 250.4,17.8 253.2,17.9 C254.6,18 256.1,18.1 257.5,18.3 C258.9,18.4 260.4,18.6 261.8,18.7 C263.2,18.9 264.7,19 266.1,19.2 C267.5,19.4 269,19.6 270.4,19.8 C271.8,20 273.3,20.2 274.7,20.4 C276.2,20.6 277.6,20.8 279,21.1 C281.9,21.6 284.8,22.2 287.7,22.7 C293.5,24 299.3,25.2 305,26.9 C310.7,28.4 316.4,30.4 322,32.2 C327.5,34.3 333.1,36.2 338.4,38.6 C341.1,39.8 343.8,40.8 346.4,42.1 C349,43.4 351.6,44.6 354.2,45.8 C356.8,47.1 359.2,48.5 361.7,49.8 C362.9,50.5 364.2,51.1 365.4,51.8 L369,53.9 C371.4,55.3 373.8,56.7 376.1,58.1 C378.4,59.5 380.7,61 382.9,62.5 C387.4,65.4 391.6,68.5 395.7,71.5 C397.8,72.9 399.7,74.5 401.7,76 L407.4,80.5 C411.1,83.5 414.5,86.6 417.9,89.5 C419.6,90.9 421.1,92.5 422.7,93.9 C424.2,95.4 425.7,96.8 427.2,98.2 C428.7,99.6 430,101 431.4,102.4 C432.7,103.8 434,105.1 435.3,106.4 C436.5,107.7 437.7,108.9 438.9,110.1 C440,111.4 441.1,112.6 442.1,113.7 C444.1,116 446,118.2 447.7,120.1 C449.4,122 450.8,123.8 452,125.4 C453.2,127 454.3,128.3 455.2,129.4 C457.1,131.5 458,132.6 458,132.6 z" fill="#000000" id="path34874"/>
    <path d="M105,115.4 C47.9,109.3 -0,74.6 -0,74.6 C49.4,105.8 104.1,90.2 104.1,90.2 C51.2,87.6 26.5,41.2 26.5,41.2 C42.5,70.3 120.2,75 120.2,75 C75.5,67.2 56.9,22.5 56.9,22.5 C86,70.2 151,60.7 151,60.7 C110.2,55.5 97.2,9.1 97.2,9.1 C118,65.5 189.1,46.8 189.1,46.8 C156.1,44.6 144,0 144,0 C152.7,38.2 214.3,36.4 214.3,36.4 C362.2,18.7 466.7,174.4 466.7,174.4 C242.6,-32.5 105,115.4 105,115.4" fill="#000000" id="path34876"/>
    <path d="M192.8,106.6 C182.4,137.1 192.6,171.7 218.7,190.9 C244.3,209.9 279.9,210.6 306.9,193.9 C334,177.1 348.4,144.3 341.2,113.1 C334,81.8 306.8,58.5 275,55.3 C239.5,51.7 205,73 192.8,106.6 C191.9,109 199.4,108.1 200.3,105.6 C210.3,77.9 236.6,58.2 266.5,59.1 C296.1,60 322.4,80.3 331.7,108.1 C341,135.7 332.4,167.3 310,186 C287,205.2 254,206.4 229,190.3 C201.1,172.3 189.7,136.7 200.3,105.6 C201.2,103.1 193.7,104.1 192.8,106.6 z" fill="#000000" id="path34878"/>
  </g>
</svg>
