<?xml version="1.0" encoding="UTF-8" standalone="no"?>
<svg
        xmlns:dc="http://purl.org/dc/elements/1.1/"
        xmlns:cc="http://creativecommons.org/ns#"
        xmlns:rdf="http://www.w3.org/1999/02/22-rdf-syntax-ns#"
        xmlns:svg="http://www.w3.org/2000/svg"
        xmlns="http://www.w3.org/2000/svg"
        xmlns:xlink="http://www.w3.org/1999/xlink"
        height="100%"
        width="100%"
        viewBox="0 0 48 48"
        y="0px"
        x="0px"
        id="Layer_1"
        version="1.1"
        xml:space="preserve"><metadata
   id="metadata66"><rdf:RDF><cc:Work
       rdf:about=""><dc:format>image/svg+xml</dc:format><dc:type
        rdf:resource="http://purl.org/dc/dcmitype/StillImage"/><dc:title>OK</dc:title></cc:Work></rdf:RDF></metadata>
    <defs
            id="defs64"><linearGradient
     x1="189.60001"
     y1="379.31"
     gradientTransform="matrix(1.1979118,0,0,-0.95132661,-202.51518,361.52585)"
     x2="189.11"
     gradientUnits="userSpaceOnUse"
     xlink:href="#linearGradient16432"
     y2="360.23001"
     id="linearGradient24991" />
        <linearGradient
                id="linearGradient16432"><stop
       offset="0"
       style="stop-color:#ffffff"
       id="stop16434" />
            <stop
                    offset="1"
                    style="stop-color:#ffdb6f;stop-opacity:0"
                    id="stop16436"/></linearGradient></defs>
    <g
            transform="matrix(1.2,0,0,1.2,-4.8,-4.8)"
            id="surface1_4_">
    <path
            id="path5177"
            d="M 44,24 C 44,35.045 35.045,44 24,44 12.955,44 4,35.045 4,24 4,12.955 12.955,4 24,4 35.045,4 44,12.955 44,24 Z"
            style="display:inline;fill:#4caf50"/>
        <path
                id="path5179"
                d="M 34.602,14.602 21,28.199 15.398,22.601 12.601,25.398 21,33.801 37.398,17.399 Z"
                style="display:inline;fill:#ffffff"/>
  </g>
    <path
            d="m 48,17.060029 c -6.669971,4.463624 -14.444391,5.765038 -23.79408,5.765038 -9.465918,0 -17.3397918,-1.201526 -24.04210859,-5.641366 C 2.9990436,8.4105657 12.220566,0.0740901 24.1422,0.0740901 c 11.862925,0 21.035313,8.2755918 23.895904,16.9859389 z"
            style="display:inline;opacity:0.5;fill:url(#linearGradient24991);stroke-width:1.06753"
            id="path18187"/></svg>
