<?xml version="1.0" encoding="UTF-8" standalone="no"?>
<svg
   xmlns:dc="http://purl.org/dc/elements/1.1/"
   xmlns:cc="http://creativecommons.org/ns#"
   xmlns:rdf="http://www.w3.org/1999/02/22-rdf-syntax-ns#"
   xmlns:svg="http://www.w3.org/2000/svg"
   xmlns="http://www.w3.org/2000/svg"
   xmlns:xlink="http://www.w3.org/1999/xlink"
   id="svg9688"
   version="1.1"
   viewBox="0 0 12.839965 12.840758"
   height="100%"
   width="100%">
  <defs
     id="defs9682">
    <linearGradient
       x1="423.79001"
       y1="446.31"
       gradientTransform="rotate(180,262.365,414)"
       x2="423.79001"
       gradientUnits="userSpaceOnUse"
       y2="488.16"
       id="linearGradient24913">
      <stop
         offset="0"
         style="stop-color:#FFFFFF"
         id="stop899" />
      <stop
         offset=".0159"
         style="stop-color:#F7F7F7"
         id="stop901" />
      <stop
         offset=".1324"
         style="stop-color:#BEBEBE"
         id="stop903" />
      <stop
         offset=".2522"
         style="stop-color:#8B8B8B"
         id="stop905" />
      <stop
         offset=".3727"
         style="stop-color:#606060"
         id="stop907" />
      <stop
         offset=".4941"
         style="stop-color:#3D3D3D"
         id="stop909" />
      <stop
         offset=".6165"
         style="stop-color:#222222"
         id="stop911" />
      <stop
         offset=".7404"
         style="stop-color:#0F0F0F"
         id="stop913" />
      <stop
         offset=".867"
         style="stop-color:#040404"
         id="stop915" />
      <stop
         offset="1"
         style="stop-color:#000000"
         id="stop917" />
    </linearGradient>
    <linearGradient
       x1="101.08"
       y1="337.31"
       x2="101.08"
       gradientUnits="userSpaceOnUse"
       y2="383.82001"
       id="linearGradient24915">
      <stop
         offset="0"
         style="stop-color:#FF8000"
         id="stop922" />
      <stop
         offset=".0659"
         style="stop-color:#FF6700"
         id="stop924" />
      <stop
         offset=".1687"
         style="stop-color:#FF4800"
         id="stop926" />
      <stop
         offset=".2809"
         style="stop-color:#FF2E00"
         id="stop928" />
      <stop
         offset=".4039"
         style="stop-color:#FF1900"
         id="stop930" />
      <stop
         offset=".5434"
         style="stop-color:#FF1000"
         id="stop932" />
      <stop
         offset=".7134"
         style="stop-color:#FF0700"
         id="stop934" />
      <stop
         offset="1"
         style="stop-color:#FF0000"
         id="stop936" />
    </linearGradient>
    <linearGradient
       x1="101.94"
       y1="379.20999"
       x2="100.1"
       gradientUnits="userSpaceOnUse"
       xlink:href="#linearGradient16432"
       y2="344.29001"
       id="linearGradient24917" />
    <linearGradient
       id="linearGradient16432">
      <stop
         offset="0"
         style="stop-color:#ffffff"
         id="stop16434" />
      <stop
         offset="1"
         style="stop-color:#ffdb6f;stop-opacity:0"
         id="stop16436" />
    </linearGradient>
    <linearGradient
       x1="100.32"
       y1="350.06"
       x2="101.39"
       gradientUnits="userSpaceOnUse"
       xlink:href="#linearGradient16432"
       y2="367.20001"
       id="linearGradient24921" />
    <linearGradient
       y2="344.29001"
       x2="100.1"
       y1="379.20999"
       x1="101.94"
       gradientUnits="userSpaceOnUse"
       id="linearGradient10023"
       xlink:href="#linearGradient16432" />
    <linearGradient
       y2="367.20001"
       x2="101.39"
       y1="350.06"
       x1="100.32"
       gradientUnits="userSpaceOnUse"
       id="linearGradient10025"
       xlink:href="#linearGradient16432" />
  </defs>
  <metadata
     id="metadata9685">
    <rdf:RDF>
      <cc:Work
         rdf:about="">
        <dc:format>image/svg+xml</dc:format>
        <dc:type
           rdf:resource="http://purl.org/dc/dcmitype/StillImage" />
        <dc:title>Fail indicator red</dc:title>
      </cc:Work>
    </rdf:RDF>
  </metadata>
  <g
     transform="translate(-100.92525,-133.32503)"
     id="layer1">
    <g
       transform="matrix(0.26458333,0,0,0.26458333,78.704698,43.324867)"
       id="g16454">
      <g
         transform="translate(7.3162,3.6581)"
         id="g22220">
        <path
           d="m 76.667,360.77 c 0,13.377 10.884,24.262 24.261,24.262 13.386,0 24.268,-10.885 24.268,-24.262 0,-13.382 -10.882,-24.27 -24.268,-24.27 -13.377,10e-4 -24.261,10.888 -24.261,24.27 z"
           style="fill:#bf0000"
           id="path892" />
        <g
           style="opacity:0.7"
           id="g894">
          <g
             id="g896">
            <path
               d="m 100.93,340.74 c 11.51,0 20.855,8.925 21.107,20.019 0.003,-0.152 0.023,-0.3 0.023,-0.453 0,-11.306 -9.462,-20.472 -21.13,-20.472 -11.669,0 -21.13,9.166 -21.13,20.472 0,0.153 0.02,0.301 0.023,0.453 0.252,-11.094 9.596,-20.019 21.107,-20.019 z"
               style="fill:url(#linearGradient24913)"
               id="path919" />
          </g>
        </g>
        <path
           d="m 124.34,360.56 c 0,12.845 -10.415,23.26 -23.262,23.26 -12.845,0 -23.257,-10.416 -23.257,-23.26 0,-12.844 10.412,-23.258 23.257,-23.258 12.847,10e-4 23.262,10.414 23.262,23.258 z"
           style="fill:url(#linearGradient24915)"
           id="path938" />
        <path
           d="m 100.81,380.73 c -5.592,0 -13.229,-2.604 -18.169,-8.281 3.944,5.818 10.609,9.645 18.169,9.645 8.25,0 15.433,-4.554 19.185,-11.279 -4.274,5.967 -11.503,9.915 -19.185,9.915 z"
           style="opacity:0.4;fill:#ffffff"
           id="path940" />
        <path
           d="m 100.9,340.04 c 6.764,0 13.149,3.3 16.995,8.321 -3.381,-5.672 -9.725,-9.493 -16.995,-9.493 -7.277,0 -13.619,3.828 -16.998,9.5 3.84,-5.022 10.23,-8.328 16.998,-8.328 z"
           style="opacity:0.7;fill:#ffffff"
           id="path942" />
        <g
           style="opacity:0.5;fill:url(#linearGradient24917)"
           id="g967">
          <path
             d="m 120.79,362 c -5.558,-4.688 -12.032,-6.054 -19.832,-6.054 -7.892,0 -14.453,1.262 -20.041,5.921 2.336,9.206 10.019,17.958 19.959,17.958 9.886,0.001 17.529,-8.685 19.914,-17.825 z"
             style="fill:url(#linearGradient10023)"
             id="path988" />
        </g>
        <g
           id="g990">
          <path
             d="m 87.932,352.14 c -0.668,0.669 -1.023,1.869 0.164,3.058 0,0 4.306,4.309 5.524,5.524 -1.213,1.218 -5.485,5.486 -5.485,5.486 -1.187,1.188 -0.833,2.389 -0.162,3.058 l 4.458,4.458 c 0.667,0.667 1.87,1.023 3.059,-0.164 0,0 4.267,-4.268 5.482,-5.486 1.216,1.218 5.488,5.486 5.488,5.486 1.184,1.187 2.39,0.832 3.051,0.164 l 4.46,-4.458 c 0.668,-0.669 1.03,-1.87 -0.159,-3.058 0,0 -4.27,-4.268 -5.49,-5.486 1.223,-1.218 5.531,-5.524 5.531,-5.524 1.187,-1.189 0.83,-2.389 0.159,-3.058 l -4.46,-4.459 c -0.664,-0.667 -1.865,-1.022 -3.051,0.163 0,0 -4.308,4.306 -5.529,5.527 -1.218,-1.221 -5.523,-5.527 -5.523,-5.527 -1.19,-1.188 -2.393,-0.83 -3.054,-0.163 z"
             style="fill:#ff0000"
             id="path992" />
          <path
             d="m 113.22,352.94 c 0.447,0.448 0.366,0.934 -0.164,1.459 l -6.327,6.324 6.288,6.285 c 0.528,0.527 0.611,1.013 0.161,1.46 l -4.459,4.459 c -0.444,0.445 -0.93,0.364 -1.459,-0.162 l -6.284,-6.285 -6.284,6.285 c -0.524,0.526 -1.012,0.607 -1.459,0.162 l -4.462,-4.462 c -0.442,-0.445 -0.364,-0.934 0.166,-1.458 l 6.286,-6.285 -6.328,-6.324 c -0.527,-0.525 -0.605,-1.011 -0.161,-1.459 l 4.46,-4.459 c 0.443,-0.446 0.93,-0.365 1.459,0.162 l 6.323,6.324 6.327,-6.324 c 0.525,-0.529 1.011,-0.608 1.46,-0.162 z"
             style="fill:#ffffff"
             id="path994" />
        </g>
        <g
           style="opacity:0.5;fill:url(#linearGradient24921)"
           id="g944">
          <path
             d="m 80.919,359.18 c 5.563,4.685 12.037,6.053 19.834,6.053 7.892,0 14.454,-1.264 20.039,-5.924 -2.334,-9.208 -10.019,-17.958 -19.951,-17.958 -9.889,-10e-4 -17.534,8.686 -19.922,17.829 z"
             style="fill:url(#linearGradient10025)"
             id="path965" />
        </g>
      </g>
    </g>
  </g>
</svg>
