<?xml version="1.0" encoding="UTF-8"?>
<svg version="1.1" viewBox="0 0 323.02 323.02" xmlns="http://www.w3.org/2000/svg">
 <defs>
  <linearGradient id="e" x1="241.41" x2="315.47" y1="287.49" y2="367.88" gradientUnits="userSpaceOnUse">
   <stop stop-color="#fff" offset="0"/>
   <stop stop-color="#fff" stop-opacity="0" offset="1"/>
  </linearGradient>
  <filter id="a" color-interpolation-filters="sRGB">
   <feGaussianBlur stdDeviation="0.53035713"/>
  </filter>
  <linearGradient id="d" x1="275.61" x2="342" y1="300.86" y2="391.45" gradientUnits="userSpaceOnUse">
   <stop stop-color="#806600" offset="0"/>
   <stop stop-color="#fc0" offset="1"/>
  </linearGradient>
  <radialGradient id="b" cx="312.78" cy="386.57" r="53.036" gradientTransform="matrix(-.59327 -.59327 .71505 -.71505 243.27 849.03)" gradientUnits="userSpaceOnUse">
   <stop stop-color="#fff" stop-opacity=".40816" offset="0"/>
   <stop stop-color="#fff" stop-opacity="0" offset="1"/>
  </radialGradient>
  <linearGradient id="c" x1="255.32" x2="300.27" y1="286.67" y2="338.82" gradientTransform="matrix(.95534 0 0 .95534 -84.897 592.67)" gradientUnits="userSpaceOnUse">
   <stop stop-color="#fff" offset="0"/>
   <stop stop-color="#fff" stop-opacity="0" offset="1"/>
  </linearGradient>
 </defs>
 <g transform="translate(-37.867 -690.44)">
  <g transform="matrix(2.9051,0,0,2.9051,-366.51,-1771.2)">
   <circle transform="matrix(.97354 0 0 .97354 -100.92 565.99)" cx="303.75" cy="346.11" r="53.036" fill="#999"/>
   <circle transform="matrix(.9596 0 0 .9596 -96.687 570.82)" cx="303.75" cy="346.11" r="53.036" fill="url(#e)"/>
   <circle transform="matrix(.87355 0 0 .87355 -70.55 600.6)" cx="303.75" cy="346.11" r="53.036" fill="#ececec" filter="url(#a)"/>
   <circle transform="matrix(.83838 0 0 .83838 -59.869 612.77)" cx="303.75" cy="346.11" r="53.036" fill="#999" filter="url(#a)"/>
   <circle transform="matrix(.80587 0 0 .80587 -49.992 624.02)" cx="303.75" cy="346.11" r="53.036" fill="url(#d)"/>
   <circle transform="matrix(.75825 0 0 .75825 -34.266 642.52)" cx="303.75" cy="346.11" r="53.036" fill="url(#b)"/>
   <path d="m193.79 862.76c-13.331 0.30069-26.186 7.358-33.336 19.742-7.6903 13.32-6.7139 29.266 1.1545 41.331 0.85306-26.532 21.132-46.515 46.324-45.054 8.2589 0.47907 16.054 3.2001 22.859 7.5908-3.2578-7.4498-8.8171-13.953-16.394-18.327-6.4867-3.7451-13.625-5.4393-20.608-5.2818z" fill="url(#c)" opacity=".31771"/>
  </g>
  <g transform="matrix(6.8564 0 0 8.6348 96.779 737.42)" fill="none" fill-rule="evenodd">
   <g transform="translate(-270,-135)" fill="#000">
    <g transform="translate(270,139)">
     <path d="m9.0694 17.975 3.3875 2.4848c0.35944 0.26366 0.85815-0.03929 0.78983-0.4798l-0.42035-2.7043 0.10153-0.038c3.0897-1.2581 5.1093-3.9547 5.1093-6.9846 0-4.2702-3.9699-7.7-8.8338-7.7-4.8638 0-8.8338 3.4298-8.8338 7.7 0 4.1412 3.7424 7.5124 8.4388 7.6924 0 0 0.25628 0.02592 0.26095 0.02935zm-7.6998-7.7218c0-3.6827 3.4924-6.7 7.8338-6.7s7.8338 3.0173 7.8338 6.7c0 2.6017-1.7563 4.9468-4.4731 6.0532l-0.27255 0.10179c-0.34088 0.12758-0.53733 0.47312-0.4832 0.82212l0.26176 1.7098-2.4092-1.7715c-0.17171-0.12595-0.43803-0.21519-0.65339-0.21931l-0.17031-0.0033c-4.1786-0.16026-7.4675-3.123-7.4675-6.6929z"/>
     <path transform="matrix(-1 0 0 1 43.236 0)" d="m27.425 13.85c-0.5113 0.34364-1.0697 0.64133-1.6682 0.88504l-0.10153 0.038 0.42035 2.7043c0.06832 0.44051-0.43038 0.74346-0.78982 0.4798l-3.3875-2.4848c-0.0047-0.0034-0.26095-0.02935-0.26095-0.02935-4.6964-0.18006-8.4388-3.5513-8.4388-7.6924 0-4.2702 3.9699-7.7 8.8338-7.7 3.5327 0 6.5939 1.8094 8.0048 4.436-0.30155 0.15336-0.58997 0.32353-0.86353 0.50895-1.2269-2.3202-3.9555-3.945-7.1413-3.945-4.3414 0-7.8338 3.0173-7.8338 6.7 0 3.5699 3.289 6.5326 7.4675 6.6929l0.17031 0.0033c0.21535 0.0041 0.48168 0.09335 0.65339 0.21931l2.4092 1.7715-0.26176-1.7098c-0.05413-0.34899 0.14233-0.69453 0.4832-0.82212l0.27255-0.10179c0.53932-0.21965 1.0408-0.4881 1.4982-0.79769 0.15438 0.29233 0.3329 0.57436 0.53385 0.84399z"/>
     <path d="m8.3609 9.3275c-0.10333 0.026977-0.20816 0.056802-0.31368 0.089253 0.005596-0.32656 0.031697-0.66538 0.080574-1.0159 0.65181-0.04485 1.3347-0.14931 2.0221-0.29602 0.32612-0.069606 0.63144-0.14419 0.90782-0.21891 0.16728-0.045221 0.28895-0.080827 0.35679-0.10199 0.26362-0.082228 0.41066-0.36259 0.32843-0.6262-0.082227-0.26362-0.36259-0.41066-0.6262-0.32843-0.056078 0.017492-0.16556 0.04953-0.31999 0.091278-0.2598 0.070233-0.54784 0.1406-0.85558 0.20628-0.54886 0.11714-1.093 0.20526-1.6132 0.25434 0.039746-0.15776 0.083971-0.31752 0.13285-0.47925 0.079886-0.26433-0.069639-0.54338-0.33397-0.62327s-0.54338 0.069639-0.62327 0.33397c-0.083067 0.27486-0.154 0.54515-0.21346 0.81066-0.48093-0.010691-0.90256-0.069745-1.251-0.18059-0.26315-0.083706-0.54433 0.061761-0.62804 0.32491s0.061762 0.54433 0.32491 0.62804c0.40805 0.1298 0.87064 0.20151 1.3809 0.22273-0.058933 0.47802-0.079904 0.93801-0.067376 1.3786-0.30945 0.14243-0.60167 0.30266-0.85399 0.47447-0.99577 0.67805-1.4136 1.5551-0.8806 2.4881 0.58103 1.0171 1.7631 1.0046 2.8819 0.17182 0.79583-0.59242 1.5203-1.5467 2.0455-2.7121 0.71525 0.16155 1.2129 0.61331 1.2129 1.2981 0 0.52759-0.31705 0.91416-0.89922 1.2015-0.22301 0.11008-0.46651 0.19492-0.71056 0.25635-0.14541 0.0366-0.25545 0.05669-0.31088 0.06394-0.27381 0.0358-0.46676 0.2868-0.43095 0.56061 0.035803 0.27381 0.2868 0.46676 0.56061 0.43095 0.34412-0.045 0.83463-0.16846 1.3344-0.41514 0.89023-0.43941 1.4566-1.13 1.4566-2.0982 0-1.2121-0.78342-1.9667-1.8468-2.2442 0.02247-0.068751 0.04425-0.13801 0.06533-0.20775 0.07989-0.26433-0.06964-0.54338-0.33397-0.62327-0.26434-0.079886-0.54338 0.069639-0.62327 0.33397-0.038554 0.12757-0.079694 0.25317-0.12324 0.37661-0.30354 0.002423-0.61556 0.036495-0.92763 0.10254-0.099515 0.021063-0.20134 0.045195-0.30468 0.072174zm0.13278 1.0002c-0.12949 0.03656-0.26136 0.07809-0.39322 0.12388 0.042743 0.34652 0.10969 0.67575 0.19729 0.98682 0.00211 0.0075 0.00421 0.01491 0.00632 0.02227 0.30775-0.35931 0.5947-0.79004 0.84471-1.2751-0.091151 0.0124-0.18332 0.02839-0.27615 0.04804-0.12234 0.0259-0.24947 0.05749-0.37896 0.09405zm-1.3446 0.53573c0.047176 0.29285 0.10976 0.57504 0.18608 0.84605 0.054223 0.19254 0.10923 0.35763 0.16088 0.49421-0.64313 0.44442-1.1011 0.43049-1.3128 0.05988-0.21668-0.37929-0.042416-0.74503 0.57514-1.1655 0.11878-0.08088 0.2504-0.1595 0.3907-0.2346z"/>
     <path d="m21.504 6.0918 1.5221 4.5663c0.08732 0.26197 0.37048 0.40355 0.63246 0.31623 0.26197-0.08732 0.40355-0.37048 0.31623-0.63246l-2-6c-0.15195-0.45585-0.79673-0.45585-0.94868 0l-2 6c-0.08732 0.26197 0.05426 0.54513 0.31623 0.63246 0.26197 0.08732 0.54513-0.05426 0.63246-0.31623z"/>
     <rect x="20" y="8" width="3" height="1"/>
    </g>
   </g>
  </g>
 </g>
</svg>
