<?xml version="1.0" encoding="UTF-8" standalone="no"?>
<svg
   xmlns:sketch="http://www.bohemiancoding.com/sketch/ns"
   xmlns:dc="http://purl.org/dc/elements/1.1/"
   xmlns:cc="http://creativecommons.org/ns#"
   xmlns:rdf="http://www.w3.org/1999/02/22-rdf-syntax-ns#"
   xmlns:svg="http://www.w3.org/2000/svg"
   xmlns="http://www.w3.org/2000/svg"
   height="100%"
   width="100%"
   id="svg26"
   y="0px"
   x="0px"
   version="1.1"
   viewBox="0 0 29.667532 20.507975">
  <metadata
     id="metadata32">
    <rdf:RDF>
      <cc:Work
         rdf:about="">
        <dc:format>image/svg+xml</dc:format>
        <dc:type
           rdf:resource="http://purl.org/dc/dcmitype/StillImage" />
        <dc:title>education_026-language-translate-bubble-school-conversation-talk</dc:title>
      </cc:Work>
    </rdf:RDF>
  </metadata>
  <defs
     id="defs30" />
  <title
     id="title2">education_026-language-translate-bubble-school-conversation-talk</title>
  <desc
     id="desc4">Created with Sketch.</desc>
  <g
     transform="translate(-0.36961039,-4.0500031)"
     style="fill:none;fill-rule:evenodd;stroke:none;stroke-width:1"
     id="g20"
     sketch:type="MSPage">
    <g
       style="fill:#000000"
       id="g18"
       transform="translate(-270,-135)"
       sketch:type="MSArtboardGroup">
      <g
         id="g16"
         transform="translate(270,139)"
         sketch:type="MSLayerGroup">
        <path
           id="path6"
           sketch:type="MSShapeGroup"
           d="m 9.0693687,17.974851 3.3874983,2.484831 c 0.359444,0.263664 0.85815,-0.03929 0.789826,-0.479799 l -0.420352,-2.704276 0.101527,-0.038 c 3.089673,-1.258087 5.109275,-3.954654 5.109275,-6.984551 0,-4.2701573 -3.969932,-7.7000001 -8.8337664,-7.7000001 -4.8638345,0 -8.83376621,3.4298428 -8.83376621,7.7000001 0,4.141175 3.74243971,7.51238 8.43881131,7.692443 0,0 0.2562752,0.02592 0.260947,0.02935 z M 1.3696104,10.253056 c 0,-3.6827433 3.4923768,-6.7000001 7.8337662,-6.7000001 4.3413894,0 7.8337664,3.0172568 7.8337664,6.7000001 0,2.601708 -1.756329,4.946754 -4.473134,6.053207 l -0.272554,0.101794 c -0.340876,0.127585 -0.537332,0.473124 -0.483203,0.822115 l 0.261755,1.70983 -2.4091715,-1.77148 C 9.4891269,17.042568 9.2228021,16.953336 9.007449,16.949216 l -0.1703067,-0.0033 C 4.658588,16.785656 1.3696104,13.822931 1.3696104,10.253056 Z" />
        <path
           id="path8"
           transform="matrix(-1,0,0,1,43.235712,0)"
           sketch:type="MSShapeGroup"
           d="m 27.425011,13.849515 c -0.511304,0.343637 -1.069667,0.641328 -1.668184,0.885039 l -0.101527,0.038 0.420351,2.704276 c 0.06832,0.440512 -0.430381,0.743463 -0.789825,0.4798 l -3.387499,-2.484832 c -0.0047,-0.0034 -0.260947,-0.02935 -0.260947,-0.02935 -4.696371,-0.180063 -8.438811,-3.551268 -8.438811,-7.692443 0,-4.2701572 3.969932,-7.69999995 8.833766,-7.69999995 3.532733,0 6.593887,1.80941495 8.004808,4.43600515 -0.301551,0.1533602 -0.589972,0.3235256 -0.863529,0.508953 C 27.946722,2.6747573 25.21812,1.050003 22.032335,1.050003 c -4.341389,0 -7.833766,3.0172569 -7.833766,6.7 0,3.569875 3.288978,6.5326 7.467532,6.692902 l 0.170307,0.0033 c 0.215353,0.0041 0.481678,0.09335 0.653386,0.219306 l 2.409172,1.771481 -0.261755,-1.709831 c -0.05413,-0.34899 0.142326,-0.69453 0.483203,-0.822115 l 0.272554,-0.101794 c 0.539323,-0.219646 1.040797,-0.488103 1.498194,-0.797688 0.154382,0.292334 0.332896,0.574362 0.533849,0.843993 z" />
        <path
           id="path10"
           sketch:type="MSShapeGroup"
           d="M 8.360858,9.327452 C 8.257532,9.354429 8.152703,9.384254 8.047178,9.416705 8.052774,9.090142 8.078875,8.751325 8.127752,8.400811 8.779563,8.355961 9.462496,8.251505 10.149894,8.104793 10.476019,8.035187 10.781334,7.960604 11.057718,7.885886 11.224997,7.840665 11.346669,7.805059 11.414511,7.783898 11.678127,7.70167 11.825171,7.421309 11.742943,7.157693 11.660716,6.894078 11.380355,6.747034 11.116739,6.829261 11.060661,6.846753 10.951178,6.878791 10.796748,6.920539 10.536953,6.990772 10.248903,7.061138 9.941164,7.12682 9.392299,7.243964 8.848141,7.33208 8.32801,7.38116 8.367756,7.223405 8.411981,7.063641 8.460859,6.901909 8.540745,6.637575 8.39122,6.358529 8.126885,6.278643 7.86255,6.198757 7.583504,6.348282 7.503618,6.612617 7.420551,6.88748 7.349618,7.157768 7.290159,7.423272 6.809227,7.412581 6.387595,7.353527 6.039137,7.242685 5.775987,7.158979 5.494804,7.304446 5.411098,7.567596 5.327392,7.830746 5.47286,8.111929 5.73601,8.195635 6.144061,8.325433 6.606651,8.397147 7.11691,8.418362 7.057977,8.896381 7.037006,9.356373 7.049534,9.796941 6.740088,9.939372 6.447861,10.099596 6.19554,10.271407 c -0.995773,0.678048 -1.413649,1.555076 -0.880605,2.488149 0.581031,1.017073 1.763077,1.004638 2.881858,0.171816 0.79583,-0.592418 1.520251,-1.546721 2.045457,-2.712056 0.715251,0.161551 1.212889,0.613313 1.212889,1.298079 0,0.527589 -0.317053,0.914155 -0.899221,1.201507 -0.223014,0.110076 -0.466508,0.194923 -0.710558,0.256351 -0.145409,0.0366 -0.25545,0.05669 -0.310883,0.06394 -0.273811,0.0358 -0.466755,0.286795 -0.430952,0.560606 0.035803,0.273812 0.286795,0.466756 0.560607,0.430953 0.344122,-0.045 0.834628,-0.168458 1.334394,-0.415136 0.890228,-0.439406 1.456613,-1.129969 1.456613,-2.098222 0,-1.212064 -0.783422,-1.966707 -1.846844,-2.24422 0.02247,-0.068751 0.04425,-0.13801 0.06533,-0.207752 0.07989,-0.264334 -0.06964,-0.54338 -0.333971,-0.623266 C 10.075319,8.36227 9.796273,8.511795 9.716387,8.77613 9.677833,8.903702 9.636693,9.029302 9.593149,9.152737 9.289611,9.15516 8.977586,9.189232 8.665516,9.255282 8.566001,9.276345 8.464173,9.300477 8.360841,9.327456 Z m 0.132778,1.000202 c -0.129493,0.03656 -0.261365,0.07809 -0.393218,0.123877 0.042743,0.346525 0.109686,0.675753 0.19729,0.986821 0.00211,0.0075 0.00421,0.01491 0.00632,0.02227 0.307749,-0.359312 0.594695,-0.790039 0.844711,-1.275058 -0.091151,0.0124 -0.183315,0.02839 -0.276153,0.04804 -0.122345,0.0259 -0.249466,0.05749 -0.378965,0.09405 z m -1.344565,0.535727 c 0.047176,0.29285 0.109757,0.57504 0.186079,0.846049 0.054223,0.192536 0.109233,0.357634 0.160876,0.494208 -0.643127,0.444415 -1.101067,0.430494 -1.312792,0.05988 -0.216679,-0.379288 -0.042416,-0.745028 0.57514,-1.165537 0.118783,-0.08088 0.250401,-0.1595 0.390697,-0.234597 z" />
        <path
           id="path12"
           sketch:type="MSShapeGroup"
           d="m 21.503557,6.0918114 1.522101,4.5663026 c 0.08732,0.261972 0.370484,0.403552 0.632456,0.316228 0.261971,-0.08732 0.403551,-0.370484 0.316228,-0.632456 l -2,-5.9999999 c -0.15195,-0.4558481 -0.796734,-0.4558481 -0.948684,0 l -2,5.9999999 c -0.08732,0.261972 0.05426,0.545132 0.316228,0.632456 0.261972,0.08732 0.545132,-0.05426 0.632456,-0.316228 z" />
        <rect
           id="rect14"
           height="1"
           width="3"
           y="8"
           x="20"
           sketch:type="MSShapeGroup" />
      </g>
    </g>
  </g>
</svg>
