<?xml version="1.0" encoding="UTF-8"?>
<svg version="1.1" viewBox="0 0 478.83 478.83" xmlns="http://www.w3.org/2000/svg" xmlns:xlink="http://www.w3.org/1999/xlink">
 <defs>
  <linearGradient id="d" x1="170" x2="170" y1="119.51" y2="68.076" gradientTransform="matrix(1 0 0 3.5253 0 -24.127)" gradientUnits="userSpaceOnUse" xlink:href="#a"/>
  <linearGradient id="a">
   <stop stop-color="#a80" offset="0"/>
   <stop stop-color="#a80" stop-opacity="0" offset="1"/>
  </linearGradient>
  <radialGradient id="b" cx="495.57" cy="364.5" r="138.1" gradientTransform="matrix(.15612 .61432 -1.6354 .60007 661.18 -77.566)" gradientUnits="userSpaceOnUse" xlink:href="#a"/>
  <linearGradient id="c" x1="177.79" x2="173.75" y1="344.25" y2="163.43" gradientTransform="matrix(1 0 0 1.2016 0 -38.438)" gradientUnits="userSpaceOnUse">
   <stop stop-color="#fff" stop-opacity="0" offset="0"/>
   <stop stop-color="#fff" offset="1"/>
  </linearGradient>
 </defs>
 <g transform="translate(-40.764 -57.802)">
  <g transform="matrix(1.7101,0,0,1.7101,-22.754,-268.28)" stroke-width="1.0962">
   <rect x="37.143" y="190.68" width="280" height="276.99" ry="85.615" fill="#ff0"/>
   <path d="m224.19 198.01c-40.733 0.67427-81.505-0.62619-122.22 0.56324-33.618 3.9314-62.221 41.166-61.235 82.12-0.57665 34.477 0.2497 68.97-0.26679 103.45-0.53121 28.068 10.469 55.937 30.072 71.468 14.884 12.588 33.425 16.398 51.305 14.682 44.933-0.34908 89.906 0.89021 134.81-0.68732 33.935-4.7202 62.125-43.789 59.706-85.161 0.34975-37.7 0.495-75.456-0.21824-113.13-3.5373-40.342-20.406-67.107-54.565-65.682-7.744-0.42306-29.642-7.6902-37.392-7.6207z" fill="url(#d)"/>
   <path d="m224.19 198.01c-40.733 0.67427-81.505-0.62619-122.22 0.56324-33.618 3.9314-62.221 41.166-61.235 82.12-0.57665 34.477 0.2497 68.97-0.26679 103.45-0.53121 28.068 10.469 55.937 30.072 71.468 14.884 12.588 33.425 16.398 51.305 14.682 44.933-0.34908 89.906 0.89021 134.81-0.68732 33.935-4.7202 62.125-43.789 59.706-85.161 0.34975-37.7 0.495-75.456-0.21824-113.13-3.5373-40.342-20.406-67.107-54.565-65.682-7.744-0.42306-29.642-7.6902-37.392-7.6207z" fill="url(#b)"/>
   <path d="m242.56 194.1c-48.782 1.115-97.642-1.4033-146.38 1.3893-32.412 6.6785-57.708 45.011-55.062 84.561-0.56573 3.7751-0.60242 10.535 3.875 10.401 57.637 29.404 121.71 33.34 183.59 30.231 28.533-2.0918 57.018-7.1036 84.596-15.962 0.82066-27.683 0.99928-59.147-15.062-80.769-13.237-19.505-34.529-30.751-55.562-29.852z" fill="url(#c)" opacity=".78319"/>
  </g>
 </g>
 <g transform="matrix(1.9703 0 0 1.9077 354.55 -79.895)" stroke="#000">
  <g transform="matrix(1.094,0,0,1.1028,-10.577,14.87)" fill="#fff" stroke-width="1.9419" aria-label="A">
   <path d="m-77.292 131.41-2.2377 9.861h-17.636l14.071-57.877h24.842l13.35 57.877h-17.446l-2.2756-9.861zm3.11-13.578h6.4476l-3.1859-14.147z" fill="#fff" stroke="#000" stroke-width="1.9419"/>
  </g>
  <g transform="matrix(1.1092 0 0 .90159 -16.423 24.096)" fill="#fff" stroke-width=".88293" aria-label="文">
   <path d="m9.4756 240.7q-16.555 14.237-34.103 19.535l-2.9799-7.9464q17.548-4.9665 31.454-16.886-11.588-12.582-15.562-29.137h-15.893v-6.2909h31.785v-12.582h7.2842q3.311 0.6622 0.3311 2.6488v9.933h32.117v6.2909h-15.562q-2.6488 15.562-13.906 29.137 11.588 10.264 30.792 15.231l-2.9799 7.9464q-16.886-4.3043-32.779-17.879zm-0.3311-10.595q9.933-11.92 12.251-23.839h-25.826q1.9866 11.257 13.575 23.839z" fill="#fff" stroke="#000" stroke-width=".88293"/>
  </g>
  <g transform="rotate(-14.6,-12.002,205.35)" fill="none" stroke-linecap="round" stroke-linejoin="bevel" stroke-width="9">
   <path d="m-89.958 229.72c-55.688-15.875-63.752-43.845-51.405-97.518"/>
   <path d="m-89.958 188.14 2e-6 41.577-46.113 12.851"/>
  </g>
  <g transform="rotate(162,-54.082,163.23)" fill="none" stroke-linecap="round" stroke-linejoin="bevel" stroke-width="9">
   <path d="m-89.958 229.72c-55.688-15.875-63.752-43.845-51.405-97.518"/>
   <path d="m-89.958 188.14 2e-6 41.577-46.113 12.851"/>
  </g>
 </g>
</svg>
