<?xml version="1.0" encoding="UTF-8" standalone="no"?>
<svg
   xmlns:dc="http://purl.org/dc/elements/1.1/"
   xmlns:cc="http://creativecommons.org/ns#"
   xmlns:rdf="http://www.w3.org/1999/02/22-rdf-syntax-ns#"
   xmlns:svg="http://www.w3.org/2000/svg"
   xmlns="http://www.w3.org/2000/svg"
   height="100%"
   width="100%"
   id="svg10"
   version="1.1"
   y="0px"
   x="0px"
   viewBox="0 0 89.965347 80.755119"
   data-name="Layer 1">
  <metadata id="metadata16">
    <rdf:RDF>
      <cc:Work rdf:about="">
        <dc:format>image/svg+xml</dc:format>
        <dc:type rdf:resource="http://purl.org/dc/dcmitype/StillImage" />
        <dc:title>1</dc:title>
      </cc:Work>
    </rdf:RDF>
  </metadata>
  <defs id="defs14" />
  <title id="title2">1</title>
  <path
     id="path4546"
     d="m 41.823371,5.3163762 7.96343,0.141679 35.44501,60.7152498 v 0 l -2.94237,8.808914 H 6.5479114 l -2.71436,-6.657325 v 0 z"
     style="fill:#ffff00;stroke:#000000;stroke-width:0;stroke-linecap:butt;stroke-linejoin:miter;stroke-miterlimit:4;stroke-dasharray:none;stroke-opacity:1" />
  <path
     style="fill:#ff0000"
     id="path4"
     d="m 54.167063,5.3030382 a 10.60474,10.60474 0 0 0 -18.36872,0 L 1.4209634,64.846068 a 10.606,10.606 0 0 0 9.1843896,15.90905 h 68.7547 a 10.606,10.606 0 0 0 9.18433,-15.90905 z m 29.1817,67.1495198 a 4.55981,4.55981 0 0 1 -3.98871,2.30341 h -68.7547 A 4.60769,4.60769 0 0 1 6.6156034,67.845688 L 40.992983,8.3026882 a 4.607,4.607 0 0 1 7.97944,0 l 34.37732,59.5429998 a 4.56128,4.56128 0 0 1 -9.8e-4,4.60687 z" />
  <path
     id="path6"
     d="m 44.982493,21.070428 c -2.41028,0 -4.34583,1.58154 -4.28144,3.49829 l 1.05524,31.38284 c 0.04675,1.39069 1.47742,2.49878 3.2262,2.49878 1.74878,0 3.17944,-1.10812 3.22618,-2.49878 l 1.05524,-31.38281 c 0.06446,-1.91678 -1.87114,-3.49832 -4.28142,-3.49832 z" />
  <path
     id="path8"
     d="m 44.982673,62.719108 a 3.19959,3.19959 0 1 0 3.19958,3.19959 3.19956,3.19956 0 0 0 -3.19958,-3.19959 z" />
</svg>
