<?xml version="1.0" encoding="utf-8"?>
<!DOCTYPE svg PUBLIC "-//W3C//DTD SVG 1.1//EN" "http://www.w3.org/Graphics/SVG/1.1/DTD/svg11.dtd">
<svg xmlns="http://www.w3.org/2000/svg" xmlns:xlink="http://www.w3.org/1999/xlink" version="1.1" x="0px" y="0px" width="100%" height="100%" viewBox="0 0 48 48" enable-background="new 0 0 48 48" xml:space="preserve">
    <g>
        <path fill="#455A64" d="M14.539,6h2.125l1.37,5.496h0.133l1.308-5.493h2.147l-2.458,8.036V20h-2.112v-5.703L14.539,6z"/>
        <path fill="#455A64" d="M21.525,11.923c0-0.784,0.254-1.411,0.759-1.874c0.504-0.466,1.182-0.7,2.035-0.7   c0.778,0,1.413,0.245,1.908,0.737c0.495,0.488,0.743,1.121,0.743,1.894v5.235c0,0.866-0.242,1.548-0.728,2.044   C25.756,19.753,25.09,20,24.235,20c-0.823,0-1.477-0.259-1.974-0.767c-0.493-0.508-0.738-1.194-0.738-2.055v-5.256H21.525z    M23.455,17.368c0,0.275,0.066,0.494,0.205,0.646c0.132,0.15,0.322,0.226,0.571,0.226c0.255,0,0.454-0.077,0.604-0.234   c0.149-0.151,0.226-0.366,0.226-0.638v-5.522c0-0.22-0.079-0.399-0.231-0.536c-0.151-0.135-0.352-0.205-0.599-0.205   c-0.229,0-0.417,0.07-0.561,0.205c-0.143,0.137-0.215,0.316-0.215,0.536V17.368z"/>
        <path fill="#455A64" d="M33.918,9.605V20h-1.875v-1.266c-0.346,0.414-0.705,0.728-1.081,0.941C30.59,19.89,30.227,20,29.876,20   c-0.435,0-0.76-0.149-0.981-0.452c-0.221-0.3-0.329-0.751-0.329-1.357V9.605h1.874v7.886c0,0.236,0.04,0.41,0.12,0.519   c0.075,0.104,0.207,0.162,0.38,0.162c0.141,0,0.315-0.071,0.522-0.215c0.213-0.141,0.406-0.324,0.581-0.544V9.605H33.918z"/>
    </g>
    <path fill="#FFFFFF" d="M38.799,26.439c0-2.342-1.94-4.24-4.329-4.24c-3.412-0.143-6.905-0.203-10.47-0.198  c-3.563-0.005-7.056,0.056-10.47,0.198c-2.387,0-4.327,1.898-4.327,4.24C9.061,28.291,8.995,30.145,9,32.001  c-0.005,1.853,0.06,3.707,0.204,5.561c0,2.345,1.938,4.243,4.326,4.243c3.414,0.14,6.907,0.2,10.47,0.195  c3.564,0.008,7.058-0.056,10.47-0.195c2.389,0,4.329-1.898,4.329-4.243c0.142-1.854,0.209-3.708,0.201-5.561  C39.008,30.145,38.941,28.291,38.799,26.439z"/>
    <g>
        <path fill="#F44336" d="M33.851,30.346c-0.219,0-0.368,0.058-0.458,0.18c-0.064,0.091-0.145,0.299-0.145,0.752v0.774h1.193v-0.774   c0-0.446-0.083-0.655-0.151-0.757C34.205,30.402,34.061,30.346,33.851,30.346z"/>
        <path fill="#F44336" d="M26.865,30.386c-0.086,0.042-0.17,0.105-0.258,0.193v5.876c0.11,0.111,0.217,0.191,0.316,0.242   c0.111,0.055,0.224,0.08,0.346,0.08c0.231,0,0.303-0.091,0.326-0.123c0.057-0.071,0.119-0.219,0.119-0.54v-5.005   c0-0.278-0.053-0.493-0.152-0.625C27.428,30.306,27.164,30.236,26.865,30.386z"/>
        <path fill="#F44336" d="M38.799,26.439c0-2.342-1.94-4.24-4.329-4.24c-3.412-0.143-6.905-0.203-10.47-0.198   c-3.563-0.005-7.056,0.056-10.47,0.198c-2.387,0-4.327,1.898-4.327,4.24C9.061,28.291,8.995,30.145,9,32.001   c-0.005,1.853,0.06,3.707,0.204,5.561c0,2.345,1.938,4.243,4.326,4.243c3.414,0.14,6.907,0.2,10.47,0.195   c3.564,0.008,7.058-0.056,10.47-0.195c2.389,0,4.329-1.898,4.329-4.243c0.142-1.854,0.209-3.708,0.201-5.561   C39.008,30.145,38.941,28.291,38.799,26.439z M15.701,38.382c0,0.111-0.092,0.204-0.206,0.204h-2.049   c-0.114,0-0.206-0.093-0.206-0.204v-11.03h-1.914c-0.113,0-0.205-0.092-0.205-0.203v-1.904c0-0.112,0.092-0.204,0.205-0.204h6.291   c0.114,0,0.206,0.092,0.206,0.204v1.904c0,0.111-0.091,0.203-0.206,0.203h-1.916V38.382z M22.995,38.382   c0,0.111-0.092,0.204-0.206,0.204h-1.822c-0.114,0-0.206-0.093-0.206-0.204v-0.551c-0.243,0.233-0.486,0.418-0.738,0.56   c-0.397,0.227-0.776,0.336-1.16,0.336c-0.488,0-0.864-0.176-1.117-0.517c-0.238-0.324-0.361-0.803-0.361-1.421v-8.1   c0-0.112,0.092-0.204,0.207-0.204h1.821c0.114,0,0.206,0.092,0.206,0.204v7.428c0,0.244,0.044,0.343,0.072,0.382   c0.013,0.017,0.05,0.067,0.205,0.067c0.052,0,0.172-0.022,0.389-0.169c0.176-0.115,0.334-0.259,0.473-0.425v-7.283   c0-0.112,0.092-0.204,0.207-0.204h1.821c0.114,0,0.206,0.092,0.206,0.204v9.692H22.995z M30,36.373c0,0.736-0.159,1.31-0.473,1.708   c-0.326,0.418-0.797,0.626-1.398,0.626c-0.383,0-0.733-0.077-1.046-0.233c-0.166-0.083-0.327-0.191-0.479-0.325v0.233   c0,0.114-0.093,0.204-0.206,0.204h-1.837c-0.114,0-0.207-0.09-0.207-0.204v-13.14c0-0.112,0.092-0.203,0.207-0.203h1.837   c0.113,0,0.206,0.091,0.206,0.203v3.717c0.15-0.136,0.31-0.25,0.474-0.343c0.309-0.17,0.625-0.256,0.941-0.256   c0.641,0,1.143,0.238,1.484,0.706c0.328,0.45,0.495,1.101,0.495,1.933L30,36.373L30,36.373z M36.729,33.765   c0,0.113-0.093,0.205-0.207,0.205h-3.273v1.621c0,0.592,0.082,0.845,0.148,0.951c0.053,0.088,0.152,0.199,0.438,0.199   c0.23,0,0.388-0.055,0.469-0.164c0.037-0.058,0.139-0.28,0.139-0.988v-0.675c0-0.114,0.093-0.204,0.207-0.204h1.872   c0.114,0,0.205,0.09,0.205,0.204v0.729c0,1.044-0.249,1.844-0.737,2.384c-0.49,0.543-1.23,0.82-2.198,0.82   c-0.872,0-1.574-0.296-2.079-0.871c-0.5-0.571-0.755-1.354-0.755-2.333v-4.352c0-0.892,0.278-1.63,0.83-2.196   c0.55-0.568,1.274-0.857,2.144-0.857c0.89,0,1.587,0.271,2.072,0.803c0.48,0.526,0.724,1.284,0.724,2.251v2.474H36.729z"/>
    </g>
</svg>
