<?xml version="1.0" encoding="UTF-8" standalone="no"?>
<!--part of the matt icon theme by sixsixfive released under CC0 (https://creativecommons.org/publicdomain/zero/1.0/) on openclipart-->

<svg
   xmlns:dc="http://purl.org/dc/elements/1.1/"
   xmlns:cc="http://creativecommons.org/ns#"
   xmlns:rdf="http://www.w3.org/1999/02/22-rdf-syntax-ns#"
   xmlns:svg="http://www.w3.org/2000/svg"
   xmlns="http://www.w3.org/2000/svg"
   xmlns:xlink="http://www.w3.org/1999/xlink"
   xmlns:sodipodi="http://sodipodi.sourceforge.net/DTD/sodipodi-0.dtd"
   xmlns:inkscape="http://www.inkscape.org/namespaces/inkscape"
   viewBox="0 0 122.48335 120.1946"
   version="1.1"
   id="svg57"
   sodipodi:docname="add_client.svg"
   width="100%"
   height="100%"
   inkscape:version="0.92.4 (f8dce91, 2019-08-02)">
  <metadata
     id="metadata61">
    <rdf:RDF>
      <cc:Work
         rdf:about="">
        <dc:format>image/svg+xml</dc:format>
        <dc:type
           rdf:resource="http://purl.org/dc/dcmitype/StillImage" />
      </cc:Work>
    </rdf:RDF>
  </metadata>
  <sodipodi:namedview
     pagecolor="#ffffff"
     bordercolor="#666666"
     borderopacity="1"
     objecttolerance="10"
     gridtolerance="10"
     guidetolerance="10"
     inkscape:pageopacity="0"
     inkscape:pageshadow="2"
     inkscape:window-width="1850"
     inkscape:window-height="1009"
     id="namedview59"
     showgrid="false"
     inkscape:zoom="3.6875"
     inkscape:cx="54.143212"
     inkscape:cy="59.195038"
     inkscape:window-x="70"
     inkscape:window-y="34"
     inkscape:window-maximized="1"
     inkscape:current-layer="8" />
  <defs
     id="0">
    <linearGradient
       id="9">
      <stop
         id="Z"
         stop-color="#888" />
      <stop
         id="a"
         offset="1"
         stop-color="#323232" />
    </linearGradient>
    <linearGradient
       id="A">
      <stop
         id="b"
         stop-color="#b3925d" />
      <stop
         id="c"
         offset="1"
         stop-color="#5d4014" />
    </linearGradient>
    <linearGradient
       id="B">
      <stop
         id="d"
         stop-color="#fff" />
      <stop
         id="e"
         offset="1"
         stop-color="#fff"
         stop-opacity="0" />
    </linearGradient>
    <linearGradient
       id="C">
      <stop
         id="f" />
      <stop
         id="g"
         offset="1"
         stop-opacity="0" />
    </linearGradient>
    <linearGradient
       id="D">
      <stop
         id="h"
         stop-color="#fadabb" />
      <stop
         id="i"
         offset="1"
         stop-color="#e5ab72" />
    </linearGradient>
    <linearGradient
       id="E">
      <stop
         id="j"
         stop-color="#ffdfbf" />
      <stop
         id="k"
         offset="1"
         stop-color="#ffbf80" />
    </linearGradient>
    <filter
       x="-0.041999999"
       y="-0.62400001"
       width="1.084"
       height="2.2490001"
       id="F"
       style="color-interpolation-filters:sRGB">
      <feGaussianBlur
         stdDeviation="2.35772"
         id="l" />
    </filter>
    <radialGradient
       cx="67.550003"
       cy="123.47"
       r="67.550003"
       id="G"
       xlink:href="#C"
       gradientUnits="userSpaceOnUse"
       gradientTransform="matrix(1,0,0,0.06707317,0,115.18784)" />
    <linearGradient
       y1="-16.423"
       x2="0"
       y2="3.1589999"
       id="H"
       xlink:href="#B"
       gradientUnits="userSpaceOnUse"
       gradientTransform="matrix(1.140285,0,0,1.140285,253.00474,7.7399028)" />
    <radialGradient
       cx="-166.92999"
       cy="24.370001"
       r="25"
       id="I"
       xlink:href="#E"
       gradientUnits="userSpaceOnUse"
       gradientTransform="matrix(1.1132214,0,0,1.3724243,248.68533,-6.2983477)" />
    <radialGradient
       cx="-202.11"
       cy="96.419998"
       r="15.01"
       id="J"
       xlink:href="#D"
       gradientUnits="userSpaceOnUse"
       gradientTransform="matrix(0.81034889,-0.90440143,0.74292932,0.66562369,151.35084,-152.11615)" />
    <linearGradient
       y1="58.509998"
       x2="0"
       y2="71.360001"
       id="K"
       xlink:href="#B"
       gradientUnits="userSpaceOnUse"
       gradientTransform="matrix(1.140285,0,0,1.140285,253.00474,7.7399028)" />
    <linearGradient
       y1="4.414"
       x2="0"
       y2="46.986"
       id="L"
       xlink:href="#A"
       gradientUnits="userSpaceOnUse"
       gradientTransform="translate(-4.5080607,-4.4137472)" />
    <linearGradient
       y1="77.400002"
       x2="0"
       y2="119.23"
       id="M"
       xlink:href="#9"
       gradientUnits="userSpaceOnUse"
       gradientTransform="translate(-4.5080607,-4.4137472)" />
    <linearGradient
       y1="8.7069998"
       x2="0"
       y2="120.54"
       id="N"
       xlink:href="#T"
       gradientUnits="userSpaceOnUse" />
    <radialGradient
       cx="60.049999"
       cy="51.389999"
       r="15.03"
       id="O"
       xlink:href="#S"
       gradientUnits="userSpaceOnUse"
       gradientTransform="matrix(-1.404511,1.1888571,-1,-1.1813958,199.73811,11.750541)" />
    <linearGradient
       id="P">
      <stop
         id="m"
         stop-color="#eee" />
      <stop
         id="n"
         offset="1"
         stop-color="#eee"
         stop-opacity="0" />
    </linearGradient>
    <radialGradient
       cx="64.699997"
       cy="-15.174"
       r="55.27"
       id="Q"
       xlink:href="#P"
       gradientUnits="userSpaceOnUse"
       gradientTransform="matrix(1.5330966,-3.1358239e-8,2.404893e-8,1.1240308,-33.828167,2.9909361)" />
    <radialGradient
       cx="63.894001"
       cy="117.35"
       r="53.91"
       id="R"
       xlink:href="#C"
       gradientUnits="userSpaceOnUse"
       gradientTransform="matrix(1,0,0,0.08641975,0,107.20963)" />
    <linearGradient
       id="S">
      <stop
         id="o"
         stop-color="#eee" />
      <stop
         id="p"
         offset="1"
         stop-color="#dcdcdc" />
    </linearGradient>
    <linearGradient
       id="T">
      <stop
         id="q"
         stop-color="#f0ff80" />
      <stop
         id="r"
         offset="1"
         stop-color="#8bb300" />
    </linearGradient>
  </defs>
  <path
     d="m 0.80018533,114.26077 c -0.896606,-9.54113 0.10924,-28.346876 13.31889467,-31.402756 l 43.534906,-9.314439 45.468714,8.642793 c 13.43545,2.872317 14.89986,21.400282 15.30318,31.830972 -117.85238267,0.4466 0.0526,-0.0905 -117.62569467,0.24343 z"
     id="2"
     inkscape:connector-curvature="0"
     style="fill:url(#M);fill-rule:evenodd;stroke:#323232;stroke-width:1.11300004" />
  <path
     d="M 57.588397,75.016718 14.435737,84.2459 h -0.03558 c -5.9616837,1.394811 -9.1561807,6.265976 -10.8683417,12.258063 -1.582305,5.537607 -1.680335,11.731377 -1.354088,16.320327 27.8567407,-0.0784 42.9245807,-0.1385 50.0656377,-0.14254 3.669643,-0.002 5.4946,0.0286 6.414103,0.0356 0.459752,0.004 0.667842,-0.006 0.81958,0 0.05086,0.002 0.140768,0.0272 0.213804,0.0356 0.01026,3.4e-4 0.08974,-3.7e-4 0.106844,0 0.10274,0.002 0.252961,-0.001 0.641411,0 0.906378,0.003 2.735863,0.009 6.414103,0 7.137865,-0.0177 22.285985,-0.0733 50.03001,-0.17817 -0.23419,-5.02544 -0.76254,-11.32395 -2.60128,-16.854837 -2.0027,-6.024113 -5.32175,-10.794039 -11.40285,-12.115524 z"
     id="3"
     inkscape:connector-curvature="0"
     style="opacity:0.59299999;fill:none;stroke:url(#K);stroke-width:1.11300004" />
  <path
     d="M 44.832063,63.902284 C 45.064134,69.53461 43.729134,72.7807 41.090412,77.55473 51.364277,96.438463 77.993775,86.704118 77.298793,77.022393 L 74.352308,60.92044 Z"
     id="4"
     inkscape:connector-curvature="0"
     style="fill:url(#J);fill-rule:evenodd;stroke:#f29b68;stroke-width:1.11300004" />
  <path
     d="m 87.182805,40.713437 c 0,18.673308 -12.251562,33.828458 -27.347248,33.828458 -15.095675,0 -27.34725,-15.15515 -27.34725,-33.828458 0,-18.673308 12.251575,-33.8284572 27.34725,-33.8284572 15.095686,0 27.347248,15.1551492 27.347248,33.8284572 z"
     id="5"
     inkscape:connector-curvature="0"
     style="fill:url(#I);stroke:#f29b68;stroke-width:0.97600001;stroke-linejoin:round" />
  <path
     d="M 58.738021,0.58637877 C 32.630865,1.290849 27.720388,20.563206 29.114283,35.058638 c 0.216461,2.251112 1.232409,4.310787 2.862788,6.131791 1.225237,-11.431424 6.715823,-21.558204 20.381899,-28.370974 l 7.281473,8.480787 c 2.692258,3.13469 14.51617,7.992957 18.981592,3.813302 5.55247,0.14469 7.86986,11.481751 8.85544,16.887249 1.47952,-1.994974 1.13902,-5.417749 1.53777,-8.101397 2.07477,-13.963529 -5.79509,-32.90163393 -27.66336,-33.31301723 -0.886788,-0.016682 -1.771672,-0.022725 -2.613864,0 z"
     id="6"
     inkscape:connector-curvature="0"
     style="fill:url(#L);fill-rule:evenodd;stroke:#57401e;stroke-width:1.14300001" />
  <path
     d="M 58.764316,1.7177726 C 45.992759,2.0623977 38.683795,6.8497298 34.568894,13.263158 c -4.114901,6.413429 -4.991655,14.630107 -4.311703,21.701049 0.115157,1.197651 0.573655,2.302422 1.175919,3.385221 1.847273,-10.599807 7.57521,-20.144796 20.418228,-26.54726 a 1.1541391,1.1541391 0 0 1 1.389723,0.285072 l 7.30495,8.480869 c 0.995173,1.15871 4.561118,3.241373 8.231433,4.276069 3.670315,1.034696 7.351394,1.020708 9.051011,-0.570143 a 1.1541391,1.1541391 0 0 1 0.81958,-0.285071 c 1.7772,0.04631 3.26844,0.996638 4.4186,2.316204 1.15016,1.319566 2.04993,3.013265 2.77945,4.846211 0.74565,1.873493 1.32478,3.880499 1.78169,5.772693 0.0701,-1.057828 0.0894,-2.130285 0.24944,-3.207051 0.99511,-6.697215 -0.4169,-14.660705 -4.66804,-20.917103 C 78.958035,6.5435188 71.93365,1.9172482 61.329957,1.7177726 c -0.877221,-0.016502 -1.751318,-0.021973 -2.565641,0 z"
     id="7"
     inkscape:connector-curvature="0"
     style="opacity:0.58600003;fill:none;stroke:url(#H);stroke-width:1.14300001" />
  <g
     transform="matrix(0.58571262,0,0,0.58571262,50.208308,49.100646)"
     id="8">
    <path
       d="m 122.08898,64.625572 a 56.734098,55.918618 0 1 1 -113.4681952,0 56.734098,55.918618 0 1 1 113.4681952,0 z"
       transform="matrix(1.0119373,0,0,1.0266947,-2.1350421,-4.4029736)"
       id="V"
       inkscape:connector-curvature="0"
       style="fill:url(#N)" />
    <path
       d="m 122.08898,64.625572 a 56.734098,55.918618 0 1 1 -113.4681952,0 56.734098,55.918618 0 1 1 113.4681952,0 z"
       transform="matrix(1.0119373,0,0,1.0266947,-2.1350421,-4.4029736)"
       id="W"
       inkscape:connector-curvature="0"
       style="fill:none;stroke:#638000;stroke-width:3.92400002" />
    <path
       d="m 58.728361,20.785638 c -2.645663,0 -4.7917,2.134288 -4.7917,4.765465 V 52.864278 H 26.47312 c -2.645664,0 -4.791701,2.134288 -4.791701,4.765466 v 10.457548 c 0,2.631178 2.146037,4.721341 4.791701,4.721341 h 27.463541 v 27.357297 c 0,2.63118 2.146037,4.72134 4.7917,4.72134 h 10.470753 c 2.645664,0 4.7917,-2.09016 4.7917,-4.72134 V 72.808633 h 27.463546 c 2.64566,0 4.7917,-2.090163 4.7917,-4.721341 V 57.629744 c 0,-2.631178 -2.14604,-4.765466 -4.7917,-4.765466 H 73.990814 V 25.551103 c 0,-2.631177 -2.146036,-4.765465 -4.7917,-4.765465 z"
       id="X"
       inkscape:connector-curvature="0"
       style="fill:#555555;stroke-width:1.41587102" />
    <g
       transform="translate(-0.00454736,5.8747942e-4)"
       id="Y">
      <path
         d="m 65.34375,11.21875 c -29.979853,0 -54.21875,23.915681 -54.21875,53.40625 0,29.490569 24.238897,53.40625 54.21875,53.40625 29.979853,0 54.25,-23.917374 54.25,-53.40625 0,-29.488876 -24.270147,-53.40625 -54.25,-53.40625 z"
         transform="matrix(1.0119373,0,0,1.0266947,-2.1350421,-4.4029736)"
         id="s"
         inkscape:connector-curvature="0"
         style="fill:none;stroke:url(#Q);stroke-width:2.079" />
    </g>
  </g>
</svg>
