<?xml version="1.0" encoding="UTF-8" standalone="no"?>
<svg
   xmlns:dc="http://purl.org/dc/elements/1.1/"
   xmlns:cc="http://creativecommons.org/ns#"
   xmlns:rdf="http://www.w3.org/1999/02/22-rdf-syntax-ns#"
   xmlns:svg="http://www.w3.org/2000/svg"
   xmlns="http://www.w3.org/2000/svg"
   xmlns:xlink="http://www.w3.org/1999/xlink"
   id="svg8"
   version="1.1"
   viewBox="0 0 85.46553 85.46553"
   height="100%"
   width="100%">
  <defs
     id="defs2">
    <linearGradient
       id="linearGradient4758">
      <stop
         id="stop4754"
         offset="0"
         style="stop-color:#00ff00;stop-opacity:1;" />
      <stop
         id="stop4756"
         offset="1"
         style="stop-color:#00ff00;stop-opacity:0;" />
    </linearGradient>
    <linearGradient
       id="linearGradient2834-7">
      <stop
         offset="0"
         style="stop-color:#ffe19c"
         id="stop4749" />
      <stop
         offset="1"
         style="stop-color:#b79e4f;stop-opacity:0"
         id="stop4751" />
    </linearGradient>
    <linearGradient
       id="linearGradient2834">
      <stop
         offset="0"
         style="stop-color:#ffe19c"
         id="stop4744" />
      <stop
         offset="1"
         style="stop-color:#b79e4f;stop-opacity:0"
         id="stop4746" />
    </linearGradient>
    <linearGradient
       id="linearGradient11756"
       y2="367.88"
       gradientUnits="userSpaceOnUse"
       x2="315.47"
       y1="287.48999"
       x1="241.41">
      <stop
         id="stop4158-3"
         style="stop-color:#ffffff"
         offset="0" />
      <stop
         id="stop4160-9"
         style="stop-color:#ffffff;stop-opacity:0"
         offset="1" />
    </linearGradient>
    <filter
       id="filter6126-1"
       style="color-interpolation-filters:sRGB">
      <feGaussianBlur
         id="feGaussianBlur6128-9"
         stdDeviation="0.53035713" />
    </filter>
    <linearGradient
       id="linearGradient11758"
       y2="391.45001"
       gradientUnits="userSpaceOnUse"
       x2="342"
       y1="300.85999"
       x1="275.60999">
      <stop
         id="stop11658"
         style="stop-color:#848484"
         offset="0" />
      <stop
         id="stop11660"
         style="stop-color:#ffffff"
         offset="1" />
    </linearGradient>
    <linearGradient
       id="linearGradient12345"
       y2="338.82001"
       gradientUnits="userSpaceOnUse"
       y1="286.67001"
       gradientTransform="matrix(0.95534,0,0,0.95534,-212.9,590.67)"
       x2="300.26999"
       x1="255.32001">
      <stop
         id="stop4150-7"
         style="stop-color:#ffffff"
         offset="0" />
      <stop
         id="stop4152-3"
         style="stop-color:#ffffff;stop-opacity:0"
         offset="1" />
    </linearGradient>
    <linearGradient
       id="linearGradient3084"
       y2="11.711"
       xlink:href="#linearGradient2780"
       gradientUnits="userSpaceOnUse"
       y1="1.6246001"
       gradientTransform="matrix(1.632,0,0,2.4361,-0.051304,2.0097)"
       x2="35.995998"
       x1="35.995998" />
    <linearGradient
       id="linearGradient2780">
      <stop
         id="stop2782"
         style="stop-color:#ffffff"
         offset="0" />
      <stop
         id="stop2784"
         style="stop-color:#ffffff;stop-opacity:0"
         offset="1" />
    </linearGradient>
    <linearGradient
       id="linearGradient2951"
       y2="6.0918002"
       xlink:href="#linearGradient2780"
       gradientUnits="userSpaceOnUse"
       y1="11.17"
       gradientTransform="matrix(1.6375,0,0,2.4742,-0.051304,-0.012826)"
       x2="39.723999"
       x1="38.362999" />
    <radialGradient
       id="radialGradient2869"
       xlink:href="#linearGradient2834-7-5"
       gradientUnits="userSpaceOnUse"
       cy="8.9813995"
       cx="21.594999"
       gradientTransform="matrix(2.3666,0,0,1.7265,-0.40436,-0.012826)"
       r="6.0679002" />
    <linearGradient
       id="linearGradient2834-7-5">
      <stop
         id="stop2836"
         style="stop-color:#ffe19c"
         offset="0" />
      <stop
         id="stop2838"
         style="stop-color:#b79e4f;stop-opacity:0"
         offset="1" />
    </linearGradient>
    <radialGradient
       id="radialGradient2873"
       xlink:href="#linearGradient2834-7-5"
       gradientUnits="userSpaceOnUse"
       cy="8.9813995"
       cx="21.594999"
       gradientTransform="matrix(-2.3666,0,0,1.7265,129.12,-0.11292)"
       r="6.0679002" />
    <linearGradient
       id="linearGradient2943"
       y2="7.5862999"
       xlink:href="#linearGradient2780"
       gradientUnits="userSpaceOnUse"
       y1="9.5746002"
       gradientTransform="matrix(1.632,0,0,2.4825,-0.051304,-0.012826)"
       x2="38.782001"
       x1="38.782001" />
    <linearGradient
       id="linearGradient2935"
       y2="-13.17"
       xlink:href="#linearGradient2780"
       gradientUnits="userSpaceOnUse"
       y1="24.385"
       gradientTransform="matrix(2.2102,0,0,1.9643,-1.5159,-2.1713)"
       x2="33.183998"
       x1="33.183998" />
    <linearGradient
       id="linearGradient2895"
       y2="-13.17"
       xlink:href="#linearGradient2780"
       gradientUnits="userSpaceOnUse"
       y1="24.385"
       gradientTransform="matrix(2.1611,0,0,1.8045,-0.051304,2.2671)"
       x2="33.183998"
       x1="33.183998" />
    <radialGradient
       id="radialGradient2955"
       xlink:href="#linearGradient2834-7-5"
       gradientUnits="userSpaceOnUse"
       cy="8.9813995"
       cx="21.594999"
       gradientTransform="matrix(3.085,0,0,2.0529,-15.985,-3.1493)"
       r="6.0679002" />
    <radialGradient
       id="radialGradient2959"
       xlink:href="#linearGradient2834-7-5"
       gradientUnits="userSpaceOnUse"
       cy="8.9813995"
       cx="21.594999"
       gradientTransform="matrix(-2.8463,0,0,2.0879,139.53,-3.5862)"
       r="6.0679002" />
    <radialGradient
       id="radialGradient3063"
       xlink:href="#linearGradient3057"
       gradientUnits="userSpaceOnUse"
       cy="231.98"
       cx="8.0178003"
       gradientTransform="scale(3.7417,0.26726)"
       r="7.4833002" />
    <linearGradient
       id="linearGradient3057">
      <stop
         id="stop3059"
         style="stop-color:#282828"
         offset="0" />
      <stop
         id="stop3061"
         style="stop-color:#282828;stop-opacity:0"
         offset="1" />
    </linearGradient>
    <radialGradient
       id="radialGradient319"
       xlink:href="#linearGradient3057"
       gradientUnits="userSpaceOnUse"
       cy="231.98"
       cx="8.0178003"
       gradientTransform="scale(3.7417,0.26726)"
       r="7.4833002" />
    <radialGradient
       id="radialGradient327"
       xlink:href="#linearGradient3057"
       gradientUnits="userSpaceOnUse"
       cy="231.98"
       cx="8.0178003"
       gradientTransform="scale(3.7417,0.26726)"
       r="7.4833002" />
    <linearGradient
       id="linearGradient2707"
       y2="52.609001"
       spreadMethod="reflect"
       gradientUnits="userSpaceOnUse"
       y1="52.609001"
       gradientTransform="matrix(2.1518,0,0,1.7708,-0.051304,4.3518)"
       x2="44.723999"
       x1="29.614">
      <stop
         id="stop2703"
         style="stop-color:#a47c44"
         offset="0" />
      <stop
         id="stop2770"
         style="stop-color:#baa363"
         offset=".75" />
      <stop
         id="stop2705"
         style="stop-color:#d6c795"
         offset="1" />
    </linearGradient>
    <linearGradient
       id="linearGradient2732"
       y2="47.296001"
       xlink:href="#linearGradient2713"
       spreadMethod="reflect"
       gradientUnits="userSpaceOnUse"
       y1="46.356998"
       gradientTransform="matrix(2.2188,0,0,1.826,-0.051304,-1.0128)"
       x2="29.094"
       x1="29.094" />
    <linearGradient
       id="linearGradient2713">
      <stop
         id="stop2715"
         style="stop-color:#000000"
         offset="0" />
      <stop
         id="stop2717"
         style="stop-color:#ffffff"
         offset="1" />
    </linearGradient>
    <linearGradient
       id="linearGradient2736"
       y2="45.888"
       xlink:href="#linearGradient2713"
       spreadMethod="reflect"
       gradientUnits="userSpaceOnUse"
       y1="44.011002"
       gradientTransform="matrix(2.2188,0,0,1.826,-0.051304,-1.0128)"
       x2="24.606001"
       x1="24.261" />
    <linearGradient
       id="linearGradient3086"
       y2="62.779999"
       xlink:href="#linearGradient2713"
       spreadMethod="reflect"
       gradientUnits="userSpaceOnUse"
       y1="60.433998"
       gradientTransform="matrix(2.2188,0,0,1.826,-0.051304,-1.0128)"
       x2="17.424999"
       x1="17.681999" />
    <radialGradient
       id="radialGradient2811"
       xlink:href="#linearGradient2780"
       gradientUnits="userSpaceOnUse"
       cy="22.546"
       cx="20.361"
       gradientTransform="matrix(0.43334,0,0,1.435,6.4099,-0.11314)"
       r="15.157" />
    <radialGradient
       id="radialGradient2813"
       xlink:href="#linearGradient2780"
       gradientUnits="userSpaceOnUse"
       cy="22.546"
       cx="20.361"
       gradientTransform="matrix(0.50007,0,0,1.6752,5.003,-5.1081)"
       r="15.157" />
    <radialGradient
       id="radialGradient2815"
       xlink:href="#linearGradient2780"
       gradientUnits="userSpaceOnUse"
       cy="22.546"
       cx="20.361"
       gradientTransform="matrix(0.6214,0,0,1.8821,2.3888,-9.4094)"
       r="15.157" />
    <radialGradient
       id="radialGradient378"
       xlink:href="#linearGradient2780"
       gradientUnits="userSpaceOnUse"
       cy="22.546"
       cx="20.361"
       gradientTransform="matrix(0.43334,0,0,1.435,6.4099,-0.11314)"
       r="15.157" />
    <radialGradient
       id="radialGradient386"
       xlink:href="#linearGradient2780"
       gradientUnits="userSpaceOnUse"
       cy="22.546"
       cx="20.361"
       gradientTransform="matrix(0.50007,0,0,1.6752,5.003,-5.1081)"
       r="15.157" />
    <radialGradient
       id="radialGradient394"
       xlink:href="#linearGradient2780"
       gradientUnits="userSpaceOnUse"
       cy="22.546"
       cx="20.361"
       gradientTransform="matrix(0.6214,0,0,1.8821,2.3888,-9.4094)"
       r="15.157" />
    <linearGradient
       id="linearGradient3080"
       y2="44.980999"
       xlink:href="#linearGradient2780"
       gradientUnits="userSpaceOnUse"
       y1="68.68"
       gradientTransform="matrix(2.1361,0,0,1.826,2.3487,-1.0128)"
       x2="26.974001"
       x1="26.974001" />
    <linearGradient
       gradientUnits="userSpaceOnUse"
       y2="346.11218"
       x2="356.78571"
       y1="346.11218"
       x1="250.71429"
       id="linearGradient4760"
       xlink:href="#linearGradient4758" />
    <filter
       id="filter4962"
       style="color-interpolation-filters:sRGB">
      <feFlood
         id="feFlood4952"
         result="flood"
         flood-color="rgb(0,0,0)"
         flood-opacity="0.498039" />
      <feComposite
         id="feComposite4954"
         result="composite1"
         operator="in"
         in2="SourceGraphic"
         in="flood" />
      <feGaussianBlur
         id="feGaussianBlur4956"
         result="blur"
         stdDeviation="3"
         in="composite1" />
      <feOffset
         id="feOffset4958"
         result="offset"
         dy="6"
         dx="6" />
      <feComposite
         id="feComposite4960"
         result="composite2"
         operator="over"
         in2="offset"
         in="SourceGraphic" />
    </filter>
  </defs>
  <metadata
     id="metadata5">
    <rdf:RDF>
      <cc:Work
         rdf:about="">
        <dc:format>image/svg+xml</dc:format>
        <dc:type
           rdf:resource="http://purl.org/dc/dcmitype/StillImage" />
        <dc:title></dc:title>
      </cc:Work>
    </rdf:RDF>
  </metadata>
  <g
     transform="translate(-6.4041395,-85.689854)"
     id="layer1">
    <g
       id="layer1-6"
       transform="matrix(0.26458333,0,0,0.26458333,-3.3487528,-96.986262)">
      <g
         id="g11671"
         transform="matrix(2.9051,0,0,2.9051,4.337,-1765.4)">
        <g
           id="g4995">
          <circle
             r="53.035713"
             cy="346.11218"
             cx="303.75"
             transform="matrix(0.97354,0,0,0.97354,-228.92,563.99)"
             style="display:inline;fill:#999999"
             id="path11122" />
          <circle
             r="53.035713"
             cy="346.11218"
             cx="303.75"
             transform="matrix(0.9596,0,0,0.9596,-224.69,568.82)"
             style="display:inline;fill:url(#linearGradient11756)"
             id="path11124" />
          <circle
             r="53.035713"
             cy="346.11218"
             cx="303.75"
             transform="matrix(0.87355,0,0,0.87355,-198.55,598.6)"
             style="display:inline;fill:#ececec;filter:url(#filter6126-1)"
             id="path11126" />
          <circle
             r="53.035713"
             cy="346.11218"
             cx="303.75"
             transform="matrix(0.83838,0,0,0.83838,-187.87,610.77)"
             style="display:inline;fill:#999999;filter:url(#filter6126-1)"
             id="path11128" />
          <circle
             r="53.035713"
             cy="346.11218"
             cx="303.75"
             transform="matrix(0.80587,0,0,0.80587,-177.99,622.02)"
             style="display:inline;fill:url(#linearGradient11758)"
             id="path11144" />
          <circle
             r="53.035713"
             cy="346.11218"
             cx="303.75"
             transform="matrix(0.75825,0,0,0.75825,-162.27,640.52)"
             style="display:inline;fill:url(#linearGradient4760);fill-opacity:1"
             id="path11132" />
          <path
             d="m 65.786,860.76 c -13.331,0.30069 -26.186,7.358 -33.336,19.742 -7.6903,13.32 -6.7139,29.266 1.1545,41.331 0.85306,-26.532 21.132,-46.515 46.324,-45.054 8.2589,0.47907 16.054,3.2001 22.859,7.5908 -3.2578,-7.4498 -8.8171,-13.953 -16.394,-18.327 -6.4867,-3.7451 -13.625,-5.4393 -20.608,-5.2818 z"
             style="display:inline;opacity:0.31771001;fill:url(#linearGradient12345)"
             id="path11134" />
          <g
             id="flowRoot4762"
             style="font-style:normal;font-weight:normal;font-size:40px;line-height:1.25;font-family:sans-serif;letter-spacing:0px;word-spacing:0px;fill:#ffff00;fill-opacity:1;stroke:none;filter:url(#filter4962)"
             transform="matrix(0.25873786,0,0,0.38122967,-17.264748,595.05377)"
             aria-label="Asset
License">
            <path
               id="path5101"
               style="font-style:normal;font-variant:normal;font-weight:bold;font-stretch:normal;font-size:53.33333588px;font-family:sans-serif;-inkscape-font-specification:'sans-serif Bold';text-align:center;text-anchor:middle;fill:#ffff00"
               d="m 278.11784,779.76628 h -15.67709 l -2.47396,7.08333 h -10.07812 l 14.40104,-38.88021 h 11.95313 l 14.40104,38.88021 h -10.07813 z m -13.17709,-7.21354 h 10.65104 l -5.3125,-15.46875 z" />
            <path
               id="path5103"
               style="font-style:normal;font-variant:normal;font-weight:bold;font-stretch:normal;font-size:53.33333588px;font-family:sans-serif;-inkscape-font-specification:'sans-serif Bold';text-align:center;text-anchor:middle;fill:#ffff00"
               d="m 318.14388,758.5944 v 7.08334 q -2.99479,-1.25 -5.78125,-1.875 -2.78646,-0.625 -5.26042,-0.625 -2.65625,0 -3.95833,0.67708 -1.27604,0.65104 -1.27604,2.03125 0,1.11979 0.96354,1.71875 0.98958,0.59896 3.51563,0.88542 l 1.64062,0.23437 q 7.16146,0.91146 9.63542,2.99479 2.47396,2.08334 2.47396,6.53646 0,4.66146 -3.4375,7.00521 -3.4375,2.34375 -10.26042,2.34375 -2.89063,0 -5.98958,-0.46875 -3.07292,-0.44271 -6.32813,-1.35417 v -7.08333 q 2.78646,1.35417 5.70313,2.03125 2.9427,0.67708 5.96354,0.67708 2.73437,0 4.11458,-0.75521 1.38021,-0.7552 1.38021,-2.23958 0,-1.25 -0.96354,-1.84896 -0.9375,-0.625 -3.77604,-0.96354 l -1.64063,-0.20833 q -6.22396,-0.78125 -8.72396,-2.89063 -2.5,-2.10937 -2.5,-6.40625 0,-4.63541 3.17709,-6.875 3.17708,-2.23958 9.73958,-2.23958 2.57812,0 5.41667,0.39062 2.83854,0.39063 6.17187,1.22396 z" />
            <path
               id="path5105"
               style="font-style:normal;font-variant:normal;font-weight:bold;font-stretch:normal;font-size:53.33333588px;font-family:sans-serif;-inkscape-font-specification:'sans-serif Bold';text-align:center;text-anchor:middle;fill:#ffff00"
               d="m 349.91471,758.5944 v 7.08334 q -2.99479,-1.25 -5.78125,-1.875 -2.78646,-0.625 -5.26041,-0.625 -2.65625,0 -3.95834,0.67708 -1.27604,0.65104 -1.27604,2.03125 0,1.11979 0.96354,1.71875 0.98959,0.59896 3.51563,0.88542 l 1.64062,0.23437 q 7.16146,0.91146 9.63542,2.99479 2.47396,2.08334 2.47396,6.53646 0,4.66146 -3.4375,7.00521 -3.4375,2.34375 -10.26042,2.34375 -2.89062,0 -5.98958,-0.46875 -3.07292,-0.44271 -6.32813,-1.35417 v -7.08333 q 2.78646,1.35417 5.70313,2.03125 2.94271,0.67708 5.96354,0.67708 2.73437,0 4.11458,-0.75521 1.38021,-0.7552 1.38021,-2.23958 0,-1.25 -0.96354,-1.84896 -0.9375,-0.625 -3.77604,-0.96354 l -1.64063,-0.20833 q -6.22396,-0.78125 -8.72396,-2.89063 -2.5,-2.10937 -2.5,-6.40625 0,-4.63541 3.17709,-6.875 3.17708,-2.23958 9.73958,-2.23958 2.57813,0 5.41667,0.39062 2.83854,0.39063 6.17187,1.22396 z" />
            <path
               id="path5107"
               style="font-style:normal;font-variant:normal;font-weight:bold;font-stretch:normal;font-size:53.33333588px;font-family:sans-serif;-inkscape-font-specification:'sans-serif Bold';text-align:center;text-anchor:middle;fill:#ffff00"
               d="m 388.01367,772.18815 v 2.65625 H 366.2168 q 0.33854,3.28125 2.36979,4.92188 2.03125,1.64062 5.67708,1.64062 2.94271,0 6.01563,-0.85937 3.09896,-0.88542 6.35417,-2.65625 v 7.1875 q -3.3073,1.25 -6.61459,1.875 -3.30729,0.65104 -6.61458,0.65104 -7.91667,0 -12.31771,-4.01042 -4.375,-4.03646 -4.375,-11.30208 0,-7.13542 4.29687,-11.22396 4.32292,-4.08854 11.87501,-4.08854 6.875,0 10.98958,4.14062 4.14062,4.14063 4.14062,11.06771 z m -9.58333,-3.09896 q 0,-2.65625 -1.5625,-4.27083 -1.53646,-1.64062 -4.03646,-1.64062 -2.70833,0 -4.40104,1.53645 -1.69271,1.51042 -2.10937,4.375 z" />
            <path
               id="path5109"
               style="font-style:normal;font-variant:normal;font-weight:bold;font-stretch:normal;font-size:53.33333588px;font-family:sans-serif;-inkscape-font-specification:'sans-serif Bold';text-align:center;text-anchor:middle;fill:#ffff00"
               d="m 405.22721,749.40169 v 8.28125 h 9.60938 v 6.66667 h -9.60938 v 12.36979 q 0,2.03125 0.80729,2.76042 0.80729,0.70312 3.20313,0.70312 h 4.79166 v 6.66667 h -7.99479 q -5.52083,0 -7.83854,-2.29167 -2.29167,-2.3177 -2.29167,-7.83854 v -12.36979 h -4.63541 v -6.66667 h 4.63541 v -8.28125 z" />
            <path
               id="path5111"
               style="font-style:normal;font-variant:normal;font-weight:bold;font-stretch:normal;font-size:53.33333588px;font-family:sans-serif;-inkscape-font-specification:'sans-serif Bold';text-align:center;text-anchor:middle;fill:#ffff00"
               d="m 224.73242,814.63609 h 10.02604 v 31.30208 h 17.60417 v 7.57813 h -27.63021 z" />
            <path
               id="path5113"
               style="font-style:normal;font-variant:normal;font-weight:bold;font-stretch:normal;font-size:53.33333588px;font-family:sans-serif;-inkscape-font-specification:'sans-serif Bold';text-align:center;text-anchor:middle;fill:#ffff00"
               d="m 258.27409,824.34963 h 9.32291 v 29.16667 h -9.32291 z m 0,-11.35417 h 9.32291 v 7.60417 h -9.32291 z" />
            <path
               id="path5115"
               style="font-style:normal;font-variant:normal;font-weight:bold;font-stretch:normal;font-size:53.33333588px;font-family:sans-serif;-inkscape-font-specification:'sans-serif Bold';text-align:center;text-anchor:middle;fill:#ffff00"
               d="m 300.17513,825.26109 v 7.60417 q -1.90104,-1.30209 -3.82812,-1.92709 -1.90105,-0.625 -3.95834,-0.625 -3.90625,0 -6.09375,2.29167 -2.16146,2.26562 -2.16146,6.35417 0,4.08854 2.16146,6.3802 2.1875,2.26563 6.09375,2.26563 2.1875,0 4.14063,-0.65104 1.97916,-0.65104 3.64583,-1.92709 v 7.63021 q -2.1875,0.8073 -4.45312,1.19792 -2.23959,0.41667 -4.50521,0.41667 -7.89063,0 -12.34375,-4.03646 -4.45313,-4.0625 -4.45313,-11.27604 0,-7.21355 4.45313,-11.25 4.45312,-4.0625 12.34375,-4.0625 2.29166,0 4.50521,0.41666 2.23958,0.39063 4.45312,1.19792 z" />
            <path
               id="path5117"
               style="font-style:normal;font-variant:normal;font-weight:bold;font-stretch:normal;font-size:53.33333588px;font-family:sans-serif;-inkscape-font-specification:'sans-serif Bold';text-align:center;text-anchor:middle;fill:#ffff00"
               d="m 337.38867,838.85484 v 2.65625 h -21.79688 q 0.33855,3.28125 2.3698,4.92187 2.03125,1.64063 5.67708,1.64063 2.94271,0 6.01563,-0.85937 3.09895,-0.88542 6.35416,-2.65626 v 7.18751 q -3.30729,1.25 -6.61458,1.875 -3.30729,0.65104 -6.61459,0.65104 -7.91666,0 -12.3177,-4.01042 -4.375,-4.03646 -4.375,-11.30208 0,-7.13542 4.29687,-11.22396 4.32292,-4.08854 11.875,-4.08854 6.875,0 10.98959,4.14062 4.14062,4.14063 4.14062,11.06771 z m -9.58333,-3.09896 q 0,-2.65625 -1.5625,-4.27083 -1.53646,-1.64063 -4.03646,-1.64063 -2.70834,0 -4.40104,1.53646 -1.69271,1.51042 -2.10938,4.375 z" />
            <path
               id="path5119"
               style="font-style:normal;font-variant:normal;font-weight:bold;font-stretch:normal;font-size:53.33333588px;font-family:sans-serif;-inkscape-font-specification:'sans-serif Bold';text-align:center;text-anchor:middle;fill:#ffff00"
               d="m 373.74284,835.75588 v 17.76042 h -9.375 v -2.89063 -10.70312 q 0,-3.77604 -0.18229,-5.20834 -0.15625,-1.43229 -0.57292,-2.10937 -0.54687,-0.91146 -1.48437,-1.40625 -0.9375,-0.52083 -2.13542,-0.52083 -2.91667,0 -4.58333,2.26562 -1.66667,2.23958 -1.66667,6.22396 v 14.34896 h -9.32292 v -29.16667 h 9.32292 v 4.27083 q 2.10937,-2.55208 4.47917,-3.75 2.36979,-1.22395 5.23437,-1.22395 5.05208,0 7.65625,3.09895 2.63021,3.09896 2.63021,9.01042 z" />
            <path
               id="path5121"
               style="font-style:normal;font-variant:normal;font-weight:bold;font-stretch:normal;font-size:53.33333588px;font-family:sans-serif;-inkscape-font-specification:'sans-serif Bold';text-align:center;text-anchor:middle;fill:#ffff00"
               d="m 405.22722,825.26109 v 7.08333 q -2.99479,-1.25 -5.78125,-1.875 -2.78645,-0.625 -5.26041,-0.625 -2.65625,0 -3.95834,0.67709 -1.27604,0.65104 -1.27604,2.03125 0,1.11979 0.96354,1.71875 0.98959,0.59895 3.51563,0.88541 l 1.64062,0.23438 q 7.16146,0.91146 9.63542,2.99479 2.47396,2.08333 2.47396,6.53646 0,4.66146 -3.4375,7.00521 -3.4375,2.34375 -10.26042,2.34375 -2.89062,0 -5.98958,-0.46875 -3.07292,-0.44271 -6.32813,-1.35417 v -7.08333 q 2.78646,1.35416 5.70313,2.03125 2.94271,0.67708 5.96354,0.67708 2.73438,0 4.11458,-0.75521 1.38021,-0.75521 1.38021,-2.23958 0,-1.25 -0.96354,-1.84896 -0.9375,-0.625 -3.77604,-0.96354 l -1.64063,-0.20834 q -6.22395,-0.78125 -8.72395,-2.89062 -2.5,-2.10938 -2.5,-6.40625 0,-4.63542 3.17708,-6.875 3.17708,-2.23958 9.73958,-2.23958 2.57813,0 5.41667,0.39062 2.83854,0.39063 6.17187,1.22396 z" />
            <path
               id="path5123"
               style="font-style:normal;font-variant:normal;font-weight:bold;font-stretch:normal;font-size:53.33333588px;font-family:sans-serif;-inkscape-font-specification:'sans-serif Bold';text-align:center;text-anchor:middle;fill:#ffff00"
               d="m 443.32618,838.85484 v 2.65625 H 421.5293 q 0.33854,3.28125 2.36979,4.92187 2.03125,1.64063 5.67709,1.64063 2.94271,0 6.01562,-0.85937 3.09896,-0.88542 6.35417,-2.65626 v 7.18751 q -3.30729,1.25 -6.61458,1.875 -3.3073,0.65104 -6.61459,0.65104 -7.91666,0 -12.31771,-4.01042 -4.375,-4.03646 -4.375,-11.30208 0,-7.13542 4.29688,-11.22396 4.32292,-4.08854 11.875,-4.08854 6.875,0 10.98958,4.14062 4.14063,4.14063 4.14063,11.06771 z m -9.58334,-3.09896 q 0,-2.65625 -1.5625,-4.27083 -1.53645,-1.64063 -4.03645,-1.64063 -2.70834,0 -4.40105,1.53646 -1.6927,1.51042 -2.10937,4.375 z" />
          </g>
        </g>
      </g>
    </g>
  </g>
</svg>
