<?xml version="1.0" encoding="UTF-8" standalone="no"?>
<svg
   xmlns:dc="http://purl.org/dc/elements/1.1/"
   xmlns:cc="http://creativecommons.org/ns#"
   xmlns:rdf="http://www.w3.org/1999/02/22-rdf-syntax-ns#"
   xmlns:svg="http://www.w3.org/2000/svg"
   xmlns="http://www.w3.org/2000/svg"
   xmlns:xlink="http://www.w3.org/1999/xlink"
   xmlns:sodipodi="http://sodipodi.sourceforge.net/DTD/sodipodi-0.dtd"
   xmlns:inkscape="http://www.inkscape.org/namespaces/inkscape"
   height="100%"
   width="100%"
   version="1.1"
   viewBox="0 0 268.27151 306.01685"
   id="svg2"
   sodipodi:docname="security.svg"
   inkscape:version="0.92.4 (fd57863, 2020-04-02)">
  <metadata
     id="metadata40">
    <rdf:RDF>
      <cc:Work
         rdf:about="">
        <dc:format>image/svg+xml</dc:format>
        <dc:type
           rdf:resource="http://purl.org/dc/dcmitype/StillImage" />
      </cc:Work>
    </rdf:RDF>
  </metadata>
  <sodipodi:namedview
     pagecolor="#ffffff"
     bordercolor="#666666"
     borderopacity="1"
     objecttolerance="10"
     gridtolerance="10"
     guidetolerance="10"
     inkscape:pageopacity="0"
     inkscape:pageshadow="2"
     inkscape:window-width="3700"
     inkscape:window-height="2018"
     id="namedview40"
     showgrid="false"
     inkscape:zoom="0.75354581"
     inkscape:cx="-680.80523"
     inkscape:cy="155.68324"
     inkscape:window-x="140"
     inkscape:window-y="68"
     inkscape:window-maximized="1"
     inkscape:current-layer="svg2" />
  <defs
     id="defs4">
    <linearGradient
       id="linearGradient3768">
      <stop
         offset="0"
         style="stop-color:#ffffff"
         id="stop3770" />
      <stop
         offset="1"
         style="stop-color:#ffffff;stop-opacity:0"
         id="stop3772" />
    </linearGradient>
    <linearGradient
       x1="324.26001"
       y1="124.03"
       gradientTransform="translate(-38.09,54.252)"
       x2="310.12"
       gradientUnits="userSpaceOnUse"
       xlink:href="#linearGradient3768"
       y2="222.02"
       id="linearGradient3774" />
    <linearGradient
       x1="324.26001"
       y1="124.03"
       gradientTransform="matrix(0.50029,0,0,0.50029,125.75,115.32)"
       x2="300.12"
       gradientUnits="userSpaceOnUse"
       xlink:href="#linearGradient3768"
       y2="184.89999"
       id="linearGradient3778" />
    <linearGradient
       x1="301.42999"
       y1="390.22"
       gradientTransform="matrix(0.95277,0,0,0.95277,-23.109,66.54)"
       x2="325"
       gradientUnits="userSpaceOnUse"
       y2="209.50999"
       id="linearGradient3791">
      <stop
         offset="0"
         style="stop-color:#ffffff"
         id="stop3787" />
      <stop
         offset="1"
         style="stop-color:#ffffff;stop-opacity:0"
         id="stop3789" />
    </linearGradient>
    <linearGradient
       x1="296.42999"
       y1="299.51001"
       gradientTransform="translate(-37.376,53.538)"
       x2="232.14"
       gradientUnits="userSpaceOnUse"
       y2="177.36"
       id="linearGradient3799">
      <stop
         offset="0"
         style="stop-color:#ff0000"
         id="stop3795" />
      <stop
         offset="1"
         style="stop-color:#ff0000;stop-opacity:0"
         id="stop3797" />
    </linearGradient>
    <filter
       style="color-interpolation-filters:sRGB"
       x="-0.0066493531"
       y="-0.0058196494"
       width="1.0132987"
       height="1.0116394"
       id="filter3865">
      <feColorMatrix
         result="bluralpha"
         type="matrix"
         values="1 0 0 0 0 0 1 0 0 0 0 0 1 0 0 0 0 0 1 0 "
         id="feColorMatrix3869" />
      <feOffset
         in="bluralpha"
         dx="0"
         dy="0"
         result="offsetBlur"
         id="feOffset3871" />
      <feMerge
         id="feMerge3873">
        <feMergeNode
           in="offsetBlur"
           id="feMergeNode3875" />
        <feMergeNode
           in="SourceGraphic"
           id="feMergeNode3877" />
      </feMerge>
    </filter>
    <linearGradient
       x1="344.45999"
       y1="142.21001"
       gradientTransform="matrix(1.0096,0,0,1.0096,-49.788,38.877)"
       x2="328.29999"
       gradientUnits="userSpaceOnUse"
       y2="324.04001"
       id="linearGradient3924">
      <stop
         offset="0"
         style="stop-color:#00ff00"
         id="stop3920" />
      <stop
         offset="1"
         style="stop-color:#008000"
         id="stop3922" />
    </linearGradient>
    <filter
       style="color-interpolation-filters:sRGB"
       x="-0.00017743961"
       y="-0.00017291088"
       width="1.0003549"
       height="1.0003458"
       id="filter3940">
      <feColorMatrix
         result="bluralpha"
         type="matrix"
         values="1 0 0 0 0 0 1 0 0 0 0 0 1 0 0 0 0 0 1 0 "
         id="feColorMatrix3944" />
      <feOffset
         in="bluralpha"
         dx="0"
         dy="0"
         result="offsetBlur"
         id="feOffset3946" />
      <feMerge
         id="feMerge3948">
        <feMergeNode
           in="offsetBlur"
           id="feMergeNode3950" />
        <feMergeNode
           in="SourceGraphic"
           id="feMergeNode3952" />
      </feMerge>
    </filter>
    <linearGradient
       y2="177.36"
       x2="232.14"
       y1="299.51001"
       x1="296.42999"
       gradientTransform="translate(-37.376,53.538)"
       gradientUnits="userSpaceOnUse"
       id="linearGradient4633"
       xlink:href="#linearGradient3799" />
  </defs>
  <g
     style="display:inline;opacity:1"
     transform="translate(-130.58922,-145.57358)"
     id="layer1">
    <path
       d="m 132.44,187.74 c 0,0 -3.4855,88.373 32.84,154.65 36.177,66.009 99.43,107.44 99.43,107.44 0,0 63.283,-41.435 99.46,-107.44 36.325,-66.279 32.84,-154.65 32.84,-154.65 0,0 -49.804,-40.406 -132.28,-40.406 -82.481,0 -132.28,40.406 -132.28,40.406 z"
       style="display:inline;opacity:1;fill:#aa0000;fill-opacity:1;filter:url(#filter3865)"
       id="rect2987"
       inkscape:connector-curvature="0"
       inkscape:label="rect2987" />
    <path
       d="m 264.72,147.35 c -82.481,0 -132.28,40.406 -132.28,40.406 0,0 -3.4814,88.346 32.844,154.62 36.177,66.009 99.438,107.47 99.438,107.47 0,0 0.71663,-0.5084 0.9375,-0.65625 v -301.84 c -0.31336,-0.001 -0.62319,0 -0.9375,0 z"
       style="display:inline;fill:url(#linearGradient4633)"
       id="path2993"
       inkscape:connector-curvature="0" />
    <path
       d="m 258.61,313.26 c 0,0 -12.773,-11.173 -34.38,-20.648 -21.607,-9.4754 -42.126,-12.902 -42.126,-12.902 0,0 25.615,17.148 48.548,44.718 22.933,27.57 36.155,57.112 36.155,57.112 0,0 20.097,-59.707 44.58,-106.86 24.483,-47.153 61.621,-89.044 61.621,-89.044 0,0 -41.079,26.703 -70.367,61.876 -29.289,35.174 -44.031,65.75 -44.031,65.75 z"
       style="display:inline;fill:url(#linearGradient3924);filter:url(#filter3940)"
       id="rect3912"
       inkscape:connector-curvature="0" />
    <path
       d="m 139.7,192.93 c 0,0 56.522,-33.624 125.49,-33.624 68.966,0 123.01,33.624 123.01,33.624 -102.79,149.04 -133.9,-5.6412 -248.5,0 z"
       style="display:inline;opacity:0.63500001;fill:url(#linearGradient3774)"
       id="path2998"
       inkscape:connector-curvature="0" />
    <path
       style="display:inline;opacity:0.33720003;fill:url(#linearGradient3778)"
       d="m 214.7,184.7 c 0,0 28.277,-16.822 62.78,-16.822 34.503,0 61.54,16.822 61.54,16.822 -51.424,74.563 -66.986,-2.8222 -124.32,0 z"
       id="path3776"
       inkscape:connector-curvature="0" />
    <path
       d="m 264.72,155.92 c -78.586,0 -126.03,38.498 -126.03,38.498 0,0 -3.317,84.174 31.293,147.32 34.469,62.892 94.742,102.39 94.742,102.39 0,0 60.273,-39.502 94.742,-102.39 34.61,-63.149 31.293,-147.32 31.293,-147.32 0,0 -47.449,-38.498 -126.03,-38.498 z m 0,4.7639 c 75.988,0 121.87,37.218 121.87,37.218 0,0 3.215,81.408 -30.251,142.47 -33.329,60.813 -91.615,98.999 -91.615,98.999 0,0 -58.286,-38.186 -91.615,-98.999 -33.466,-61.061 -30.251,-142.47 -30.251,-142.47 0,0 45.878,-37.218 121.87,-37.218 z"
       style="display:inline;fill:url(#linearGradient3791)"
       id="path3780"
       inkscape:connector-curvature="0" />
  </g>
</svg>
