<?xml version="1.0" encoding="UTF-8" standalone="no"?>
<svg
   xmlns:dc="http://purl.org/dc/elements/1.1/"
   xmlns:cc="http://creativecommons.org/ns#"
   xmlns:rdf="http://www.w3.org/1999/02/22-rdf-syntax-ns#"
   xmlns:svg="http://www.w3.org/2000/svg"
   xmlns="http://www.w3.org/2000/svg"
   xmlns:xlink="http://www.w3.org/1999/xlink"
   id="svg7936"
   version="1.1"
   viewBox="0 0 12.746302 12.746037"
   height="100%"
   width="100%">
  <defs
     id="defs7930">
    <linearGradient
       x1="348.14001"
       y1="673.07001"
       gradientTransform="rotate(180,267.365,399)"
       x2="348.14001"
       gradientUnits="userSpaceOnUse"
       y2="714.60999"
       id="linearGradient24969">
      <stop
         offset="0"
         style="stop-color:#FFFFFF"
         id="stop1577" />
      <stop
         offset=".0159"
         style="stop-color:#F7F7F7"
         id="stop1579" />
      <stop
         offset=".1324"
         style="stop-color:#BEBEBE"
         id="stop1581" />
      <stop
         offset=".2522"
         style="stop-color:#8B8B8B"
         id="stop1583" />
      <stop
         offset=".3727"
         style="stop-color:#606060"
         id="stop1585" />
      <stop
         offset=".4941"
         style="stop-color:#3D3D3D"
         id="stop1587" />
      <stop
         offset=".6165"
         style="stop-color:#222222"
         id="stop1589" />
      <stop
         offset=".7404"
         style="stop-color:#0F0F0F"
         id="stop1591" />
      <stop
         offset=".867"
         style="stop-color:#040404"
         id="stop1593" />
      <stop
         offset="1"
         style="stop-color:#000000"
         id="stop1595" />
    </linearGradient>
    <linearGradient
       x1="186.73"
       y1="80.874001"
       gradientTransform="translate(86.423,89.624)"
       x2="186.73"
       gradientUnits="userSpaceOnUse"
       y2="127.05"
       id="linearGradient24971">
      <stop
         offset="0"
         style="stop-color:#FFFF00"
         id="stop1600" />
      <stop
         offset=".1047"
         style="stop-color:#FFEC00"
         id="stop1602" />
      <stop
         offset=".2571"
         style="stop-color:#FFD800"
         id="stop1604" />
      <stop
         offset=".4309"
         style="stop-color:#FFCA00"
         id="stop1606" />
      <stop
         offset=".6427"
         style="stop-color:#FFC200"
         id="stop1608" />
      <stop
         offset="1"
         style="stop-color:#FFBF00"
         id="stop1610" />
    </linearGradient>
    <linearGradient
       x1="189.60001"
       y1="379.31"
       x2="189.11"
       gradientUnits="userSpaceOnUse"
       xlink:href="#linearGradient16432"
       y2="356.03"
       id="linearGradient24929" />
    <linearGradient
       id="linearGradient16432">
      <stop
         offset="0"
         style="stop-color:#ffffff"
         id="stop16434" />
      <stop
         offset="1"
         style="stop-color:#ffdb6f;stop-opacity:0"
         id="stop16436" />
    </linearGradient>
    <linearGradient
       x1="189.60001"
       y1="379.31"
       x2="189.11"
       gradientUnits="userSpaceOnUse"
       xlink:href="#linearGradient16432"
       y2="360.23001"
       id="linearGradient24931" />
    <linearGradient
       y2="356.03"
       x2="189.11"
       y1="379.31"
       x1="189.60001"
       gradientUnits="userSpaceOnUse"
       id="linearGradient8271"
       xlink:href="#linearGradient16432" />
    <linearGradient
       y2="360.23001"
       x2="189.11"
       y1="379.31"
       x1="189.60001"
       gradientUnits="userSpaceOnUse"
       id="linearGradient8273"
       xlink:href="#linearGradient16432" />
  </defs>
  <metadata
     id="metadata7933">
    <rdf:RDF>
      <cc:Work
         rdf:about="">
        <dc:format>image/svg+xml</dc:format>
        <dc:type
           rdf:resource="http://purl.org/dc/dcmitype/StillImage" />
        <dc:title></dc:title>
      </cc:Work>
    </rdf:RDF>
  </metadata>
  <g
     transform="translate(-97.192321,-128.8421)"
     id="layer1">
    <g
       transform="matrix(0.26458333,0,0,0.26458333,31.332238,83.941515)"
       id="g18569">
      <path
         d="m 248.92,193.79 c 0,13.28 10.804,24.087 24.084,24.087 13.285,0 24.091,-10.808 24.091,-24.087 0,-13.281 -10.807,-24.087 -24.091,-24.087 -13.28,0 -24.084,10.805 -24.084,24.087 z"
         style="fill:#ff8000"
         id="path1570" />
      <g
         transform="translate(86.423,89.624)"
         style="opacity:0.7"
         id="g1572">
        <g
           id="g1574">
          <path
             d="m 186.59,84.289 c 11.423,0 20.7,8.857 20.95,19.871 0.003,-0.151 0.023,-0.299 0.023,-0.451 0,-11.221 -9.394,-20.318 -20.974,-20.318 -11.586,0 -20.979,9.097 -20.979,20.318 0,0.152 0.02,0.3 0.023,0.451 0.252,-11.014 9.528,-19.871 20.957,-19.871 z"
             style="fill:url(#linearGradient24969)"
             id="path1597" />
        </g>
      </g>
      <path
         d="m 296.25,193.59 c 0,12.748 -10.338,23.088 -23.09,23.088 -12.752,0 -23.087,-10.34 -23.087,-23.088 0,-12.755 10.335,-23.091 23.087,-23.091 12.752,0 23.09,10.336 23.09,23.091 z"
         style="fill:url(#linearGradient24971)"
         id="path1612" />
      <path
         d="m 272.88,213.6 c -5.551,0 -13.131,-2.584 -18.04,-8.221 3.917,5.776 10.541,9.573 18.04,9.573 8.192,0 15.314,-4.518 19.042,-11.193 -4.242,5.921 -11.416,9.841 -19.042,9.841 z"
         style="opacity:0.4;fill:#ffffff"
         id="path1614" />
      <path
         d="m 272.98,173.22 c 6.712,0 13.055,3.279 16.868,8.26 -3.354,-5.63 -9.652,-9.423 -16.868,-9.423 -7.221,0 -13.516,3.801 -16.871,9.431 3.814,-4.987 10.158,-8.268 16.871,-8.268 z"
         style="opacity:0.7;fill:#ffffff"
         id="path1616" />
      <g
         transform="translate(86.423,89.624)"
         id="g1664">
        <path
           d="m 177.7,109.97 h 21.816 c 1.665,0 2.257,-1.096 2.257,-2.03 v -6.26 c 0,-0.937 -0.592,-2.031 -2.257,-2.031 H 177.7"
           style="fill:#ff8000"
           id="path1666" />
        <path
           d="m 181.44,99.651 h -7.699 c -1.67,0 -2.261,1.095 -2.261,2.031 v 6.26 c 0,0.935 0.591,2.03 2.261,2.03 h 7.699"
           style="fill:#ff8000"
           id="path1668" />
        <path
           d="m 182.56,108.85 h -8.82 c -0.742,0 -1.143,-0.283 -1.143,-0.909 v -6.26 c 0,-0.627 0.401,-0.913 1.143,-0.913 h 8.82 m -5.973,0 h 22.934 c 0.74,0 1.138,0.286 1.138,0.913 v 6.26 c 0,0.626 -0.398,0.909 -1.138,0.909 h -22.934"
           style="fill:#ffffff"
           id="path1670" />
      </g>
      <g
         transform="translate(83.614,-166.59)"
         style="opacity:0.5"
         id="g17734">
        <path
           style="fill:url(#linearGradient8271)"
           d="m 209.16,362.09 c -5.568,-4.692 -12.058,-6.06 -19.863,-6.06 -7.902,0 -14.475,1.263 -20.07,5.93 2.335,9.222 10.033,17.985 19.985,17.985 9.903,0 17.56,-8.699 19.948,-17.855 z"
           id="path17756" />
        <path
           d="m 209.16,362.09 c -5.568,-4.692 -12.058,-6.06 -19.863,-6.06 -7.902,0 -14.475,1.263 -20.07,5.93 2.335,9.222 10.033,17.985 19.985,17.985 9.903,0 17.56,-8.699 19.948,-17.855 z"
           style="fill:url(#linearGradient8273)"
           id="path17758" />
      </g>
      <g
         transform="matrix(1,0,0,-1,83.614,551.71)"
         style="opacity:0.5"
         id="g17760">
        <path
           d="m 209.16,362.09 c -5.568,-4.692 -12.058,-6.06 -19.863,-6.06 -7.902,0 -14.475,1.263 -20.07,5.93 2.335,9.222 10.033,17.985 19.985,17.985 9.903,0 17.56,-8.699 19.948,-17.855 z"
           style="fill:url(#linearGradient24929)"
           id="path17782" />
        <path
           d="m 209.16,362.09 c -5.568,-4.692 -12.058,-6.06 -19.863,-6.06 -7.902,0 -14.475,1.263 -20.07,5.93 2.335,9.222 10.033,17.985 19.985,17.985 9.903,0 17.56,-8.699 19.948,-17.855 z"
           style="fill:url(#linearGradient24931)"
           id="path17784" />
      </g>
    </g>
  </g>
</svg>
