<?xml version="1.0" encoding="UTF-8" standalone="no"?>
<svg
   xmlns:dc="http://purl.org/dc/elements/1.1/"
   xmlns:cc="http://creativecommons.org/ns#"
   xmlns:rdf="http://www.w3.org/1999/02/22-rdf-syntax-ns#"
   xmlns:svg="http://www.w3.org/2000/svg"
   xmlns="http://www.w3.org/2000/svg"
   xmlns:xlink="http://www.w3.org/1999/xlink"
   viewBox="0 0 48 44.610485"
   version="1.1"
   id="svg52"
   width="100%"
   height="100%">
  <metadata
     id="metadata56">
    <rdf:RDF>
      <cc:Work
         rdf:about="">
        <dc:format>image/svg+xml</dc:format>
        <dc:type
           rdf:resource="http://purl.org/dc/dcmitype/StillImage" />
        <dc:title></dc:title>
      </cc:Work>
    </rdf:RDF>
  </metadata>
  <defs
     id="0">
    <linearGradient
       id="3">
      <stop
         id="Q"
         stop-color="#fff" />
      <stop
         id="R"
         offset="1"
         stop-color="#fff"
         stop-opacity="0" />
    </linearGradient>
    <linearGradient
       id="4">
      <stop
         id="S"
         stop-color="#fff"
         stop-opacity="0.8" />
      <stop
         id="T"
         offset="1"
         stop-color="#fff"
         stop-opacity="0" />
    </linearGradient>
    <linearGradient
       id="5">
      <stop
         id="U"
         stop-color="#2e3436" />
      <stop
         id="V"
         offset="1"
         stop-color="#2e3436"
         stop-opacity="0" />
    </linearGradient>
    <linearGradient
       id="6">
      <stop
         id="W"
         stop-color="#babdb6" />
      <stop
         id="X"
         offset="1"
         stop-color="#888a85" />
    </linearGradient>
    <linearGradient
       id="7">
      <stop
         id="Y"
         stop-color="#eeeeec" />
      <stop
         id="Z"
         offset="1"
         stop-color="#d3d7cf" />
    </linearGradient>
    <linearGradient
       y1="4.6849999"
       x2="0"
       y2="16.316999"
       id="8"
       xlink:href="#6"
       gradientUnits="userSpaceOnUse" />
    <radialGradient
       cx="25.978001"
       cy="44.784"
       r="25.648001"
       id="9"
       xlink:href="#5"
       gradientUnits="userSpaceOnUse"
       gradientTransform="matrix(1,0,0,0.1189711,0,39.455735)" />
    <radialGradient
       cx="7.9510002"
       cy="12.07"
       r="20.813"
       id="A"
       xlink:href="#7"
       gradientUnits="userSpaceOnUse"
       gradientTransform="matrix(-0.3475935,2.1665084,-3.9268494,-0.6300222,57.705288,11.227585)" />
    <linearGradient
       y1="5.6560001"
       x2="0"
       y2="42.34"
       id="B"
       xlink:href="#4"
       gradientUnits="userSpaceOnUse" />
    <linearGradient
       x1="14.315"
       y1="-26.594999"
       x2="29.837999"
       y2="19.771"
       id="C"
       xlink:href="#3"
       gradientUnits="userSpaceOnUse" />
    <linearGradient
       x1="4.0939999"
       y1="-58.009998"
       x2="15.298"
       y2="33.905998"
       id="D"
       xlink:href="#G"
       gradientUnits="userSpaceOnUse"
       gradientTransform="translate(0.7063923,-1.4999995)" />
    <linearGradient
       y1="4.2189999"
       x2="0"
       y2="43.780998"
       id="E"
       xlink:href="#4"
       gradientUnits="userSpaceOnUse" />
    <radialGradient
       cx="24.377001"
       cy="45.941002"
       r="23.08"
       id="F"
       xlink:href="#5"
       gradientUnits="userSpaceOnUse"
       gradientTransform="matrix(1,0,0,0.1455399,0,39.255173)" />
    <linearGradient
       id="G">
      <stop
         id="a"
         stop-color="#eeeeec" />
      <stop
         id="b"
         offset="1"
         stop-color="#eeeeec"
         stop-opacity="0" />
    </linearGradient>
  </defs>
  <g
     transform="translate(-1.9448541e-7,-4.6849999)"
     id="1">
    <rect
       width="42.630001"
       height="37.630001"
       rx="3.043"
       x="2.6849999"
       y="5.1849999"
       id="H"
       fill="url(#8)"
       stroke="#555753"
       style="fill:url(#8)" />
    <path
       d="m 51.625748,44.783699 a 25.647936,3.051362 0 1 1 -51.29587205,0 25.647936,3.051362 0 1 1 51.29587205,0 z"
       transform="matrix(0.9357478,0,0,0.8804876,-0.3086805,3.7878206)"
       id="I"
       opacity="0.8"
       fill="url(#9)"
       style="fill:url(#9)" />
    <g
       transform="matrix(0.4072511,0,0,0.4072511,-5.9980116,0.7045118)"
       id="J"
       opacity="0.5"
       fill="#ffffff">
      <path
         d="m 105.22307,25.426434 c 0,2.29944 -1.99116,4.163505 -4.44738,4.163505 -2.45622,0 -4.44738,-1.864065 -4.44738,-4.163505 0,-2.29944 1.99116,-4.163505 4.44738,-4.163505 2.45622,0 4.44738,1.864065 4.44738,4.163505 z"
         transform="matrix(1.3491096,0,0,1.4410943,-25.112886,-7.9421993)"
         id="c" />
      <path
         d="m 105.22307,25.426434 c 0,2.29944 -1.99116,4.163505 -4.44738,4.163505 -2.45622,0 -4.44738,-1.864065 -4.44738,-4.163505 0,-2.29944 1.99116,-4.163505 4.44738,-4.163505 2.45622,0 4.44738,1.864065 4.44738,4.163505 z"
         transform="matrix(1.3491096,0,0,1.4410943,-38.712448,-7.9421993)"
         id="d" />
      <path
         d="m 105.22307,25.426434 c 0,2.29944 -1.99116,4.163505 -4.44738,4.163505 -2.45622,0 -4.44738,-1.864065 -4.44738,-4.163505 0,-2.29944 1.99116,-4.163505 4.44738,-4.163505 2.45622,0 4.44738,1.864065 4.44738,4.163505 z"
         transform="matrix(1.3491096,0,0,1.4410943,-52.312448,-7.9421993)"
         id="e" />
    </g>
    <g
       transform="matrix(0.4072511,0,0,0.4072511,-5.9980116,-0.2954881)"
       id="K">
      <path
         d="m 105.22307,25.426434 c 0,2.29944 -1.99116,4.163505 -4.44738,4.163505 -2.45622,0 -4.44738,-1.864065 -4.44738,-4.163505 0,-2.29944 1.99116,-4.163505 4.44738,-4.163505 2.45622,0 4.44738,1.864065 4.44738,4.163505 z"
         transform="matrix(1.3491096,0,0,1.4410943,-25.112886,-7.9421993)"
         id="f"
         fill="#2e3436" />
      <path
         d="m 105.22307,25.426434 c 0,2.29944 -1.99116,4.163505 -4.44738,4.163505 -2.45622,0 -4.44738,-1.864065 -4.44738,-4.163505 0,-2.29944 1.99116,-4.163505 4.44738,-4.163505 2.45622,0 4.44738,1.864065 4.44738,4.163505 z"
         transform="matrix(1.3491096,0,0,1.4410943,-38.712448,-7.9421993)"
         id="g"
         fill="#2e3436" />
      <path
         d="m 105.22307,25.426434 c 0,2.29944 -1.99116,4.163505 -4.44738,4.163505 -2.45622,0 -4.44738,-1.864065 -4.44738,-4.163505 0,-2.29944 1.99116,-4.163505 4.44738,-4.163505 2.45622,0 4.44738,1.864065 4.44738,4.163505 z"
         transform="matrix(1.3491096,0,0,1.4410943,-52.312448,-7.9421993)"
         id="h"
         fill="#2e3436" />
    </g>
    <path
       d="m 3.1875,16.625 v 23.15625 c 0,1.412963 1.1182879,2.53125 2.53125,2.53125 h 36.5625 c 1.412963,0 2.53125,-1.118287 2.53125,-2.53125 V 16.625 Z"
       id="L"
       fill="url(#A)"
       style="fill:url(#A)" />
    <path
       d="m 5.71875,6.15625 c -1.1645251,0 -2.0625,0.8979751 -2.0625,2.0625 v 31.5625 c 0,1.164526 0.897975,2.0625 2.0625,2.0625 h 36.5625 c 1.164526,0 2.0625,-0.897974 2.0625,-2.0625 V 8.21875 c 0,-1.1645253 -0.897974,-2.0625 -2.0625,-2.0625 z"
       id="M"
       opacity="0.8"
       fill="none"
       stroke="url(#B)"
       style="stroke:url(#B)" />
    <path
       d="m 5.71875,5.65625 c -1.4295372,0 -2.5625,1.132963 -2.5625,2.5625 v 6.8125 c 12.552343,-3.321292 26.890816,-5.0502927 41.6875,-6.25 v -0.5625 c 0,-1.4295373 -1.132962,-2.5625 -2.5625,-2.5625 z"
       id="N"
       opacity="0.6"
       fill="url(#C)"
       style="fill:url(#C)" />
  </g>
  <g
     transform="matrix(0.6716667,0,0,0.6716667,16.379998,13.377984)"
     id="2">
    <path
       d="m 47.453955,45.941494 a 23.076923,3.3586136 0 1 1 -46.153847,0 23.076923,3.3586136 0 1 1 46.153847,0 z"
       transform="translate(-0.3770313,-2.8001078)"
       id="O"
       opacity="0.8"
       fill="url(#F)"
       style="fill:url(#F)" />
    <g
       transform="translate(-0.7063923)"
       id="P">
      <rect
         width="42"
         height="42"
         x="3.7060001"
         y="1.5"
         id="i"
         fill="#445800"
         rx="6" />
      <path
         d="M 9,4.09375 C 6.2608771,4.09375 4.09375,6.2608771 4.09375,9 v 30 c 0,2.739123 2.1671271,4.90625 4.90625,4.90625 h 30 c 2.739123,0 4.90625,-2.167127 4.90625,-4.90625 V 9 C 43.90625,6.2608771 41.739123,4.09375 39,4.09375 Z"
         transform="translate(0.7063923,-1.4999995)"
         id="j"
         fill="#8bb300" />
      <path
         d="m 20.1875,9.3125 c -0.140663,-0.00164 -0.27553,0.05678 -0.375,0.15625 -0.09947,0.09947 -0.157892,0.2343372 -0.15625,0.375 V 17.4375 H 12.0625 c -0.01853,-9.88e-4 -0.04397,-9.88e-4 -0.0625,0 -0.271359,0.02583 -0.473139,0.2587 -0.46875,0.53125 v 9.0625 c -0.0016,0.140662 0.05678,0.27553 0.15625,0.375 0.09947,0.09947 0.234337,0.157892 0.375,0.15625 h 7.59375 v 7.59375 c -0.0016,0.140664 0.05678,0.27553 0.15625,0.375 0.09947,0.09947 0.234337,0.157892 0.375,0.15625 H 29.25 c 0.140663,0.0016 0.27553,-0.05678 0.375,-0.15625 0.09947,-0.09947 0.157892,-0.234337 0.15625,-0.375 V 27.5625 H 37.375 c 0.140664,0.0016 0.27553,-0.05678 0.375,-0.15625 0.09947,-0.09947 0.157892,-0.234337 0.15625,-0.375 v -9.0625 C 37.90785,17.828088 37.84947,17.69322 37.75,17.59375 37.65053,17.49428 37.515663,17.435858 37.375,17.4375 H 29.78125 V 9.84375 c 9.87e-4,-0.01853 9.88e-4,-0.043969 0,-0.0625 C 29.755421,9.5098908 29.52255,9.3081112 29.25,9.3125 Z"
         id="k"
         fill="#638000" />
      <path
         d="m 20.8125,10.4375 v 8.15625 h -8.15625 v 7.8125 h 8.15625 v 8.125 h 7.8125 v -8.125 h 8.125 v -7.8125 H 28.625 V 10.4375 Z"
         id="l"
         fill="#eeeeec" />
      <path
         d="M 9,4.71875 C 6.5943852,4.71875 4.71875,6.5943852 4.71875,9 v 30 c 0,2.405615 1.8756352,4.28125 4.28125,4.28125 h 30 c 2.405615,0 4.28125,-1.875635 4.28125,-4.28125 V 9 C 43.28125,6.5943852 41.405615,4.71875 39,4.71875 Z"
         transform="translate(0.7063923,-1.4999995)"
         id="m"
         opacity="0.8"
         fill="none"
         stroke="url(#E)"
         stroke-linecap="round"
         stroke-dashoffset="30"
         style="stroke:url(#E)" />
      <path
         d="m 9.7063923,2.5937505 c -2.7391229,0 -4.90625,2.1671271 -4.90625,4.90625 V 24.656251 C 16.88535,19.523108 30.480987,15.086728 44.612642,12.125001 V 7.5000005 c 0,-2.7391229 -2.167127,-4.90625 -4.90625,-4.90625 z"
         id="n"
         opacity="0.6"
         fill="url(#D)"
         style="fill:url(#D)" />
    </g>
  </g>
</svg>
