<?xml version="1.0" encoding="UTF-8" standalone="no"?>
<svg
   xmlns:dc="http://purl.org/dc/elements/1.1/"
   xmlns:cc="http://creativecommons.org/ns#"
   xmlns:rdf="http://www.w3.org/1999/02/22-rdf-syntax-ns#"
   xmlns:svg="http://www.w3.org/2000/svg"
   xmlns="http://www.w3.org/2000/svg"
   xmlns:xlink="http://www.w3.org/1999/xlink"
   id="svg9136"
   version="1.1"
   viewBox="0 0 12.872773 12.87436"
   height="100%"
   width="100%">
  <defs
     id="defs9130">
    <linearGradient
       x1="191.50999"
       y1="594.53998"
       gradientTransform="rotate(180,277.365,404)"
       x2="191.50999"
       gradientUnits="userSpaceOnUse"
       y2="636.5"
       id="linearGradient24937">
      <stop
         offset="0"
         style="stop-color:#FFFFFF"
         id="stop1915" />
      <stop
         offset=".0159"
         style="stop-color:#F7F7F7"
         id="stop1917" />
      <stop
         offset=".1324"
         style="stop-color:#BEBEBE"
         id="stop1919" />
      <stop
         offset=".2522"
         style="stop-color:#8B8B8B"
         id="stop1921" />
      <stop
         offset=".3727"
         style="stop-color:#606060"
         id="stop1923" />
      <stop
         offset=".4941"
         style="stop-color:#3D3D3D"
         id="stop1925" />
      <stop
         offset=".6165"
         style="stop-color:#222222"
         id="stop1927" />
      <stop
         offset=".7404"
         style="stop-color:#0F0F0F"
         id="stop1929" />
      <stop
         offset=".867"
         style="stop-color:#040404"
         id="stop1931" />
      <stop
         offset="1"
         style="stop-color:#000000"
         id="stop1933" />
    </linearGradient>
    <linearGradient
       x1="363.37"
       y1="168.96001"
       gradientTransform="translate(30.179,-24.692)"
       x2="363.37"
       gradientUnits="userSpaceOnUse"
       y2="215.60001"
       id="linearGradient24939">
      <stop
         offset="0"
         style="stop-color:#BFE10E"
         id="stop1938" />
      <stop
         offset=".1047"
         style="stop-color:#A0C911"
         id="stop1940" />
      <stop
         offset=".2571"
         style="stop-color:#81B013"
         id="stop1942" />
      <stop
         offset=".4309"
         style="stop-color:#6E9F14"
         id="stop1944" />
      <stop
         offset=".6427"
         style="stop-color:#639515"
         id="stop1946" />
      <stop
         offset="1"
         style="stop-color:#609315"
         id="stop1948" />
    </linearGradient>
    <linearGradient
       x1="189.60001"
       y1="379.31"
       x2="189.11"
       gradientUnits="userSpaceOnUse"
       xlink:href="#linearGradient16432"
       y2="356.03"
       id="linearGradient24929" />
    <linearGradient
       id="linearGradient16432">
      <stop
         offset="0"
         style="stop-color:#ffffff"
         id="stop16434" />
      <stop
         offset="1"
         style="stop-color:#ffdb6f;stop-opacity:0"
         id="stop16436" />
    </linearGradient>
    <linearGradient
       x1="189.60001"
       y1="379.31"
       gradientTransform="translate(-0.22863,-0.45726)"
       x2="189.11"
       gradientUnits="userSpaceOnUse"
       xlink:href="#linearGradient16432"
       y2="360.23001"
       id="linearGradient24943" />
    <linearGradient
       x1="189.60001"
       y1="379.31"
       x2="189.11"
       gradientUnits="userSpaceOnUse"
       xlink:href="#linearGradient16432"
       y2="360.23001"
       id="linearGradient24931" />
    <linearGradient
       y2="356.03"
       x2="189.11"
       y1="379.31"
       x1="189.60001"
       gradientUnits="userSpaceOnUse"
       id="linearGradient9469"
       xlink:href="#linearGradient16432" />
  </defs>
  <metadata
     id="metadata9133">
    <rdf:RDF>
      <cc:Work
         rdf:about="">
        <dc:format>image/svg+xml</dc:format>
        <dc:type
           rdf:resource="http://purl.org/dc/dcmitype/StillImage" />
        <dc:title></dc:title>
      </cc:Work>
    </rdf:RDF>
  </metadata>
  <g
     transform="translate(-96.373138,-124.98984)"
     id="layer1">
    <g
       transform="matrix(0.26458333,0,0,0.26458333,-1.2766321,87.033246)"
       id="g22054">
      <path
         d="m 369.07,167.79 c 0,13.41 10.912,24.327 24.326,24.327 13.416,0 24.327,-10.917 24.327,-24.327 0,-13.416 -10.911,-24.332 -24.327,-24.332 -13.414,0.001 -24.326,10.916 -24.326,24.332 z"
         style="fill:#004c1f"
         id="path1908" />
      <g
         transform="translate(30.179,-24.692)"
         style="opacity:0.7"
         id="g1910">
        <g
           id="g1912">
          <path
             d="m 363.22,172.41 c 11.539,0 20.907,8.947 21.16,20.068 0.003,-0.153 0.023,-0.301 0.023,-0.455 0,-11.332 -9.485,-20.52 -21.184,-20.52 -11.7,0 -21.187,9.188 -21.187,20.52 0,0.154 0.021,0.302 0.023,0.455 0.255,-11.122 9.624,-20.068 21.165,-20.068 z"
             style="fill:url(#linearGradient24937)"
             id="path1935" />
        </g>
      </g>
      <path
         d="m 416.87,167.59 c 0,12.874 -10.438,23.316 -23.318,23.316 -12.881,0 -23.317,-10.442 -23.317,-23.316 0,-12.88 10.437,-23.32 23.317,-23.32 12.879,-0.001 23.318,10.439 23.318,23.32 z"
         style="fill:url(#linearGradient24939)"
         id="path1950" />
      <path
         d="m 393.28,187.8 c -5.613,0 -13.269,-2.61 -18.221,-8.301 3.952,5.833 10.639,9.667 18.221,9.667 8.263,0 15.467,-4.566 19.229,-11.306 -4.285,5.982 -11.533,9.94 -19.229,9.94 z"
         style="opacity:0.4;fill:#ffffff"
         id="path1952" />
      <path
         d="m 393.37,147.02 c 6.78,0 13.188,3.31 17.036,8.341 -3.389,-5.686 -9.748,-9.517 -17.036,-9.517 -7.296,0 -13.651,3.839 -17.039,9.524 3.848,-5.035 10.257,-8.348 17.039,-8.348 z"
         style="opacity:0.7;fill:#ffffff"
         id="path1954" />
      <g
         transform="translate(30.179,-24.692)"
         id="g2002">
        <path
           d="m 359.63,207.1 c 1.221,-1.222 20.099,-19.349 20.099,-19.349 1.193,-1.191 0.834,-2.396 0.163,-3.066 l -4.469,-4.468 c -0.67,-0.671 -1.876,-1.026 -3.065,0.161 0,0 -11.417,11.42 -12.643,12.642 -1.221,-1.222 -5.534,-5.541 -5.534,-5.541 -1.191,-1.191 -2.396,-0.832 -3.064,-0.165 l -4.472,4.472 c -0.67,0.671 -1.027,1.873 0.165,3.066 0,0 4.314,4.315 5.536,5.538"
           style="fill:#609315"
           id="path2004" />
        <path
           d="m 379.04,185.16 -4.47,-4.472 c -0.448,-0.446 -0.938,-0.367 -1.465,0.162 l -13.44,13.439 -6.341,-6.34 c -0.528,-0.528 -1.014,-0.61 -1.463,-0.164 l -4.472,4.47 c -0.443,0.448 -0.365,0.938 0.169,1.464 l 12.017,12.021 19.299,-19.118 c 0.533,-0.528 0.61,-1.017 0.166,-1.462 z"
           style="fill:#ffffff"
           id="path2006" />
      </g>
      <g
         transform="translate(204.46,-191.53)"
         style="opacity:0.5"
         id="g17097">
        <path
           style="fill:url(#linearGradient9469)"
           d="m 209.16,362.09 c -5.568,-4.692 -12.058,-6.06 -19.863,-6.06 -7.902,0 -14.475,1.263 -20.07,5.93 2.335,9.222 10.033,17.985 19.985,17.985 9.903,0 17.56,-8.699 19.948,-17.855 z"
           id="path17119" />
        <path
           d="m 208.93,361.63 c -5.568,-4.692 -12.058,-6.06 -19.863,-6.06 -7.902,0 -14.475,1.263 -20.07,5.93 2.335,9.222 10.033,17.985 19.985,17.985 9.903,0 17.56,-8.699 19.948,-17.855 z"
           style="fill:url(#linearGradient24943)"
           id="path17121" />
      </g>
      <g
         transform="matrix(1,0,0,-1,204.23,526.31)"
         style="opacity:0.5"
         id="g17123">
        <path
           d="m 209.16,362.09 c -5.568,-4.692 -12.058,-6.06 -19.863,-6.06 -7.902,0 -14.475,1.263 -20.07,5.93 2.335,9.222 10.033,17.985 19.985,17.985 9.903,0 17.56,-8.699 19.948,-17.855 z"
           style="fill:url(#linearGradient24929)"
           id="path17145" />
        <path
           d="m 209.16,362.09 c -5.568,-4.692 -12.058,-6.06 -19.863,-6.06 -7.902,0 -14.475,1.263 -20.07,5.93 2.335,9.222 10.033,17.985 19.985,17.985 9.903,0 17.56,-8.699 19.948,-17.855 z"
           style="fill:url(#linearGradient24931)"
           id="path17147" />
      </g>
    </g>
  </g>
</svg>
