<?xml version="1.0" encoding="UTF-8" standalone="no"?>
<svg
        xmlns:dc="http://purl.org/dc/elements/1.1/"
        xmlns:cc="http://creativecommons.org/ns#"
        xmlns:rdf="http://www.w3.org/1999/02/22-rdf-syntax-ns#"
        xmlns:svg="http://www.w3.org/2000/svg"
        xmlns="http://www.w3.org/2000/svg"
        xmlns:xlink="http://www.w3.org/1999/xlink"
        id="svg8540"
        version="1.1"
        viewBox="0 0 12.861131 12.860867"
        height="100%"
        width="100%">
    <defs
            id="defs8534">
        <linearGradient
                x1="345.45999"
                y1="446.19"
                gradientTransform="rotate(180,267.365,414)"
                x2="345.45999"
                gradientUnits="userSpaceOnUse"
                y2="488.10001"
                id="linearGradient24949">
            <stop
                    offset="0"
                    style="stop-color:#FFFFFF"
                    id="stop6053"/>
            <stop
                    offset=".0159"
                    style="stop-color:#F7F7F7"
                    id="stop6055"/>
            <stop
                    offset=".1324"
                    style="stop-color:#BEBEBE"
                    id="stop6057"/>
            <stop
                    offset=".2522"
                    style="stop-color:#8B8B8B"
                    id="stop6059"/>
            <stop
                    offset=".3727"
                    style="stop-color:#606060"
                    id="stop6061"/>
            <stop
                    offset=".4941"
                    style="stop-color:#3D3D3D"
                    id="stop6063"/>
            <stop
                    offset=".6165"
                    style="stop-color:#222222"
                    id="stop6065"/>
            <stop
                    offset=".7404"
                    style="stop-color:#0F0F0F"
                    id="stop6067"/>
            <stop
                    offset=".867"
                    style="stop-color:#040404"
                    id="stop6069"/>
            <stop
                    offset="1"
                    style="stop-color:#000000"
                    id="stop6071"/>
        </linearGradient>
        <linearGradient
                x1="189.42"
                y1="337.35999"
                gradientTransform="translate(521.22,-179.77)"
                x2="189.42"
                gradientUnits="userSpaceOnUse"
                y2="383.95001"
                id="linearGradient24951">
            <stop
                    offset="0"
                    style="stop-color:#B3E2EE"
                    id="stop6076"/>
            <stop
                    offset=".0727"
                    style="stop-color:#8DBEDB"
                    id="stop6078"/>
            <stop
                    offset=".1592"
                    style="stop-color:#699DC9"
                    id="stop6080"/>
            <stop
                    offset=".253"
                    style="stop-color:#4B83BB"
                    id="stop6082"/>
            <stop
                    offset=".3538"
                    style="stop-color:#336FB1"
                    id="stop6084"/>
            <stop
                    offset=".4643"
                    style="stop-color:#2161AA"
                    id="stop6086"/>
            <stop
                    offset=".5897"
                    style="stop-color:#1657A5"
                    id="stop6088"/>
            <stop
                    offset=".7425"
                    style="stop-color:#0E52A2"
                    id="stop6090"/>
            <stop
                    offset="1"
                    style="stop-color:#0A51A1"
                    id="stop6092"/>
        </linearGradient>
        <linearGradient
                x1="189.60001"
                y1="379.31"
                x2="189.11"
                gradientUnits="userSpaceOnUse"
                xlink:href="#linearGradient16432"
                y2="356.03"
                id="linearGradient24929"/>
        <linearGradient
                id="linearGradient16432">
            <stop
                    offset="0"
                    style="stop-color:#ffffff"
                    id="stop16434"/>
            <stop
                    offset="1"
                    style="stop-color:#ffdb6f;stop-opacity:0"
                    id="stop16436"/>
        </linearGradient>
        <linearGradient
                x1="189.60001"
                y1="379.31"
                x2="189.11"
                gradientUnits="userSpaceOnUse"
                xlink:href="#linearGradient16432"
                y2="360.23001"
                id="linearGradient24931"/>
        <linearGradient
                y2="356.03"
                x2="189.11"
                y1="379.31"
                x1="189.60001"
                gradientUnits="userSpaceOnUse"
                id="linearGradient8911"
                xlink:href="#linearGradient16432"/>
        <linearGradient
                y2="360.23001"
                x2="189.11"
                y1="379.31"
                x1="189.60001"
                gradientUnits="userSpaceOnUse"
                id="linearGradient8913"
                xlink:href="#linearGradient16432"/>
        <linearGradient
                y2="356.03"
                x2="189.11"
                y1="379.31"
                x1="189.60001"
                gradientUnits="userSpaceOnUse"
                id="linearGradient8915"
                xlink:href="#linearGradient16432"/>
        <linearGradient
                y2="360.23001"
                x2="189.11"
                y1="379.31"
                x1="189.60001"
                gradientUnits="userSpaceOnUse"
                id="linearGradient8917"
                xlink:href="#linearGradient16432"/>
        <linearGradient
                y2="356.03"
                x2="189.11"
                y1="379.31"
                x1="189.60001"
                gradientUnits="userSpaceOnUse"
                id="linearGradient8919"
                xlink:href="#linearGradient16432"/>
        <linearGradient
                y2="360.23001"
                x2="189.11"
                y1="379.31"
                x1="189.60001"
                gradientUnits="userSpaceOnUse"
                id="linearGradient8921"
                xlink:href="#linearGradient16432"/>
    </defs>
    <metadata
            id="metadata8537">
        <rdf:RDF>
            <cc:Work
                    rdf:about="">
                <dc:format>image/svg+xml</dc:format>
                <dc:type
                        rdf:resource="http://purl.org/dc/dcmitype/StillImage"/>
                <dc:title></dc:title>
            </cc:Work>
        </rdf:RDF>
    </metadata>
    <g
            transform="translate(-100.16586,-124.93163)"
            id="layer1">
        <g
                transform="matrix(0.26458333,0,0,0.26458333,-81.385925,83.452372)"
                id="g19050">
            <path
                    style="fill:#0f298f"
                    d="m 686.18,181.08 c 0,13.398 10.903,24.3 24.303,24.3 13.401,0 24.306,-10.902 24.306,-24.3 0,-13.403 -10.904,-24.308 -24.306,-24.308 -13.399,0.001 -24.303,10.906 -24.303,24.308 z"
                    id="path6046"/>
            <g
                    transform="translate(521.22,-179.77)"
                    style="opacity:0.7"
                    id="g6048">
                <g
                        id="g6050">
                    <path
                            style="fill:url(#linearGradient24949)"
                            d="m 189.27,340.8 c 11.526,0 20.888,8.94 21.141,20.049 0.004,-0.153 0.024,-0.301 0.024,-0.455 0,-11.322 -9.479,-20.501 -21.165,-20.501 -11.688,0 -21.163,9.179 -21.163,20.501 0,0.154 0.02,0.302 0.024,0.455 0.252,-11.108 9.609,-20.049 21.139,-20.049 z"
                            id="path6073"/>
                </g>
            </g>
            <path
                    style="fill:url(#linearGradient24951)"
                    d="m 733.93,180.88 c 0,12.861 -10.431,23.294 -23.295,23.294 -12.868,0 -23.293,-10.433 -23.293,-23.294 0,-12.868 10.425,-23.295 23.293,-23.295 12.864,-0.001 23.295,10.427 23.295,23.295 z"
                    id="path6094"/>
            <path
                    style="opacity:0.4;fill:#ffffff"
                    d="m 710.36,201.07 c -5.607,0 -13.253,-2.606 -18.204,-8.293 3.952,5.827 10.631,9.658 18.204,9.658 8.256,0 15.45,-4.56 19.209,-11.295 -4.281,5.976 -11.52,9.93 -19.209,9.93 z"
                    id="path6096"/>
            <path
                    style="opacity:0.7;fill:#ffffff"
                    d="m 710.46,160.33 c 6.771,0 13.171,3.302 17.017,8.332 -3.381,-5.678 -9.732,-9.507 -17.017,-9.507 -7.284,0 -13.639,3.835 -17.022,9.517 3.847,-5.033 10.248,-8.342 17.022,-8.342 z"
                    id="path6098"/>
            <g
                    transform="translate(521.22,-178.48)"
                    style="opacity:0.5"
                    id="g6123">
                <path
                        style="fill:url(#linearGradient8911)"
                        d="m 209.16,362.09 c -5.568,-4.692 -12.058,-6.06 -19.863,-6.06 -7.902,0 -14.475,1.263 -20.07,5.93 2.335,9.222 10.033,17.985 19.985,17.985 9.903,0 17.56,-8.699 19.948,-17.855 z"
                        id="path6144"/>
                <path
                        d="m 209.16,362.09 c -5.568,-4.692 -12.058,-6.06 -19.863,-6.06 -7.902,0 -14.475,1.263 -20.07,5.93 2.335,9.222 10.033,17.985 19.985,17.985 9.903,0 17.56,-8.699 19.948,-17.855 z"
                        style="fill:url(#linearGradient8913)"
                        id="path16638"/>
            </g>
            <g
                    transform="translate(522.19,-179.77)"
                    id="g6146">
                <path
                        style="fill:#0f298f"
                        d="m 179.36,372.78 c 0,0.926 0.627,1.55 1.552,1.55 h 8.225 c 0.771,0 1.45,-0.268 1.955,-0.771 l 11.424,-10.398 c 0.51,-0.472 1.194,-1.218 1.194,-2.278 0,-0.816 -0.403,-1.599 -1.194,-2.324 l -11.46,-10.383 c -0.591,-0.52 -1.253,-0.79 -1.919,-0.79 h -8.225 c -0.925,0 -1.552,0.626 -1.552,1.552"
                        id="path6148"/>
                <path
                        style="fill:#ffffff"
                        d="m 180.32,348.94 c 0,-0.392 0.197,-0.588 0.588,-0.588 h 8.225 c 0.439,0 0.881,0.196 1.271,0.54 l 11.457,10.378 c 0.585,0.536 0.881,1.075 0.881,1.615 0,0.541 -0.296,1.029 -0.881,1.568 l -11.457,10.425 c -0.341,0.345 -0.78,0.491 -1.271,0.491 h -8.225 c -0.391,0 -0.588,-0.196 -0.588,-0.587"
                        id="path6150"/>
            </g>
            <g
                    transform="matrix(1,0,0,-1,521.22,539.82)"
                    style="opacity:0.5"
                    id="g16674">
                <path
                        d="m 209.16,362.09 c -5.568,-4.692 -12.058,-6.06 -19.863,-6.06 -7.902,0 -14.475,1.263 -20.07,5.93 2.335,9.222 10.033,17.985 19.985,17.985 9.903,0 17.56,-8.699 19.948,-17.855 z"
                        style="fill:url(#linearGradient8915)"
                        id="path16696"/>
                <path
                        d="m 209.16,362.09 c -5.568,-4.692 -12.058,-6.06 -19.863,-6.06 -7.902,0 -14.475,1.263 -20.07,5.93 2.335,9.222 10.033,17.985 19.985,17.985 9.903,0 17.56,-8.699 19.948,-17.855 z"
                        style="fill:url(#linearGradient8917)"
                        id="path16698"/>
            </g>
            <g
                    transform="translate(521.22,-178.48)"
                    style="opacity:0.5"
                    id="g17336">
                <path
                        d="m 209.16,362.09 c -5.568,-4.692 -12.058,-6.06 -19.863,-6.06 -7.902,0 -14.475,1.263 -20.07,5.93 2.335,9.222 10.033,17.985 19.985,17.985 9.903,0 17.56,-8.699 19.948,-17.855 z"
                        style="fill:url(#linearGradient8919)"
                        id="path17358"/>
                <path
                        d="m 209.16,362.09 c -5.568,-4.692 -12.058,-6.06 -19.863,-6.06 -7.902,0 -14.475,1.263 -20.07,5.93 2.335,9.222 10.033,17.985 19.985,17.985 9.903,0 17.56,-8.699 19.948,-17.855 z"
                        style="fill:url(#linearGradient8921)"
                        id="path17360"/>
            </g>
            <g
                    transform="matrix(1,0,0,-1,521.22,539.82)"
                    style="opacity:0.5"
                    id="g17688">
                <path
                        style="fill:url(#linearGradient24929)"
                        d="m 209.16,362.09 c -5.568,-4.692 -12.058,-6.06 -19.863,-6.06 -7.902,0 -14.475,1.263 -20.07,5.93 2.335,9.222 10.033,17.985 19.985,17.985 9.903,0 17.56,-8.699 19.948,-17.855 z"
                        id="path17710"/>
                <path
                        d="m 209.16,362.09 c -5.568,-4.692 -12.058,-6.06 -19.863,-6.06 -7.902,0 -14.475,1.263 -20.07,5.93 2.335,9.222 10.033,17.985 19.985,17.985 9.903,0 17.56,-8.699 19.948,-17.855 z"
                        style="fill:url(#linearGradient24931)"
                        id="path17712"/>
            </g>
        </g>
    </g>
</svg>
