<?xml version="1.0" encoding="UTF-8" standalone="no"?>
<svg
   xmlns:dc="http://purl.org/dc/elements/1.1/"
   xmlns:cc="http://creativecommons.org/ns#"
   xmlns:rdf="http://www.w3.org/1999/02/22-rdf-syntax-ns#"
   xmlns:svg="http://www.w3.org/2000/svg"
   xmlns="http://www.w3.org/2000/svg"
   height="100%"
   width="100%"
   version="1.1"
   viewBox="0 0 168.30653 136.90846"
   id="svg4888">
  <defs
     id="defs4890">
    <linearGradient
       x1="255.32001"
       x2="300.26999"
       gradientTransform="matrix(0.28738,0,0,0.28738,-571.76,-2.3895)"
       y1="286.67001"
       gradientUnits="userSpaceOnUse"
       y2="338.82001"
       id="linearGradient3659">
      <stop
         offset="0"
         style="stop-color:#ffffff"
         id="stop4150" />
      <stop
         offset="1"
         style="stop-color:#ffffff;stop-opacity:0"
         id="stop4152" />
    </linearGradient>
    <filter
       style="color-interpolation-filters:sRGB"
       id="filter5621">
      <feGaussianBlur
         stdDeviation="0.28167629"
         id="feGaussianBlur5623" />
    </filter>
  </defs>
  <g
     transform="translate(-111.85782,-801.21791)"
     id="layer1">
    <g
       style="fill:#000000"
       id="text11467">
      <g
         transform="translate(-6,5)"
         id="g7066">
        <g
           transform="matrix(8.7102,0,0,8.7102,4443.9,70.152)"
           id="g5779">
          <g
             transform="translate(50)"
             id="g5629">
            <path
               d="m -535.81,84.668 c -0.46509,0 -0.93458,0.15397 -1.291,0.45756 l -0.0848,0.07224 c -0.71274,0.60718 -0.71273,1.5843 0,2.1915 l 4.4854,3.829 -4.4854,3.821 c -0.71274,0.60718 -0.71274,1.5843 0,2.1915 l 0.0848,0.08028 c 0.71275,0.60716 1.8598,0.60716 2.5725,0 l 5.7104,-4.8646 c 0.39352,-0.33523 0.5687,-0.78377 0.52768,-1.2202 3.1e-4,-0.0027 -2.9e-4,-0.0053 0,-0.008 -5.5e-4,-0.0055 6.3e-4,-0.01059 0,-0.01605 0.041,-0.43638 -0.13416,-0.88492 -0.52768,-1.2202 l -5.7104,-4.8565 c -0.35637,-0.30359 -0.81645,-0.45756 -1.2815,-0.45756 z"
               style="fill:#000000;filter:url(#filter5621)"
               id="path5631" />
            <path
               d="m -535.67,84.981 c -0.44289,0 -0.88998,0.14662 -1.2294,0.43572 l -0.0808,0.0688 c -0.67873,0.5782 -0.67872,1.5087 0,2.0869 l 4.2714,3.6463 -4.2714,3.6387 c -0.67873,0.57821 -0.67873,1.5087 0,2.0869 l 0.0808,0.07645 c 0.67874,0.57819 1.771,0.57819 2.4497,0 l 5.4379,-4.6324 c 0.37474,-0.31923 0.54156,-0.74637 0.5025,-1.1619 3e-4,-0.0026 -2.7e-4,-0.005 0,-0.0076 -5.2e-4,-0.0052 6e-4,-0.01008 0,-0.01529 0.0391,-0.41556 -0.12776,-0.8427 -0.5025,-1.1619 l -5.4379,-4.6248 c -0.33936,-0.2891 -0.77749,-0.43572 -1.2204,-0.43572 z"
               style="fill:#ffffff"
               id="path5633" />
          </g>
          <g
             transform="translate(42)"
             id="g5635">
            <path
               d="m -535.81,84.668 c -0.46509,0 -0.93458,0.15397 -1.291,0.45756 l -0.0848,0.07224 c -0.71274,0.60718 -0.71273,1.5843 0,2.1915 l 4.4854,3.829 -4.4854,3.821 c -0.71274,0.60718 -0.71274,1.5843 0,2.1915 l 0.0848,0.08028 c 0.71275,0.60716 1.8598,0.60716 2.5725,0 l 5.7104,-4.8646 c 0.39352,-0.33523 0.5687,-0.78377 0.52768,-1.2202 3.1e-4,-0.0027 -2.9e-4,-0.0053 0,-0.008 -5.5e-4,-0.0055 6.3e-4,-0.01059 0,-0.01605 0.041,-0.43638 -0.13416,-0.88492 -0.52768,-1.2202 l -5.7104,-4.8565 c -0.35637,-0.30359 -0.81645,-0.45756 -1.2815,-0.45756 z"
               style="fill:#000000;filter:url(#filter5621)"
               id="path5637" />
            <path
               d="m -535.67,84.981 c -0.44289,0 -0.88998,0.14662 -1.2294,0.43572 l -0.0808,0.0688 c -0.67873,0.5782 -0.67872,1.5087 0,2.0869 l 2.2252,1.899554 2.0462,1.746746 -4.2714,3.6387 c -0.67873,0.57821 -0.67873,1.5087 0,2.0869 l 0.0808,0.07645 c 0.67874,0.57819 1.771,0.57819 2.4497,0 l 5.4379,-4.6324 c 0.37474,-0.31923 0.54156,-0.74637 0.5025,-1.1619 3e-4,-0.0026 -2.7e-4,-0.005 0,-0.0076 -5.2e-4,-0.0052 6e-4,-0.01008 0,-0.01529 0.0391,-0.41556 -0.12776,-0.8427 -0.5025,-1.1619 l -5.4379,-4.6248 c -0.33936,-0.2891 -0.77749,-0.43572 -1.2204,-0.43572 z"
               style="fill:#ffffff"
               id="path5639" />
          </g>
        </g>
      </g>
    </g>
  </g>
  <metadata
     id="metadata37">
    <rdf:RDF>
      <cc:Work>
        <dc:format>image/svg+xml</dc:format>
        <dc:type
           rdf:resource="http://purl.org/dc/dcmitype/StillImage" />
        <cc:license
           rdf:resource="http://creativecommons.org/licenses/publicdomain/" />
        <dc:publisher>
          <cc:Agent
             rdf:about="http://openclipart.org/">
            <dc:title>Openclipart</dc:title>
          </cc:Agent>
        </dc:publisher>
        <dc:title></dc:title>
        <dc:date>2011-02-24T17:45:45</dc:date>
        <dc:description />
        <dc:source>https://openclipart.org/detail/122419/double-arrow-button-by-ricardomaia</dc:source>
        <dc:creator>
          <cc:Agent>
            <dc:title>ricardomaia</dc:title>
          </cc:Agent>
        </dc:creator>
        <dc:subject>
          <rdf:Bag>
            <rdf:li>arrow</rdf:li>
            <rdf:li>button</rdf:li>
            <rdf:li>circle</rdf:li>
            <rdf:li>round</rdf:li>
          </rdf:Bag>
        </dc:subject>
      </cc:Work>
      <cc:License
         rdf:about="http://creativecommons.org/licenses/publicdomain/">
        <cc:permits
           rdf:resource="http://creativecommons.org/ns#Reproduction" />
        <cc:permits
           rdf:resource="http://creativecommons.org/ns#Distribution" />
        <cc:permits
           rdf:resource="http://creativecommons.org/ns#DerivativeWorks" />
      </cc:License>
    </rdf:RDF>
  </metadata>
</svg>
