<?xml version="1.0" encoding="UTF-8" standalone="no"?>
<svg
        xmlns:dc="http://purl.org/dc/elements/1.1/"
        xmlns:cc="http://creativecommons.org/ns#"
        xmlns:rdf="http://www.w3.org/1999/02/22-rdf-syntax-ns#"
        xmlns:svg="http://www.w3.org/2000/svg"
        xmlns="http://www.w3.org/2000/svg"
        version="1.0"
        viewBox="0 0 32 32"
        id="svg2">
    <defs
            id="defs4">
        <linearGradient
                x1="-61.54"
                y1="-3.6558"
                gradientTransform="translate(66.577 9.6558)"
                x2="-40.597"
                gradientUnits="userSpaceOnUse"
                y2="15.362"
                id="linearGradient12771">
            <stop
                    offset="0"
                    stop-color="#ff2700"
                    id="stop12767"/>
            <stop
                    offset="1"
                    stop-color="#a00200"
                    id="stop12769"/>
        </linearGradient>
        <linearGradient
                x1="3.351"
                y1="3.8856"
                x2="28.43"
                gradientUnits="userSpaceOnUse"
                y2="27.278"
                id="linearGradient13664">
            <stop
                    offset="0"
                    stop-color="#fff"
                    id="stop13660"/>
            <stop
                    offset="1"
                    stop-color="#ebebeb"
                    id="stop13662"/>
        </linearGradient>
    </defs>
    <g
            id="layer1">
        <g
                transform="matrix(0.992,0,0,0.992,0.059356,0.011172)"
                id="g13674">
            <path
                    style="fill:url(#linearGradient13664);stroke:#8a0000;stroke-width:0.60000998;stroke-linejoin:round"
                    d="M 6.9911,0.41071 C 6.6037,0.45171 6.2385,0.59848 5.9598,0.87946 l -5,5.0312 c -0.743,0.7493 -0.61108,2.1001 0.2813,3 l 7.0312,7.0623 v 0.188 l -7.1562,7.093 c -0.89991,0.893 -1.0306,2.226 -0.28128,2.969 l 5.0625,4.969 c 0.7493,0.743 2.0689,0.642 2.9688,-0.25 l 7.1559,-7.125 7.188,7.25 c 0.892,0.9 2.226,1.03 2.969,0.281 l 5,-5.062 c 0.743,-0.75 0.611,-2.069 -0.282,-2.969 l -7.093,-7.156 v -0.063 l 7.218,-7.156 c 0.9,-0.8924 1.031,-2.1945 0.282,-2.9375 l -5.032,-5 c -0.749,-0.74305 -2.1,-0.61114 -3,0.2812 l -7.125,7.0938 h -0.062 L 8.92862,1.16066 C 8.37092,0.59825 7.63662,0.34235 6.99112,0.41067 Z"
                    id="rect11855"/>
            <path
                    style="fill:url(#linearGradient12771)"
                    d="M 7.1875,3.7803 C 7.0081,3.7608 6.8413,3.814 6.7187,3.9366 L 3.9375,6.7178 c -0.245,0.245 -0.1797,0.6953 0.125,1 L 12.344,15.999 4.0625,24.28 c -0.3047,0.305 -0.37,0.755 -0.125,1 l 2.7812,2.782 c 0.2451,0.245 0.6953,0.211 1,-0.094 L 16,19.687 l 8.281,8.281 c 0.305,0.305 0.755,0.339 1,0.094 l 2.781,-2.782 c 0.246,-0.245 0.18,-0.695 -0.124,-1 l -8.282,-8.281 8.282,-8.2812 c 0.304,-0.3047 0.37,-0.755 0.124,-1 L 25.281,3.9366 c -0.245,-0.2451 -0.695,-0.1798 -1,0.125 L 16,12.343 7.7187,4.0616 C 7.5664,3.9092 7.3669,3.7998 7.1875,3.7803 Z"
                    id="rect11874"/>
        </g>
    </g>
    <metadata
            id="metadata13">
        <rdf:RDF>
            <cc:Work>
                <dc:format>image/svg+xml</dc:format>
                <dc:type
                        rdf:resource="http://purl.org/dc/dcmitype/StillImage"/>
                <cc:license
                        rdf:resource="http://creativecommons.org/licenses/publicdomain/"/>
                <dc:publisher>
                    <cc:Agent
                            rdf:about="http://openclipart.org/">
                        <dc:title>Openclipart</dc:title>
                    </cc:Agent>
                </dc:publisher>
                <dc:title></dc:title>
                <dc:date>2006-11-27T02:35:43</dc:date>
                <dc:description>A red cancel icon</dc:description>
                <dc:source>http://openclipart.org/detail/1645/cancel-by-dagobert83</dc:source>
                <dc:creator>
                    <cc:Agent>
                        <dc:title>dagobert83</dc:title>
                    </cc:Agent>
                </dc:creator>
                <dc:subject>
                    <rdf:Bag>
                        <rdf:li>button</rdf:li>
                        <rdf:li>cancel</rdf:li>
                        <rdf:li>clip art</rdf:li>
                        <rdf:li>clipart</rdf:li>
                        <rdf:li>cross</rdf:li>
                        <rdf:li>delete</rdf:li>
                        <rdf:li>icon</rdf:li>
                        <rdf:li>image</rdf:li>
                        <rdf:li>media</rdf:li>
                        <rdf:li>negative</rdf:li>
                        <rdf:li>png</rdf:li>
                        <rdf:li>public domain</rdf:li>
                        <rdf:li>red</rdf:li>
                        <rdf:li>svg</rdf:li>
                    </rdf:Bag>
                </dc:subject>
            </cc:Work>
            <cc:License
                    rdf:about="http://creativecommons.org/licenses/publicdomain/">
                <cc:permits
                        rdf:resource="http://creativecommons.org/ns#Reproduction"/>
                <cc:permits
                        rdf:resource="http://creativecommons.org/ns#Distribution"/>
                <cc:permits
                        rdf:resource="http://creativecommons.org/ns#DerivativeWorks"/>
            </cc:License>
        </rdf:RDF>
    </metadata>
</svg>
