<?xml version="1.0" encoding="UTF-8" standalone="no"?>
<svg
        xmlns:dc="http://purl.org/dc/elements/1.1/"
        xmlns:cc="http://creativecommons.org/ns#"
        xmlns:rdf="http://www.w3.org/1999/02/22-rdf-syntax-ns#"
        xmlns:svg="http://www.w3.org/2000/svg"
        xmlns="http://www.w3.org/2000/svg"
        xmlns:xlink="http://www.w3.org/1999/xlink"
        id="svg5816"
        viewBox="0 0 47.955219 48.794605"
        version="1.1"
        width="100%"
        height="100%">
    <defs
            id="defs3">
        <linearGradient
                id="linearGradient5048">
            <stop
                    id="stop5050"
                    style="stop-color:black;stop-opacity:0"
                    offset="0"/>
            <stop
                    id="stop5056"
                    style="stop-color:black"
                    offset=".5"/>
            <stop
                    id="stop5052"
                    style="stop-color:black;stop-opacity:0"
                    offset="1"/>
        </linearGradient>
        <linearGradient
                id="linearGradient5476">
            <stop
                    id="stop5478"
                    style="stop-color:#ffffff"
                    offset="0"/>
            <stop
                    id="stop5480"
                    style="stop-color:#ffffff;stop-opacity:0"
                    offset="1"/>
        </linearGradient>
        <linearGradient
                id="linearGradient2624">
            <stop
                    id="stop2626"
                    style="stop-color:#dfe0df"
                    offset="0"/>
            <stop
                    id="stop2630"
                    style="stop-color:#a6b0a6"
                    offset=".23810"/>
            <stop
                    id="stop2628"
                    style="stop-color:#b5beb5"
                    offset="1"/>
        </linearGradient>
        <linearGradient
                id="linearGradient2274">
            <stop
                    id="stop2276"
                    style="stop-color:#000000;stop-opacity:.12871"
                    offset="0"/>
            <stop
                    id="stop2278"
                    style="stop-color:#000000;stop-opacity:0"
                    offset="1"/>
        </linearGradient>
        <linearGradient
                id="linearGradient9749">
            <stop
                    id="stop9751"
                    style="stop-color:#ffffff"
                    offset="0"/>
            <stop
                    id="stop9753"
                    style="stop-color:#ededed"
                    offset="1"/>
        </linearGradient>
        <linearGradient
                id="linearGradient15107">
            <stop
                    id="stop15109"
                    style="stop-color:#ffffff"
                    offset="0"/>
            <stop
                    id="stop15111"
                    style="stop-color:#e2e2e2"
                    offset="1"/>
        </linearGradient>
        <linearGradient
                id="linearGradient1483"
                y2="26.023001"
                xlink:href="#linearGradient15107"
                gradientUnits="userSpaceOnUse"
                x2="18.475"
                gradientTransform="matrix(1.3577,0,0,1.5058,2.8429,-2.266)"
                y1="4.7462001"
                x1="11.573"/>
        <linearGradient
                id="linearGradient1487"
                y2="52.091"
                xlink:href="#linearGradient2624"
                gradientUnits="userSpaceOnUse"
                x2="9.8855"
                gradientTransform="matrix(2.4548,0,0,0.762,2.8818,0.33739)"
                y1="38.070999"
                x1="9.1643"/>
        <linearGradient
                id="linearGradient1497"
                y2="11.982"
                xlink:href="#linearGradient15107"
                gradientUnits="userSpaceOnUse"
                x2="13.847"
                gradientTransform="matrix(1.296,0,0,-1.4369,3.7466,33.205)"
                y1="11.485"
                x1="11.742"/>
        <linearGradient
                id="linearGradient1501"
                y2="-7.5275002"
                xlink:href="#linearGradient15107"
                gradientUnits="userSpaceOnUse"
                x2="17.177999"
                gradientTransform="matrix(1.5706,0,0,-1.2315,2.9734,33.335)"
                y1="20.219999"
                x1="10.027"/>
        <linearGradient
                id="linearGradient1503"
                y2="7.4120998"
                xlink:href="#linearGradient9749"
                gradientUnits="userSpaceOnUse"
                x2="40.023998"
                gradientTransform="matrix(1.3709,0,0,-1.4646,2.5251,33.713)"
                y1="4.2507"
                x1="11.842"/>
        <linearGradient
                id="linearGradient5528"
                y2="46.062"
                xlink:href="#linearGradient5476"
                gradientUnits="userSpaceOnUse"
                x2="29.478001"
                gradientTransform="matrix(-0.9018,0.21082,-0.21162,-0.89879,63.541,37.874)"
                y1="2.8703001"
                x1="25.950001"/>
        <linearGradient
                id="linearGradient5530"
                y2="2.8164001"
                gradientUnits="userSpaceOnUse"
                x2="21.587"
                gradientTransform="matrix(1.1069,-0.2584,0.25975,1.1017,-19.667,12.198)"
                y1="23.499001"
                x1="21.587">
            <stop
                    id="stop5466"
                    style="stop-color:#729fcf"
                    offset="0"/>
            <stop
                    id="stop5468"
                    style="stop-color:#afc9e4"
                    offset="1"/>
        </linearGradient>
        <linearGradient
                id="linearGradient5532"
                y2="46.062"
                xlink:href="#linearGradient5476"
                gradientUnits="userSpaceOnUse"
                x2="29.478001"
                gradientTransform="matrix(1.1069,-0.2584,0.25975,1.1017,-19.667,12.198)"
                y1="2.8703001"
                x1="25.950001"/>
        <linearGradient
                xlink:href="#linearGradient15107"
                id="linearGradient79"
                gradientUnits="userSpaceOnUse"
                gradientTransform="matrix(1.3577,0,0,1.5058,2.8429,-2.266)"
                x1="11.573"
                y1="4.7462001"
                x2="18.475"
                y2="26.023001"/>
        <linearGradient
                xlink:href="#linearGradient2624"
                id="linearGradient81"
                gradientUnits="userSpaceOnUse"
                gradientTransform="matrix(2.4548,0,0,0.762,2.8818,0.33739)"
                x1="9.1643"
                y1="38.070999"
                x2="9.8855"
                y2="52.091"/>
        <linearGradient
                xlink:href="#linearGradient15107"
                id="linearGradient83"
                gradientUnits="userSpaceOnUse"
                gradientTransform="matrix(1.296,0,0,-1.4369,3.7466,33.205)"
                x1="11.742"
                y1="11.485"
                x2="13.847"
                y2="11.982"/>
        <linearGradient
                xlink:href="#linearGradient15107"
                id="linearGradient85"
                gradientUnits="userSpaceOnUse"
                gradientTransform="matrix(1.5706,0,0,-1.2315,2.9734,33.335)"
                x1="10.027"
                y1="20.219999"
                x2="17.177999"
                y2="-7.5275002"/>
    </defs>
    <g
            id="layer1"
            transform="translate(-0.29149583,0.57371068)">
        <g
                id="g5520"
                transform="matrix(1.0875,0,0,1.0875,-3.0105,-3.6441)"
                style="display:inline">
            <path
                    id="path4589"
                    style="color:#000000;display:inline;fill:#386ea7;stroke:#173563;stroke-width:0.91954"
                    d="M 46.485,19.162 41.681,15.25 31.215,28.014 28.013,25.406 21.334,46.576 39.22,34.533 36.018,31.925 Z"/>
            <path
                    id="path5484"
                    style="color:#000000;display:inline;opacity:0.57143;fill:none;stroke:url(#linearGradient5528);stroke-width:0.91954"
                    d="m 45.089,19.24 -3.318,-2.773 -10.474,12.808 -2.86,-2.34 -5.444,17.222 14.632,-9.761 -2.999,-2.392 z"/>
        </g>
        <g
                id="g2570"
                transform="matrix(0.72534,0,0,0.72421,12.811,-4.6048)"
                style="display:inline">
            <path
                    id="path12723"
                    style="display:inline;fill:url(#linearGradient79);fill-rule:evenodd;stroke:#888a85;stroke-width:1.3797;stroke-linejoin:round"
                    d="m 6.3437,15.455 v 25.987 h 37.359 l -0.063,-25.888 v -0.033 c -10e-4,-0.006 0.001,-0.026 0,-0.033 -0.002,-0.007 -0.03,-0.026 -0.032,-0.033 z"/>
            <path
                    id="path1634"
                    style="display:inline;fill:url(#linearGradient81);fill-rule:evenodd"
                    d="M 20.491,29.059 7.095,40.031 21.004,30.426 h 9.018 l 12.419,9.483 -11.864,-10.85 z"/>
            <path
                    id="path1613"
                    style="display:inline;fill:url(#linearGradient83);fill-rule:evenodd;stroke:#989898;stroke-width:1.1819;stroke-linejoin:round"
                    d="M 20.775,31.085 C 18.407,30.694 7.945,18.619 7.119,16.517 7.1093,16.492 7.0947,16.444 7.0884,16.422 h 35.543 c -0.824,2.193 -11.299,14.464 -13.445,14.663 -0.009,10e-4 -0.022,0 -0.031,0 h -8.26 c -0.034,0 -0.081,0.007 -0.12,0 z"/>
            <path
                    id="path18153"
                    style="display:inline;fill:url(#linearGradient85);fill-rule:evenodd"
                    d="M 20.625,30.49 C 18.519,30 7.723,17.988 7.031,16.466 7.0289,16.46 7.0336,16.44 7.0314,16.434 7.026,16.418 7.0023,16.382 7.0002,16.369 c 0,-0.003 -4e-4,-0.029 0,-0.032 0.0011,-0.002 0.0297,0.002 0.0312,0 L 7.1252,16.24 h 35.469 c -0.003,0.025 -0.023,0.067 -0.031,0.097 -0.008,0.024 -0.021,0.07 -0.032,0.097 -0.922,2.181 -11.508,13.767 -13.343,14.056 -0.015,0.002 -0.049,0 -0.063,0 h -8.375 c -0.03,-10e-4 -0.09,0.009 -0.125,0 z"/>
        </g>
        <g
                id="g5488"
                transform="matrix(0.72534,0,0,0.72421,2.9112,4.5876)"
                style="display:inline">
            <path
                    id="path5490"
                    style="display:inline;fill:url(#linearGradient1483);fill-rule:evenodd;stroke:#888a85;stroke-width:1.3797;stroke-linejoin:round"
                    d="m 6.3437,15.455 v 25.987 h 37.359 l -0.063,-25.888 v -0.033 c -10e-4,-0.006 0.001,-0.026 0,-0.033 -0.002,-0.007 -0.03,-0.026 -0.032,-0.033 z"/>
            <path
                    id="path5492"
                    style="display:inline;fill:url(#linearGradient1487);fill-rule:evenodd"
                    d="M 20.491,29.059 7.095,40.031 21.004,30.426 h 9.018 l 12.419,9.483 -11.864,-10.85 z"/>
            <path
                    id="path5498"
                    style="display:inline;fill:url(#linearGradient1497);fill-rule:evenodd;stroke:#989898;stroke-width:1.1819;stroke-linejoin:round"
                    d="M 20.775,31.085 C 18.407,30.694 7.945,18.619 7.119,16.517 7.1093,16.492 7.0947,16.444 7.0884,16.422 h 35.543 c -0.824,2.193 -11.299,14.464 -13.445,14.663 -0.009,10e-4 -0.022,0 -0.031,0 h -8.26 c -0.034,0 -0.081,0.007 -0.12,0 z"/>
            <path
                    id="path5500"
                    style="display:inline;fill:url(#linearGradient1501);fill-rule:evenodd"
                    d="M 20.625,30.49 C 18.519,30 7.723,17.988 7.031,16.466 7.0289,16.46 7.0336,16.44 7.0314,16.434 7.026,16.418 7.0023,16.382 7.0002,16.369 c 0,-0.003 -4e-4,-0.029 0,-0.032 0.0011,-0.002 0.0297,0.002 0.0312,0 L 7.1252,16.24 h 35.469 c -0.003,0.025 -0.023,0.067 -0.031,0.097 -0.008,0.024 -0.021,0.07 -0.032,0.097 -0.922,2.181 -11.508,13.767 -13.343,14.056 -0.015,0.002 -0.049,0 -0.063,0 h -8.375 c -0.03,-10e-4 -0.09,0.009 -0.125,0 z"/>
            <path
                    id="path5502"
                    style="display:inline;fill:none;stroke:url(#linearGradient1503);stroke-width:1.1819"
                    d="M 20.875,30.051 C 18.427,29.502 8.704,18.434 7.531,16.452 h 34.594 c -1.49,2.333 -11.046,13.412 -13.156,13.599 -0.009,0.001 -0.023,0 -0.031,0 h -7.907 c -0.026,0 -0.064,0.004 -0.093,0 -0.02,-0.003 -0.042,0.005 -0.063,0 z"/>
        </g>
        <g
                id="g5524"
                transform="translate(0,-1)">
            <path
                    id="path4587"
                    style="color:#000000;display:inline;fill:url(#linearGradient5530);stroke:#3465a4"
                    d="m 1.3495,35.242 5.8956,4.795 12.847,-15.645 3.93,3.197 8.198,-25.95 -21.954,14.762 3.931,3.196 -12.848,15.645 z"/>
            <path
                    id="path5474"
                    style="color:#000000;display:inline;opacity:0.57143;fill:none;stroke:url(#linearGradient5532)"
                    d="m 2.9822,35.038 4.0727,3.4 12.856,-15.7 3.51,2.869 6.683,-21.11 -17.96,11.965 3.681,2.931 -12.843,15.645 z"/>
        </g>
    </g>
    <metadata
            id="metadata76">
        <rdf:RDF>
            <cc:Work>
                <dc:format>image/svg+xml</dc:format>
                <dc:type
                        rdf:resource="http://purl.org/dc/dcmitype/StillImage"/>
                <cc:license
                        rdf:resource="http://creativecommons.org/licenses/publicdomain/"/>
                <dc:publisher>
                    <cc:Agent
                            rdf:about="http://openclipart.org/">
                        <dc:title>Openclipart</dc:title>
                    </cc:Agent>
                </dc:publisher>
                <dc:title></dc:title>
                <dc:date>2010-03-26T08:13:52</dc:date>
                <dc:description>&quot;Mail send/receive&quot; icon from &lt;a href=&quot;http://tango.freedesktop.org/Tango_Desktop_Project&quot;&gt;
                    Tango Project &lt;/a&gt;
                    \n&lt;br&gt;&lt;br&gt;
                    \nSince version 0.8.90 Tango Project icons are Public Domain: &lt;a href=&quot;http://tango.freedesktop.org/Frequently_Asked_Questions#Terms_of_Use.3F&quot;&gt;
                    Tango Project FAQ &lt;/a&gt;
                </dc:description>
                <dc:source>https://openclipart.org/detail/34189/tango-mail-send-receive-by-warszawianka</dc:source>
                <dc:creator>
                    <cc:Agent>
                        <dc:title>warszawianka</dc:title>
                    </cc:Agent>
                </dc:creator>
                <dc:subject>
                    <rdf:Bag>
                        <rdf:li>email</rdf:li>
                        <rdf:li>envelope</rdf:li>
                        <rdf:li>externalsource</rdf:li>
                        <rdf:li>icon</rdf:li>
                        <rdf:li>mail</rdf:li>
                        <rdf:li>receive</rdf:li>
                        <rdf:li>send</rdf:li>
                        <rdf:li>tango</rdf:li>
                    </rdf:Bag>
                </dc:subject>
            </cc:Work>
            <cc:License
                    rdf:about="http://creativecommons.org/licenses/publicdomain/">
                <cc:permits
                        rdf:resource="http://creativecommons.org/ns#Reproduction"/>
                <cc:permits
                        rdf:resource="http://creativecommons.org/ns#Distribution"/>
                <cc:permits
                        rdf:resource="http://creativecommons.org/ns#DerivativeWorks"/>
            </cc:License>
        </rdf:RDF>
    </metadata>
</svg>
