<?xml version="1.0" encoding="UTF-8" standalone="no"?>
<svg
   xmlns:dc="http://purl.org/dc/elements/1.1/"
   xmlns:cc="http://creativecommons.org/ns#"
   xmlns:rdf="http://www.w3.org/1999/02/22-rdf-syntax-ns#"
   xmlns:svg="http://www.w3.org/2000/svg"
   xmlns="http://www.w3.org/2000/svg"
   xmlns:xlink="http://www.w3.org/1999/xlink"
   xmlns:sodipodi="http://sodipodi.sourceforge.net/DTD/sodipodi-0.dtd"
   xmlns:inkscape="http://www.inkscape.org/namespaces/inkscape"
   height="100%"
   width="100%"
   inkscape:version="1.0 (5b275a35d9, 2020-05-03)"
   inkscape:export-ydpi="20.969999"
   version="1.1"
   inkscape:export-xdpi="20.969999"
   viewBox="0 0 154.92979 177.06717"
   inkscape:export-filename="C:\Users\s2784503\Downloads\db.png"
   sodipodi:docname="db-blue.svg"
   id="svg5378">
  <sodipodi:namedview
     inkscape:document-rotation="0"
     inkscape:window-height="1009"
     inkscape:pageopacity="0"
     showgrid="false"
     inkscape:window-width="1850"
     inkscape:window-x="70"
     inkscape:window-y="34"
     inkscape:cy="91.648455"
     inkscape:cx="67.838764"
     inkscape:current-layer="layer1"
     borderopacity="1"
     objecttolerance="10"
     inkscape:zoom="4.1005484"
     inkscape:window-maximized="1"
     gridtolerance="10"
     pagecolor="#ffffff"
     guidetolerance="10"
     inkscape:pageshadow="2"
     bordercolor="#666666"
     id="namedview34" />
  <defs
     id="defs3">
    <filter
       color-interpolation-filters="sRGB"
       x="-0.064257003"
       y="-0.19277"
       width="1.1285"
       height="1.3855"
       id="filter6093-2">
      <feGaussianBlur
         stdDeviation="0.89250425"
         id="feGaussianBlur6095-1" />
    </filter>
    <linearGradient
       x1="282.35999"
       y1="518.56"
       x2="286.63"
       gradientUnits="userSpaceOnUse"
       y2="527.34003"
       id="linearGradient6112-8">
      <stop
         offset="0"
         style="stop-color:#0000e3"
         stop-color="#e3e3e3"
         id="stop5468-5" />
      <stop
         offset="1"
         style="stop-color:#3c95f2"
         stop-color="#a5a5a8"
         id="stop5470-7" />
    </linearGradient>
    <linearGradient
       id="linearGradient6035-8">
      <stop
         offset="0"
         style="stop-color:#00ffff"
         stop-color="#fff"
         id="stop6037-9" />
      <stop
         offset="1"
         style="stop-color:#4035ff;stop-opacity:0"
         stop-opacity="0"
         stop-color="#fff"
         id="stop6039-2" />
    </linearGradient>
    <linearGradient
       inkscape:collect="always"
       x1="269.97"
       y1="511.97"
       gradientTransform="matrix(4.9626,0,0,4.9626,-1329.1,-2435.9)"
       x2="286.63"
       gradientUnits="userSpaceOnUse"
       spreadMethod="reflect"
       xlink:href="#linearGradient6112-8"
       y2="511.97"
       id="linearGradient4347" />
    <linearGradient
       inkscape:collect="always"
       x1="282.35999"
       y1="518.56"
       gradientTransform="matrix(4.9626,0,0,4.9626,-1329.1,-2561.9)"
       x2="286.63"
       gradientUnits="userSpaceOnUse"
       xlink:href="#linearGradient6112-8"
       y2="527.34003"
       id="linearGradient4349" />
    <linearGradient
       inkscape:collect="always"
       x1="308.5"
       y1="522.60999"
       gradientTransform="matrix(4.1992,0,0,4.1992,-1200.4,-2143.4)"
       x2="327.78"
       gradientUnits="userSpaceOnUse"
       spreadMethod="reflect"
       xlink:href="#linearGradient6035-8"
       y2="520.33002"
       id="linearGradient4351" />
    <linearGradient
       inkscape:collect="always"
       x1="308.5"
       y1="522.60999"
       gradientTransform="matrix(4.1992,0,0,4.1992,-1200.4,-2096.3)"
       x2="327.78"
       gradientUnits="userSpaceOnUse"
       spreadMethod="reflect"
       xlink:href="#linearGradient6035-8"
       y2="520.33002"
       id="linearGradient4353" />
    <linearGradient
       inkscape:collect="always"
       x1="308.5"
       y1="522.60999"
       gradientTransform="matrix(4.1992,0,0,4.1992,-1200.4,-2052.1)"
       x2="327.78"
       gradientUnits="userSpaceOnUse"
       spreadMethod="reflect"
       xlink:href="#linearGradient6035-8"
       y2="520.33002"
       id="linearGradient4355" />
  </defs>
  <g
     transform="translate(-25.506236,-11.456545)"
     inkscape:groupmode="layer"
     inkscape:label="base"
     id="layer1">
    <g
       transform="translate(9.655,4.8777)"
       id="g4332">
      <g
         transform="translate(-0.30101,1.5852)"
         id="g4308">
        <g
           transform="matrix(0.93616,0,0,0.93616,6.2898,5.0339)"
           id="g3848">
          <path
             d="m 10.661,28.596 v 132.62 c 0,9.1229 36.989,24.318 82.674,24.318 45.685,0 82.413,-15.195 82.413,-24.318 0,-1.0447 0.2605,-132.62 0.2605,-132.62 h -165.34 z"
             inkscape:connector-curvature="0"
             sodipodi:nodetypes="ccscccc"
             style="fill:url(#linearGradient4347)"
             id="path5488" />
          <path
             d="m 176.03,27.528 c 0,15.227 -37.033,27.571 -82.717,27.571 -45.682,0 -82.717,-12.344 -82.717,-27.571 0,-15.227 37.033,-27.571 82.717,-27.571 45.682,0 82.717,12.344 82.717,27.571 z"
             inkscape:connector-curvature="0"
             style="fill:url(#linearGradient4349)"
             id="path5460" />
          <path
             d="m 10.535,27.924 c 0.61875,15.05 37.506,27.164 82.804,27.164 45.167,0 81.851,-12.042 82.674,-27.032 -0.90585,0.77051 -1.8509,1.4911 -2.887,2.2308 -0.0378,0.04913 -0.0907,0.0823 -0.13101,0.13102 -9.625,11.663 -41.587,20.209 -79.655,20.209 -38.305,0 -70.488,-8.6953 -79.915,-20.471 -0.10456,-0.07517 -0.15957,-0.18728 -0.26245,-0.26245 -0.91845,-0.67057 -1.8123,-1.2733 -2.6245,-1.9684 z"
             inkscape:connector-curvature="0"
             style="fill:url(#linearGradient4351)"
             id="path6030" />
          <path
             d="m 10.768,162.12 c 4.7283,13.731 40.084,26.979 82.55,26.979 42.08,0 77.112,-13.45 82.328,-27 -9.95,14.313 -46.206,23.326 -82.328,23.326 -36.314,0 -69.615,-8.7167 -82.55,-23.305 z"
             inkscape:connector-curvature="0"
             sodipodi:nodetypes="cscsc"
             style="fill:#565656"
             id="path6060" />
        </g>
        <g
           transform="matrix(0.93616,0,0,0.93616,6.2898,5.0339)"
           id="g3832">
          <path
             d="m 10.535,119.26 c 0.61875,15.05 37.506,27.164 82.804,27.164 45.167,0 81.851,-12.042 82.674,-27.032 -14.494,12.328 -46.019,20.865 -82.674,20.865 -36.727,0 -68.35,-8.6268 -82.804,-20.996 z"
             inkscape:connector-curvature="0"
             style="fill:#565656"
             id="path6026" />
          <path
             d="m 10.535,75.068 c 0.61875,15.05 37.506,27.164 82.804,27.164 45.167,0 81.851,-12.042 82.674,-27.032 -14.494,12.328 -46.019,20.865 -82.674,20.865 -36.727,0 -68.35,-8.6268 -82.804,-20.996 z"
             inkscape:connector-curvature="0"
             style="fill:#565656"
             id="path6022" />
          <path
             d="m 10.535,75.068 c 0.61875,15.05 37.506,27.164 82.804,27.164 45.167,0 81.851,-12.042 82.674,-27.032 -0.2087,0.17721 -0.44272,0.35189 -0.65612,0.5249 -5.2162,13.55 -39.937,24.014 -82.015,24.014 -42.467,0 -77.551,-10.545 -82.279,-24.276 -0.16839,-0.13312 -0.36239,-0.25489 -0.5249,-0.39346 z"
             inkscape:connector-curvature="0"
             style="fill:url(#linearGradient4353)"
             id="path6043" />
          <path
             d="m 10.535,119.26 c 0.61875,15.05 37.506,27.164 82.804,27.164 45.167,0 81.851,-12.042 82.674,-27.032 -0.2087,0.17721 -0.44272,0.3519 -0.65612,0.5249 -5.2162,13.55 -39.937,24.014 -82.015,24.014 -42.467,0 -77.551,-10.545 -82.279,-24.276 -0.16839,-0.13311 -0.36239,-0.25489 -0.5249,-0.39346 z"
             inkscape:connector-curvature="0"
             style="fill:url(#linearGradient4355)"
             id="path6054" />
        </g>
      </g>
    </g>
  </g>
  <metadata
     id="metadata34">
    <rdf:RDF>
      <cc:Work>
        <dc:format>image/svg+xml</dc:format>
        <dc:type
           rdf:resource="http://purl.org/dc/dcmitype/StillImage" />
        <cc:license
           rdf:resource="http://creativecommons.org/licenses/publicdomain/" />
        <dc:publisher>
          <cc:Agent
             rdf:about="http://openclipart.org/">
            <dc:title>Openclipart</dc:title>
          </cc:Agent>
        </dc:publisher>
      </cc:Work>
      <cc:License
         rdf:about="http://creativecommons.org/licenses/publicdomain/">
        <cc:permits
           rdf:resource="http://creativecommons.org/ns#Reproduction" />
        <cc:permits
           rdf:resource="http://creativecommons.org/ns#Distribution" />
        <cc:permits
           rdf:resource="http://creativecommons.org/ns#DerivativeWorks" />
      </cc:License>
    </rdf:RDF>
  </metadata>
</svg>
