<?xml version="1.0" encoding="UTF-8" standalone="no"?>
<svg
        xmlns:dc="http://purl.org/dc/elements/1.1/"
        xmlns:cc="http://creativecommons.org/ns#"
        xmlns:rdf="http://www.w3.org/1999/02/22-rdf-syntax-ns#"
        xmlns:svg="http://www.w3.org/2000/svg"
        xmlns="http://www.w3.org/2000/svg"
        xmlns:sodipodi="http://sodipodi.sourceforge.net/DTD/sodipodi-0.dtd"
        xmlns:inkscape="http://www.inkscape.org/namespaces/inkscape"
        inkscape:version="1.0 (5b275a35d9, 2020-05-03)"
        sodipodi:docname="client.svg"
        id="svg1"
        viewBox="0 0 41.092304 49.806687"
        height="100%"
        width="100%"
        version="1.1">
    <sodipodi:namedview
            inkscape:current-layer="svg1"
            inkscape:window-maximized="0"
            inkscape:window-y="34"
            inkscape:window-x="70"
            inkscape:cy="17.1317"
            inkscape:cx="-4.2694559"
            inkscape:zoom="2.8309452"
            showgrid="false"
            id="namedview15"
            inkscape:window-height="480"
            inkscape:window-width="833"
            inkscape:pageshadow="2"
            inkscape:pageopacity="0"
            guidetolerance="10"
            gridtolerance="10"
            objecttolerance="10"
            borderopacity="1"
            bordercolor="#666666"
            pagecolor="#ffffff"/>
    <defs
            id="defs41"/>
    <g
            id="g984"
            transform="translate(-16.884882,-16.625837)"
            fill-rule="evenodd"
            style="display:inline">
        <path
                id="path875"
                stroke-linejoin="round"
                d="m 18.815,66.311 c 0.157,-1.63 -3.046,-10.639 5.584,-22.094 13.016,-12.332 53.567,-12.473 60.659,0.191 7.091,12.664 6.319,21.993 4.753,23.623 -4.782,2.696 -8.154,3.51 -12.936,4.325 0,0 -1.177,-13.555 -2.814,-18.359 -0.07,-0.164 2.026,7.321 2.814,18.363 C 75.784,83.277 74.693,93.317 74.693,93.317 60.248,94.719 47.055,94.993 33.236,93.01 31.826,91.756 28.57,76.85 28.17,70.36 c -0.4,-7.493 1.793,-18.092 1.793,-18.092 -0.47,0.376 -2.182,14.498 -1.636,17.992 -3.685,0.358 -8.728,-3.071 -9.512,-3.949 z"
                transform="matrix(0.54975,0,0,0.5655,7.4075,12.397)"
                stroke="#000000"
                stroke-width="2.2419"
                fill="#008500"
                style="display:inline"/>
        <path
                id="path876"
                stroke-linejoin="round"
                d="m 70.329,23.447 c 0,8.195 -8.308,14.847 -18.546,14.847 -10.238,0 -18.547,-6.652 -18.547,-14.847 0,-8.196 8.309,-14.848 18.547,-14.848 10.238,2e-4 18.546,6.652 18.546,14.848 z"
                transform="matrix(0.54975,0,0,0.5655,7.4075,12.397)"
                stroke="#000000"
                stroke-width="2.2419"
                fill="#008500"
                style="display:inline"/>
        <path
                id="path877"
                d="M 51.512,9.7195 C 43.435,7.0272 24.41,21.0275 39.487,33.5915 48.64,31.7955 31.051,17.2575 51.512,9.7195 Z"
                fill-opacity="0.25"
                transform="matrix(0.54975,0,0,0.5655,7.4075,12.397)"
                stroke-width="1pt"
                fill="#ffffff"
                style="display:inline"/>
        <path
                id="path878"
                d="m 42.179,37.181 c -0.898,-0.18 -12.923,1.974 -17.231,7.897 -3.589,2.154 -7,12.384 -5.564,20.641 1.795,1.435 5.205,3.769 6.103,3.23 C 30.512,58.36 13.641,47.411 42.179,37.181 Z"
                fill-opacity="0.25"
                transform="matrix(0.54975,0,0,0.5655,7.4075,12.397)"
                stroke-width="1pt"
                fill="#ffffff"
                style="display:inline"/>
        <path
                id="path879"
                d="m 30.153,55.129 c -3.589,10.949 -0.179,30.512 3.769,36.974 3.949,1.256 9.513,1.795 10.77,1.436 1.076,-9.154 -14.898,-7.898 -14.539,-38.41 z"
                fill-opacity="0.25"
                transform="matrix(0.54975,0,0,0.5655,7.4075,12.397)"
                stroke-width="1pt"
                fill="#ffffff"
                style="display:inline"/>
        <path
                id="path880"
                stroke-width="1pt"
                fill-opacity="0.25"
                transform="matrix(0.54975,0,0,0.5655,7.4075,12.397)"
                d="M 52.589,37.54 C 67.845,33.411 63.896,17.078 70.717,21.565 70.178,24.976 68.024,37.001 52.589,37.54 Z"
                style="display:inline"/>
        <path
                id="path881"
                stroke-width="1pt"
                fill-opacity="0.25"
                transform="matrix(0.54975,0,0,0.5655,7.4075,12.397)"
                d="m 81.306,70.565 c 0,0 8.257,-1.616 8.616,-3.231 C 91.896,61.052 86.511,46.155 83.999,43.642 71.794,39.334 97.28,68.59 81.306,70.565 Z"
                style="display:inline"/>
        <path
                id="path882"
                stroke-width="1pt"
                fill-opacity="0.24"
                transform="matrix(0.54975,0,0,0.5655,7.4075,12.397)"
                d="m 64.973,93.539 c 0,0 7.898,0.538 8.795,-0.898 0.897,-1.436 5.026,-14 2.513,-20.102 -8.257,-6.82 3.051,20.82 -11.308,21 z"
                style="display:inline"/>
    </g>
    <metadata
            id="metadata36">
        <rdf:RDF>
            <cc:Work>
                <dc:format>image/svg+xml</dc:format>
                <dc:type
                        rdf:resource="http://purl.org/dc/dcmitype/StillImage"/>
                <cc:license
                        rdf:resource="http://creativecommons.org/licenses/publicdomain/"/>
                <dc:publisher>
                    <cc:Agent
                            rdf:about="http://openclipart.org/">
                        <dc:title>Openclipart</dc:title>
                    </cc:Agent>
                </dc:publisher>
                <dc:title/>
                <dc:date>2008-02-27T13:00:44</dc:date>
                <dc:description>abstract figure of people</dc:description>
                <dc:source>http://openclipart.org/detail/15046/abstract-people-by-nicubunu</dc:source>
                <dc:creator>
                    <cc:Agent>
                        <dc:title>nicubunu</dc:title>
                    </cc:Agent>
                </dc:creator>
                <dc:subject>
                    <rdf:Bag>
                        <rdf:li>abstract</rdf:li>
                        <rdf:li>clip art</rdf:li>
                        <rdf:li>clipart</rdf:li>
                        <rdf:li>image</rdf:li>
                        <rdf:li>media</rdf:li>
                        <rdf:li>people</rdf:li>
                        <rdf:li>png</rdf:li>
                        <rdf:li>public domain</rdf:li>
                        <rdf:li>svg</rdf:li>
                        <rdf:li>symbol</rdf:li>
                    </rdf:Bag>
                </dc:subject>
            </cc:Work>
            <cc:License
                    rdf:about="http://creativecommons.org/licenses/publicdomain/">
                <cc:permits
                        rdf:resource="http://creativecommons.org/ns#Reproduction"/>
                <cc:permits
                        rdf:resource="http://creativecommons.org/ns#Distribution"/>
                <cc:permits
                        rdf:resource="http://creativecommons.org/ns#DerivativeWorks"/>
            </cc:License>
        </rdf:RDF>
    </metadata>
    <metadata
            id="metadata43">
        <rdf:RDF>
            <cc:Work
                    rdf:about="">
                <dc:title>Clipart by Nicu Buculei - head1</dc:title>
                <dc:rights>
                    <cc:Agent>
                        <dc:title>Nicu Buculei</dc:title>
                    </cc:Agent>
                </dc:rights>
                <dc:type
                        rdf:resource="http://purl.org/dc/dcmitype/StillImage"/>
                <cc:license
                        rdf:resource="http://web.resource.org/cc/PublicDomain"/>
                <dc:format>image/svg+xml</dc:format>
            </cc:Work>
            <cc:License
                    rdf:about="http://web.resource.org/cc/PublicDomain">
                <cc:permits
                        rdf:resource="http://web.resource.org/cc/Reproduction"/>
                <cc:permits
                        rdf:resource="http://web.resource.org/cc/Distribution"/>
                <cc:permits
                        rdf:resource="http://web.resource.org/cc/DerivativeWorks"/>
            </cc:License>
        </rdf:RDF>
    </metadata>
</svg>
