<?xml version="1.0" encoding="utf-8"?>
<!-- Generator: Adobe Illustrator 15.0.0, SVG Export Plug-In . SVG Version: 6.00 Build 0)  -->
<!DOCTYPE svg PUBLIC "-//W3C//DTD SVG 1.1//EN" "http://www.w3.org/Graphics/SVG/1.1/DTD/svg11.dtd">
<svg xmlns="http://www.w3.org/2000/svg" xmlns:xlink="http://www.w3.org/1999/xlink" version="1.1" x="0px" y="0px"
     width="100%" height="100%" viewBox="0 0 48 48" enable-background="new 0 0 48 48" xml:space="preserve">
<g>
	<path fill="#FF5722" d="M10,33.018c0.596,0,1.265,0,2,0V19.041c-1.11,1.001-1.699,2.212-2,3.121V33.018z"/>
    <path fill="#FF5722" d="M21,18.105c-0.675-0.316-1.752-0.715-3-0.837v15.749c0.976,0,1.98,0,3,0V18.105z"/>
    <path fill="#FF5722" d="M14,33.018c0.943,0,1.95,0,3,0V17.24c-1.173,0.03-2.171,0.23-3,0.558V33.018z"/>
    <path fill="#FF5722" d="M4,23.953c-1.178,0.896-2,2.35-2,4.039c0,1.586,0.795,2.987,2,3.905V23.953z"/>
    <path fill="#FF5722"
          d="M40.995,22.016c-1.444,0-2.283,0.521-2.283,0.521s-0.839-8.488-9.271-8.488   c-4.906,0-6.83,2.704-7.441,3.897v15.071c8.825,0,18.297,0,18.297,0s5.869-0.094,5.869-5.453   C46.166,23.439,42.439,22.016,40.995,22.016z"/>
    <path fill="#FF5722"
          d="M8,23.1c-0.395-0.051-0.842-0.088-1.341-0.088c-0.223,0-0.441,0.037-0.659,0.073v9.767   c0.423,0.104,0.861,0.166,1.311,0.166c0.151,0,0.393,0,0.689,0V23.1z"/>
</g>
</svg>
