<?xml version="1.0" encoding="UTF-8" standalone="no"?>
<svg
        xmlns:dc="http://purl.org/dc/elements/1.1/"
        xmlns:cc="http://creativecommons.org/ns#"
        xmlns:rdf="http://www.w3.org/1999/02/22-rdf-syntax-ns#"
        xmlns:svg="http://www.w3.org/2000/svg"
        xmlns="http://www.w3.org/2000/svg"
        id="svg2"
        version="1.1"
        xml:space="preserve"
        width="100%"
        height="100%"
        viewBox="0 0 117.5 45"><metadata
     id="metadata8"><rdf:RDF><cc:Work
         rdf:about=""><dc:format>image/svg+xml</dc:format><dc:type
        rdf:resource="http://purl.org/dc/dcmitype/StillImage"/><dc:title></dc:title></cc:Work></rdf:RDF></metadata>
    <defs
            id="defs6"><clipPath
       clipPathUnits="userSpaceOnUse"
       id="clipPath16"><path
         d="M 0,36 94,36 94,0 0,0 0,36 Z"
         id="path18" /></clipPath></defs>
    <g
            id="g10"
            transform="matrix(1.25,0,0,-1.25,0,45)"><g
       id="g12"><g
         id="g14"
         clip-path="url(#clipPath16)"><g
           id="g20"
           transform="translate(7.2798,13.2842)"><path
             id="path22"
             d="M 0,0 C -2.1777283,0.60869365 -0.1439705,2.7995955 0.30880327,4.0591991 0.41833179,5.9347515 3.618564,7.5263475 2.9869971,4.6599942 2.1458788,3.1786122 1.6134035,1.4842452 0.552,0.154875 Z"
             style="fill:#ff1f59;fill-opacity:1;fill-rule:nonzero;stroke:none" /></g><g
            id="g24"
            transform="translate(20.0347,13.2842)"><path
             id="path26"
             d="M 0,0 C -2.1770434,0.60904458 -0.14244326,2.7995872 0.31027736,4.0589621 1.4173199,6.1499453 2.3376391,8.3586628 3.5619531,10.375703 6.1758501,11.29338 4.9945148,8.0760784 4.1242703,6.9327785 2.8937887,4.701153 2.0090613,2.2306507 0.553,0.154875 Z"
             style="fill:#ff1f59;fill-opacity:1;fill-rule:nonzero;stroke:none" /></g><g
            id="g28"
            transform="translate(17.9092,17.5366)"><path
             id="path30"
             d="M 0,0 C -2.177616,0.60848366 -0.14379599,2.7997241 0.30951438,4.0588435 0.42005669,5.9330454 3.6174242,7.5263553 2.9879971,4.6599942 2.1465685,3.17838 1.6144037,1.4833001 0.552125,0.154125 Z"
             style="fill:#ff1f59;fill-opacity:1;fill-rule:nonzero;stroke:none" /></g><g
            id="g32"
            transform="translate(11.5312,13.2842)"><path
             id="path34"
             d="M 0,0 C -2.1769767,0.60901121 -0.14253078,2.799631 0.3100403,4.0590806 1.4171644,6.1499152 2.3363801,8.3593571 3.5615156,10.375703 6.1749459,11.293066 4.9948869,8.0760235 4.1240671,6.9328801 2.8934133,4.7011831 2.0081276,2.2308919 0.552125,0.154875 Z"
             style="fill:#ff1f59;fill-opacity:1;fill-rule:nonzero;stroke:none" /></g><g
            id="g36"
            transform="translate(41.1255,26.7969)"><path
             id="path38"
             d="M 0,0 C 1.2404867,1.9521017 1.6353378,-1.1499709 1.372,-2.2137781 1.3159441,-4.1406589 1.9114565,-7.0204388 -0.64465625,-7.5680469 -3.7537352,-7.0056635 1.0765626,-5.8663298 0,-3.8874847 0,-2.5916564 0,-1.2958282 0,0 Z"
             style="fill:#ff1f59;fill-opacity:1;fill-rule:nonzero;stroke:none" /></g><g
            id="g40"
            transform="translate(48.502,22.3101)"><path
             id="path42"
             d="M 0,0 C -0.47512831,0.58519511 -0.95301723,3.6543503 -1.4255933,1.9430727 -2.1304886,0.64428596 -2.5691167,-0.47646477 -0.61897956,0 -0.41265304,0 -0.20632652,0 0,0 Z m -4.238,-3.075 c -0.9823331,0.9432314 0.4549827,2.30083175 0.6722527,3.40765429 C -2.8165866,1.8572207 -2.4143912,3.6245306 -1.494,5.031 -0.50944429,5.5659491 -0.19598886,4.0430614 0.05344228,3.428605 0.83152832,1.4663622 1.7341959,-0.45745221 2.4315,-2.443875 1.1943765,-4.6454265 1.1131497,-0.55939899 -0.44426277,-1.361 -1.6928337,-1.3658841 -3.2093402,-0.96985392 -3.3298732,-2.6626308 -3.4211911,-3.0451483 -3.9070628,-3.2382618 -4.238,-3.075 Z"
             style="fill:#ff1f59;fill-opacity:1;fill-rule:nonzero;stroke:none" /></g><g
            id="g44"
            transform="translate(59.9023,27.4858)"><path
             id="path46"
             d="M 0,0 C 0.98247869,-1.0030331 0.29098021,-2.746418 0.498,-4.0812934 0.38158928,-5.4068376 0.74054368,-6.856691 0.301,-8.1 c -1.79013,-0.6771186 -1.00253726,2.0713882 -1.169,3.0962832 0.17396035,1.8569308 -0.0972367,2.1189453 -0.9380158,0.3402536 C -2.4941394,-5.3366665 -2.5784028,-6.8889225 -3.676,-7.017 -4.6834958,-6.7322265 -4.7898339,-5.3036495 -5.4631425,-4.6145104 -6.344363,-2.7048263 -6.5041143,-3.3861929 -6.369,-5.1265255 -6.5131419,-6.1265971 -5.7823135,-8.782633 -7.539,-8.1 c -0.4553142,1.869933 -0.07901,3.9575987 -0.202,5.913819 -0.594321,2.02879868 1.3817201,2.80137271 2.0026561,0.6740964 C -5.0315626,-2.6793897 -4.3247813,-3.8466949 -3.618,-5.014 c 1.0920246,1.6360107 1.9122007,3.5019985 3.178,4.991 C -0.30131743,0.12895194 -0.14904944,0.0353939 0,0 Z"
             style="fill:#ff1f59;fill-opacity:1;fill-rule:nonzero;stroke:none" /></g><g
            id="g48"
            transform="translate(67.2148,20.5557)"><path
             id="path50"
             d="M 0,0 C 1.9398506,-1.247179 -1.1511044,-1.6341536 -2.2137781,-1.373 -3.4981532,-1.5075743 -5.4013752,-1.5317102 -4.875,0.31726277 -4.8405003,2.382931 -4.9436668,4.4616339 -4.824125,6.51925 -3.9118522,7.4036277 -2.3514504,6.7284693 -1.1672241,6.9333461 0.66754083,7.6419685 1.2891369,5.1056276 -0.81100624,5.5605322 -1.8005927,5.3204798 -3.993461,6.2875001 -3.503,4.5627372 -4.0385979,2.8205602 -1.9998143,3.6527648 -0.978,3.468 0.97464,2.2321521 -2.1293256,1.8392737 -3.1917781,2.102 -3.7951098,1.7266146 -3.8696671,-0.76689544 -2.2954847,0 -1.5303231,0 -0.76516156,0 0,0 Z"
             style="fill:#ff1f59;fill-opacity:1;fill-rule:nonzero;stroke:none" /></g><g
            id="g52"
            transform="translate(74.7246,19.4438)"><path
             id="path54"
             d="M 0,0 C -1.3870676,1.781214 -2.7790396,3.5749614 -4.168,5.361 -4.2952256,3.570867 -3.908488,1.6455375 -4.37,-0.058 -6.1523602,-0.72908102 -5.3683194,2.0158677 -5.534,3.0382832 -5.4550425,4.6037425 -5.6954381,6.2191439 -5.408,7.752 -3.9470991,8.4659786 -3.3232854,6.056382 -2.3372871,5.2325432 -1.6506584,4.4850323 -0.62915446,2.7601373 -0.149,2.6152526 -0.02644292,4.3416326 -0.3995727,6.1957787 0.047,7.84 1.8356272,8.5131622 1.0520194,5.7673722 1.217,4.7427168 1.0948721,3.1950199 1.4364144,1.5406806 1.095,0.041 0.85467224,-0.33951078 0.2654554,-0.35945706 0,0 Z"
             style="fill:#ff1f59;fill-opacity:1;fill-rule:nonzero;stroke:none" /></g><g
            id="g56"
            transform="translate(79.2471,20.561)"><path
             id="path58"
             d="M 0,0 C 2.9296852,-0.77525743 5.4098628,3.2434587 2.5959844,5.0935781 0.84374796,6.2332187 -0.60093786,5.5558234 0,3.5404745 0,2.3603163 0,1.1801582 0,0 Z M -0.689,-1.378 C -1.9981586,-0.80422661 -1.1126427,1.1420094 -1.372,2.3237883 -1.2486179,3.7749089 -1.6264153,5.3569085 -1.17,6.723 1.3766618,7.5333846 5.0063579,6.3214442 5.1861074,3.2043945 5.5965649,0.21153146 2.5701566,-1.7961871 -0.14240088,-1.3706251 -0.3246011,-1.3729938 -0.50679805,-1.3758844 -0.689,-1.378 Z"
             style="fill:#ff1f59;fill-opacity:1;fill-rule:nonzero;stroke:none" /></g><g
            id="g60"
            transform="translate(89.8252,26.1313)"><path
             id="path62"
             d="M 0,0 C -4.7778821,0.01667006 -2.4292863,-7.7673503 1.5433594,-5.1192031 3.8485387,-3.7209543 2.6964234,0.11593445 0,0 Z M 0,-6.948 C -3.7636209,-7.171809 -5.6898941,-1.7681895 -2.624002,0.4350957 0.15480056,2.9799248 5.0335549,0.02071438 4.0818906,-3.6191719 3.7307147,-5.5050696 1.925,-6.9995283 0,-6.948 Z"
             style="fill:#ff1f59;fill-opacity:1;fill-rule:nonzero;stroke:none" /></g><g
            id="g64"
            transform="translate(47.0371,16.9453)"><path
             id="path66"
             d="M 0,0 C 0.98267544,-1.0025447 0.29085494,-2.7457986 0.498,-4.0802934 0.38176154,-5.4066153 0.74030122,-6.8564911 0.301,-8.101 c -1.7910146,-0.6765092 -1.00367357,2.0728398 -1.17,3.0982832 0.17440382,1.8577032 -0.0979129,2.1152736 -0.9382083,0.3383701 C -2.4954183,-5.3370462 -2.5794603,-6.8896608 -3.677,-7.017 -4.6835149,-6.7313982 -4.7915753,-5.3042867 -5.464399,-4.6146652 -6.3458272,-2.7047092 -6.5049416,-3.3882147 -6.37,-5.1275255 -6.5143074,-6.127208 -5.7833494,-8.7824669 -7.539,-8.101 c -0.457401,1.8701258 -0.079522,3.9589788 -0.203,5.915819 -0.5946785,2.02955482 1.3832979,2.79995058 2.0034687,0.6729829 C -5.0320209,-2.6794654 -4.3255104,-3.8467327 -3.619,-5.014 c 1.0921971,1.6365242 1.9136999,3.5016819 3.179,4.992 L -0.226,0.059 0,0 Z"
             style="fill:#ff1f59;fill-opacity:1;fill-rule:nonzero;stroke:none" /></g><g
            id="g68"
            transform="translate(54.5928,16.9453)"><path
             id="path70"
             d="m 0,0 c 1.2944421,-0.57692247 0.41272181,-2.5140611 0.672,-3.6907883 0.5066327,-2.4347715 -1.25927419,-5.5591774 -4.096625,-4.3958367 -2.6661148,1.2432104 -1.6128168,4.4482188 -1.827375,6.7736761 -0.1846331,2.24206966 2.082901,0.85711986 1.344,-0.767819 0.2149907,-1.601383 -0.6446382,-3.7476262 0.99875,-4.7596071 2.72470728,-0.6399224 2.22548229,2.6270911 2.23725,4.3199108 C -0.50140616,-1.7300543 -1.1474965,-0.1922203 0,0 Z"
             style="fill:#ff1f59;fill-opacity:1;fill-rule:nonzero;stroke:none" /></g><g
            id="g72"
            transform="translate(62.3516,11.1152)"><path
             id="path74"
             d="M 0,0 C 0.21845658,-3.4077542 -6.2947744,-3.0883607 -5.289,0.06025 -4.2447804,-0.24498852 -1.0539653,-2.4174217 -1.569,0.603 -4.388754,0.50955318 -7.5156981,3.8196005 -3.864625,5.645125 -2.0524279,7.3237014 1.7968018,2.9024683 -1.219,3.424625 -2.7183241,6.5339848 -6.1502686,1.7621168 -2.083125,2.2961875 -0.96434734,2.1537248 0.09092619,1.1863544 0,0 Z"
             style="fill:#ff1f59;fill-opacity:1;fill-rule:nonzero;stroke:none" /></g><g
            id="g76"
            transform="translate(64.5801,8.6416)"><path
             id="path78"
             d="M 0,0 C -1.3080856,0.57994655 -0.42436778,2.5206985 -0.683,3.7037883 -0.55627735,5.1434836 -0.94300281,6.72059 -0.479,8.072 1.30135,8.7420616 0.52046994,5.9979134 0.685,4.9757168 0.55623408,3.4014636 0.94774207,1.6894141 0.481,0.203 L 0.262625,0.050875 Z"
             style="fill:#ff1f59;fill-opacity:1;fill-rule:nonzero;stroke:none" /></g><g
            id="g80"
            transform="translate(70.7646,8.6416)"><path
             id="path82"
             d="M 0,0 C -3.7477735,-0.2279304 -5.6554378,5.1525564 -2.6122305,7.3444785 -1.5588636,9.8003248 5.0456696,7.010645 1.685,6.329 -1.7737345,9.0897032 -4.9452797,2.2555397 -0.54995313,1.4237813 0.68513144,1.5664 4.4994504,3.0397814 2.1709688,0.60665625 1.526838,0.19734815 0.76072832,-0.00477372 0,0 Z"
             style="fill:#ff1f59;fill-opacity:1;fill-rule:nonzero;stroke:none" /></g><g
            id="g84"
            transform="translate(29.186,10.917)"><path
             id="path86"
             d="M 0,0 C -0.587656,-1.5696567 -2.6017257,-1.9231781 -3.8775663,-2.8927959 -6.8633776,-4.6165306 -9.8491888,-6.3402653 -12.835,-8.064 c -1.653058,-0.2767486 -2.967466,1.2916323 -4.445566,1.9117959 -2.985812,1.7237347 -5.971623,3.4474694 -8.957434,5.1712041 -1.064458,1.29438 -0.364359,3.2149589 -0.566,4.8047985 0,3.4477339 0,6.8954675 0,10.3432015 0.588012,1.569726 2.601658,1.92323 3.877566,2.892796 2.985812,1.723735 5.971623,3.447469 8.957434,5.171204 1.653573,0.276289 2.967465,-1.291517 4.4455663,-1.911796 C -6.5376224,18.595469 -3.5518112,16.871735 -0.566,15.148 0.49843472,13.85329 -0.20162085,11.933068 0,10.343201 0,6.8954676 0,3.4477338 0,0 Z m 1.698,16.571 c -4.811,2.777667 -9.622,5.555333 -14.433,8.333 -1.738175,0.387558 -3.107936,-1.263874 -4.644554,-1.911818 -3.707482,-2.140394 -7.414964,-4.280788 -11.122446,-6.421182 -1.205474,-1.311366 -0.45982,-3.323177 -0.667,-4.977799 0,-4.2810667 0,-8.5621338 0,-12.843201 0.534719,-1.6985504 2.648844,-2.0593284 3.978454,-3.0659898 3.707516,-2.1406701 7.415031,-4.2813401 11.122546,-6.4220102 1.738336,-0.387388 3.107859,1.2639723 4.644397,1.9120892 3.707201,2.1406369 7.414402,4.2812739 11.121603,6.4219108 1.2054074,1.311489 0.459863,3.32316804 0.667,4.9777985 0,4.2810672 0,8.5621345 0,12.8432015 l -0.179,0.66625 z"
             style="fill:#ff1f59;fill-opacity:1;fill-rule:nonzero;stroke:none" /></g></g></g></g></svg>