<?xml version="1.0" encoding="UTF-8" standalone="no"?>
<svg
   xmlns:dc="http://purl.org/dc/elements/1.1/"
   xmlns:cc="http://creativecommons.org/ns#"
   xmlns:rdf="http://www.w3.org/1999/02/22-rdf-syntax-ns#"
   xmlns:svg="http://www.w3.org/2000/svg"
   xmlns="http://www.w3.org/2000/svg"
   id="svg2"
   version="1.1"
   width="100%"
   height="100%"
   viewBox="0 0 169.36133 169.36133">
  <metadata
     id="metadata8">
    <rdf:RDF>
      <cc:Work
         rdf:about="">
        <dc:format>image/svg+xml</dc:format>
        <dc:type
           rdf:resource="http://purl.org/dc/dcmitype/StillImage" />
        <dc:title></dc:title>
      </cc:Work>
    </rdf:RDF>
  </metadata>
  <defs
     id="defs6">
    <filter
       style="color-interpolation-filters:sRGB"
       id="filter4276"
       x="-0.204"
       width="1.408"
       y="-0.204"
       height="1.408">
      <feGaussianBlur
         stdDeviation="12.185691"
         id="feGaussianBlur4278" />
    </filter>
  </defs>
  <g
     id="g9420"
     transform="translate(-539.2879,-0.82167)"
     style="display:inline">
    <g
       transform="translate(-60.733581,-93.238877)"
       id="g9339"
       style="display:inline">
      <path
         style="opacity:1;fill:#2b1100;fill-opacity:1;stroke:none;stroke-width:1;stroke-miterlimit:4;stroke-dasharray:none;stroke-dashoffset:0;stroke-opacity:1"
         d="m 630.02148,94.060547 c -16.62,0 -30,13.380003 -30,30.000003 v 109.36133 c 0,16.62 13.38,30 30,30 h 109.36133 c 16.62,0 30,-13.38 30,-30 v -93.51172 a 13.68644,13.68644 0 0 1 -8.71679,3.15625 13.68644,13.68644 0 0 1 -13.68555,-13.6875 13.68644,13.68644 0 0 1 0.0664,-1.3086 13.68644,13.68644 0 0 1 -6.26758,1.52344 13.68644,13.68644 0 0 1 -13.6875,-13.6875 13.68644,13.68644 0 0 1 0.81836,-4.60937 13.68644,13.68644 0 0 1 -1.67383,0.11914 13.68644,13.68644 0 0 1 -13.68555,-13.685551 13.68644,13.68644 0 0 1 0.5,-3.669922 h -83.0293 z"
         id="rect4152" />
      <path
         style="opacity:1;fill:#ff6600;fill-opacity:1;stroke:none;stroke-width:1;stroke-miterlimit:4;stroke-dasharray:none;stroke-dashoffset:0;stroke-opacity:1;filter:url(#filter4276)"
         d="m 638.41602,107.06055 c -14.06853,0 -25.39454,11.326 -25.39454,25.39453 v 92.57226 c 0,14.06853 11.32601,25.39454 25.39454,25.39454 h 92.57226 c 14.06853,-10e-6 25.39453,-11.32601 25.39453,-25.39454 v -82.66601 a 13.68644,13.68644 0 0 1 -9.40234,-12.98242 13.68644,13.68644 0 0 1 0.0664,-1.3086 13.68644,13.68644 0 0 1 -6.26758,1.52344 13.68644,13.68644 0 0 1 -13.6875,-13.6875 13.68644,13.68644 0 0 1 0.81836,-4.60937 13.68644,13.68644 0 0 1 -1.67383,0.11914 13.68644,13.68644 0 0 1 -9.98828,-4.35547 h -77.83203 z"
         id="rect4154"
         transform="matrix(0.83048979,0,0,0.83048979,116.064,30.726161)" />
      <path
         id="path5203"
         d="m 631.94338,97.036882 c -16.03584,0 -28.94556,12.909728 -28.94556,28.945568 v 105.51753 c 0,16.03584 12.90972,28.94556 28.94556,28.94556 h 105.51753 c 16.03584,0 28.80847,-12.91031 28.94556,-28.94556 l 0.74848,-87.55187 c -10.76048,6.13505 -22.74941,-2.97954 -22.12865,-12.93251 -10.04846,4.77497 -23.85678,-7.04359 -20.0324,-17.8202 -12.30232,-0.10705 -16.36363,-10.65074 -15.05649,-16.158518 h -77.994 z"
         style="opacity:1;fill:none;fill-opacity:1;stroke:#ffffff;stroke-width:0.96485227;stroke-miterlimit:4;stroke-dasharray:none;stroke-dashoffset:0;stroke-opacity:1" />
    </g>
  </g>
  <circle
     cx="84.08712"
     cy="87.850548"
     id="circle6"
     style="display:inline;fill:#ffffff;fill-opacity:0;stroke:#faffff;stroke-width:9.61628342;stroke-opacity:1"
     r="49.283451" />
  <path
     d="m 84.481552,54.794569 c -18.246896,0 -33.055972,14.809075 -33.055972,33.055971 0,18.2469 14.809076,33.05597 33.055972,33.05597 15.772208,0 28.975798,-11.05841 32.267158,-25.843752 h -15.73915 c -2.783493,6.367462 -9.138103,10.818312 -16.528008,10.818312 -9.952851,0 -18.030528,-8.077662 -18.030528,-18.03053 0,-9.952851 8.077677,-18.030527 18.030528,-18.030527 7.153615,0 13.333135,4.174458 16.246278,10.217299 h 15.87062 C 113.08588,65.556149 100.03787,54.794569 84.481552,54.794569 Z"
     id="circle3287"
     style="display:inline;fill:#ffffff;fill-opacity:1;stroke-width:0.60101771" />
</svg>
