<?xml version="1.0" encoding="UTF-8" standalone="no"?>
<svg
   xmlns:dc="http://purl.org/dc/elements/1.1/"
   xmlns:cc="http://creativecommons.org/ns#"
   xmlns:rdf="http://www.w3.org/1999/02/22-rdf-syntax-ns#"
   xmlns:svg="http://www.w3.org/2000/svg"
   xmlns="http://www.w3.org/2000/svg"
   xmlns:sodipodi="http://sodipodi.sourceforge.net/DTD/sodipodi-0.dtd"
   xmlns:inkscape="http://www.inkscape.org/namespaces/inkscape"
   width="100%"
   height="100%"
   viewBox="0 0 152.3244 49.310032"
   version="1.1"
   id="svg8"
   inkscape:version="0.92.1 r15371"
   sodipodi:docname="Infohub-logo.svg">
  <defs
     id="defs2" />
  <sodipodi:namedview
     id="base"
     pagecolor="#ffffff"
     bordercolor="#666666"
     borderopacity="1.0"
     inkscape:pageopacity="0.0"
     inkscape:pageshadow="2"
     inkscape:zoom="0.7"
     inkscape:cx="381.16357"
     inkscape:cy="-7.5576167"
     inkscape:document-units="mm"
     inkscape:current-layer="layer1"
     showgrid="false"
     inkscape:window-width="1855"
     inkscape:window-height="1056"
     inkscape:window-x="65"
     inkscape:window-y="24"
     inkscape:window-maximized="1"
     fit-margin-top="0"
     fit-margin-left="0"
     fit-margin-right="0"
     fit-margin-bottom="0" />
  <metadata
     id="metadata5">
    <rdf:RDF>
      <cc:Work
         rdf:about="">
        <dc:format>image/svg+xml</dc:format>
        <dc:type
           rdf:resource="http://purl.org/dc/dcmitype/StillImage" />
        <dc:title></dc:title>
      </cc:Work>
    </rdf:RDF>
  </metadata>
  <g
     inkscape:label="Layer 1"
     inkscape:groupmode="layer"
     id="layer1"
     transform="translate(-18.898809,-89.869049)">
    <g id="g15">
      <ellipse ry="24.568451" rx="24.946428" cy="114.4375" cx="43.845238" id="path24" style="fill:#008000;stroke-width:0.26458332" />
      <g
         id="flowRoot10"
         style="font-style:normal;font-variant:normal;font-weight:normal;font-stretch:normal;font-size:40px;line-height:1.25;font-family:'URW Chancery L';-inkscape-font-specification:'URW Chancery L';letter-spacing:0px;word-spacing:0px;fill:#000000;fill-opacity:1;stroke:none"
         transform="matrix(1.2436388,0,0,1.1056452,-118.6547,-232.3501)"
         aria-label="infohub">
        <path
           d="m 130.27539,293.33594 c -0.26666,0.21334 -0.58805,0.42593 -0.74805,0.58594 -0.21334,0.21332 -0.63853,0.53426 -1.17187,0.96093 -0.26666,0.21333 -0.64109,0.47883 -1.12109,0.79883 -0.21333,0.16 -0.42534,0.32107 -0.63868,0.42774 0.37334,1.17333 0.85206,2.02575 2.02539,3.73242 1.54667,-1.38667 1.65346,-1.49224 3.4668,-2.87891 -0.32,-0.64 -0.58669,-1.06851 -0.69336,-1.22851 -0.32,-0.64 -0.37216,-0.69175 -0.79883,-1.70508 -0.10666,-0.21334 -0.21364,-0.42669 -0.32031,-0.69336 z m 36.41016,5.65234 c -2.4,0 -4.07977,0.88047 -6.75977,3.48047 -2.24,2.16 -2.76031,3.36 -4.32031,10 -0.4,-0.04 -0.60078,-0.041 -0.80078,-0.041 l -1.95899,0.0801 c -0.08,0 -0.28156,9.4e-4 -0.60156,-0.0391 -0.24,0.16 -0.47859,0.31938 -0.55859,0.35937 l -0.88086,0.48047 c -0.16,0.08 -0.48078,0.23946 -0.80078,0.43946 h 1 l 2.80078,0.041 c 0.24,0 0.68047,-0.001 1.48047,-0.041 -0.64,2.44 -0.88063,3.52 -1.64063,7 -2.4,11 -3.31875,12.80078 -6.71875,12.80078 -0.56,0 -1.04109,-0.0392 -2.12109,-0.19922 -0.4,0.6 -0.52078,0.7982 -0.80078,1.1582 -0.32,0.44 -0.68,0.88133 -1,1.36133 0.88,0.12 1.32093,0.16016 1.96093,0.16016 1.32,0 2.36,-0.20055 3,-0.56055 1.16,-0.64 3.1993,-2.6 4.2793,-4 1.24,-1.68 2.68156,-5.11977 3.60156,-8.75977 1.72,-6.52 2.15938,-8.16093 2.35938,-8.96093 0.36,0.04 0.51969,0.041 0.67969,0.041 l 2.08007,-0.0801 c 0.12,0 0.36079,-9.3e-4 0.80078,0.0391 l 1.63868,-1.2793 c -2.08,-0.04 -2.07953,-0.041 -2.51953,-0.041 -0.48,0 -0.47938,0.001 -2.35938,0.041 2.6,-10.16 3.19859,-11.40039 5.55859,-11.40039 0.68,0 1.20164,0.0803 2.68164,0.32031 l 1.83985,-2.16015 c -0.8,-0.2 -1.11992,-0.24024 -1.91992,-0.24024 z m 25.86718,0.0801 c -2.2,0 -3.35929,0.60016 -6.27929,3.16016 -2.08,1.84 -2.40063,2.52078 -3.64063,7.80078 l -3.83984,16.51953 2.83984,-1.16016 2.35938,-9.32031 c 0.4,-0.28 0.88094,-0.55961 0.96093,-0.59961 2.76,-1.76 4.43891,-2.64062 4.87891,-2.64063 0.28,0 0.48047,0.28063 0.48047,0.64063 0,0.48 -0.15875,1.24039 -0.71875,3.40039 -1.24,4.8 -1.7207,7.11922 -1.7207,8.19922 0,0.48 0.15961,0.9607 0.59961,1.7207 2.2,-1.12 5.08125,-2.96054 7.28125,-4.56054 l 0.27929,-1.16016 c -3.4,2 -3.96047,2.28125 -4.48047,2.28125 -0.36,0 -0.59961,-0.40102 -0.59961,-1.04102 0,-0.8 0.23993,-1.96054 0.91993,-4.56054 1.28,-4.72 1.91992,-7.16032 1.91992,-7.32032 0,-0.4 -0.31984,-0.67968 -0.83985,-0.67968 -0.84,0 -3.5996,1.51976 -8.5996,4.75976 l 1.35937,-5.35937 c 0.96,-3.92 1.36086,-5.16016 1.88086,-6.16016 0.56,-1.12 1.39852,-1.63867 2.47852,-1.63867 0.52,0 0.84039,0.0394 2.40039,0.35937 l 1.7207,-2.43945 c -0.72,-0.16 -1.04063,-0.20117 -1.64063,-0.20117 z m 36.09571,0.041 c -1.44,0 -2.15953,0.43921 -5.51953,3.19921 -2.72,2.2 -2.7211,2.19946 -4.1211,8.43946 l -2.27929,9.88086 c -0.72,3.12 -0.79946,3.52007 -1.43946,6.08007 l 0.40039,0.16016 1.2793,-1.08008 c 1.12,0.4 1.9607,0.59961 2.7207,0.59961 0.8,0 1.5186,-0.24086 2.5586,-0.88086 0.84,-0.56 1.7607,-1.07867 2.7207,-1.63867 1.4,-0.76 2.27898,-1.63992 2.95898,-2.91992 1.28,-2.28 2.24024,-5.80016 2.24024,-8.16016 0,-1.84 -0.91938,-3.04101 -2.35938,-3.04101 -1.32,0 -2.43945,0.6014 -6.43945,3.4414 0.24,-0.92 0.35945,-1.55984 0.43945,-1.83984 0.88,-4.32 0.88,-4.32164 1,-4.68164 0.32,-1.28 0.91938,-2.83961 1.35938,-3.59961 0.68,-1.16 1.39992,-1.51953 2.91992,-1.51953 h 1.12109 0.59961 l 1.64063,-2.32031 c -0.56,-0.08 -1.40078,-0.11914 -1.80078,-0.11914 z m -100.08008,5.16015 c -0.90667,0 -4.05441,1.76003 -8.42774,4.69336 l -0.10546,1.49219 c 3.14667,-1.70666 3.41257,-1.8125 3.89257,-1.8125 0.42666,0 0.64063,0.31898 0.64063,0.95898 0,0.69333 -0.16094,1.44047 -0.96094,4.48047 -2.50667,9.33333 -2.50586,9.33268 -2.50586,10.66602 0,1.28 0.53263,2.13476 1.2793,2.13476 0.90667,0 2.34717,-0.69447 5.17383,-2.50781 1.01334,-0.64 2.02768,-1.27933 3.04101,-1.97266 0.48,-0.26667 0.95885,-0.58625 1.49219,-0.90625 l 0.21289,-1.49414 c -5.06667,2.72 -5.17189,2.77344 -5.86523,2.77344 -0.58666,0 -0.96094,-0.58747 -0.96094,-1.49414 0,-0.53333 0.16047,-1.54542 0.48047,-2.71875 2.72,-11.2 3.2539,-13.3331 3.2539,-13.75977 0,-0.32 -0.26729,-0.5332 -0.64062,-0.5332 z m 83.68359,5.31836 c -0.52,0.28 -0.88101,0.48055 -1.04101,0.56055 -0.48,0.24 -0.96047,0.4807 -1.48047,0.7207 -0.12,0.04 -0.35883,0.16039 -0.79883,0.40039 -0.24,0.92 -1.04133,4.11867 -2.36133,9.63867 -3.08,2.12 -4.47898,2.91993 -4.95898,2.91992 -0.44,0 -0.75977,-0.56031 -0.75977,-1.32031 0,-0.92 0.32,-2.52008 1,-5.08008 0.44,-1.6 0.71985,-2.71929 0.83985,-3.27929 0.36,-1.48 0.63875,-2.51883 0.71875,-2.79883 0.12,-0.44 0.20117,-0.80008 0.20117,-1.08008 0,-0.32 -0.20047,-0.52148 -0.48047,-0.52148 -0.4,0 -3.31922,1.56132 -6.19922,3.36133 l -0.28125,1.08007 c 1.68,-0.84 2.43992,-1.16015 2.91992,-1.16015 0.32,0 0.56055,0.31976 0.56055,0.75976 0,0.52 -0.39914,2.23899 -1.11914,4.95899 -1,3.72 -1.24024,4.84 -1.24024,6 0,1.12 0.47915,1.96093 1.11914,1.96093 0.6,0 1.32032,-0.35968 3.32032,-1.67968 l 4.12109,-2.67969 c -0.32,1.28 -0.56055,2.71945 -0.56055,3.43945 0,0.52 0.31875,0.91992 0.71875,0.91992 0.8,0 4.60032,-2.24125 7.32032,-4.28125 l 0.28125,-1.19921 c -3.12,1.84 -4.16157,2.40039 -4.60157,2.40039 -0.28,0 -0.43945,-0.32094 -0.43945,-0.96094 0,-2.04 1.48117,-8.00008 3.20117,-13.08008 z m -73.96484,0.16016 c -0.44,0 -3.3193,1.48023 -6.2793,3.24023 l -0.24023,1.04102 c 2.56,-1.16 2.72008,-1.20118 3.08008,-1.20118 0.28,0 0.48047,0.24055 0.48046,0.56055 0,0.84 -0.76171,4.16078 -1.76171,7.80078 l -0.91993,3.23828 c -0.08,0.28 -0.27859,1.04016 -0.55859,2.16016 l 3,-1.16016 2.35938,-9.39843 c 5,-3.16 5.11968,-3.20118 5.67968,-3.20118 0.28,0 0.43946,0.20149 0.43946,0.52149 0,0.6 -0.31852,2.11969 -1.47852,6.67969 -0.88,3.56 -1.04101,4.24 -1.04101,5 0,0.56 0.1596,1.07882 0.5996,1.79882 1.84,-0.83999 4.6004,-2.55867 7.4004,-4.63867 l 0.28124,-1.12109 c -4,2.28 -4.16054,2.35937 -4.56054,2.35937 -0.4,0 -0.64063,-0.43812 -0.64063,-1.07812 0,-0.84 0.28102,-2.16188 1.04102,-4.92188 1.88,-6.72 1.87891,-6.72 1.87891,-7 0,-0.44 -0.27883,-0.67968 -0.79883,-0.67968 -0.6,0 -1.47992,0.36125 -2.91993,1.28125 l -5.48046,3.39843 c 0.36,-1.32 0.95898,-3.8382 0.95898,-4.1582 0,-0.28 -0.23953,-0.52148 -0.51953,-0.52148 z m 35.84961,0 c -1.6,0 -4.15953,1.15992 -6.51953,2.91992 -2.56,1.92 -4.35938,6.08101 -4.35938,10.04101 0,2.44 1.36047,4 3.48047,4 1.12,0 2.23813,-0.39937 4.07813,-1.35937 2,-1.12 3.32101,-2.12008 4.04101,-3.08008 1.6,-2.16 2.88086,-6.0818 2.88086,-8.8418 0,-2.16 -1.48156,-3.67968 -3.60156,-3.67968 z m -2.08008,1.88086 c 1.6,0 2.60156,1.55898 2.60156,3.95898 0,1.68 -0.56054,3.7607 -1.56054,5.7207 -1.12,2.28 -2.56008,3.51953 -4.08008,3.51953 -1.64,0 -2.67969,-1.47976 -2.67969,-3.75976 0,-4.64 2.91875,-9.43945 5.71875,-9.43945 z m 53.51172,0.79882 c 0.8,0 1.32031,0.76094 1.32031,1.96094 0,1.6 -0.48015,4.0007 -1.16015,5.72071 -1.08,2.68 -2.48024,4 -4.24024,4 -0.8,0 -1.60062,-0.23977 -2.64062,-0.75977 l 2.12109,-8.52149 c 2.28,-1.68 3.67961,-2.40039 4.59961,-2.40039 z"
           id="path27"
           inkscape:original="M 130.27539 293.33594 C 130.00873 293.54928 129.68734 293.76187 129.52734 293.92188 C 129.314 294.1352 128.88881 294.45614 128.35547 294.88281 C 128.08881 295.09614 127.71438 295.36164 127.23438 295.68164 C 127.02105 295.84164 126.80904 296.00271 126.5957 296.10938 C 126.96904 297.28271 127.44776 298.13513 128.62109 299.8418 C 130.16776 298.45513 130.27455 298.34956 132.08789 296.96289 C 131.76789 296.32289 131.5012 295.89438 131.39453 295.73438 C 131.07453 295.09438 131.02237 295.04263 130.5957 294.0293 C 130.48904 293.81596 130.38206 293.60261 130.27539 293.33594 z M 166.68555 298.98828 C 164.28555 298.98828 162.60578 299.86875 159.92578 302.46875 C 157.68578 304.62875 157.16547 305.82875 155.60547 312.46875 C 155.20547 312.42875 155.00469 312.42773 154.80469 312.42773 L 152.8457 312.50781 C 152.7657 312.50781 152.56414 312.50875 152.24414 312.46875 C 152.00414 312.62875 151.76555 312.78813 151.68555 312.82812 L 150.80469 313.30859 C 150.64469 313.38859 150.32391 313.54805 150.00391 313.74805 L 151.00391 313.74805 L 153.80469 313.78906 C 154.04469 313.78906 154.48516 313.78805 155.28516 313.74805 C 154.64516 316.18805 154.40453 317.26805 153.64453 320.74805 C 151.24453 331.74805 150.32578 333.54883 146.92578 333.54883 C 146.36578 333.54883 145.88469 333.50961 144.80469 333.34961 C 144.40469 333.94961 144.28391 334.14781 144.00391 334.50781 C 143.68391 334.94781 143.32391 335.38914 143.00391 335.86914 C 143.88391 335.98914 144.32484 336.0293 144.96484 336.0293 C 146.28484 336.0293 147.32484 335.82875 147.96484 335.46875 C 149.12484 334.82875 151.16414 332.86875 152.24414 331.46875 C 153.48414 329.78875 154.9257 326.34898 155.8457 322.70898 C 157.5657 316.18898 158.00508 314.54805 158.20508 313.74805 C 158.56508 313.78805 158.72477 313.78906 158.88477 313.78906 L 160.96484 313.70898 C 161.08484 313.70898 161.32563 313.70805 161.76562 313.74805 L 163.4043 312.46875 C 161.3243 312.42875 161.32477 312.42773 160.88477 312.42773 C 160.40477 312.42773 160.40539 312.42875 158.52539 312.46875 C 161.12539 302.30875 161.72398 301.06836 164.08398 301.06836 C 164.76398 301.06836 165.28562 301.14867 166.76562 301.38867 L 168.60547 299.22852 C 167.80547 299.02852 167.48555 298.98828 166.68555 298.98828 z M 192.55273 299.06836 C 190.35273 299.06836 189.19344 299.66852 186.27344 302.22852 C 184.19344 304.06852 183.87281 304.7493 182.63281 310.0293 L 178.79297 326.54883 L 181.63281 325.38867 L 183.99219 316.06836 C 184.39219 315.78836 184.87313 315.50875 184.95312 315.46875 C 187.71312 313.70875 189.39203 312.82813 189.83203 312.82812 C 190.11203 312.82812 190.3125 313.10875 190.3125 313.46875 C 190.3125 313.94875 190.15375 314.70914 189.59375 316.86914 C 188.35375 321.66914 187.87305 323.98836 187.87305 325.06836 C 187.87305 325.54836 188.03266 326.02906 188.47266 326.78906 C 190.67266 325.66906 193.55391 323.82852 195.75391 322.22852 L 196.0332 321.06836 C 192.6332 323.06836 192.07273 323.34961 191.55273 323.34961 C 191.19273 323.34961 190.95312 322.94859 190.95312 322.30859 C 190.95312 321.50859 191.19305 320.34805 191.87305 317.74805 C 193.15305 313.02805 193.79297 310.58773 193.79297 310.42773 C 193.79297 310.02773 193.47313 309.74805 192.95312 309.74805 C 192.11312 309.74805 189.35352 311.26781 184.35352 314.50781 L 185.71289 309.14844 C 186.67289 305.22844 187.07375 303.98828 187.59375 302.98828 C 188.15375 301.86828 188.99227 301.34961 190.07227 301.34961 C 190.59227 301.34961 190.91266 301.38898 192.47266 301.70898 L 194.19336 299.26953 C 193.47336 299.10953 193.15273 299.06836 192.55273 299.06836 z M 228.64844 299.10938 C 227.20844 299.10938 226.48891 299.54859 223.12891 302.30859 C 220.40891 304.50859 220.40781 304.50805 219.00781 310.74805 L 216.72852 320.62891 C 216.00852 323.74891 215.92906 324.14898 215.28906 326.70898 L 215.68945 326.86914 L 216.96875 325.78906 C 218.08875 326.18906 218.92945 326.38867 219.68945 326.38867 C 220.48945 326.38867 221.20805 326.14781 222.24805 325.50781 C 223.08805 324.94781 224.00875 324.42914 224.96875 323.86914 C 226.36875 323.10914 227.24773 322.22922 227.92773 320.94922 C 229.20773 318.66922 230.16797 315.14906 230.16797 312.78906 C 230.16797 310.94906 229.24859 309.74805 227.80859 309.74805 C 226.48859 309.74805 225.36914 310.34945 221.36914 313.18945 C 221.60914 312.26945 221.72859 311.62961 221.80859 311.34961 C 222.68859 307.02961 222.68859 307.02797 222.80859 306.66797 C 223.12859 305.38797 223.72797 303.82836 224.16797 303.06836 C 224.84797 301.90836 225.56789 301.54883 227.08789 301.54883 L 228.20898 301.54883 L 228.80859 301.54883 L 230.44922 299.22852 C 229.88922 299.14852 229.04844 299.10938 228.64844 299.10938 z M 128.56836 304.26953 C 127.66169 304.26953 124.51395 306.02956 120.14062 308.96289 L 120.03516 310.45508 C 123.18183 308.74842 123.44773 308.64258 123.92773 308.64258 C 124.35439 308.64258 124.56836 308.96156 124.56836 309.60156 C 124.56836 310.29489 124.40742 311.04203 123.60742 314.08203 C 121.10075 323.41536 121.10156 323.41471 121.10156 324.74805 C 121.10156 326.02805 121.63419 326.88281 122.38086 326.88281 C 123.28753 326.88281 124.72803 326.18834 127.55469 324.375 C 128.56803 323.735 129.58237 323.09567 130.5957 322.40234 C 131.0757 322.13567 131.55455 321.81609 132.08789 321.49609 L 132.30078 320.00195 C 127.23411 322.72195 127.12889 322.77539 126.43555 322.77539 C 125.84889 322.77539 125.47461 322.18792 125.47461 321.28125 C 125.47461 320.74792 125.63508 319.73583 125.95508 318.5625 C 128.67508 307.3625 129.20898 305.2294 129.20898 304.80273 C 129.20898 304.48273 128.94169 304.26953 128.56836 304.26953 z M 212.25195 309.58789 C 211.73195 309.86789 211.37094 310.06844 211.21094 310.14844 C 210.73094 310.38844 210.25047 310.62914 209.73047 310.86914 C 209.61047 310.90914 209.37164 311.02953 208.93164 311.26953 C 208.69164 312.18953 207.89031 315.3882 206.57031 320.9082 C 203.49031 323.0282 202.09133 323.82813 201.61133 323.82812 C 201.17133 323.82812 200.85156 323.26781 200.85156 322.50781 C 200.85156 321.58781 201.17156 319.98773 201.85156 317.42773 C 202.29156 315.82773 202.57141 314.70844 202.69141 314.14844 C 203.05141 312.66844 203.33016 311.62961 203.41016 311.34961 C 203.53016 310.90961 203.61133 310.54953 203.61133 310.26953 C 203.61133 309.94953 203.41086 309.74805 203.13086 309.74805 C 202.73086 309.74805 199.81164 311.30937 196.93164 313.10938 L 196.65039 314.18945 C 198.33039 313.34945 199.09031 313.0293 199.57031 313.0293 C 199.89031 313.0293 200.13086 313.34906 200.13086 313.78906 C 200.13086 314.30906 199.73172 316.02805 199.01172 318.74805 C 198.01172 322.46805 197.77148 323.58805 197.77148 324.74805 C 197.77148 325.86805 198.25063 326.70898 198.89062 326.70898 C 199.49062 326.70898 200.21094 326.3493 202.21094 325.0293 L 206.33203 322.34961 C 206.01203 323.62961 205.77148 325.06906 205.77148 325.78906 C 205.77148 326.30906 206.09023 326.70898 206.49023 326.70898 C 207.29023 326.70898 211.09055 324.46773 213.81055 322.42773 L 214.0918 321.22852 C 210.9718 323.06852 209.93023 323.62891 209.49023 323.62891 C 209.21023 323.62891 209.05078 323.30797 209.05078 322.66797 C 209.05078 320.62797 210.53195 314.66789 212.25195 309.58789 z M 138.28711 309.74805 C 137.84711 309.74805 134.96781 311.22828 132.00781 312.98828 L 131.76758 314.0293 C 134.32758 312.8693 134.48766 312.82812 134.84766 312.82812 C 135.12766 312.82812 135.32813 313.06867 135.32812 313.38867 C 135.32812 314.22867 134.56641 317.54945 133.56641 321.18945 L 132.64648 324.42773 C 132.56648 324.70773 132.36789 325.46789 132.08789 326.58789 L 135.08789 325.42773 L 137.44727 316.0293 C 142.44727 312.8693 142.56695 312.82812 143.12695 312.82812 C 143.40695 312.82812 143.56641 313.02961 143.56641 313.34961 C 143.56641 313.94961 143.24789 315.4693 142.08789 320.0293 C 141.20789 323.5893 141.04688 324.2693 141.04688 325.0293 C 141.04688 325.5893 141.20648 326.10812 141.64648 326.82812 C 143.48648 325.98813 146.24688 324.26945 149.04688 322.18945 L 149.32812 321.06836 C 145.32812 323.34836 145.16758 323.42773 144.76758 323.42773 C 144.36758 323.42773 144.12695 322.98961 144.12695 322.34961 C 144.12695 321.50961 144.40797 320.18773 145.16797 317.42773 C 147.04797 310.70773 147.04688 310.70773 147.04688 310.42773 C 147.04688 309.98773 146.76805 309.74805 146.24805 309.74805 C 145.64805 309.74805 144.76813 310.1093 143.32812 311.0293 L 137.84766 314.42773 C 138.20766 313.10773 138.80664 310.58953 138.80664 310.26953 C 138.80664 309.98953 138.56711 309.74805 138.28711 309.74805 z M 174.13672 309.74805 C 172.53672 309.74805 169.97719 310.90797 167.61719 312.66797 C 165.05719 314.58797 163.25781 318.74898 163.25781 322.70898 C 163.25781 325.14898 164.61828 326.70898 166.73828 326.70898 C 167.85828 326.70898 168.97641 326.30961 170.81641 325.34961 C 172.81641 324.22961 174.13742 323.22953 174.85742 322.26953 C 176.45742 320.10953 177.73828 316.18773 177.73828 313.42773 C 177.73828 311.26773 176.25672 309.74805 174.13672 309.74805 z M 172.05664 311.62891 C 173.65664 311.62891 174.6582 313.18789 174.6582 315.58789 C 174.6582 317.26789 174.09766 319.34859 173.09766 321.30859 C 171.97766 323.58859 170.53758 324.82812 169.01758 324.82812 C 167.37758 324.82812 166.33789 323.34836 166.33789 321.06836 C 166.33789 316.42836 169.25664 311.62891 172.05664 311.62891 z M 225.56836 312.42773 C 226.36836 312.42773 226.88867 313.18867 226.88867 314.38867 C 226.88867 315.98867 226.40852 318.38937 225.72852 320.10938 C 224.64852 322.78938 223.24828 324.10938 221.48828 324.10938 C 220.68828 324.10938 219.88766 323.86961 218.84766 323.34961 L 220.96875 314.82812 C 223.24875 313.14812 224.64836 312.42773 225.56836 312.42773 z "
           inkscape:radius="0"
           sodipodi:type="inkscape:offset" />
      </g>
      <ellipse ry="3.5907736" rx="3.7797618" cy="127.85564" cx="167.44345" id="path26" style="fill:#ff0000;stroke-width:0.26458332" />
    </g>
  </g>
</svg>
