<?xml version="1.0" encoding="UTF-8" standalone="no"?>
<svg
        xmlns:dc="http://purl.org/dc/elements/1.1/"
        xmlns:cc="http://creativecommons.org/ns#"
        xmlns:rdf="http://www.w3.org/1999/02/22-rdf-syntax-ns#"
        xmlns:svg="http://www.w3.org/2000/svg"
        xmlns="http://www.w3.org/2000/svg"
        width="100%"
        height="100%"
        viewBox="0 0 40.302498 13.842279"
        version="1.1"
        id="svg867">
    <defs
            id="defs861"/>
    <metadata
            id="metadata864">
        <rdf:RDF>
            <cc:Work
                    rdf:about="">
                <dc:format>image/svg+xml</dc:format>
                <dc:type
                        rdf:resource="http://purl.org/dc/dcmitype/StillImage"/>
                <dc:title></dc:title>
            </cc:Work>
        </rdf:RDF>
    </metadata>
    <g
            id="layer1"
            style="display:inline"
            transform="translate(-80.697201,-120.63691)">
        <g
                id="g15"
                transform="matrix(0.26458333,0,0,0.26458333,75.696891,97.700534)">
            <g
                    id="g1514">
                <g
                        id="flowRoot10"
                        style="font-style:normal;font-variant:normal;font-weight:normal;font-stretch:normal;font-size:40px;line-height:1.25;font-family:'URW Chancery L';-inkscape-font-specification:'URW Chancery L';letter-spacing:0px;word-spacing:0px;display:inline;fill:#000000;fill-opacity:1;stroke:none"
                        transform="matrix(1.2436388,0,0,1.1056452,-117.58328,-233.06438)"
                        aria-label="infohub">
                    <path
                            d="m 130.28711,292.81836 a 0.51853823,0.51853823 0 0 0 -0.33594,0.11328 c -0.23917,0.19135 -0.5479,0.37992 -0.79101,0.62305 -0.15364,0.15362 -0.58964,0.49241 -1.12891,0.92383 -0.24565,0.19651 -0.61057,0.45587 -1.08398,0.77148 a 0.51853823,0.51853823 0 0 0 -0.0234,0.0176 c -0.21504,0.16128 -0.41105,0.30415 -0.56055,0.3789 a 0.51853823,0.51853823 0 0 0 -0.26172,0.61914 c 0.39017,1.22623 0.91011,2.15031 2.0918,3.86915 a 0.51853823,0.51853823 0 0 0 0.77344,0.0937 c 1.54757,-1.38749 1.62449,-1.4686 3.43554,-2.85352 a 0.51853823,0.51853823 0 0 0 0.14844,-0.64453 c -0.31602,-0.63204 -0.56399,-1.03179 -0.69336,-1.22852 -0.32508,-0.65015 -0.35995,-0.6686 -0.7832,-1.67383 a 0.51853823,0.51853823 0 0 0 -0.0156,-0.0312 c -0.10684,-0.21371 -0.20504,-0.41008 -0.30273,-0.6543 a 0.51853823,0.51853823 0 0 0 -0.46875,-0.32422 z m 36.39844,5.65234 c -2.52645,0 -4.40405,0.9912 -7.11914,3.625 -1.1401,1.09938 -1.89918,2.02583 -2.53125,3.48828 -0.59955,1.38722 -1.1115,3.32044 -1.82813,6.34571 -0.12561,-0.005 -0.30702,-0.0195 -0.40234,-0.0195 a 0.51853823,0.51853823 0 0 0 -0.0215,0 l -1.9375,0.0801 c -0.001,0 -0.007,0 -0.008,0 -0.085,4e-5 -0.24111,8.7e-4 -0.5293,-0.0351 a 0.51853823,0.51853823 0 0 0 -0.35156,0.082 c -0.24026,0.16018 -0.54794,0.35014 -0.50391,0.32812 a 0.51853823,0.51853823 0 0 0 -0.0156,0.008 l -0.88086,0.48047 c -0.16203,0.081 -0.48739,0.24212 -0.82812,0.45507 a 0.51853823,0.51853823 0 0 0 0.27539,0.95703 H 151 l 2.79688,0.041 a 0.51853823,0.51853823 0 0 0 0.008,0 c 0.13184,0 0.53998,-0.0146 0.82226,-0.0215 -0.51947,2.01084 -0.80051,3.20228 -1.48828,6.35156 -1.19832,5.49229 -2.04099,8.68252 -2.9375,10.39648 -0.44825,0.85698 -0.88933,1.33083 -1.38476,1.61133 -0.49544,0.2805 -1.0864,0.38672 -1.89063,0.38672 -0.53579,0 -0.97485,-0.0368 -2.04492,-0.19531 a 0.51853823,0.51853823 0 0 0 -0.50781,0.22656 c -0.40251,0.60377 -0.51156,0.78271 -0.7793,1.12695 a 0.51853823,0.51853823 0 0 0 -0.01,0.0137 c -0.3082,0.42379 -0.67352,0.87162 -1.01171,1.37891 a 0.51853823,0.51853823 0 0 0 0.36132,0.80078 c 0.88763,0.12104 1.36956,0.16406 2.03125,0.16407 1.37052,0 2.47271,-0.18903 3.25,-0.625 l 0.004,-0.002 c 1.32698,-0.73337 3.30652,-2.67122 4.43555,-4.13476 a 0.51853823,0.51853823 0 0 0 0.008,-0.008 c 1.32679,-1.79759 2.75303,-5.25189 3.68555,-8.9414 v 0.006 c 1.64014,-6.2173 2.03552,-7.69759 2.25195,-8.55274 0.082,0.003 0.22234,0.0176 0.28516,0.0176 a 0.51853823,0.51853823 0 0 0 0.0195,0 l 2.06054,-0.0801 c 0.12268,0 0.33163,-0.001 0.75391,0.0371 a 0.51853823,0.51853823 0 0 0 0.36523,-0.10742 l 1.63868,-1.2793 a 0.51853823,0.51853823 0 0 0 -0.3086,-0.92578 c -2.07983,-0.04 -2.08849,-0.041 -2.52929,-0.041 -0.34056,0 -0.97957,0.0147 -1.67969,0.0293 1.17912,-4.57313 1.97155,-7.3482 2.65625,-8.7539 0.36204,-0.74327 0.68607,-1.12418 1.0039,-1.32813 0.31784,-0.20395 0.67417,-0.27148 1.21875,-0.27148 0.63918,0 1.12058,0.0746 2.59961,0.31445 a 0.51853823,0.51853823 0 0 0 0.47657,-0.17578 L 169,299.56445 a 0.51853823,0.51853823 0 0 0 -0.26953,-0.83984 c -0.81568,-0.20392 -1.22754,-0.25391 -2.04492,-0.25391 z m 25.86718,0.0801 c -1.14714,0 -2.10115,0.16908 -3.10351,0.67578 -1.00236,0.50671 -2.04711,1.32215 -3.51758,2.61133 a 0.51853823,0.51853823 0 0 0 -0.002,0.002 c -1.05387,0.93227 -1.73193,1.64494 -2.26172,2.7793 -0.5298,1.13436 -0.91792,2.64616 -1.53906,5.29102 a 0.51853823,0.51853823 0 0 0 -0.002,0.002 l -3.83984,16.51953 a 0.51853823,0.51853823 0 0 0 0.70117,0.59766 l 2.83984,-1.16016 a 0.51853823,0.51853823 0 0 0 0.30665,-0.35352 l 2.31054,-9.12304 c 0.1429,-0.0953 0.29146,-0.19435 0.41797,-0.27149 0.17354,-0.10582 0.34273,-0.19968 0.32227,-0.18945 a 0.51853823,0.51853823 0 0 0 0.0469,-0.0254 c 1.37287,-0.87545 2.4742,-1.53073 3.27539,-1.96094 0.4006,-0.2151 0.7268,-0.37476 0.96485,-0.47461 0.19785,-0.083 0.28636,-0.0953 0.29882,-0.10351 0.0102,0.0245 0.0234,0.0436 0.0234,0.10156 0,0.36568 -0.14457,1.1151 -0.70312,3.26953 a 0.51853823,0.51853823 0 0 0 0,0.002 c -1.242,4.80775 -1.73633,7.09428 -1.73633,8.32813 0,0.59494 0.20771,1.18548 0.66797,1.98047 a 0.51853823,0.51853823 0 0 0 0.68359,0.20312 c 2.24156,-1.14115 5.13038,-2.9881 7.35156,-4.60351 a 0.51853823,0.51853823 0 0 0 0.19922,-0.29883 l 0.2793,-1.16016 a 0.51853823,0.51853823 0 0 0 -0.76758,-0.56836 c -1.69842,0.99908 -2.68693,1.56793 -3.29101,1.875 -0.60409,0.30708 -0.75926,0.33594 -0.92579,0.33594 0.0125,0 0.0526,0.0435 0.0137,-0.0234 -0.0389,-0.0669 -0.0957,-0.2447 -0.0957,-0.5 0,-0.69568 0.22583,-1.83856 0.90235,-4.42578 l 0.002,-0.004 c 0.63946,-2.35803 1.11901,-4.14731 1.43945,-5.36914 0.16035,-0.61139 0.28016,-1.08034 0.36133,-1.41016 0.0406,-0.16491 0.0721,-0.29554 0.0937,-0.39453 0.0217,-0.099 0.041,-0.0845 0.041,-0.27735 0,-0.33819 -0.15396,-0.67511 -0.41211,-0.88867 -0.25816,-0.21356 -0.59236,-0.30859 -0.94532,-0.30859 -0.36634,0 -0.71559,0.12369 -1.19726,0.32812 -0.48167,0.20444 -1.07343,0.50262 -1.79297,0.90039 -1.17142,0.64758 -2.92328,1.74891 -4.79492,2.94141 l 1.04687,-4.125 a 0.51853823,0.51853823 0 0 0 0.002,-0.004 c 0.95807,-3.91215 1.34852,-5.10382 1.83789,-6.04492 a 0.51853823,0.51853823 0 0 0 0.002,-0.006 c 0.49605,-0.99209 1.10163,-1.35351 2.01563,-1.35351 0.49383,0 0.74236,0.0307 2.29687,0.34961 a 0.51853823,0.51853823 0 0 0 0.52734,-0.20899 l 1.72071,-2.43945 a 0.51853823,0.51853823 0 0 0 -0.31055,-0.80469 c -0.73343,-0.16298 -1.13019,-0.21289 -1.75391,-0.21289 z m 36.09571,0.041 c -0.77272,0 -1.46232,0.1458 -2.30078,0.63476 -0.83847,0.48897 -1.86328,1.29868 -3.54688,2.68164 -1.35835,1.09867 -2.13064,1.72496 -2.69336,2.87696 -0.56308,1.15272 -0.90546,2.72957 -1.60547,5.84961 l -2.27929,9.87695 c -0.72031,3.12132 -0.79814,3.5148 -1.4375,6.07226 a 0.51853823,0.51853823 0 0 0 0.31054,0.60547 l 0.40039,0.16016 a 0.51853823,0.51853823 0 0 0 0.52735,-0.084 l 1.0664,-0.90039 c 0.99684,0.33801 1.82926,0.54102 2.59961,0.54102 0.90407,0 1.74874,-0.29159 2.83008,-0.95703 a 0.51853823,0.51853823 0 0 0 0.0156,-0.01 c 0.81336,-0.54224 1.72271,-1.05603 2.68164,-1.61523 1.46372,-0.79459 2.44196,-1.76998 3.16211,-3.1211 l 0.002,-0.006 c 1.33587,-2.38207 2.30469,-5.90933 2.30469,-8.40821 0,-1.00635 -0.24697,-1.88157 -0.7461,-2.52734 -0.49913,-0.64577 -1.26671,-1.03125 -2.13086,-1.03125 -0.73874,0 -1.47001,0.18786 -2.45898,0.7168 -0.73305,0.39206 -1.94248,1.23717 -3.17383,2.08984 0.0318,-0.14082 0.11293,-0.48216 0.13086,-0.54492 a 0.51853823,0.51853823 0 0 0 0.01,-0.0391 c 0.44,-2.16001 0.66141,-3.2408 0.78515,-3.82031 0.12374,-0.5795 0.1393,-0.621 0.19922,-0.80078 a 0.51853823,0.51853823 0 0 0 0.0117,-0.0391 c 0.30688,-1.22752 0.91451,-2.79162 1.30273,-3.46289 l 0.002,-0.002 c 0.31067,-0.52922 0.5855,-0.81443 0.93359,-0.99414 0.3488,-0.18006 0.81799,-0.26757 1.53711,-0.26757 h 1.12109 0.59961 a 0.51853823,0.51853823 0 0 0 0.42383,-0.21875 l 1.64063,-2.32032 a 0.51853823,0.51853823 0 0 0 -0.34961,-0.8125 c -0.60849,-0.0869 -1.44118,-0.12304 -1.875,-0.12304 z m -100.08008,5.16015 c -0.39442,0 -0.77219,0.13935 -1.28906,0.36133 -0.51688,0.22198 -1.14353,0.54033 -1.87696,0.94922 -1.46684,0.81777 -3.35616,1.99871 -5.55078,3.4707 a 0.51853823,0.51853823 0 0 0 -0.22851,0.39258 l -0.10547,1.49219 a 0.51853823,0.51853823 0 0 0 0.76562,0.49219 c 1.57191,-0.85256 2.42586,-1.30514 2.91602,-1.53125 0.49015,-0.22612 0.52662,-0.21875 0.72851,-0.21875 0.0841,0 0.0308,-0.0172 0.0488,0.01 0.018,0.027 0.0742,0.16942 0.0742,0.43164 0,0.6131 -0.14628,1.31133 -0.94531,4.34766 l 0.002,-0.002 c -1.25334,4.66667 -1.87972,6.99767 -2.19726,8.34961 -0.31754,1.35193 -0.32618,1.7846 -0.32618,2.45117 0,0.71191 0.14038,1.33262 0.4336,1.8164 0.29322,0.48379 0.7921,0.83594 1.36328,0.83594 1.17103,0 2.60971,-0.76516 5.45117,-2.58789 l 0.002,-0.002 c 0.99892,-0.63089 2.00427,-1.26587 3.01368,-1.95508 l 0.0293,-0.0176 c 0.004,-0.003 0.008,-0.005 0.0117,-0.008 0.49067,-0.27543 0.96088,-0.58512 1.4668,-0.88867 a 0.51853823,0.51853823 0 0 0 0.24609,-0.37305 l 0.21289,-1.49414 a 0.51853823,0.51853823 0 0 0 -0.75976,-0.5293 c -2.53327,1.35996 -3.83028,2.05431 -4.54883,2.39453 -0.71855,0.34022 -0.73696,0.31836 -1.07031,0.31836 -0.12027,0 -0.17098,-0.0254 -0.26367,-0.16992 -0.0927,-0.14451 -0.17969,-0.42465 -0.17969,-0.80664 0,-0.42933 0.15123,-1.43927 0.46289,-2.58203 a 0.51853823,0.51853823 0 0 0 0.004,-0.0137 c 1.35995,-5.59978 2.17229,-8.93222 2.64649,-10.92188 0.2371,-0.99483 0.38992,-1.65374 0.48437,-2.09765 0.0945,-0.44392 0.13672,-0.64849 0.13672,-0.86329 0,-0.30436 -0.14563,-0.60336 -0.36914,-0.78711 -0.2235,-0.18374 -0.5037,-0.26367 -0.78906,-0.26367 z m 83.69922,5.31836 a 0.51853823,0.51853823 0 0 0 -0.26172,0.0605 c -0.5228,0.2815 -0.89833,0.49018 -1.02734,0.55469 -0.48024,0.24012 -0.95427,0.47724 -1.46485,0.71289 l 0.0527,-0.0215 c -0.2203,0.0734 -0.43756,0.19464 -0.88282,0.4375 a 0.51853823,0.51853823 0 0 0 -0.2539,0.32422 c -0.23783,0.91169 -1.04315,4.13512 -2.31446,9.44531 -1.42595,0.97785 -2.52401,1.69926 -3.26171,2.13086 -0.38691,0.22637 -0.68934,0.38544 -0.90625,0.48047 -0.21692,0.095 -0.35996,0.11524 -0.33594,0.11524 8e-5,0 -0.0211,0.0148 -0.0957,-0.11524 -0.0746,-0.13001 -0.14648,-0.38022 -0.14648,-0.6875 0,-0.79977 0.30778,-2.40006 0.98438,-4.94726 0.43869,-1.59552 0.71623,-2.7047 0.84179,-3.28907 l 0.004,-0.0137 c 0.35609,-1.46286 0.63501,-2.50673 0.70898,-2.76562 a 0.51853823,0.51853823 0 0 0 0.002,-0.006 c 0.12327,-0.45202 0.21875,-0.8366 0.21875,-1.2168 0,-0.26827 -0.0893,-0.53873 -0.27539,-0.73633 -0.18612,-0.19759 -0.4583,-0.30273 -0.72266,-0.30273 -0.21865,0 -0.30096,0.0476 -0.44531,0.10156 -0.14435,0.0539 -0.31076,0.12795 -0.50586,0.21875 -0.39021,0.18161 -0.88899,0.43521 -1.46485,0.7461 -1.15171,0.62176 -2.60896,1.46702 -4.05859,2.37304 a 0.51853823,0.51853823 0 0 0 -0.22656,0.3086 l -0.28125,1.08007 a 0.51853823,0.51853823 0 0 0 0.73437,0.59375 c 1.66161,-0.8308 2.41793,-1.09652 2.67188,-1.09961 0.0206,0.0277 0.0586,0.11082 0.0586,0.23633 0,0.12734 -0.09,0.71487 -0.27734,1.53906 -0.18739,0.8242 -0.46702,1.93032 -0.82617,3.28711 l 0.002,-0.002 c -1.00137,3.72509 -1.25781,4.90318 -1.25781,6.13477 0,0.63394 0.12795,1.20457 0.38671,1.6582 0.25877,0.45363 0.70292,0.82031 1.25,0.82031 0.80681,0 1.59416,-0.43562 3.60352,-1.76172 l 0.002,-0.002 3.13868,-2.04101 c -0.16956,0.8669 -0.38086,1.81235 -0.38086,2.36718 0,0.36594 0.10776,0.70671 0.31836,0.97461 0.21059,0.2679 0.54517,0.46289 0.91796,0.46289 0.4421,0 0.7874,-0.17941 1.32032,-0.43164 0.53291,-0.25223 1.17865,-0.60067 1.88281,-1.01367 1.40831,-0.82601 3.04792,-1.90459 4.42773,-2.93945 a 0.51853823,0.51853823 0 0 0 0.19336,-0.29492 l 0.28125,-1.19922 a 0.51853823,0.51853823 0 0 0 -0.76758,-0.56641 c -1.55809,0.91888 -2.59626,1.51849 -3.2832,1.87891 -0.60308,0.31642 -0.84761,0.37475 -0.92578,0.39648 -0.0219,-0.0801 -0.0508,-0.17428 -0.0508,-0.38867 0,-0.89452 0.36009,-2.91154 0.94141,-5.27539 0.58131,-2.36386 1.37767,-5.11419 2.23242,-7.63867 a 0.51853823,0.51853823 0 0 0 -0.47461,-0.6836 z m -73.98047,0.16016 c -0.20036,0 -0.29759,0.0445 -0.44531,0.0957 -0.14772,0.0512 -0.31661,0.11841 -0.51368,0.20508 -0.39412,0.17334 -0.89413,0.41862 -1.47265,0.7168 -1.15705,0.59635 -2.62469,1.40981 -4.11328,2.29492 a 0.51853823,0.51853823 0 0 0 -0.24024,0.32812 l -0.24023,1.04102 a 0.51853823,0.51853823 0 0 0 0.7207,0.58984 c 1.2784,-0.57927 1.9584,-0.87868 2.33594,-1.02343 0.37754,-0.14476 0.36907,-0.13282 0.5293,-0.13282 -0.017,0 -0.0371,-0.0605 -0.0371,0.043 0,0.26328 -0.1811,1.35665 -0.49414,2.73633 -0.31305,1.37968 -0.75176,3.11415 -1.25,4.92773 l -0.91797,3.23243 c -0.0858,0.30041 -0.28385,1.05532 -0.56446,2.17773 a 0.51853823,0.51853823 0 0 0 0.69141,0.60938 l 3,-1.16016 a 0.51853823,0.51853823 0 0 0 0.31445,-0.35742 l 2.3086,-9.19531 c 2.3126,-1.4608 3.63565,-2.28893 4.30664,-2.66407 0.34903,-0.19514 0.54899,-0.28182 0.6582,-0.3164 0.0761,-0.0241 0.12521,-0.0221 0.1836,-0.0234 -5.6e-4,0.41825 -0.3032,1.99574 -1.46094,6.54687 a 0.51853823,0.51853823 0 0 0 -0.002,0.002 c -0.88015,3.56063 -1.05468,4.29177 -1.05468,5.125 0,0.65851 0.20513,1.30139 0.67382,2.06836 a 0.51853823,0.51853823 0 0 0 0.65821,0.20117 c 1.90484,-0.86959 4.67294,-2.59762 7.49414,-4.69336 a 0.51853823,0.51853823 0 0 0 0.19336,-0.28906 l 0.28125,-1.1211 a 0.51853823,0.51853823 0 0 0 -0.75781,-0.57812 c -1.99966,1.1398 -3.04474,1.7317 -3.61329,2.02539 -0.28427,0.14684 -0.44738,0.21714 -0.53125,0.24414 -0.0839,0.027 -0.0773,0.0234 -0.16015,0.0234 -0.0107,0 0.0226,0.0328 -0.0215,-0.043 -0.044,-0.0758 -0.10156,-0.26256 -0.10156,-0.51758 0,-0.7238 0.26736,-2.03496 1.02344,-4.78125 v -0.004 c 0.93885,-3.35591 1.40813,-5.03672 1.64453,-5.91797 0.11827,-0.44089 0.17872,-0.68109 0.21289,-0.8496 0.0342,-0.16852 0.0391,-0.29948 0.0391,-0.36915 0,-0.32952 -0.12526,-0.67705 -0.38476,-0.89843 -0.2595,-0.22139 -0.59198,-0.29883 -0.93164,-0.29883 -0.80812,0 -1.73035,0.42289 -3.19922,1.36133 l -4.38672,2.7207 c 0.10609,-0.42433 0.20787,-0.80579 0.30469,-1.2207 0.0981,-0.42031 0.1847,-0.80981 0.24804,-1.11914 0.0633,-0.30933 0.10938,-0.46138 0.10938,-0.70313 0,-0.5757 -0.45901,-1.03906 -1.03711,-1.03906 z m 35.84961,0 c -1.85059,0 -4.41358,1.21935 -6.83008,3.02148 a 0.51853823,0.51853823 0 0 0 0,0.002 c -2.75436,2.06577 -4.56641,6.33801 -4.56641,10.45507 0,1.31637 0.36859,2.44767 1.07227,3.25586 0.70368,0.8082 1.73861,1.26172 2.92578,1.26172 1.24326,0 2.45427,-0.4454 4.31836,-1.41797 a 0.51853823,0.51853823 0 0 0 0.0137,-0.006 c 2.02989,-1.13673 3.40223,-2.1574 4.20117,-3.22265 a 0.51853823,0.51853823 0 0 0 0.002,-0.002 c 1.69989,-2.29485 2.98242,-6.22997 2.98242,-9.15039 0,-2.39708 -1.75136,-4.19726 -4.11914,-4.19726 z m -2.08008,2.91601 c 0.6316,0 1.09245,0.27242 1.4668,0.84571 0.37434,0.57328 0.61718,1.46782 0.61718,2.5957 0,1.56467 -0.53576,3.58683 -1.5039,5.48438 a 0.51853823,0.51853823 0 0 0 -0.004,0.008 c -1.07524,2.18888 -2.37711,3.23047 -3.61523,3.23047 -0.66406,0 -1.14907,-0.26826 -1.53125,-0.80664 -0.38218,-0.53839 -0.63086,-1.37436 -0.63086,-2.43555 0,-2.21128 0.70636,-4.49673 1.73437,-6.19141 1.02802,-1.69467 2.36304,-2.73047 3.4668,-2.73047 z m 53.51172,0.79883 c 0.23561,0 0.37984,0.0788 0.53125,0.30274 0.15141,0.2239 0.27148,0.61556 0.27148,1.14062 0,1.49627 -0.47496,3.88508 -1.125,5.5293 -0.52172,1.29391 -1.11202,2.22768 -1.73828,2.81836 -0.6267,0.59109 -1.26915,0.85547 -2.01953,0.85547 -0.59638,0 -1.23812,-0.19318 -2.0293,-0.55078 l 1.96485,-7.89063 c 2.14904,-1.5635 3.51271,-2.20508 4.14453,-2.20508 z"
                            id="path27"
                            style="display:inline;fill:#ffffff"
                            transform="translate(-1.608184)"/>
                </g>
                <ellipse
                        ry="24.568451"
                        rx="24.946428"
                        cy="114.4375"
                        cx="43.845238"
                        id="path24"
                        style="display:inline;fill:#008000;stroke-width:0.264583"/>
                <g
                        id="flowRoot10-6"
                        style="font-style:normal;font-variant:normal;font-weight:normal;font-stretch:normal;font-size:40px;line-height:1.25;font-family:'URW Chancery L';-inkscape-font-specification:'URW Chancery L';letter-spacing:0px;word-spacing:0px;display:inline;fill:#000000;fill-opacity:1;stroke:none"
                        transform="matrix(1.2436388,0,0,1.1056452,-123.60523,-237.16638)"
                        aria-label="infohub">
                    <path
                            d="m 130.26758,293.27148 a 0.06444314,0.06444314 0 0 0 -0.0332,0.0137 c -0.26325,0.2106 -0.58163,0.42145 -0.75196,0.59179 -0.20592,0.2059 -0.63389,0.52782 -1.16797,0.95508 -0.26405,0.21124 -0.63605,0.47742 -1.11523,0.79688 a 0.06444314,0.06444314 0 0 0 -0.004,0.002 c -0.21354,0.16016 -0.4235,0.31722 -0.6289,0.41992 a 0.06444314,0.06444314 0 0 0 -0.0312,0.0781 c 0.37543,1.1799 0.85883,2.04181 2.0332,3.75 a 0.06444314,0.06444314 0 0 0 0.0957,0.0117 c 1.54679,-1.38677 1.64984,-1.4905 3.46289,-2.87695 a 0.06444314,0.06444314 0 0 0 0.0195,-0.0801 c -0.32125,-0.64251 -0.59059,-1.07143 -0.69921,-1.23437 l 0.006,0.006 c -0.32063,-0.64126 -0.37258,-0.68885 -0.79882,-1.70117 a 0.06444314,0.06444314 0 0 0 0,-0.004 c -0.10669,-0.21339 -0.21281,-0.42362 -0.31836,-0.6875 a 0.06444314,0.06444314 0 0 0 -0.0684,-0.041 z m 36.41797,5.65235 c -2.41576,0 -4.12025,0.89374 -6.80469,3.49805 -1.1225,1.0824 -1.82126,1.93403 -2.42969,3.34179 -0.605,1.39983 -1.12361,3.35187 -1.89648,6.63867 -0.34898,-0.0324 -0.56383,-0.0391 -0.75,-0.0391 a 0.06444314,0.06444314 0 0 0 -0.002,0 l -1.95703,0.0801 c -0.0805,0 -0.27717,5.1e-4 -0.59375,-0.0391 a 0.06444314,0.06444314 0 0 0 -0.043,0.0117 c -0.24003,0.16002 -0.48815,0.32123 -0.55273,0.35351 a 0.06444314,0.06444314 0 0 0 -0.002,0.002 l -0.88086,0.48047 c -0.16039,0.0802 -0.48048,0.24 -0.80274,0.44141 a 0.06444314,0.06444314 0 0 0 0.0332,0.11914 h 1 l 2.80078,0.041 c 0.22596,0 0.68223,-0.006 1.39648,-0.0391 -0.62146,2.3736 -0.86918,3.48588 -1.61914,6.91993 -1.19979,5.49904 -2.03106,8.69839 -2.97851,10.50976 -0.47373,0.90569 -0.97396,1.46171 -1.5625,1.79492 -0.58855,0.33322 -1.27093,0.44531 -2.11524,0.44532 -0.55699,0 -1.03256,-0.0394 -2.11133,-0.19922 a 0.06444314,0.06444314 0 0 0 -0.0625,0.0293 c -0.40031,0.60047 -0.52035,0.79626 -0.79883,1.1543 a 0.06444314,0.06444314 0 0 0 -0.002,0.002 c -0.31853,0.43799 -0.67774,0.87989 -1,1.36328 a 0.06444314,0.06444314 0 0 0 0.0449,0.0996 c 0.88095,0.12013 1.32606,0.16016 1.96875,0.16016 1.32653,0 2.37417,-0.19875 3.03125,-0.56836 1.18076,-0.65145 3.21264,-2.60955 4.29883,-4.01758 a 0.06444314,0.06444314 0 0 0 0.002,0 c 1.25078,-1.69461 2.68977,-5.13705 3.61132,-8.7832 1.70988,-6.48163 2.1437,-8.10154 2.34571,-8.9082 0.30346,0.0312 0.4838,0.0371 0.63086,0.0371 a 0.06444314,0.06444314 0 0 0 0.002,0 l 2.07812,-0.0801 c 0.12034,0 0.35714,-7.4e-4 0.79493,0.0391 a 0.06444314,0.06444314 0 0 0 0.0449,-0.0137 l 1.63867,-1.2793 a 0.06444314,0.06444314 0 0 0 -0.0371,-0.11523 c -2.07998,-0.04 -2.08138,-0.041 -2.52148,-0.041 -0.46262,0 -0.59266,0.003 -2.27539,0.0391 1.28607,-5.02221 2.08436,-7.85699 2.84374,-9.41601 0.382,-0.78424 0.75312,-1.24552 1.16797,-1.51172 0.41485,-0.2662 0.87854,-0.3418 1.46289,-0.3418 0.67493,0 1.192,0.0803 2.67188,0.32031 a 0.06444314,0.06444314 0 0 0 0.0586,-0.0234 l 1.83985,-2.16016 a 0.06444314,0.06444314 0 0 0 -0.0332,-0.10351 c -0.80194,-0.20049 -1.13338,-0.24219 -1.93554,-0.24219 z m 25.86718,0.0801 c -1.10586,0 -1.9596,0.15235 -2.89843,0.62695 -0.93884,0.4746 -1.96253,1.26769 -3.42383,2.54883 -1.04172,0.92152 -1.65093,1.5634 -2.15039,2.63281 -0.49946,1.06941 -0.88963,2.56057 -1.50977,5.20117 a 0.06444314,0.06444314 0 0 0 0,0.002 l -3.83984,16.51954 a 0.06444314,0.06444314 0 0 0 0.0859,0.0742 l 2.83984,-1.16016 a 0.06444314,0.06444314 0 0 0 0.0391,-0.0449 l 2.35352,-9.29492 c 0.19321,-0.13439 0.40446,-0.26911 0.57812,-0.375 0.1794,-0.1094 0.32299,-0.19079 0.35547,-0.20704 a 0.06444314,0.06444314 0 0 0 0.006,-0.004 c 1.37911,-0.87944 2.48726,-1.5396 3.30469,-1.97852 0.40871,-0.21946 0.74453,-0.3834 1.00391,-0.49219 0.25937,-0.10879 0.44664,-0.16015 0.53515,-0.16015 0.11847,0 0.21764,0.0563 0.29297,0.1582 0.0753,0.10192 0.12305,0.24993 0.12305,0.41797 0,0.46579 -0.15698,1.22546 -0.7168,3.38477 -1.24025,4.80096 -1.72266,7.11572 -1.72266,8.21484 0,0.49428 0.16491,0.98956 0.60743,1.75391 a 0.06444314,0.06444314 0 0 0 0.0859,0.0234 c 2.20517,-1.12263 5.08643,-2.96254 7.28907,-4.56445 a 0.06444314,0.06444314 0 0 0 0.0254,-0.0371 l 0.27929,-1.16016 A 0.06444314,0.06444314 0 0 0 196,321.01367 c -1.6998,0.99989 -2.68952,1.57001 -3.31641,1.88867 -0.62688,0.31867 -0.88247,0.38282 -1.13086,0.38282 -0.15607,0 -0.2822,-0.0819 -0.3789,-0.24805 -0.0967,-0.16617 -0.15625,-0.41656 -0.15625,-0.72852 0,-0.7869 0.23864,-1.9454 0.91797,-4.54297 v -0.002 c 0.6397,-2.3589 1.11949,-4.14914 1.43945,-5.36914 0.16003,-0.61021 0.28119,-1.07867 0.36133,-1.4043 0.0401,-0.16281 0.0696,-0.28863 0.0898,-0.38085 0.0202,-0.0922 0.0312,-0.14017 0.0312,-0.18165 0,-0.21717 -0.089,-0.4075 -0.24804,-0.53906 -0.15903,-0.13156 -0.3847,-0.20508 -0.65626,-0.20508 -0.22943,0 -0.56124,0.0985 -1.01953,0.29297 -0.45828,0.19451 -1.04081,0.48773 -1.75195,0.88086 -1.39301,0.77008 -3.29992,1.93805 -5.72656,3.50781 l 1.32031,-5.20117 c 0.95976,-3.91902 1.35881,-5.1538 1.875,-6.14648 a 0.06444314,0.06444314 0 0 0 0.002,0 c 0.55206,-1.10411 1.36056,-1.60352 2.41993,-1.60352 0.51674,0 0.8274,0.0376 2.38671,0.35742 a 0.06444314,0.06444314 0 0 0 0.0664,-0.0254 l 1.7207,-2.43945 a 0.06444314,0.06444314 0 0 0 -0.0391,-0.0996 c -0.72167,-0.16037 -1.05135,-0.20312 -1.6543,-0.20312 z m 36.09571,0.041 c -0.72655,0 -1.28511,0.11517 -2.07227,0.57422 -0.78716,0.45905 -1.80783,1.26026 -3.48828,2.64063 v -0.002 c -1.35999,1.1 -2.05105,1.65954 -2.57227,2.72657 -0.52121,1.06702 -0.87031,2.62999 -1.57031,5.75 l -2.27929,9.88085 c -0.72004,3.12017 -0.79954,3.51844 -1.43946,6.07813 a 0.06444314,0.06444314 0 0 0 0.0391,0.0762 l 0.4004,0.16016 a 0.06444314,0.06444314 0 0 0 0.0644,-0.0117 l 1.25195,-1.05664 c 1.10476,0.39234 1.9443,0.59179 2.70703,0.59179 0.81294,0 1.54666,-0.24746 2.5918,-0.89062 a 0.06444314,0.06444314 0 0 0 0.002,-0.002 c 0.83651,-0.55768 1.75712,-1.07499 2.7168,-1.63477 l 0.002,-0.002 c 1.40644,-0.76396 2.29787,-1.65541 2.98243,-2.94336 v -0.002 c 1.28671,-2.29273 2.24804,-5.81248 2.24804,-8.18946 0,-0.93073 -0.2314,-1.70539 -0.65234,-2.25 -0.42094,-0.54461 -1.03357,-0.85547 -1.77149,-0.85547 -0.66978,0 -1.29575,0.15578 -2.24609,0.66407 -0.92411,0.49425 -2.18481,1.34203 -4.0918,2.69336 0.20018,-0.794 0.32978,-1.42669 0.40039,-1.67383 a 0.06444314,0.06444314 0 0 0 0,-0.004 c 0.44,-2.16 0.66032,-3.24149 0.78516,-3.82617 0.12484,-0.58468 0.1529,-0.66964 0.21289,-0.84961 a 0.06444314,0.06444314 0 0 0 0.002,-0.004 c 0.3184,-1.27358 0.91996,-2.83315 1.35352,-3.58203 h -0.002 c 0.33645,-0.57394 0.67735,-0.94185 1.11914,-1.16992 0.44178,-0.22807 0.99117,-0.31836 1.74609,-0.31836 h 1.12109 0.59961 a 0.06444314,0.06444314 0 0 0 0.0527,-0.0273 l 1.64062,-2.32032 a 0.06444314,0.06444314 0 0 0 -0.043,-0.10156 c -0.56602,-0.0809 -1.40634,-0.11914 -1.81054,-0.11914 z m -100.08008,5.16016 c -0.24752,0 -0.61522,0.11395 -1.10938,0.32617 -0.49415,0.21222 -1.11123,0.52371 -1.83593,0.92773 -1.44941,0.80806 -3.32993,1.98385 -5.51758,3.45118 a 0.06444314,0.06444314 0 0 0 -0.0293,0.0488 l -0.10547,1.49219 a 0.06444314,0.06444314 0 0 0 0.0957,0.0606 c 1.57315,-0.85323 2.42528,-1.30683 2.9414,-1.54492 0.51613,-0.2381 0.68466,-0.25977 0.91992,-0.25977 0.19728,0 0.33,0.0677 0.42579,0.21094 0.0958,0.14324 0.15039,0.37077 0.15039,0.68359 0,0.68336 -0.15911,1.4253 -0.95899,4.46485 -1.25291,4.66509 -1.87973,6.9987 -2.19336,8.33398 -0.31368,1.3355 -0.31445,1.681 -0.31445,2.34766 0,0.64893 0.13436,1.1927 0.36914,1.58007 0.23478,0.38738 0.57669,0.61915 0.97461,0.61915 0.93957,0 2.38024,-0.70291 5.20898,-2.51758 1.01136,-0.63875 2.02443,-1.27803 3.03711,-1.97071 l 0.006,-0.004 c 0.48123,-0.26778 0.95872,-0.58657 1.48828,-0.9043 a 0.06444314,0.06444314 0 0 0 0.0312,-0.0449 l 0.21289,-1.49414 a 0.06444314,0.06444314 0 0 0 -0.0957,-0.0664 c -2.53332,1.36 -3.8255,2.05257 -4.56836,2.4043 -0.74286,0.35173 -0.92061,0.36133 -1.26562,0.36133 -0.27182,0 -0.48881,-0.13113 -0.64649,-0.37696 -0.15768,-0.24582 -0.25,-0.60826 -0.25,-1.05273 0,-0.5204 0.15955,-1.53164 0.47852,-2.70117 a 0.06444314,0.06444314 0 0 0 0,-0.002 c 1.35999,-5.59997 2.17292,-8.93293 2.64648,-10.91992 0.23679,-0.99349 0.38963,-1.6518 0.48242,-2.08789 0.0928,-0.43609 0.12696,-0.64747 0.12696,-0.76758 0,-0.17794 -0.076,-0.331 -0.20313,-0.43554 -0.12716,-0.10454 -0.30302,-0.16211 -0.50195,-0.16211 z m 83.67773,5.31836 a 0.06444314,0.06444314 0 0 0 -0.0254,0.008 c -0.52034,0.28019 -0.88291,0.48052 -1.03906,0.55859 -0.48003,0.24002 -0.95969,0.48125 -1.47852,0.72071 l 0.008,-0.002 c -0.13247,0.0442 -0.3699,0.16394 -0.81055,0.4043 a 0.06444314,0.06444314 0 0 0 -0.0312,0.041 c -0.23993,0.91974 -1.03963,4.11319 -2.35547,9.61523 -1.52765,1.0511 -2.64145,1.77711 -3.42969,2.23828 -0.39607,0.23173 -0.71201,0.39742 -0.95507,0.50391 -0.24307,0.10649 -0.41548,0.15234 -0.51758,0.15234 -0.19265,0 -0.36084,-0.12173 -0.48828,-0.34375 -0.12745,-0.22202 -0.20703,-0.54114 -0.20703,-0.91211 0,-0.90482 0.31883,-2.50527 0.99804,-5.0625 v -0.002 c 0.43952,-1.59834 0.71914,-2.71628 0.83985,-3.2793 v -0.002 c 0.35949,-1.47776 0.6395,-2.51757 0.71875,-2.79492 0.1204,-0.4415 0.20312,-0.80521 0.20312,-1.09766 0,-0.17345 -0.0547,-0.32208 -0.15234,-0.42578 -0.0977,-0.1037 -0.23713,-0.16016 -0.39258,-0.16016 -0.071,0 -0.15887,0.0271 -0.28516,0.0742 -0.12629,0.0472 -0.28619,0.11544 -0.47461,0.20313 -0.37682,0.17538 -0.87076,0.42826 -1.4414,0.73633 -1.14129,0.61613 -2.59006,1.45666 -4.03125,2.35742 a 0.06444314,0.06444314 0 0 0 -0.0293,0.0391 l -0.28125,1.08008 a 0.06444314,0.06444314 0 0 0 0.0918,0.0742 c 1.6789,-0.83946 2.43927,-1.1543 2.89062,-1.1543 0.13854,0 0.25741,0.0678 0.34766,0.18945 0.0902,0.12162 0.14844,0.29761 0.14844,0.50586 0,0.24352 -0.0976,0.80719 -0.28711,1.64063 -0.18949,0.83343 -0.47019,1.94313 -0.83008,3.30273 -0.99968,3.7189 -1.24219,4.84696 -1.24219,6.01563 0,0.56919 0.12101,1.06855 0.32813,1.43164 0.20711,0.36308 0.50725,0.59375 0.85546,0.59375 0.62576,0 1.35403,-0.3685 3.35547,-1.68946 l 3.98829,-2.59375 c -0.30179,1.24289 -0.52735,2.59378 -0.52735,3.29883 0,0.27317 0.0829,0.51754 0.22266,0.69532 0.13974,0.17777 0.33907,0.28906 0.56054,0.28906 0.23009,0 0.61299,-0.14541 1.12696,-0.38867 0.51397,-0.24327 1.14953,-0.58778 1.8457,-0.9961 1.39235,-0.81664 3.02426,-1.88831 4.38672,-2.91015 a 0.06444314,0.06444314 0 0 0 0.0234,-0.0352 l 0.28125,-1.19922 a 0.06444314,0.06444314 0 0 0 -0.0957,-0.0703 c -1.55976,0.91986 -2.59963,1.51978 -3.30273,1.88867 -0.7031,0.36889 -1.07298,0.50195 -1.26563,0.50195 -0.11538,0 -0.1975,-0.0573 -0.26562,-0.20312 -0.0681,-0.14581 -0.10938,-0.37871 -0.10938,-0.69336 0,-1.00441 0.36833,-3.00676 0.95313,-5.38477 0.5848,-2.37801 1.38479,-5.13575 2.24414,-7.67382 a 0.06444314,0.06444314 0 0 0 -0.0664,-0.0859 z m -73.95898,0.16015 c -0.0731,0 -0.16568,0.0255 -0.29492,0.0703 -0.12925,0.0448 -0.2924,0.10978 -0.48242,0.19336 -0.38006,0.16715 -0.8741,0.4077 -1.44727,0.70312 -1.14634,0.59084 -2.60682,1.40257 -4.08789,2.2832 a 0.06444314,0.06444314 0 0 0 -0.0293,0.041 l -0.24023,1.04101 a 0.06444314,0.06444314 0 0 0 0.0898,0.0723 c 1.2798,-0.57991 1.95973,-0.87922 2.36133,-1.0332 0.4016,-0.15399 0.51386,-0.16211 0.69141,-0.16211 0.24309,0 0.41602,0.203 0.41601,0.49609 0,0.40052 -0.18877,1.44705 -0.5039,2.83594 -0.31514,1.38889 -0.75608,3.12806 -1.25586,4.94727 l -0.91993,3.23828 c -0.0807,0.28253 -0.27851,1.04181 -0.55859,2.16211 a 0.06444314,0.06444314 0 0 0 0.0859,0.0762 l 3,-1.16016 a 0.06444314,0.06444314 0 0 0 0.0391,-0.0449 l 2.35352,-9.37305 c 2.4817,-1.56837 3.76155,-2.36759 4.48047,-2.76953 0.36079,-0.20171 0.58141,-0.30455 0.74218,-0.35547 0.16078,-0.0509 0.26118,-0.0527 0.40039,-0.0527 0.12455,0 0.21278,0.0416 0.27539,0.11719 0.0626,0.0756 0.0996,0.19054 0.0996,0.33984 0,0.57719 -0.31671,2.10465 -1.47656,6.66406 -0.88002,3.56008 -1.04297,4.24653 -1.04297,5.01563 0,0.57224 0.16581,1.10619 0.60938,1.83203 a 0.06444314,0.06444314 0 0 0 0.082,0.0254 c 1.84806,-0.84367 4.60947,-2.56453 7.41211,-4.64649 a 0.06444314,0.06444314 0 0 0 0.0234,-0.0351 l 0.28124,-1.1211 a 0.06444314,0.06444314 0 0 0 -0.0937,-0.0723 c -1.99996,1.13997 -3.04146,1.72975 -3.62891,2.0332 -0.29373,0.15173 -0.47397,0.23237 -0.60156,0.27344 -0.1276,0.0411 -0.20096,0.0449 -0.29883,0.0449 -0.17648,0 -0.31212,-0.0922 -0.41406,-0.26758 -0.10195,-0.17539 -0.16211,-0.43417 -0.16211,-0.74609 0,-0.82563 0.27938,-2.14545 1.03906,-4.9043 0.94,-3.36 1.40958,-5.04017 1.64453,-5.91601 0.11748,-0.43792 0.1752,-0.67489 0.20508,-0.82227 0.0299,-0.14737 0.0312,-0.20934 0.0312,-0.2793 0,-0.23361 -0.0764,-0.42653 -0.22656,-0.55468 -0.15022,-0.12815 -0.36682,-0.18946 -0.63672,-0.18946 -0.62587,0 -1.51148,0.36873 -2.95508,1.29102 l -5.34375,3.31445 c 0.17557,-0.65318 0.39364,-1.51859 0.57617,-2.30078 0.0975,-0.41765 0.18412,-0.80477 0.24609,-1.10742 0.062,-0.30265 0.0996,-0.51123 0.0996,-0.61133 0,-0.31675 -0.26693,-0.58594 -0.58398,-0.58594 z m 35.84961,0 c -1.63114,0 -4.19157,1.16836 -6.5586,2.9336 -2.58415,1.93811 -4.38476,6.11227 -4.38476,10.09179 0,1.23198 0.34357,2.24797 0.96094,2.95704 0.61736,0.70906 1.50818,1.10742 2.58398,1.10742 1.13532,0 2.26443,-0.40563 4.10742,-1.36719 a 0.06444314,0.06444314 0 0 0 0.002,0 c 2.00371,-1.12208 3.33073,-2.12458 4.06054,-3.09766 a 0.06444314,0.06444314 0 0 0 0.002,0 c 1.61241,-2.17676 2.89257,-6.10092 2.89257,-8.88086 0,-2.18946 -1.51522,-3.74414 -3.66601,-3.74414 z m -2.08008,2.00977 c 0.77907,0 1.40672,0.37551 1.84766,1.05078 0.44094,0.67527 0.68945,1.65271 0.68945,2.84375 0,1.66567 -0.55669,3.73917 -1.55273,5.69141 a 0.06444314,0.06444314 0 0 0 -0.002,0 c -1.11443,2.26867 -2.53651,3.48437 -4.02148,3.48437 -0.80062,0 -1.44771,-0.35759 -1.90235,-0.99805 -0.45464,-0.64045 -0.71289,-1.56706 -0.71289,-2.69726 0,-2.30649 0.72752,-4.65651 1.80078,-6.42578 1.07327,-1.76928 2.49034,-2.94922 3.85352,-2.94922 z m 53.51172,0.79883 c 0.37957,0 0.68595,0.17617 0.90625,0.50195 0.2203,0.32578 0.34961,0.80384 0.34961,1.39453 0,1.58711 -0.47998,3.98668 -1.15625,5.69727 -0.53776,1.33444 -1.15429,2.3266 -1.84961,2.98242 -0.69532,0.65581 -1.46619,0.97656 -2.33008,0.97656 -0.77457,0 -1.55336,-0.23189 -2.56445,-0.73242 l 2.10156,-8.44336 c 2.26568,-1.66766 3.65909,-2.37695 4.54297,-2.37695 z"
                            id="path27-3-7"
                            style="font-style:normal;font-variant:normal;font-weight:normal;font-stretch:normal;font-size:40px;line-height:1.25;font-family:'URW Chancery L';-inkscape-font-specification:'URW Chancery L';letter-spacing:0px;word-spacing:0px;display:inline;fill:#000000;fill-opacity:1;stroke:none"
                            transform="translate(3.1678478,3.6664253)"/>
                </g>
                <ellipse
                        ry="3.5907736"
                        rx="3.7797618"
                        cy="127.85564"
                        cx="167.44345"
                        id="path26"
                        style="display:inline;fill:#ff0000;stroke-width:0.264583"/>
            </g>
        </g>
    </g>
</svg>
