<?xml version="1.0" encoding="UTF-8" standalone="no"?>
<svg
   xmlns:dc="http://purl.org/dc/elements/1.1/"
   xmlns:cc="http://creativecommons.org/ns#"
   xmlns:rdf="http://www.w3.org/1999/02/22-rdf-syntax-ns#"
   xmlns:svg="http://www.w3.org/2000/svg"
   xmlns="http://www.w3.org/2000/svg"
   id="svg848"
   version="1.1"
   viewBox="0 0 113.56548 113.56548"
   height="100%"
   width="100%">
  <defs
     id="defs842" />
  <metadata
     id="metadata845">
    <rdf:RDF>
      <cc:Work
         rdf:about="">
        <dc:format>image/svg+xml</dc:format>
        <dc:type
           rdf:resource="http://purl.org/dc/dcmitype/StillImage" />
        <dc:title></dc:title>
      </cc:Work>
    </rdf:RDF>
  </metadata>
  <g
     transform="translate(-52.830376,-86.002968)"
     id="layer1">
    <circle
       style="opacity:1;fill:#000000;fill-opacity:1;stroke:#a50000;stroke-width:10;stroke-miterlimit:4;stroke-dasharray:none;stroke-opacity:1"
       r="51.782738"
       cy="142.78571"
       cx="109.61311"
       id="path10" />
    <rect
       rx="0"
       ry="0"
       y="110.65775"
       x="81.264755"
       height="28.222185"
       width="27.516598"
       id="rect6380"
       style="opacity:1;fill:#a50000;fill-opacity:1;stroke:#ff0000;stroke-width:0;stroke-miterlimit:4;stroke-dasharray:none;stroke-opacity:1" />
    <rect
       rx="0"
       ry="14.111093"
       y="145.93546"
       x="115.66078"
       height="28.222185"
       width="27.516598"
       id="rect6380-7"
       style="opacity:1;fill:#a50000;fill-opacity:1;stroke:#ff0000;stroke-width:0;stroke-miterlimit:4;stroke-dasharray:none;stroke-opacity:1" />
    <path
       id="path40"
       d="m 81.265359,174.15772 c 27.516461,0 27.516461,0 27.516461,0 L 95.023589,145.93551 Z"
       style="fill:#a50000;fill-opacity:1;stroke:#000000;stroke-width:0;stroke-linecap:butt;stroke-linejoin:miter;stroke-miterlimit:4;stroke-dasharray:none;stroke-opacity:1" />
    <g
       id="flowRoot849"
       style="font-style:normal;font-weight:normal;font-size:64px;line-height:1.25;font-family:sans-serif;letter-spacing:0px;word-spacing:0px;fill:#a50000;fill-opacity:1;stroke:none"
       transform="matrix(0.63764631,0,0,0.653997,401.19088,-175.66296)"
       aria-label="i">
      <path
         id="path5211"
         style="font-style:normal;font-variant:normal;font-weight:normal;font-stretch:normal;font-size:64px;font-family:'URW Chancery L';-inkscape-font-specification:'URW Chancery L';fill:#a50000;fill-opacity:1"
         d="m -424.512,448.4487 c 1.856,-1.664 1.984,-1.792 4.16,-3.456 -0.384,-0.768 -0.704,-1.28 -0.832,-1.472 -0.384,-0.768 -0.448,-0.832 -0.96,-2.048 -0.128,-0.256 -0.256,-0.512 -0.384,-0.832 -0.32,0.256 -0.704,0.512 -0.896,0.704 -0.256,0.256 -0.768,0.64 -1.408,1.152 -0.32,0.256 -0.768,0.576 -1.344,0.96 -0.256,0.192 -0.512,0.384 -0.768,0.512 0.448,1.408 1.024,2.432 2.432,4.48 z m 4.416,24.192 c -6.08,3.264 -6.208,3.328 -7.04,3.328 -0.704,0 -1.152,-0.704 -1.152,-1.792 0,-0.64 0.192,-1.856 0.576,-3.264 3.264,-13.44 3.904,-16 3.904,-16.512 0,-0.384 -0.32,-0.64 -0.768,-0.64 -1.088,0 -4.864,2.112 -10.112,5.632 l -0.128,1.792 c 3.776,-2.048 4.096,-2.176 4.672,-2.176 0.512,0 0.768,0.384 0.768,1.152 0,0.832 -0.192,1.728 -1.152,5.376 -3.008,11.2 -3.008,11.2 -3.008,12.8 0,1.536 0.64,2.56 1.536,2.56 1.088,0 2.816,-0.832 6.208,-3.008 1.216,-0.768 2.432,-1.536 3.648,-2.368 0.576,-0.32 1.152,-0.704 1.792,-1.088 z" />
    </g>
  </g>
</svg>
