<?xml version="1.0" encoding="UTF-8" standalone="no"?>
<svg
        xmlns:dc="http://purl.org/dc/elements/1.1/"
        xmlns:cc="http://creativecommons.org/ns#"
        xmlns:rdf="http://www.w3.org/1999/02/22-rdf-syntax-ns#"
        xmlns:svg="http://www.w3.org/2000/svg"
        xmlns="http://www.w3.org/2000/svg"
        xmlns:xlink="http://www.w3.org/1999/xlink"
        height="100%"
        width="100%"
        version="1.1"
        id="svg2"
        viewBox="0 0 41.400002 52.012501">
    <metadata
            id="metadata49">
        <rdf:RDF>
            <cc:Work
                    rdf:about="">
                <dc:format>image/svg+xml</dc:format>
                <dc:type
                        rdf:resource="http://purl.org/dc/dcmitype/StillImage"/>
                <dc:title>Document yellow</dc:title>
            </cc:Work>
        </rdf:RDF>
    </metadata>
    <defs
            id="0">
        <linearGradient
                id="linearGradient4435">
            <stop
                    id="stop4437"
                    stop-color="#fff"
                    stop-opacity="0.8"/>
            <stop
                    style="stop-color:#ffe680;stop-opacity:1"
                    id="stop4439"
                    offset="1"
                    stop-color="#fff"
                    stop-opacity="0"/>
        </linearGradient>
        <linearGradient
                id="linearGradient4429">
            <stop
                    style="stop-color:#ffe680;stop-opacity:1"
                    id="stop4431"
                    stop-color="#e9b96e"/>
            <stop
                    style="stop-color:#ffcc00;stop-opacity:1"
                    id="stop4433"
                    offset="1"
                    stop-color="#c17d11"/>
        </linearGradient>
        <linearGradient
                id="B">
            <stop
                    stop-color="#e9b96e"
                    id="U"/>
            <stop
                    stop-color="#c17d11"
                    offset="1"
                    id="V"/>
        </linearGradient>
        <linearGradient
                id="C">
            <stop
                    stop-opacity="0.8"
                    stop-color="#fff"
                    id="W"/>
            <stop
                    stop-opacity="0"
                    stop-color="#fff"
                    offset="1"
                    id="X"/>
        </linearGradient>
        <linearGradient
                id="D">
            <stop
                    stop-color="#2e3436"
                    id="Y"/>
            <stop
                    stop-opacity="0"
                    stop-color="#2e3436"
                    offset="1"
                    id="Z"/>
        </linearGradient>
        <radialGradient
                gradientTransform="matrix(1,0,0,0.09243698,0,44.229759)"
                gradientUnits="userSpaceOnUse"
                xlink:href="#D"
                id="E"
                r="21.856001"
                cy="48.735001"
                cx="25.712"/>
        <radialGradient
                gradientTransform="matrix(0.6174379,2.5604989,-3.7886681,0.9135993,49.367351,-37.86865)"
                gradientUnits="userSpaceOnUse"
                xlink:href="#linearGradient4429"
                id="F"
                r="16.219"
                cy="12.06"
                cx="13.559"/>
        <linearGradient
                gradientUnits="userSpaceOnUse"
                xlink:href="#C"
                id="G"
                y2="43.34"
                x2="0"
                y1="2.438"/>
        <radialGradient
                gradientTransform="matrix(1.9999999,2.0717464e-7,-2.1678585e-7,2.0927836,-34.124995,-9.2675658)"
                gradientUnits="userSpaceOnUse"
                xlink:href="#B"
                id="H"
                r="3.03"
                cy="8.6090002"
                cx="34.130001"/>
        <linearGradient
                gradientUnits="userSpaceOnUse"
                xlink:href="#linearGradient4435"
                id="I"
                y2="6.3629999"
                x2="36.533001"
                y1="8.75"
                x1="34.130001"/>
        <filter
                style="color-interpolation-filters:sRGB"
                id="J"
                height="1.302"
                width="1.321"
                y="-0.15099999"
                x="-0.16">
            <feGaussianBlur
                    id="a"
                    stdDeviation="0.5327"/>
        </filter>
        <filter
                id="filter4417"
                style="color-interpolation-filters:sRGB">
            <feFlood
                    id="feFlood4419"
                    result="flood"
                    flood-color="rgb(0,0,0)"
                    flood-opacity="0.498039"/>
            <feComposite
                    id="feComposite4421"
                    result="composite1"
                    operator="in"
                    in2="SourceGraphic"
                    in="flood"/>
            <feGaussianBlur
                    id="feGaussianBlur4423"
                    result="blur"
                    stdDeviation="1"
                    in="composite1"/>
            <feOffset
                    id="feOffset4425"
                    result="offset"
                    dy="1"
                    dx="1"/>
            <feComposite
                    id="feComposite4427"
                    result="composite2"
                    operator="over"
                    in2="offset"
                    in="SourceGraphic"/>
        </filter>
    </defs>
    <g
            style="display:inline"
            transform="translate(-3.3,2.9669999)"
            id="g4441">
        <g
                style="display:inline"
                id="g4468">
            <path
                    style="display:inline;fill:#ff6600;filter:url(#filter4417)"
                    id="2"
                    d="M 9.84375,1.367375 C 8.1263501,1.367375 6.75,2.7437253 6.75,4.461125 v 37.15625 c 0,1.7174 1.3763496,3.093751 3.09375,3.09375 h 28.3125 c 1.7174,0 3.09375,-1.376351 3.09375,-3.09375 V 8.398625 L 34.5,1.367375 Z"/>
            <path
                    id="3"
                    transform="translate(4.4958504e-8,0.148625)"
                    d="m 9.84375,2.25 c -1.1586131,0 -2.0625,0.903887 -2.0625,2.0625 v 37.15625 c 0,1.158614 0.9038868,2.062501 2.0625,2.0625 h 28.3125 c 1.158613,0 2.0625,-0.903888 2.0625,-2.0625 V 8.6875 L 34.0625,2.25 Z"
                    style="display:inline;fill:url(#F)"/>
            <g
                    id="5"
                    style="display:inline;fill:#683f00">
                <rect
                        style="fill:#ff6600"
                        id="P"
                        y="6.04"
                        x="11.5"
                        height="3"
                        width="25"/>
                <rect
                        style="fill:#ff6600"
                        id="Q"
                        y="24.040001"
                        x="11.5"
                        height="3"
                        width="25"/>
                <rect
                        style="fill:#ff6600"
                        id="R"
                        y="30.040001"
                        x="11.5"
                        height="3"
                        width="17.865"/>
                <rect
                        style="fill:#ff6600"
                        id="S"
                        y="36.040001"
                        x="11.5"
                        height="3"
                        width="23.285999"/>
                <g
                        id="T">
                    <rect
                            style="fill:#ff6600"
                            id="e"
                            y="12.04"
                            x="11.5"
                            height="3"
                            width="13.157"/>
                    <rect
                            style="fill:#ff6600"
                            id="f"
                            y="18.040001"
                            x="11.5"
                            height="3"
                            width="13.272"/>
                    <path
                            id="g"
                            d="m 31.651945,11.794995 c -2.120526,0.05576 -2.51948,1.58097 -2.406259,2.728341 0.01758,0.178185 0.10109,0.340679 0.233516,0.484819 0.01244,-0.113106 0.02942,-0.224364 0.05331,-0.333932 -0.0089,0.09724 -0.01269,0.196751 -0.01269,0.296828 0,0.923792 0.388878,1.739909 0.979766,2.22126 -0.03936,0.225828 -0.127942,0.418597 -0.2589,0.653021 l -2.213355,0.462556 c -1.07294,0.241886 -1.154119,1.730712 -1.081294,2.485931 9.5583,-0.02643 -0.01847,0.01556 9.553969,-0.01979 -0.03276,-0.825632 -0.152462,-2.293205 -1.243739,-2.520561 l -2.096598,-0.38835 c -1.57e-4,-0.0066 4.9e-4,-0.01319 0,-0.01979 L 33.030216,17.15026 c 0.563485,-0.485823 0.931538,-1.28101 0.931538,-2.179209 0,-0.0091 7.4e-5,-0.01816 0,-0.02721 0.0091,0.04526 0.01816,0.09001 0.02538,0.128625 0.120174,-0.157909 0.09199,-0.428232 0.124377,-0.640653 0.168523,-1.10527 -0.470126,-2.604256 -2.246353,-2.636819 -0.07203,-0.0013 -0.144806,-0.0018 -0.213212,0 z"
                            style="fill:#ff6600;fill-rule:evenodd"/>
                </g>
            </g>
            <path
                    id="6"
                    transform="translate(4.4958504e-8,0.148625)"
                    d="m 9.84375,2.75 c -0.8977312,0 -1.5625,0.6647689 -1.5625,1.5625 v 37.15625 c 0,0.897732 0.6647689,1.562501 1.5625,1.5625 h 28.3125 c 0.897731,0 1.5625,-0.66477 1.5625,-1.5625 V 8.84375 L 33.84375,2.75 Z"
                    style="display:inline;opacity:0.8;fill:none;stroke:url(#G);stroke-linecap:square;stroke-linejoin:round"/>
            <path
                    id="7"
                    d="m 32.25,2.40625 v 6.875 c 0,0.956611 0.676661,1.593751 1.71875,1.59375 h 6.25 V 9.0625 l -6.9375,-6.65625 z"
                    style="display:inline;opacity:0.16;fill:#2e3436;filter:url(#J)"/>
            <path
                    style="display:inline;fill:#d45500"
                    id="8"
                    d="m 33.125,1.375 v 6.3125 c -2e-6,1.158614 0.903887,2.062501 2.0625,2.0625 H 41.25 V 8.40625 L 34.5,1.375 Z"/>
            <path
                    id="9"
                    d="M 34.125,2.40625 V 7.6875 c -10e-7,0.6407004 0.421799,1.0625006 1.0625,1.0625 h 5 z"
                    style="display:inline;fill:url(#H)"/>
            <path
                    style="display:inline;opacity:0.8;fill:#ffcc00;stroke:url(#I);stroke-linecap:square"
                    id="A"
                    d="m 34.625,3.6875 v 4 c -10e-7,0.3773049 0.185194,0.5625003 0.5625,0.5625 h 3.84375 z"/>
        </g>
    </g>
</svg>
