<?xml version="1.0" encoding="UTF-8" standalone="no"?>
<svg
        xmlns:dc="http://purl.org/dc/elements/1.1/"
        xmlns:cc="http://creativecommons.org/ns#"
        xmlns:rdf="http://www.w3.org/1999/02/22-rdf-syntax-ns#"
        xmlns:svg="http://www.w3.org/2000/svg"
        xmlns="http://www.w3.org/2000/svg"
        xmlns:sodipodi="http://sodipodi.sourceforge.net/DTD/sodipodi-0.dtd"
        xmlns:inkscape="http://www.inkscape.org/namespaces/inkscape"
        id="Layer_1"
        enable-background="new 0 0 100 100"
        xml:space="preserve"
        viewBox="0 0 100 100"
        width="100%"
        height="100%"
        version="1.1"
        y="0px"
        x="0px"
        sodipodi:docname="upload.svg"
        inkscape:version="1.0 (b51213c273, 2020-08-10)"><defs
   id="defs11" />
    <sodipodi:namedview
            pagecolor="#ffffff"
            bordercolor="#666666"
            borderopacity="1"
            objecttolerance="10"
            gridtolerance="10"
            guidetolerance="10"
            inkscape:pageopacity="0"
            inkscape:pageshadow="2"
            inkscape:window-width="1848"
            inkscape:window-height="1009"
            id="namedview9"
            showgrid="false"
            inkscape:zoom="8.46"
            inkscape:cx="32.978723"
            inkscape:cy="50"
            inkscape:window-x="72"
            inkscape:window-y="34"
            inkscape:window-maximized="1"
            inkscape:current-layer="Layer_1"/>
    <path
            d="m 30.729,42.086823 c 5.941,-7.138 11.883,-14.276 17.824,-21.414 0.438,-0.524 0.951,-0.715 1.447,-0.681 0.496,-0.034 1.011,0.156 1.447,0.681 5.941,7.138 11.883,14.276 17.824,21.414 1.1,1.319 0.461,3.494 -1.446,3.494 h -7.479 v 32.386 c 0,1.116 -0.931,2.047 -2.047,2.047 H 41.701 c -1.116,0 -2.047,-0.931 -2.047,-2.047 v -32.386 h -7.479 c -1.907,0 -2.546,-2.175 -1.446,-3.494 z"
            id="path2"/>
    <path
            d="m50 100c27.614 0 50-22.386 50-50s-22.386-50-50-50-50 22.386-50 50 22.386 50 50 50zm0-92c23.196 0 42 18.804 42 42 0 23.195-18.804 42-42 42-23.195 0-42-18.805-42-42 0-23.196 18.805-42 42-42z"
            id="path4"/>
    <metadata
            id="metadata6"><rdf:RDF><cc:Work><dc:format>image/svg+xml</dc:format><dc:type
            rdf:resource="http://purl.org/dc/dcmitype/StillImage"/><cc:license
            rdf:resource="http://creativecommons.org/licenses/publicdomain/"/><dc:publisher><cc:Agent
           rdf:about="http://openclipart.org/"><dc:title>Openclipart</dc:title></cc:Agent></dc:publisher><dc:title>Download</dc:title><dc:date>2011-12-27T11:25:39</dc:date><dc:description/><dc:source>https://openclipart.org/detail/166618/download-by-mrtossum</dc:source><dc:creator><cc:Agent><dc:title>MrTossum</dc:title></cc:Agent></dc:creator><dc:subject><rdf:Bag><rdf:li>download</rdf:li><rdf:li>down</rdf:li><rdf:li>icon</rdf:li><rdf:li>arrow</rdf:li><rdf:li>network</rdf:li><rdf:li>Internet</rdf:li></rdf:Bag></dc:subject></cc:Work><cc:License
            rdf:about="http://creativecommons.org/licenses/publicdomain/"><cc:permits
         rdf:resource="http://creativecommons.org/ns#Reproduction" />
        <cc:permits
                rdf:resource="http://creativecommons.org/ns#Distribution"/>
        <cc:permits
                rdf:resource="http://creativecommons.org/ns#DerivativeWorks"/></cc:License></rdf:RDF></metadata></svg>
